<svg width="831" height="183" viewBox="0 0 831 183" xmlns="http://www.w3.org/2000/svg" xmlns:xlink="http://www.w3.org/1999/xlink"><title>Artboard</title><defs><path id="a" d="M37.99 74h37.992V0H0v74z"/></defs><g fill="none" fill-rule="evenodd"><g fill="#EF3E4A"><path d="M34.68 11h2.644c.005.885.01 1.773.018 2.658.885.009 1.774.009 2.658.018v2.644c-.884.009-1.769.013-2.658.022-.009.889-.013 1.773-.018 2.658h-2.648c-.01-.885-.01-1.769-.018-2.653-.885-.01-1.773-.018-2.658-.027v-2.644c.885-.01 1.769-.014 2.658-.018.004-.889.013-1.773.022-2.658M10.026 15.025c.083-4.894 4.673-9.18 9.666-9.017 2.392-.109 4.64.911 6.473 2.345a34.136 34.136 0 0 1-2.457 2.494c-2.203-1.492-5.335-1.918-7.538-.195-3.15 2.137-3.294 7.18-.263 9.48 2.947 2.622 8.518 1.32 9.332-2.694-1.846-.028-3.697 0-5.543-.06-.004-1.079-.01-2.158-.004-3.238 3.086-.009 6.172-.014 9.263.01.185 2.54-.158 5.243-1.75 7.343-2.41 3.324-7.25 4.295-11.025 2.87-3.79-1.414-6.474-5.338-6.154-9.338"/></g><g transform="translate(11 33)" fill="#EF3E4A"><path d="M12.879 2.162c3.204 0 3.583.012 4.849.07 1.17.054 1.805.249 2.228.413.521.193.993.5 1.38.898.398.387.705.859.897 1.38.165.423.36 1.058.414 2.228.057 1.265.07 1.645.07 4.85 0 3.203-.013 3.583-.07 4.848-.054 1.17-.25 1.806-.414 2.229a3.974 3.974 0 0 1-2.277 2.277c-.423.164-1.058.36-2.228.413-1.265.058-1.645.07-4.85.07-3.204 0-3.583-.012-4.848-.07-1.17-.053-1.806-.249-2.229-.413a3.718 3.718 0 0 1-1.38-.898 3.718 3.718 0 0 1-.897-1.38c-.164-.422-.36-1.058-.413-2.228-.058-1.265-.07-1.645-.07-4.849s.012-3.583.07-4.849c.053-1.17.249-1.805.413-2.228.192-.521.5-.993.898-1.38a3.718 3.718 0 0 1 1.38-.898c.422-.164 1.058-.36 2.228-.413 1.265-.058 1.645-.07 4.849-.07zm0-2.162C9.619 0 9.21.014 7.93.072 6.654.131 5.781.333 5.018.63c-.8.301-1.526.774-2.125 1.384A5.882 5.882 0 0 0 1.509 4.14c-.297.763-.5 1.635-.558 2.912C.893 8.332.88 8.741.88 12c0 3.26.014 3.668.072 4.948.059 1.277.261 2.15.558 2.912.301.801.774 1.526 1.384 2.126.6.61 1.325 1.083 2.126 1.384.763.297 1.635.5 2.912.558 1.28.058 1.689.072 4.948.072 3.259 0 3.668-.014 4.947-.072 1.278-.059 2.15-.261 2.913-.558a6.136 6.136 0 0 0 3.51-3.51c.296-.763.5-1.635.558-2.912.058-1.28.072-1.689.072-4.948 0-3.259-.014-3.668-.072-4.948-.059-1.277-.262-2.15-.558-2.912a5.882 5.882 0 0 0-1.384-2.126A5.882 5.882 0 0 0 20.739.63c-.763-.297-1.635-.5-2.913-.558C16.546.014 16.138 0 12.88 0z"/><path d="M12.879 7a5 5 0 1 0 0 10 5 5 0 0 0 0-10zm0 8.246a3.246 3.246 0 1 1 0-6.492 3.246 3.246 0 0 1 0 6.492z"/><circle cx="19.282" cy="6.596" r="1.44"/></g><path d="M39 72.604a11.82 11.82 0 0 1-3.299.875 5.624 5.624 0 0 0 2.527-3.073 11.77 11.77 0 0 1-3.648 1.347A5.833 5.833 0 0 0 30.387 70c-3.173 0-5.746 2.486-5.746 5.553 0 .435.051.86.149 1.266-4.774-.232-9.009-2.442-11.84-5.802a5.39 5.39 0 0 0-.777 2.792c0 1.927 1.013 3.626 2.554 4.622a5.873 5.873 0 0 1-2.602-.695v.071c0 2.69 1.981 4.936 4.606 5.445a5.954 5.954 0 0 1-2.592.096c.73 2.207 2.853 3.813 5.364 3.857a11.762 11.762 0 0 1-7.133 2.377c-.462 0-.918-.025-1.37-.076A16.672 16.672 0 0 0 19.806 92c10.566 0 16.345-8.464 16.345-15.802 0-.242-.005-.48-.018-.72A11.429 11.429 0 0 0 39 72.605M28 112.448h-3.407v-2.387c0-.897.557-1.106.948-1.106h2.403v-3.942l-3.31-.013c-3.674 0-4.509 2.94-4.509 4.82v2.628H18v4.06h2.125V128h4.468v-11.492h3.016l.391-4.06z" fill="#EF3E4A"/><g transform="translate(51 9)" fill="#000"><rect width="35" height="3" rx="1.5"/><rect y="27" width="35" height="3" rx="1.5"/><rect y="14" width="35" height="3" rx="1.5"/></g><g transform="translate(54 47)" fill="#000"><rect transform="rotate(45 13.5 13.5)" x="-4" y="12" width="35" height="3" rx="1.5"/><rect transform="rotate(135 13.5 13.5)" x="-4" y="12" width="35" height="3" rx="1.5"/></g><g fill="#EF3E4A"><path d="M123.182 19.99a.962.962 0 0 0 .238 1.347.968.968 0 0 0 .726.16l3.368-.818a.965.965 0 0 0 .787-1.121c-.093-.525-.596-.875-1.155-.778l-3.337.813a.966.966 0 0 0-.627.398M120.159 14.923a.964.964 0 0 0 .738-.338l2.224-2.457a.958.958 0 0 0 .224-.706.97.97 0 0 0-1.699-.55l-2.23 2.462a.967.967 0 0 0 .743 1.589M112.5 12.32a.97.97 0 0 0 .97-.967V7.967a.97.97 0 0 0-1.94 0v3.386a.97.97 0 0 0 .97.967M104.103 14.585a.97.97 0 0 0 .738.337.97.97 0 0 0 .966-.882.967.967 0 0 0-.235-.72l-2.207-2.436a.975.975 0 0 0-1.367-.119.967.967 0 0 0-.108 1.376l2.213 2.444z"/><path d="M117.959 27.314h-11.403a6.965 6.965 0 0 1-1.336-4.111c0-3.874 3.151-7.013 7.037-7.013s7.037 3.14 7.037 7.013a6.965 6.965 0 0 1-1.335 4.11m9.829 0h-7.554a8.885 8.885 0 0 0 1.001-4.11c0-4.942-4.02-8.948-8.978-8.948s-8.978 4.006-8.978 8.948c0 1.482.362 2.88 1.002 4.11h-7.31a.969.969 0 0 0-.971.968c0 .535.435.967.97.967h30.818c.536 0 .97-.432.97-.967a.969.969 0 0 0-.97-.967M97.468 20.675l3.386.823a.98.98 0 0 0 .725-.16.96.96 0 0 0 .399-.624.958.958 0 0 0-.16-.724.944.944 0 0 0-.596-.39l-3.399-.827a.974.974 0 0 0-1.124.785.97.97 0 0 0 .77 1.117"/></g><g transform="translate(96 39)" stroke="#EF3E4A" stroke-width="2" stroke-linecap="round" stroke-linejoin="round"><ellipse cx="15.712" cy="5.674" rx="4.793" ry="4.814"/><path d="M24.858 20.205c0-5.16-4.017-9.345-8.969-9.345-4.954 0-8.97 4.185-8.97 9.345M9.526 8.4a3.76 3.76 0 0 1-2.748 1.19A3.787 3.787 0 0 1 3 5.794 3.787 3.787 0 0 1 6.778 2c.931 0 1.784.339 2.442.9"/><path d="M4.934 17.366H0C0 13.299 3.166 10 7.07 10a6.83 6.83 0 0 1 3.736 1.11M22 8.4a3.76 3.76 0 0 0 2.748 1.19c2.087 0 3.778-1.7 3.778-3.795A3.787 3.787 0 0 0 24.748 2c-.931 0-1.784.339-2.442.9M25.872 17.366h4.934c0-4.067-3.166-7.366-7.071-7.366A6.83 6.83 0 0 0 20 11.11"/></g><path d="M124.279 89.642h-3.637c0-.053.006-.107.006-.16a5.261 5.261 0 0 0-5.251-5.262c-2.9 0-5.252 2.363-5.252 5.262 0 .053.006.107.006.16H97.662V71.665h26.617v17.977zm-8.882 3.437a3.596 3.596 0 0 1-3.59-3.597 3.596 3.596 0 0 1 3.59-3.596c1.98 0 3.59 1.612 3.59 3.596a3.596 3.596 0 0 1-3.59 3.597zm1.096 4.417l-.595-.455a.83.83 0 0 0-1.002 0l-.595.455v-2.864c.719.153 1.479.153 2.198 0v2.864h-.006zM125.11 70H96.831a.83.83 0 0 0-.831.833v19.641c0 .461.371.833.831.833h13.639a5.323 5.323 0 0 0 2.163 2.64v5.214c0 .32.176.603.46.745a.82.82 0 0 0 .872-.083l1.432-1.08 1.432 1.08c.147.112.595.212.872.083a.827.827 0 0 0 .46-.745v-5.214a5.312 5.312 0 0 0 2.163-2.646h4.792a.83.83 0 0 0 .831-.832V70.833a.84.84 0 0 0-.837-.833z" fill="#EF3E4A"/><path d="M108.637 75.598h12.636a.83.83 0 0 0 .831-.832.83.83 0 0 0-.83-.833h-12.637a.83.83 0 0 0-.831.833c0 .46.37.832.83.832M100.674 83.453h20.6a.83.83 0 0 0 .83-.833.83.83 0 0 0-.83-.833h-20.6a.83.83 0 0 0-.831.833c0 .46.371.833.83.833M100.674 87.38h7.803a.83.83 0 0 0 .831-.833.83.83 0 0 0-.83-.832h-7.804a.83.83 0 0 0-.831.832.827.827 0 0 0 .83.833M108.454 79.526h12.82a.83.83 0 0 0 .83-.833.83.83 0 0 0-.83-.833h-12.82a.83.83 0 0 0-.831.833.827.827 0 0 0 .83.833M102.193 74.402h-.472c-.28 0-.487.03-.62.091-.132.061-.243.182-.332.363-.09.18-.144.395-.164.644h-.467V73.9h5.61V75.5h-.467c-.089-.431-.213-.722-.373-.872-.16-.15-.414-.226-.764-.226h-.484v3.968c0 .257.044.436.13.536.087.101.27.152.548.152h.145v.46h-3.096v-.46h.132c.281 0 .464-.052.548-.156.084-.103.126-.28.126-.532v-3.968z" fill="#EF3E4A"/><path d="M102.193 74.402h-.472c-.28 0-.487.03-.62.091-.132.061-.243.182-.332.363-.09.18-.144.395-.164.644h-.467V73.9h5.61V75.5h-.467c-.089-.431-.213-.722-.373-.872-.16-.15-.414-.226-.764-.226h-.484v3.968c0 .257.044.436.13.536.087.101.27.152.548.152h.145v.46h-3.096v-.46h.132c.281 0 .464-.052.548-.156.084-.103.126-.28.126-.532v-3.968z" stroke="#EF3E4A" stroke-linejoin="round"/><g fill="#EF3E4A"><path d="M120.76 115.594c.46 0 .83-.35.83-.781v-7.032c0-.431-.37-.781-.83-.781h-3.736c-.459 0-.83.35-.83.781v2.344h-2.077v-2.344c0-.431-.372-.781-.83-.781h-4.983c-.458 0-.83.35-.83.781v2.344h-2.076v-2.344c0-.431-.372-.781-.83-.781h-3.738c-.458 0-.83.35-.83.781v7.031c0 .432.372.782.83.782h19.93zm-19.1-1.563v-5.469h2.077v2.344c0 .432.372.781.83.781h3.737c.459 0 .83-.35.83-.78v-2.344h3.322v2.343c0 .432.372.781.83.781h3.738c.458 0 .83-.35.83-.78v-2.344h2.076v5.468h-18.27zM107.059 123.406c0-1.726 1.487-3.125 3.322-3.125h.829c1.835 0 3.322 1.399 3.322 3.125v7.813c0 .431.372.781.83.781.46 0 .831-.35.831-.781v-7.813c0-2.59-2.23-4.687-4.983-4.687h-.829c-2.752 0-4.983 2.098-4.983 4.687v7.813c0 .431.372.781.83.781.459 0 .83-.35.83-.781v-7.813z"/><path d="M116.193 130.438v-7.032c0-1.147.657-2.15 1.637-2.693.494-.274.855-.354.855-.354v10.079h-2.492zm4.153.78V119.5c0-.431-.372-.781-.83-.781-2.752 0-4.984 2.098-4.984 4.687v7.813c0 .431.372.781.83.781h4.154c.458 0 .83-.35.83-.781z"/><path d="M120.025 123.632a.75.75 0 0 0 .145-1.096.866.866 0 0 0-1.165-.137l-3.737 2.734a.75.75 0 0 0-.146 1.097.866.866 0 0 0 1.166.137l3.737-2.735zM120.025 127.539a.75.75 0 0 0 .145-1.097.866.866 0 0 0-1.165-.137l-3.737 2.735a.75.75 0 0 0-.146 1.096.866.866 0 0 0 1.166.137l3.737-2.734zM106.23 132c.458 0 .83-.35.83-.781v-7.813c0-2.589-2.232-4.687-4.984-4.687-.459 0-.83.35-.83.781v11.719c0 .431.371.781.83.781h4.153zm-3.324-1.563v-10.06c1.43.345 2.493 1.57 2.493 3.03v7.03h-2.493zM117.439 119.5c0 .431.372.781.83.781.459 0 .83-.35.83-.781v-4.688c0-.431-.371-.78-.83-.78-.458 0-.83.349-.83.78v4.688z"/><path d="M104.152 114.813c0-.432-.372-.782-.83-.782-.459 0-.83.35-.83.781v4.688c0 .431.371.781.83.781.458 0 .83-.35.83-.781v-4.688zM103.001 122.399a.866.866 0 0 0-1.165.137.75.75 0 0 0 .145 1.096l3.737 2.735a.866.866 0 0 0 1.166-.137.75.75 0 0 0-.146-1.097l-3.737-2.734zM103.001 126.305a.866.866 0 0 0-1.165.137.75.75 0 0 0 .145 1.097l3.737 2.734a.866.866 0 0 0 1.166-.137.75.75 0 0 0-.146-1.096l-3.737-2.735z"/></g><path d="M121.223 164.041h-6.23v-8.704a.85.85 0 0 0-.85-.85h-6.365a.85.85 0 0 0-.85.85v8.704h-6.23v-11.963l10.264-8.144 10.261 8.144v11.963zm-7.928 0h-4.668v-7.855h4.668v7.855zm9.305-13.04l-11.11-8.816a.847.847 0 0 0-1.057 0L99.323 151a.843.843 0 0 0-.323.666v13.223c0 .469.38.85.85.85h22.222a.85.85 0 0 0 .85-.85v-13.223a.85.85 0 0 0-.322-.666z" fill="#EF3E4A"/><g fill-rule="nonzero" fill="#EF3E4A"><path d="M158.032 17.588c.312 0 .624-.054.988-.107 2.34-.534 3.848-2.992 3.328-5.396-.26-1.176-.936-2.191-1.924-2.832a4.304 4.304 0 0 0-3.328-.588c-2.34.534-3.848 2.992-3.328 5.396a4.317 4.317 0 0 0 4.264 3.527zm1.453-6.903a2.809 2.809 0 0 1 1.222 1.788 2.903 2.903 0 0 1-2.116 3.43c-1.504.338-2.962-.628-3.338-2.174a2.903 2.903 0 0 1 2.116-3.43c.188-.049.423-.049.611-.049.564 0 1.082.145 1.505.435z"/><path d="M161.204 17.763h-6.396c-1.872 0-3.38 1.55-3.38 3.473v10.045c0 1.656 1.144 3.045 2.704 3.366v3.06c0 .374.312.695.676.695.364 0 .676-.32.676-.695V34.06c0-.374-.312-.695-.676-.695-1.144 0-2.028-.961-2.028-2.083V21.236c0-1.175.936-2.084 2.028-2.084h6.396c1.144 0 2.028.962 2.028 2.084v10.045c0 1.175-.936 2.083-2.028 2.083-.364 0-.676.32-.676.695v3.648c0 .374.312.695.676.695.364 0 .676-.32.676-.695v-3.06c1.56-.321 2.704-1.71 2.704-3.366V21.236c0-1.923-1.508-3.473-3.38-3.473z" stroke="#EF3E4A" stroke-width=".25"/><path d="M143.888 23.732c-1.404 0-2.704-1.015-3.016-2.458-.156-.801-.052-1.656.416-2.404.416-.695 1.144-1.229 1.924-1.39.78-.16 1.612-.053 2.34.428.728.481 1.196 1.176 1.352 1.977.156.802.052 1.656-.416 2.404-.416.695-1.144 1.23-1.924 1.39-.208 0-.416.053-.676.053zm0-4.969c-.104 0-.26 0-.364.054a1.674 1.674 0 0 0-1.092.801 1.76 1.76 0 0 0-.208 1.336 1.733 1.733 0 0 0 2.08 1.335 1.674 1.674 0 0 0 1.092-.801 1.76 1.76 0 0 0 .208-1.336 1.717 1.717 0 0 0-.78-1.122 1.76 1.76 0 0 0-.936-.267z"/><path d="M145.968 38.402c-.364 0-.676-.32-.676-.695v-4.182c0-.374.312-.695.676-.695.572 0 1.092-.48 1.092-1.122v-5.663c0-.588-.468-1.122-1.092-1.122h-4.16c-.572 0-1.092.48-1.092 1.122v5.716c0 .588.468 1.122 1.092 1.122.364 0 .676.321.676.695v4.183c0 .374-.312.694-.676.694-.364 0-.676-.32-.676-.694v-3.595c-.988-.32-1.768-1.23-1.768-2.405v-5.716c0-1.39 1.092-2.458 2.392-2.458h4.16c1.352 0 2.392 1.122 2.392 2.458v5.716a2.508 2.508 0 0 1-1.768 2.405v3.595c.104.32-.208.64-.572.64z" stroke="#EF3E4A" stroke-width=".25"/></g><path d="M145.31 45.263c-1.436.082-2.431.291-3.71.62v.881c-.858-.06-1.845.294-2.347.807a.93.93 0 0 0-.253.628v16.859c0 .472.413.9.867.9h24.266c.454 0 .867-.428.867-.9V48.199a.93.93 0 0 0-.253-.628c-.732-.633-1.524-.863-2.347-.807v-.882c-1.417-.37-2.966-.64-4.269-.619-2.372.054-4.263.849-6.131 1.792-2.01-1.015-4.053-1.864-6.69-1.792zm.515 1.773c2.011.016 3.55.685 5.308 1.576v12.393c-2.699-1.098-5.109-1.064-7.8.038V47.327c.879-.177 1.67-.28 2.492-.29zm12.404.019c.739-.002 1.539.081 2.438.272v13.716c-2.691-1.102-5.101-1.136-7.8-.038V48.612c1.77-.895 3.33-1.553 5.362-1.557zM141.6 48.593V63.81c3.467-1.989 6.644-2.289 9.533-.882v1.23h-10.4v-15.48c.308-.147.565-.137.867-.085zm21.667.085v15.48h-10.4v-1.23c2.889-1.407 6.066-1.107 9.533.882V48.593c.303-.094.595-.014.867.085z" fill-rule="nonzero" fill="#EF3E4A"/><g fill="#EF3E4A"><path d="M152.464 79.147V75.03c0-1.372 2.072-1.372 2.072 0v4.118h2.071c.572 0 1.036.46 1.036 1.03v3.602c0 .569-.464 1.03-1.036 1.03v4.117c0 3.327.659 6.274 2.5 10.391.47 1.05 1.018 2.1 1.63 3.14a38.912 38.912 0 0 0 3.11 4.506c.136.168.231.282.279.338a1.025 1.025 0 0 1-.113 1.451 1.04 1.04 0 0 1-1.46-.111 34.726 34.726 0 0 1-1.138-1.44 40.953 40.953 0 0 1-2.465-3.705 33.791 33.791 0 0 1-1.736-3.343c-1.956-4.375-2.678-7.605-2.678-11.227V84.81h-2.072v4.117c0 3.622-.722 6.852-2.678 11.227a33.791 33.791 0 0 1-1.736 3.343 40.953 40.953 0 0 1-3.282 4.756c-.15.186-.26.317-.32.389a1.04 1.04 0 0 1-1.461.111 1.025 1.025 0 0 1-.113-1.451c.048-.056.143-.17.28-.338a38.912 38.912 0 0 0 3.109-4.506 31.752 31.752 0 0 0 1.63-3.14c1.841-4.117 2.5-7.064 2.5-10.39v-4.118c-.572 0-1.036-.461-1.036-1.03v-3.603c0-.568.464-1.029 1.036-1.029h2.071zm3.107 2.059h-4.142v1.544h4.142v-1.544z"/><path d="M149.875 92.015c-1.381 0-1.381 2.059 0 2.059h7.25c1.381 0 1.381-2.06 0-2.06h-7.25zm-2.59 7.206c-1.38 0-1.38 2.058 0 2.058h12.43c1.38 0 1.38-2.058 0-2.058h-12.43zm-7.25 9.779h26.93c.571 0 1.035-.46 1.035-1.03 0-.568-.464-1.029-1.036-1.029h-26.928c-.572 0-1.036.461-1.036 1.03 0 .568.464 1.029 1.036 1.029z"/><path d="M158.679 107.97c0-2.842-2.319-5.146-5.179-5.146-2.86 0-5.179 2.304-5.179 5.147 0 .568.464 1.029 1.036 1.029.572 0 1.036-.46 1.036-1.03a3.098 3.098 0 0 1 3.107-3.088 3.098 3.098 0 0 1 3.107 3.089c0 .568.464 1.029 1.036 1.029.572 0 1.036-.46 1.036-1.03z"/></g><path d="M153.5 143.71c-.338 0-.657-.156-.867-.424-.353-.449-8.633-11.058-8.633-17.116 0-5.307 4.262-9.625 9.5-9.625s9.5 4.318 9.5 9.625c0 6.044-8.28 16.666-8.633 17.115-.21.268-.53.424-.867.424zm0-24.919c-4.016 0-7.283 3.31-7.283 7.38 0 3.896 4.659 11.018 7.282 14.573 2.624-3.559 7.284-10.686 7.284-14.574 0-4.069-3.267-7.379-7.283-7.379zm0 11.809c-2.41 0-4.372-1.987-4.372-4.43 0-2.442 1.961-4.429 4.372-4.429 2.41 0 4.372 1.987 4.372 4.43 0 2.442-1.962 4.429-4.372 4.429zm0-6.613c-1.188 0-2.155.98-2.155 2.183 0 1.204.967 2.184 2.155 2.184 1.188 0 2.155-.98 2.155-2.184 0-1.204-.967-2.183-2.155-2.183z" fill-rule="nonzero" fill="#EF3E4A"/><g transform="translate(39 84)" fill="#242526"><path d="M23.5 47C10.521 47 0 36.479 0 23.5S10.521 0 23.5 0 47 10.521 47 23.5 36.479 47 23.5 47zm0-2C35.374 45 45 35.374 45 23.5S35.374 2 23.5 2 2 11.626 2 23.5 11.626 45 23.5 45z" fill-rule="nonzero"/><rect transform="scale(-1 1) rotate(-45 0 75.441)" x="21.596" y="16.389" width="2" height="9" rx="1"/><rect transform="scale(-1 1) rotate(45 0 -28.713)" x="21.596" y="21.339" width="2" height="9" rx="1"/></g><g transform="translate(39 132)" fill="#242526"><path d="M23.5 47C10.521 47 0 36.479 0 23.5S10.521 0 23.5 0 47 10.521 47 23.5 36.479 47 23.5 47zm0-2C35.374 45 45 35.374 45 23.5S35.374 2 23.5 2 2 11.626 2 23.5 11.626 45 23.5 45z" fill-rule="nonzero"/><rect transform="rotate(-45 24.546 20.89)" x="23.546" y="16.389" width="2" height="9" rx="1"/><rect transform="rotate(45 24.546 25.839)" x="23.546" y="21.339" width="2" height="9" rx="1"/></g><path d="M248.889 34.11l-24.393-12.172a2.153 2.153 0 0 0-2.881.965 2.156 2.156 0 0 0 .964 2.886l21.48 10.718-21.941 10.887-21.746-11.062c-.288-.293-.673-.465-1.09-.554l-11.467-5.833 34.303-16.862 35.167 16.862-8.396 4.166zm-7.905 25.041c-20.243 13.578-36.591.7-39.992-2.352V41.472l20.141 10.246a2.15 2.15 0 0 0 1.927.01l17.924-8.894V59.15zm22.13-31.18L223.032 8.753a2.131 2.131 0 0 0-1.872.01l-39.097 19.218a2.15 2.15 0 0 0-.028 3.847l14.663 7.46v18.441c0 .567.223 1.114.622 1.517.147.147 10.41 10.246 25.316 10.245 6.509 0 13.907-1.928 21.732-7.45.57-.404.91-1.059.91-1.758v-19.58l2.504-1.242v15.446a2.147 2.147 0 1 0 4.295 0V37.33l11.065-5.49a2.154 2.154 0 0 0-.028-3.868z" fill-rule="nonzero" fill="#EF3E4A"/><g fill-rule="nonzero" fill="#EF3E4A"><path d="M220.35 138.95h13.8v-9.3h-13.8v9.3zm3-6.3h7.8v3.3h-7.8v-3.3zM193.95 134.45h13.8v-9.3h-13.8v9.3zm3-6.3h7.8v3.3h-7.8v-3.3zM260.7 125.15h-13.8v9.3h13.8v-9.3zm-3 6.3h-7.8v-3.3h7.8v3.3zM193.95 152.6h13.8v-13.8h-13.8v13.8zm10.8-3h-2.4v-7.8h2.4v7.8zm-7.8-7.8h2.4v7.8h-2.4v-7.8zM260.7 138.8h-13.8v13.8h13.8v-13.8zm-10.8 3h2.4v7.8h-2.4v-7.8zm7.8 7.8h-2.4v-7.8h2.4v7.8z"/><path d="M268.2 122.15h6.45l-10.2-18.9h-57v-10.8h-9.3v10.8h-8.1L180 122.15h6.45v36.45h-3.9v3h28.2v4.5h33v-4.5h28.2v-3h-3.9v-36.45h.15zm-67.05-26.7h3.3v7.8h-3.3v-7.8zm-16.2 23.7l6.9-12.9h70.65l6.9 12.9h-33.9l-8.25-6.15-8.25 6.15H184.95zm4.35 39.45v-36.45h25.65l-4.35 3.15v33.3h-21.3zm34.05 4.5v-16.2h7.8v16.2h-7.8zm17.55 0h-6.6v-19.2h-13.8v19.2h-6.6v-36.3l13.5-10.05 13.5 10.05v36.3zm-1.35-40.95h25.65v36.45h-21.3v-33.3l-4.35-3.15z"/></g><g fill="#EF3E4A"><path d="M368.884 76.74a1.585 1.585 0 0 1-1.32.697h-14.057l2.092-15.822a4.971 4.971 0 0 0-1.17-3.91 4.886 4.886 0 0 0-3.691-1.687H334.13l7.962-12.84 15.275 5.164a4.878 4.878 0 0 1 3.03 2.975l8.683 23.9a1.658 1.658 0 0 1-.196 1.523zm-50.572 3.993l-2.586-19.554c-.065-.478.074-.941.389-1.304a1.609 1.609 0 0 1 1.23-.562h33.393c.479 0 .915.2 1.23.562.316.363.455.826.391 1.305l-2.587 19.553h-31.46zm-19.428-3.296a1.587 1.587 0 0 1-1.319-.697 1.653 1.653 0 0 1-.194-1.524l8.682-23.897a4.875 4.875 0 0 1 3.03-2.977l15.275-5.164 7.96 12.84h-14.972a4.886 4.886 0 0 0-3.69 1.687 4.975 4.975 0 0 0-1.171 3.909l2.092 15.823h-15.693zm39.458-34.429l-5.117 8.253-5.345-8.618c1.6 1.05 3.396 1.662 5.345 1.662 1.847 0 3.566-.46 5.117-1.297zm-5.117-26.713c5.406 0 9.808 4.436 9.808 9.886 0 8.593-4.125 14.829-9.808 14.829-5.041 0-9.807-7.207-9.807-14.829 0-5.45 4.398-9.886 9.807-9.886zm7.906 24.725l-.077-.048c.05-.05.1-.1.148-.152-.026.066-.044.135-.071.2zm31.019 33.065l-8.684-23.901c-.86-2.361-2.705-4.172-5.06-4.968l-16.24-5.488c2.58-3.243 4.136-7.983 4.136-13.547 0-7.268-5.866-13.181-13.077-13.181-7.212 0-13.076 5.913-13.076 13.181 0 4.782 1.672 9.865 4.486 13.427l-16.591 5.608c-2.357.796-4.2 2.607-5.06 4.97L294.3 74.085a4.99 4.99 0 0 0 .584 4.544 4.877 4.877 0 0 0 4 2.104h13.091v1.649c0 .91.731 1.646 1.633 1.646h40.869c.899 0 1.63-.735 1.63-1.643v-1.652h11.457c1.59 0 3.086-.788 4-2.104a4.995 4.995 0 0 0 .585-4.544z" fill-rule="nonzero"/><path d="M314.733 151.355a2.536 2.536 0 0 1-2.533-2.534 2.536 2.536 0 0 1 2.533-2.533 2.536 2.536 0 0 1 2.533 2.533 2.536 2.536 0 0 1-2.533 2.534zm0-8.445a5.917 5.917 0 0 0-5.911 5.911 5.917 5.917 0 0 0 5.911 5.911 5.917 5.917 0 0 0 5.911-5.91 5.917 5.917 0 0 0-5.911-5.912zm16.889 8.445a2.536 2.536 0 0 1-2.534-2.534 2.536 2.536 0 0 1 2.534-2.533 2.536 2.536 0 0 1 2.533 2.533 2.536 2.536 0 0 1-2.533 2.534zm0-8.445a5.917 5.917 0 0 0-5.911 5.911 5.917 5.917 0 0 0 5.91 5.911 5.917 5.917 0 0 0 5.912-5.91 5.917 5.917 0 0 0-5.911-5.912zm19.421-10.977a2.536 2.536 0 0 1-2.533 2.533 2.536 2.536 0 0 1-2.533-2.533 2.536 2.536 0 0 1 2.533-2.534 2.536 2.536 0 0 1 2.533 2.534zm-8.444 0a5.917 5.917 0 0 0 5.911 5.91 5.917 5.917 0 0 0 5.911-5.91 5.917 5.917 0 0 0-5.91-5.911 5.917 5.917 0 0 0-5.912 5.91zm-10.977 2.533a2.536 2.536 0 0 1-2.534-2.533 2.536 2.536 0 0 1 2.534-2.534 2.536 2.536 0 0 1 2.533 2.534 2.536 2.536 0 0 1-2.533 2.533zm0-8.444a5.917 5.917 0 0 0-5.911 5.91 5.917 5.917 0 0 0 5.91 5.912 5.917 5.917 0 0 0 5.912-5.911 5.917 5.917 0 0 0-5.911-5.911zm-16.889 8.444a2.536 2.536 0 0 1-2.533-2.533 2.536 2.536 0 0 1 2.533-2.534 2.536 2.536 0 0 1 2.533 2.534 2.536 2.536 0 0 1-2.533 2.533zm0-8.444a5.917 5.917 0 0 0-5.911 5.91 5.917 5.917 0 0 0 5.911 5.912 5.917 5.917 0 0 0 5.911-5.911 5.917 5.917 0 0 0-5.911-5.911zm29.555-21.111a2.536 2.536 0 0 1 2.533-2.533 2.536 2.536 0 0 1 2.534 2.533v5.067a2.536 2.536 0 0 1-2.534 2.533 2.536 2.536 0 0 1-2.533-2.533v-5.067zm-28.71 0a2.536 2.536 0 0 1 2.533-2.533 2.536 2.536 0 0 1 2.533 2.533v5.067a2.536 2.536 0 0 1-2.533 2.533 2.536 2.536 0 0 1-2.534-2.533v-5.067zm-15.2 7.6a3.381 3.381 0 0 1 3.377-3.378h8.445v.845a5.917 5.917 0 0 0 5.91 5.91 5.917 5.917 0 0 0 5.912-5.91v-.845h16.888v.845a5.917 5.917 0 0 0 5.911 5.91 5.917 5.917 0 0 0 5.911-5.91v-.845h6.756a3.381 3.381 0 0 1 3.377 3.378v6.755h-62.487v-6.755zm62.487 29.498v-19.365h-62.487v35.466a3.381 3.381 0 0 0 3.377 3.378h39.228c-2.529-5.46-1.542-12.147 2.96-16.65a14.71 14.71 0 0 1 10.439-4.324c2.222 0 4.444.498 6.483 1.495zm3.378 2.28c.197.178.39.36.58.55 5.765 5.766 5.765 15.114 0 20.88a14.718 14.718 0 0 1-10.441 4.324 14.717 14.717 0 0 1-10.439-4.325c-.276-.276-.54-.56-.79-.853h-41.398A6.762 6.762 0 0 1 297 158.11v-45.6a6.762 6.762 0 0 1 6.755-6.755h8.445v-.844A5.917 5.917 0 0 1 318.11 99a5.917 5.917 0 0 1 5.912 5.911v.844h16.888v-.844A5.917 5.917 0 0 1 346.821 99a5.917 5.917 0 0 1 5.911 5.911v.844h6.756a6.762 6.762 0 0 1 6.755 6.756v31.779zm-5.066 8.754h-3.378v-3.377a1.69 1.69 0 0 0-3.378 0v5.066a1.69 1.69 0 0 0 1.689 1.69h5.067a1.69 1.69 0 0 0 0-3.379zm3.257 10.287a11.316 11.316 0 0 1-8.052 3.336c-3.04 0-5.901-1.186-8.05-3.336-4.44-4.44-4.44-11.663 0-16.103a11.308 11.308 0 0 1 8.05-3.336 11.31 11.31 0 0 1 8.052 3.336 11.312 11.312 0 0 1 3.336 8.05c0 3.042-1.186 5.903-3.336 8.053z"/></g><g transform="translate(402 10)"><mask id="b" fill="#fff"><use xlink:href="#a"/></mask><path d="M65.052 70.558l-7.807-8.605h13.726l1.296 8.605h-7.215zm-29.68 0l-10.74-13.391 10-6.801 1.794 3.71c.276.588.913.994 1.565.994a1.77 1.77 0 0 0 1.565-.995c.709-1.486 1.427-2.967 2.143-4.45l19.475 20.933H35.373zm-31.657 0l4.292-28.557 22.94 28.557H3.715zm25.699-30.977l3.687 7.62-10.628 7.304L10.49 39.581h18.924zm-5.24-22.587c0-7.793 6.091-13.552 13.79-13.552 7.7 0 13.846 5.764 13.846 13.552 0 1.66-.582 4.605-1.134 6.077-4.187 8.772-8.451 17.538-12.685 26.298-4.084-8.826-8.696-17.441-12.685-26.298-.55-1.474-1.133-4.421-1.133-6.077zm43.424 22.587l1.025 6.884H43.222c1.115-2.296 2.234-4.59 3.353-6.884h21.023zm1.565 10.326l1.295 8.605H54.465l-8.325-8.605h23.023zm6.8 22.103L70.783 37.59c-.127-.798-.888-1.449-1.7-1.451H48.248c1.908-3.92 3.809-7.843 5.666-11.779.787-2.059 1.35-5.04 1.35-7.367C55.264 7.374 47.438 0 37.964 0 28.49 0 20.719 7.378 20.719 16.994c0 2.329.568 5.314 1.349 7.367 1.888 3.925 3.787 7.852 5.684 11.779H6.901c-.976 0-1.396.534-1.701 1.451L.018 72.01c-.155.977.708 1.987 1.7 1.99h72.546c.992 0 1.855-1.013 1.7-1.99z" fill="#EF3E4A" fill-rule="nonzero" mask="url(#b)"/></g><path d="M433.946 27.21a6.008 6.008 0 0 1 6.045-6.024 6.008 6.008 0 0 1 6.046 6.023 6.009 6.009 0 0 1-6.046 6.024 6.01 6.01 0 0 1-6.045-6.024m15.545 0c0-5.206-4.274-9.465-9.5-9.465s-9.5 4.259-9.5 9.465c0 5.207 4.274 9.466 9.5 9.466 5.227 0 9.5-4.259 9.5-9.466" fill="#EF3E4A" fill-rule="nonzero"/><g stroke="#D25C43" fill-rule="nonzero" stroke-width=".5" fill="#EF3E4A"><path d="M595.495 61.117l-7.543-31.092a1.134 1.134 0 0 0-1.1-.87h-34.344v-4.54l9.65-4.507a1.14 1.14 0 0 0 .653-.965 1.138 1.138 0 0 0-.532-1.038l-10.305-6.46a1.125 1.125 0 0 0-1.147-.029 1.14 1.14 0 0 0-.581.997v16.543h-34.542c-.521 0-.975.36-1.099.87l-7.543 31.091c-.082.34-.005.7.209.975s.542.436.89.436h2.439v23.306c0 .63.507 1.14 1.131 1.14h79.096c.624 0 1.131-.51 1.131-1.14V62.528h2.438c.347 0 .675-.161.89-.436.213-.276.292-.635.21-.975zm-42.987-46.45l6.798 4.26-6.798 3.175v-7.436zm-19.74 70.027h-19.905V62.528h19.905v22.166zm0-24.446h-23.166l1.17-4.817h21.996v4.817zm.344-12.786c-.22.214-.344.51-.344.819v4.87h-21.444l5.268-21.715h32.964l-16.444 16.026zm24.135 37.232h-11.936V67.833c0-3.315 2.678-6.013 5.969-6.013 3.289 0 5.967 2.698 5.967 6.013v16.861zm10.28 0h-8.017V67.833c0-4.573-3.693-8.293-8.23-8.293-4.538 0-8.231 3.72-8.231 8.293v16.861h-8.019v-35.93l16.423-16.004 16.075 15.998v35.936zm-14.184-53.258h32.621l5.268 21.715H569.79v-4.87c0-.305-.12-.597-.337-.81l-16.11-16.035zm36.352 53.258H569.79V62.528h19.905v22.166zM569.79 60.248v-4.817h21.995l1.169 4.817H569.79z"/><path d="M544.51 48.612c0 3.76 3.036 6.82 6.767 6.82 3.732 0 6.768-3.06 6.768-6.82 0-3.76-3.036-6.82-6.767-6.82-3.731 0-6.768 3.06-6.768 6.82zm11.273 0c0 2.502-2.022 4.54-4.506 4.54-2.482 0-4.504-2.038-4.504-4.54 0-2.503 2.022-4.54 4.505-4.54 2.484 0 4.505 2.037 4.505 4.54zM518.344 69.488h2.263v7.093h-2.263zM525.006 69.488h2.263v7.093h-2.263zM575.289 69.488h2.263v7.093h-2.263zM581.952 69.488h2.263v7.093h-2.263z"/></g><g fill-rule="nonzero" fill="#EF3E4A"><path d="M536.08 103.82c-9.99 0-18.08 8.09-18.08 18.08v30.135c0 9.99 8.09 18.081 18.08 18.081h30.136c9.99 0 18.08-8.09 18.08-18.08V121.9c0-9.99-8.09-18.08-18.08-18.08H536.08zm0 3.013h30.136a15.001 15.001 0 0 1 15.067 15.067v30.135a15.001 15.001 0 0 1-15.067 15.067H536.08a15.001 15.001 0 0 1-15.068-15.067V121.9a15.001 15.001 0 0 1 15.068-15.067zm8.9 11.3a1.507 1.507 0 0 0-1.366 1.507v9.794h-9.793c-.832 0-1.507.675-1.507 1.507v12.054c0 .832.675 1.506 1.507 1.506h9.793v9.794c0 .832.675 1.507 1.507 1.507h12.054c.832 0 1.507-.675 1.507-1.507v-9.794h9.794c.832 0 1.506-.674 1.506-1.506V130.94c0-.832-.674-1.507-1.506-1.507h-9.794v-9.794c0-.832-.675-1.506-1.507-1.506h-12.054a1.507 1.507 0 0 0-.141 0zm1.648 3.014h9.04v9.794c0 .832.675 1.507 1.507 1.507h9.794v9.04h-9.794c-.832 0-1.507.675-1.507 1.507v9.794h-9.04v-9.794c0-.832-.675-1.507-1.507-1.507h-9.794v-9.04h9.794c.832 0 1.507-.675 1.507-1.507v-9.794z"/></g><g fill="#EF3E4A"><path d="M480.978 158.644h-39.49l25.971-7.115h13.519v7.115zm-66.17 3.913c-.357 0-1.068 0-1.068-.712V151.53h40.2l-39.133 11.028zm-6.049-14.942c1.068-18.143 16.01-32.73 34.509-32.73s33.44 14.587 34.508 32.73h-69.017zm-3.201 10.673h4.98v-7.115h-4.98v7.115zm37.71-54.786c2.134 0 3.913 1.778 3.913 3.913 0 2.134-1.779 3.557-3.913 3.557-2.135 0-3.914-1.778-3.914-3.913 0-2.134 1.78-3.557 3.914-3.557zm37.71 44.469c-.712-18.5-14.586-33.441-32.374-35.931 1.266-1.687 2.031-3.376 1.704-5.657-.37-2.565-2.174-4.856-4.632-5.681-4.916-1.65-9.523 2.02-9.523 6.713 0 1.779.711 3.557 1.778 4.625a37.405 37.405 0 0 0-15.3 5.749c-.015-.015-3.192-2.86-.353-10.314 3.913-9.605-2.49-14.941-2.846-14.941-.356-.712-1.423-.712-2.135 0-.711.711-.355 1.778.356 2.49 0 0 4.625 3.913 1.779 11.384-3.152 7.734-.537 11.772.601 13.241a37.802 37.802 0 0 0-7.115 7.34c-.501-.545-2.8-3.505-.245-10.207 3.913-9.605-2.49-14.942-2.846-14.942-.356-.356-1.423 0-2.135.712-.356.711-.356 1.778.356 2.134 0 .356 4.625 3.914 1.779 11.384-3.544 8.699.195 13.007 1.199 13.747a37.677 37.677 0 0 0-5.468 18.154H402v11.04a2.836 2.836 0 0 0 2.835 2.834h5.703c0 2.135 1.779 3.914 4.27 3.914h1.066l13.875-3.914h52.286a2.854 2.854 0 0 0 2.856-2.856V147.97h-3.913z"/></g><g fill-rule="nonzero" fill="#EF3E4A"><path d="M688.573 84.054c-.167-6.14-2.807-12.213-6.409-17.253 3.05-1.555 6.907-2.529 10.388-2.623.055.001.106.013.16.013.15 0 .295-.022.443-.029 5.767.016 11.573 2.315 15.623 6.18 3.787 3.616 5.99 8.64 6.286 13.712h-26.491zm-60.296.02c.218-6.743 3.312-13.08 8.337-17.877 5.221-4.984 12.495-8.3 19.92-8.3 7.423 0 15.046 3.316 20.266 8.3 5.026 4.799 7.806 11.133 8.024 17.876h-56.547zm18.184-44.644c0-5.555 4.518-10.073 10.072-10.073 5.554 0 10.074 4.518 10.074 10.073 0 8.754-4.236 15.109-10.074 15.109-5.177 0-10.072-7.344-10.072-15.109zm36.18 6.294c0-5.554 4.517-10.073 10.072-10.073 5.554 0 10.074 4.519 10.074 10.073 0 8.755-4.236 15.109-10.074 15.109-5.177 0-10.073-7.343-10.073-15.11zm35.35 39.386v-.032c-.009-6.403-2.748-12.7-7.46-17.2-3.041-2.902-6.842-4.959-10.931-6.077 4.007-3.084 6.545-8.916 6.545-16.077 0-7.405-6.025-13.43-13.432-13.43-7.405 0-13.43 6.025-13.43 13.43 0 6.055 2.653 12.583 6.916 16.022a28.115 28.115 0 0 0-6.302 2.568c-.3-.312-.511-.69-.826-.99-4.214-4.024-9.604-6.783-15.365-8.047 3.84-3.139 6.26-8.858 6.26-15.847 0-7.406-6.026-13.43-13.433-13.43-7.405 0-13.43 6.024-13.43 13.43 0 5.94 2.555 12.334 6.677 15.822-5.789 1.255-11.2 4.026-15.437 8.072-5.886 5.618-9.334 13.469-9.343 21.456v.034c-.003.472.013.947.033 1.42.036 1.14.972.99 2.113.99h88.732c1.142 0 2.077.15 2.113-.99.019-.447.003-.814 0-1.124z"/></g><g fill-rule="nonzero" fill="#EF3E4A"><path d="M705.111 164.181h-3.858c-6.806-4.386-18.102-6.521-28.786-3.524 3.233-2.3 7.044-3.47 11.398-3.47 5.143 0 10.938 1.706 16.763 4.936a1.43 1.43 0 0 0 2.125-1.254v-42.804h2.36v46.116h-.002zm-35.481 2.326c-.432.594-1.09.98-1.824.98h-2.637c-.734 0-1.392-.386-1.825-.98-1.09-1.502-2.712-2.326-4.57-2.326H637.62c7.789-3.215 18.582-3.944 27.953 1.393.038.02.079.034.119.053.134.108.28.2.45.256a1.421 1.421 0 0 0 1.35-.252c9.146-4.614 19.668-4.29 27.313-1.45H674.2c-1.856 0-3.478.824-4.57 2.326zm-41.766-48.442h2.509v42.534a1.429 1.429 0 0 0 2.126 1.252c5.822-3.229 11.619-4.935 16.762-4.935 4.307 0 8.083 1.143 11.293 3.396-10.697-3.289-21.966-.738-28.915 3.745-.058.037-.105.082-.156.125h-3.619v-46.117zm5.373-4.28c5.232-2.602 10.542-3.92 15.793-3.92 5.304 0 10.565 1.277 16.056 3.896 0 6.013.018 15.547.035 25.092l.009 4.67c-.012 6.231-.02 12.2-.025 16.882-4.228-4.171-9.637-6.353-15.844-6.353-4.99 0-10.488 1.438-16.024 4.179v-44.445zm47.789-2.666v16.428l-2.704-2.395a1.431 1.431 0 0 0-1.898 0l-2.706 2.395v-14.874a36.005 36.005 0 0 1 7.308-1.554zm18.862 2.937V158.5c-5.536-2.739-11.036-4.179-16.024-4.179-6.208 0-11.617 2.182-15.845 6.353-.004-4.733-.014-10.784-.025-17.091l.01-5c.017-9.26.033-18.517.035-24.552.945-.45 1.882-.849 2.814-1.22v17.917a1.434 1.434 0 0 0 1.432 1.433c.343 0 .683-.124.949-.36l4.138-3.663 4.135 3.663a1.433 1.433 0 0 0 2.382-1.073V110.14l.005-.004c5.317-.035 10.695 1.284 15.994 3.92zm2.864 1.145v-2.022c0-.528-.293-1.021-.76-1.266-5.899-3.08-11.92-4.643-17.897-4.643-5.642 0-11.439 1.414-17.246 4.17-5.998-2.94-11.99-4.44-17.82-4.44-5.979 0-12 1.563-17.896 4.643a1.43 1.43 0 0 0-.761 1.265v2.293h-2.986a2.386 2.386 0 0 0-2.386 2.386v47.074a2.384 2.384 0 0 0 2.384 2.385h31.392c.898 0 1.738.434 2.265 1.163a5.182 5.182 0 0 0 4.184 2.143h2.526a5.186 5.186 0 0 0 4.185-2.144 2.794 2.794 0 0 1 2.264-1.162h31.387a2.39 2.39 0 0 0 2.39-2.39v-47.07a2.386 2.386 0 0 0-2.386-2.385h-2.839z"/></g><g stroke="#EF3E4A" stroke-width="3"><path d="M761.339 87.228h-7.17v-52.08c0-.886.72-1.604 1.606-1.604h3.958c.886 0 1.606.718 1.606 1.603v52.081zM804.354 92c-1.61-.631-3.3-1.225-4.78-2.386-4.69-3.68-7.169-9.22-7.169-15.509V63.368c5.608-.714 9.4-3.042 11.95-4.772 2.55 1.73 6.34 4.058 11.948 4.772v10.737c0 6.29-2.48 11.829-7.17 15.509-1.48 1.16-3.168 1.755-4.779 2.386z"/><path d="M798.38 77.684v-8.35l4.78-2.387"/><path d="M811.693 38.316H751.61a4.607 4.607 0 0 0-4.61 4.602v39.708a4.607 4.607 0 0 0 4.61 4.602h45.492c-3.067-3.51-4.697-8.064-4.697-13.123V63.368c5.608-.714 9.4-3.042 11.949-4.772 2.55 1.73 6.341 4.058 11.949 4.772v-20.45a4.606 4.606 0 0 0-4.61-4.602z"/><path d="M766.118 38.316h9.56v-4.772h-9.56zM787.626 38.316h9.559v-4.772h-9.56zM790.016 30.495v3.049h4.78v-2.52c0-3.88-3.15-7.024-7.037-7.024h-12.215c-3.886 0-7.036 3.145-7.036 7.024v2.52h4.78v-3.05c0-1.327 1.35-2.229 2.58-1.722a15.17 15.17 0 0 0 11.568 0 1.866 1.866 0 0 1 2.58 1.723zM804.354 58.596c1.264.858 2.836 1.862 4.78 2.743V35.147c0-.885-.72-1.603-1.606-1.603h-3.958c-.886 0-1.606.718-1.606 1.603v24.955a39.166 39.166 0 0 0 2.39-1.506zM782.846 71.72c-5.279 0-9.559-4.274-9.559-9.545 0-5.27 4.28-9.543 9.56-9.543 5.278 0 9.558 4.273 9.558 9.543 0 5.271-4.28 9.544-9.559 9.544z"/><path d="M786.431 62.175a3.582 3.582 0 0 1-3.585 3.58 3.582 3.582 0 0 1-3.584-3.58 3.582 3.582 0 0 1 3.584-3.579 3.582 3.582 0 0 1 3.585 3.58zM773.6 64.561h-6.287v11.93h14.339v-4.854a9.55 9.55 0 0 1-8.051-7.076zM780.457 46.667v6.277a9.564 9.564 0 0 1 2.39-.312 9.555 9.555 0 0 1 8.857 5.964h3.091v-11.93h-14.338z"/></g></g></svg>