<?xml version="1.0" encoding="UTF-8"?>
<svg width="831px" height="183px" viewBox="0 0 831 183" version="1.1" xmlns="http://www.w3.org/2000/svg" xmlns:xlink="http://www.w3.org/1999/xlink">
    <!-- Generator: Sketch 46.2 (44496) - http://www.bohemiancoding.com/sketch -->
    <title>Artboard</title>
    <desc>Created with Sketch.</desc>
    <defs>
        <polygon id="path-1" points="37.9909351 74 75.9818636 74 75.9818636 0 37.9909351 0 6.52968447e-06 0 6.52968447e-06 74"></polygon>
    </defs>
    <g id="Icons" stroke="none" stroke-width="1" fill="none" fill-rule="evenodd">
        <g id="Artboard">
            <g id="Group" transform="translate(10.000000, 6.000000)" fill="#EF3E4A">
                <path d="M24.6799731,5 C25.5600966,5 26.4399034,5 27.3244624,5 C27.3288979,5.884524 27.3333333,6.77348329 27.3422043,7.65769048 C28.2267633,7.66687787 29.1157578,7.66687787 30,7.67574846 C30,8.55552035 30,9.44004435 30,10.3201331 C29.1157578,10.3290036 28.2311988,10.3334389 27.3422043,10.3423095 C27.3333333,11.230952 27.3288979,12.115476 27.3244624,13 C26.4399034,13 25.5600966,13 24.6755376,13 C24.6666667,12.115476 24.6666667,11.230952 24.6577957,10.3467448 C23.7732367,10.3378742 22.884559,10.3290036 22,10.3201331 C22,9.44004435 22,8.55995565 22,7.67574846 C22.884559,7.66687787 23.7688012,7.66244258 24.6577957,7.65769048 C24.6622312,6.769048 24.6711021,5.884524 24.6799731,5" id="Fill-21"></path>
                <path d="M0.0257498101,9.02465004 C0.10919511,4.13059023 4.69901645,-0.155309003 9.69155207,0.00796642852 C12.0837606,-0.100991631 14.332496,0.919398983 16.1646646,2.35266628 C15.3826535,3.22368413 14.5729372,4.06269352 13.7078107,4.84738554 C11.5052505,3.35527442 8.37291843,2.9288184 6.17035829,4.65242498 C3.0195561,6.78858492 2.87608295,11.8323408 5.90682945,14.1317762 C8.85413065,16.7535593 14.4248466,15.4518823 15.2391803,11.4375699 C13.3931592,11.4104112 11.5421907,11.4375699 9.69616959,11.3787261 C9.69155207,10.2991684 9.68693454,9.2196106 9.69155207,8.14037617 C12.7777089,8.13132327 15.8638657,8.12647351 18.95464,8.14942906 C19.1396709,10.6894128 18.7973143,13.392672 17.205587,15.4926203 C14.7949083,18.8172961 9.95541072,19.7878958 6.17959334,18.3636814 C2.3902532,16.9485199 -0.293519165,13.0250598 0.0257498101,9.02465004" id="Fill-20"></path>
            </g>
            <g id="icon-instagram" transform="translate(11.000000, 33.000000)" fill="#EF3E4A">
                <path d="M12.8787164,2.16220593 C16.0828447,2.16220593 16.4623423,2.17444789 17.7278268,2.23218039 C18.8978056,2.28557819 19.5331439,2.4810208 19.9560358,2.64535836 C20.4772481,2.83772952 20.9487212,3.14446783 21.3357935,3.5430225 C21.734345,3.93009787 22.0410809,4.40157475 22.2334505,4.92279112 C22.3977868,5.3456388 22.5932755,5.98102973 22.6466252,7.15101788 C22.7043573,8.41641708 22.7165991,8.79591776 22.7165991,12.0001667 C22.7165991,15.2044157 22.7043573,15.5838211 22.6466252,16.8493156 C22.5932278,18.0193037 22.3977391,18.654647 22.2334505,19.0775423 C21.8297493,20.1240829 21.0025681,20.9512706 19.9560358,21.3549751 C19.5331915,21.5193126 18.8978056,21.7148029 17.7278268,21.768153 C16.4626758,21.8258855 16.0831781,21.8381275 12.8787164,21.8381275 C9.67425474,21.8381275 9.29489998,21.8258855 8.02960609,21.768153 C6.85962722,21.7147553 6.22428898,21.519265 5.80139701,21.3549751 C5.28018406,21.1626054 4.80871061,20.8558669 4.42163935,20.4573109 C4.0230891,20.0702345 3.71635342,19.598758 3.52398233,19.0775423 C3.35964608,18.6546946 3.16415739,18.0193037 3.11080765,16.8493156 C3.05307561,15.583964 3.04083375,15.2044157 3.04083375,12.0001667 C3.04083375,8.79591776 3.05307561,8.41651235 3.11080765,7.15101788 C3.16420502,5.98102973 3.35964608,5.34568644 3.52398233,4.92279112 C3.71637343,4.40154878 4.02314272,3.93005429 4.42173462,3.54297487 C4.80880794,3.14442145 5.28028078,2.83768334 5.80149228,2.64531072 C6.22433661,2.48097316 6.85972249,2.28548292 8.02970135,2.23213276 C9.29509051,2.17440026 9.67458817,2.1621583 12.8788117,2.1621583 L12.8787164,2.16220593 Z M12.8788117,4.23075575e-17 C9.61980942,4.23075575e-17 9.21101704,0.0138138818 7.93129014,0.0722132578 C6.65399255,0.130517366 5.7817243,0.333343257 5.01844194,0.630008276 C4.21774801,0.931323868 3.49241649,1.40367092 2.89302638,2.01411159 C2.28245298,2.61346888 1.8099778,3.33880899 1.50855299,4.13954402 C1.21212849,4.90288008 1.00930421,5.77515526 0.951238732,7.05246298 C0.892601651,8.33220004 0.878787879,8.74099567 0.878787879,12.0000238 C0.878787879,15.259052 0.892601651,15.6678476 0.951238732,16.9475847 C1.00954238,18.2248924 1.21236666,19.0971676 1.50902932,19.860456 C1.81034389,20.6611556 2.28268701,21.3864926 2.89312165,21.9858884 C3.49250981,22.5963315 4.21784189,23.0686789 5.01853721,23.3699917 C5.7818672,23.6666567 6.65413546,23.8694826 7.9313854,23.9277867 C9.21130284,23.9861861 9.61995232,24 12.878907,24 C16.1378616,24 16.5467016,23.9861861 17.8264285,23.9277867 C19.1037261,23.8694826 19.9759944,23.6666567 20.7392767,23.3699917 C22.3511411,22.7465793 23.6253771,21.4723332 24.2487846,19.860456 C24.5454473,19.0971199 24.7482715,18.2248447 24.8065752,16.9475847 C24.8649741,15.6676571 24.8787879,15.2590043 24.8787879,12.0000238 C24.8787879,8.74104331 24.8649741,8.33220004 24.8065752,7.05246298 C24.7482715,5.77515526 24.5454473,4.90288008 24.2487846,4.13959166 C23.9474742,3.33888998 23.4751305,2.61355215 22.8646923,2.01415923 C22.2652899,1.40359685 21.5399056,0.931149637 20.7391338,0.629770106 C19.9758038,0.333343257 19.1035356,0.130517366 17.826238,0.0724514281 C16.5465111,0.0138138818 16.1377187,0 12.8787164,0 L12.8787164,0 L12.8788117,4.23075575e-17 Z" id="Shape"></path>
                <path d="M12.8787879,7 C10.1173641,7 7.87878788,9.23857625 7.87878788,12 C7.87878788,14.7614237 10.1173641,17 12.8787879,17 C15.6402116,17 17.8787879,14.7614237 17.8787879,12 C17.8787879,9.23857625 15.6402116,7 12.8787879,7 L12.8787879,7 Z M12.8787879,15.2455842 C11.0863063,15.2455629 9.6332281,13.7924559 9.63324233,11.9999742 C9.63325656,10.2074926 11.0863578,8.75440869 12.8788394,8.7544158 C14.671321,8.75442292 16.1244107,10.2075184 16.1244107,12 C16.1243894,13.7924929 14.6712808,15.2455842 12.8787879,15.2455842 L12.8787879,15.2455842 Z" id="Shape"></path>
                <circle id="Oval" cx="19.2824069" cy="6.59638095" r="1.43952381"></circle>
            </g>
            <path d="M39,72.6040609 C37.971,73.0456853 36.86325,73.3434856 35.70125,73.4788494 C36.88775,72.7918782 37.796,71.7021997 38.22825,70.4060914 C37.117,71.0423012 35.88675,71.5042301 34.5795,71.7529611 C33.53125,70.6734349 32.03675,70 30.3865,70 C27.21375,70 24.64125,72.4856176 24.64125,75.5532995 C24.64125,75.9881557 24.692,76.4128596 24.79,76.8189509 C20.016,76.5871404 15.781,74.3773266 12.9495,71.0169205 C12.456,71.8358714 12.1725,72.7901861 12.1725,73.8087986 C12.1725,75.7360406 13.18575,77.4348562 14.7275,78.4314721 C13.786,78.4027073 12.9005,78.1522843 12.12525,77.7360406 L12.12525,77.8071066 C12.12525,80.4974619 14.10625,82.7428088 16.73125,83.2521151 C16.25175,83.3807107 15.74425,83.4483926 15.21925,83.4483926 C14.84825,83.4483926 14.4895,83.4128596 14.1395,83.3485618 C14.86925,85.5549915 16.992,87.1607445 19.50325,87.2047377 C17.538,88.6954315 15.0635,89.5820643 12.37025,89.5820643 C11.90825,89.5820643 11.4515,89.5566836 11,89.5059222 C13.54275,91.0812183 16.5615,92 19.806,92 C30.3725,92 36.151,83.536379 36.151,76.1979695 C36.151,75.9560068 36.14575,75.7174281 36.1335,75.4788494 C37.257,74.6954315 38.23175,73.7174281 39,72.6040609" id="icon-twitter" fill="#EF3E4A"></path>
            <path d="M28,112.447732 L24.5933222,112.447732 L24.5933222,110.06072 C24.5933222,109.164166 25.1498017,108.954955 25.5412562,108.954955 L27.9437124,108.954955 L27.9437124,105.013218 L24.6338322,105 C20.9602149,105 20.1252825,107.939894 20.1252825,109.820515 L20.1252825,112.447732 L18,112.447732 L18,116.507521 L20.1252825,116.507521 L20.1252825,128 L24.5933222,128 L24.5933222,116.507521 L27.6085455,116.507521 L28,112.447732 Z" id="icon-facebook" fill="#EF3E4A"></path>
            <g id="Group-2" transform="translate(51.000000, 9.000000)" fill="#000000">
                <rect id="Rectangle-12" x="0" y="0" width="35" height="3" rx="1.5"></rect>
                <rect id="Rectangle-12" x="0" y="27" width="35" height="3" rx="1.5"></rect>
                <rect id="Rectangle-12" x="0" y="14" width="35" height="3" rx="1.5"></rect>
            </g>
            <g id="Group-3" transform="translate(54.000000, 47.000000)" fill="#000000">
                <rect id="Rectangle-12" transform="translate(13.500000, 13.500000) rotate(-315.000000) translate(-13.500000, -13.500000) " x="-4" y="12" width="35" height="3" rx="1.5"></rect>
                <rect id="Rectangle-12" transform="translate(13.500000, 13.500000) rotate(-225.000000) translate(-13.500000, -13.500000) " x="-4" y="12" width="35" height="3" rx="1.5"></rect>
            </g>
            <g id="Summer" transform="translate(96.000000, 7.000000)" fill="#EF3E4A">
                <path d="M27.1821485,12.9908332 C27.0336485,13.2021929 26.9768691,13.4590167 27.0215162,13.7134221 C27.0666485,13.9678276 27.2083544,14.1898278 27.4204279,14.337828 C27.5859132,14.4529392 27.7780897,14.5129131 27.9751191,14.5129131 C28.0318985,14.5129131 28.0891632,14.5080765 28.1459426,14.4979196 L31.5138838,13.6785986 C31.7691485,13.6336181 31.9914132,13.4923893 32.1403985,13.2805459 C32.2888985,13.0687026 32.3461632,12.8118788 32.3010309,12.557957 C32.2078544,12.0327016 31.7046044,11.6825313 31.1455456,11.7797471 L27.8091485,12.5927806 C27.5538838,12.637761 27.3311338,12.7789899 27.1821485,12.9908332" id="Fill-1"></path>
                <path d="M24.1585721,7.92298921 C24.1872044,7.92298921 24.2158368,7.92153823 24.2444691,7.91911992 C24.4992485,7.89687154 24.7307338,7.77837469 24.8967044,7.58491046 L27.1212926,5.12839832 C27.2882338,4.93058114 27.3678221,4.67907764 27.3450132,4.4217702 C27.3226897,4.16446277 27.2008809,3.93133837 27.0019103,3.76495912 C26.5932926,3.42252743 25.9789103,3.47524643 25.6459985,3.87136445 L23.4160721,6.33368051 C23.0724838,6.74237371 23.1263515,7.35372069 23.536425,7.69663605 C23.7125868,7.84366887 23.9304838,7.92298921 24.1585721,7.92298921" id="Fill-3"></path>
                <path d="M16.5,5.32026648 C17.0352794,5.32026648 17.4705882,4.88642293 17.4705882,4.3529453 L17.4705882,0.967321178 C17.4705882,0.433843548 17.0352794,0 16.5,0 C15.9647206,0 15.5294118,0.433843548 15.5294118,0.967321178 L15.5294118,4.3529453 C15.5294118,4.88642293 15.9647206,5.32026648 16.5,5.32026648" id="Fill-5"></path>
                <path d="M8.10310147,7.58505555 C8.29430735,7.80753942 8.56655735,7.92216698 8.84074853,7.92216698 C9.06107206,7.92216698 9.28236618,7.84816691 9.46435147,7.69629749 C9.66283676,7.53040191 9.78416029,7.2972775 9.80696912,7.03997007 C9.82977794,6.78217898 9.75018971,6.53164279 9.57208676,6.32076677 L7.36496912,3.88408473 C7.19851324,3.68626755 6.96460147,3.56486874 6.706425,3.54262035 C6.44824853,3.52182295 6.19686618,3.59920864 5.99789559,3.76510422 C5.798925,3.93148346 5.67760147,4.16460787 5.65479265,4.4219153 C5.63198382,4.67922273 5.71157206,4.93024258 5.889675,5.1411186 L8.10310147,7.58505555 Z" id="Fill-7"></path>
                <path d="M21.9589279,20.3137447 L10.5559721,20.3137447 C9.71592794,19.1587633 9.22044265,17.7382521 9.22044265,16.2026297 C9.22044265,12.3294757 12.3709721,9.18955119 16.2572074,9.18955119 C20.1434426,9.18955119 23.2939721,12.3294757 23.2939721,16.2026297 C23.2939721,17.7382521 22.7989721,19.1587633 21.9589279,20.3137447 M31.7875897,20.3137447 L24.2335015,20.3137447 C24.8736044,19.0828285 25.2351485,17.6845658 25.2351485,16.2026297 C25.2351485,11.2610695 21.2159426,7.25490884 16.2572074,7.25490884 C11.2989574,7.25490884 7.27926618,11.2610695 7.27926618,16.2026297 C7.27926618,17.6845658 7.64081029,19.0828285 8.28091324,20.3137447 L0.970442647,20.3137447 C0.434677941,20.3137447 -0.00014558823,20.746621 -0.00014558823,21.2810659 C-0.00014558823,21.8155109 0.434677941,22.2483871 0.970442647,22.2483871 L31.7875897,22.2483871 C32.3238397,22.2483871 32.7581779,21.8155109 32.7581779,21.2810659 C32.7581779,20.746621 32.3238397,20.3137447 31.7875897,20.3137447" id="Fill-9"></path>
                <path d="M1.46820882,13.675213 L4.85362059,14.4979196 C4.91088529,14.5080765 4.96815,14.5129131 5.02492941,14.5129131 C5.22195882,14.5129131 5.41413529,14.4529392 5.57913529,14.337828 C5.79169412,14.1893442 5.9334,13.9678276 5.97804706,13.7139058 C6.02317941,13.4590167 5.9664,13.2021929 5.81741471,12.9903496 C5.66891471,12.7789899 5.44616471,12.637761 5.22195882,12.5990681 L1.82344412,11.7729759 C1.29738529,11.6825313 0.792194118,12.0327016 0.699017647,12.557957 C0.607297059,13.0769248 0.951370588,13.5741279 1.46820882,13.675213" id="Fill-12"></path>
            </g>
            <g id="Group" transform="translate(96.000000, 39.000000)" stroke="#EF3E4A" stroke-width="2" stroke-linecap="round" stroke-linejoin="round">
                <ellipse id="Oval" cx="15.7122162" cy="5.67384" rx="4.7932973" ry="4.81384"></ellipse>
                <path d="M24.8578378,20.20458 C24.8578378,15.04494 20.8413514,10.86 15.8891351,10.86 C10.935027,10.86 6.91891892,15.04494 6.91891892,20.20458" id="Shape"></path>
                <path d="M9.52627027,8.39958 C8.83724324,9.13222 7.86102703,9.58936 6.77848649,9.58936 C4.69135135,9.58936 3,7.89 3,5.79468 C3,3.69936 4.69135135,2 6.77848649,2 C7.7092973,2 8.56178378,2.33858 9.22016216,2.89908" id="Shape"></path>
                <path d="M4.93367568,17.36592 L0,17.36592 C0,13.29878 3.16589189,10 7.07075676,10 C8.442,10 9.7212973,10.4066 10.8057297,11.11074" id="Shape"></path>
                <path d="M28.5262703,8.39958 C27.8372432,9.13222 26.861027,9.58936 25.7784865,9.58936 C23.6913514,9.58936 22,7.89 22,5.79468 C22,3.69936 23.6913514,2 25.7784865,2 C26.7092973,2 27.5617838,2.33858 28.2201622,2.89908" id="Shape" transform="translate(25.263135, 5.794680) scale(-1, 1) translate(-25.263135, -5.794680) "></path>
                <path d="M24.9336757,17.36592 L20,17.36592 C20,13.29878 23.1658919,10 27.0707568,10 C28.442,10 29.7212973,10.4066 30.8057297,11.11074" id="Shape" transform="translate(25.402865, 13.682960) scale(-1, 1) translate(-25.402865, -13.682960) "></path>
            </g>
            <g id="Certificate" transform="translate(96.000000, 70.000000)">
                <path d="M28.2789784,19.6417382 L24.6424361,19.6417382 C24.6424361,19.5885886 24.6483301,19.535439 24.6483301,19.4822894 C24.6483301,16.5767776 22.2907662,14.2204783 19.3968566,14.2204783 C16.497053,14.2204783 14.1453831,16.5826831 14.1453831,19.4822894 C14.1453831,19.535439 14.151277,19.5885886 14.151277,19.6417382 L1.66208251,19.6417382 L1.66208251,1.66536024 L28.2789784,1.66536024 L28.2789784,19.6417382 Z M19.3968566,23.0787461 C17.4165029,23.0787461 15.8074656,21.4665413 15.8074656,19.4822894 C15.8074656,17.4980374 17.4165029,15.8858327 19.3968566,15.8858327 C21.3772102,15.8858327 22.9862475,17.4980374 22.9862475,19.4822894 C22.9862475,21.4665413 21.3772102,23.0787461 19.3968566,23.0787461 L19.3968566,23.0787461 Z M20.4931238,27.4960689 L19.8978389,27.0413445 C19.6031434,26.816935 19.1905697,26.816935 18.8958743,27.0413445 L18.3005894,27.4960689 L18.3005894,24.6318957 C19.0196464,24.785439 19.7799607,24.785439 20.4990177,24.6318957 L20.4990177,27.4960689 L20.4931238,27.4960689 Z M29.1100196,5.9055119e-06 L0.831041257,5.9055119e-06 C0.371316306,5.9055119e-06 0,0.37205315 0,0.832683071 L0,20.4744154 C0,20.9350453 0.371316306,21.3070925 0.831041257,21.3070925 L14.4695481,21.3070925 C14.8821218,22.4055177 15.6483301,23.3326831 16.632613,23.9468563 L16.632613,29.1614232 C16.632613,29.4803209 16.8094303,29.7637854 17.0923379,29.9055177 C17.3752456,30.04725 17.7111984,30.0177224 17.9646365,29.8228406 L19.3968566,28.7421319 L20.8290766,29.8228406 C20.9764244,29.9350453 21.4243615,30.035439 21.7013752,29.9055177 C21.9842829,29.7696909 22.1611002,29.4744154 22.1611002,29.1614232 L22.1611002,23.9468563 C23.1453831,23.3326831 23.9115914,22.4055177 24.324165,21.301187 L29.1159136,21.301187 C29.5756385,21.301187 29.9469548,20.9291398 29.9469548,20.4685098 L29.9469548,0.832683071 C29.9410609,0.37205315 29.5697446,5.9055119e-06 29.1100196,5.9055119e-06 L29.1100196,5.9055119e-06 Z" id="Fill-1" fill="#EF3E4A"></path>
                <path d="M12.6365422,5.5984311 L25.2730845,5.5984311 C25.7328094,5.5984311 26.1041257,5.22638386 26.1041257,4.76575394 C26.1041257,4.30512402 25.7328094,3.93307677 25.2730845,3.93307677 L12.6365422,3.93307677 C12.1768173,3.93307677 11.805501,4.30512402 11.805501,4.76575394 C11.805501,5.22638386 12.1768173,5.5984311 12.6365422,5.5984311" id="Fill-3" fill="#EF3E4A"></path>
                <path d="M4.67387033,13.4527618 L25.2730845,13.4527618 C25.7328094,13.4527618 26.1041257,13.0807146 26.1041257,12.6200846 C26.1041257,12.1594547 25.7328094,11.7874075 25.2730845,11.7874075 L4.67387033,11.7874075 C4.21414538,11.7874075 3.84282908,12.1594547 3.84282908,12.6200846 C3.84282908,13.0807146 4.21414538,13.4527618 4.67387033,13.4527618" id="Fill-5" fill="#EF3E4A"></path>
                <path d="M4.67387033,17.3799272 L12.4774067,17.3799272 C12.9371316,17.3799272 13.3084479,17.0078799 13.3084479,16.54725 C13.3084479,16.0866201 12.9371316,15.7145728 12.4774067,15.7145728 L4.67387033,15.7145728 C4.21414538,15.7145728 3.84282908,16.0866201 3.84282908,16.54725 C3.83693517,17.0078799 4.21414538,17.3799272 4.67387033,17.3799272" id="Fill-7" fill="#EF3E4A"></path>
                <path d="M12.453831,9.52559646 L25.2730845,9.52559646 C25.7328094,9.52559646 26.1041257,9.15354921 26.1041257,8.69291929 C26.1041257,8.23228937 25.7328094,7.86024213 25.2730845,7.86024213 L12.453831,7.86024213 C11.9941061,7.86024213 11.6227898,8.23228937 11.6227898,8.69291929 C11.6168959,9.15354921 11.9941061,9.52559646 12.453831,9.52559646" id="Fill-9" fill="#EF3E4A"></path>
                <path d="M6.19268959,4.40215157 L5.72141257,4.40215157 C5.44033202,4.40215157 5.23369155,4.43256496 5.10137328,4.49327362 C4.96911395,4.55404134 4.85813163,4.67486811 4.76860314,4.85569488 C4.67901572,5.03658071 4.62461493,5.25124606 4.60534185,5.49975 L4.13824951,5.49975 L4.13824951,3.90100984 L9.74766012,3.90100984 L9.74766012,5.49975 L9.28056778,5.49975 C9.19233595,5.06900197 9.06832809,4.77845079 8.90848527,4.62791929 C8.74864244,4.47744685 8.49373084,4.40215157 8.14380943,4.40215157 L7.66009627,4.40215157 L7.66009627,8.37006496 C7.66009627,8.62683661 7.70353438,8.80565551 7.79035167,8.90640354 C7.87716896,9.00721063 8.05970334,9.05758465 8.33807269,9.05758465 L8.48270923,9.05758465 L8.48270923,9.51732874 L5.38657957,9.51732874 L5.38657957,9.05758465 L5.51889784,9.05758465 C5.79997839,9.05758465 5.98251277,9.00585236 6.06655992,8.90226969 C6.15060707,8.79874606 6.19268959,8.62134449 6.19268959,8.37006496 L6.19268959,4.40215157 Z" id="Fill-11" fill="#EF3E4A"></path>
                <path d="M6.19268959,4.40215157 L5.72141257,4.40215157 C5.44033202,4.40215157 5.23369155,4.43256496 5.10137328,4.49327362 C4.96911395,4.55404134 4.85813163,4.67486811 4.76860314,4.85569488 C4.67901572,5.03658071 4.62461493,5.25124606 4.60534185,5.49975 L4.13824951,5.49975 L4.13824951,3.90100984 L9.74766012,3.90100984 L9.74766012,5.49975 L9.28056778,5.49975 C9.19233595,5.06900197 9.06832809,4.77845079 8.90848527,4.62791929 C8.74864244,4.47744685 8.49373084,4.40215157 8.14380943,4.40215157 L7.66009627,4.40215157 L7.66009627,8.37006496 C7.66009627,8.62683661 7.70353438,8.80565551 7.79035167,8.90640354 C7.87716896,9.00721063 8.05970334,9.05758465 8.33807269,9.05758465 L8.48270923,9.05758465 L8.48270923,9.51732874 L5.38657957,9.51732874 L5.38657957,9.05758465 L5.51889784,9.05758465 C5.79997839,9.05758465 5.98251277,9.00585236 6.06655992,8.90226969 C6.15060707,8.79874606 6.19268959,8.62134449 6.19268959,8.37006496 L6.19268959,4.40215157 Z" id="Stroke-13" stroke="#EF3E4A" stroke-linejoin="round"></path>
            </g>
            <g id="Castle" transform="translate(100.000000, 107.000000)" fill="#EF3E4A">
                <path d="M20.7604895,8.59375 C21.2191176,8.59375 21.5909091,8.24397246 21.5909091,7.8125 L21.5909091,0.78125 C21.5909091,0.349777539 21.2191176,0 20.7604895,0 L17.0236014,0 C16.5649733,0 16.1931818,0.349777539 16.1931818,0.78125 L16.1931818,3.125 L14.1171329,3.125 L14.1171329,0.78125 C14.1171329,0.349777539 13.7453414,0 13.2867133,0 L8.3041958,0 C7.84556773,0 7.47377622,0.349777539 7.47377622,0.78125 L7.47377622,3.125 L5.39772727,3.125 L5.39772727,0.78125 C5.39772727,0.349777539 5.02593576,0 4.56730769,0 L0.83041958,0 C0.37179151,0 0,0.349777539 0,0.78125 L0,7.8125 C0,8.24397246 0.37179151,8.59375 0.83041958,8.59375 L20.7604895,8.59375 Z M1.66083916,7.03125 L1.66083916,1.5625 L3.73688811,1.5625 L3.73688811,3.90625 C3.73688811,4.33772246 4.10867962,4.6875 4.56730769,4.6875 L8.3041958,4.6875 C8.76282387,4.6875 9.13461538,4.33772246 9.13461538,3.90625 L9.13461538,1.5625 L12.4562937,1.5625 L12.4562937,3.90625 C12.4562937,4.33772246 12.8280852,4.6875 13.2867133,4.6875 L17.0236014,4.6875 C17.4822295,4.6875 17.854021,4.33772246 17.854021,3.90625 L17.854021,1.5625 L19.9300699,1.5625 L19.9300699,3.90625 L19.9300699,7.03125 L1.66083916,7.03125 Z" id="Shape"></path>
                <path d="M7.05856643,16.4062458 C7.05856643,14.6804571 8.54620594,13.28125 10.3811571,13.28125 L11.209752,13.28125 C13.04513,13.28125 14.5323427,14.6798968 14.5323427,16.4062458 L14.5323427,24.21875 C14.5323427,24.6502225 14.9041342,25 15.3627622,25 C15.8213903,25 16.1931818,24.6502225 16.1931818,24.21875 L16.1931818,16.4062458 C16.1931818,13.8168251 13.9622514,11.71875 11.209752,11.71875 L10.3811571,11.71875 C7.62904239,11.71875 5.39772727,13.817425 5.39772727,16.4062458 L5.39772727,24.21875 C5.39772727,24.6502225 5.76951878,25 6.22814685,25 C6.68677492,25 7.05856643,24.6502225 7.05856643,24.21875 L7.05856643,16.4062458 Z" id="Shape"></path>
                <path d="M16.1931818,23.4375 L16.1931818,16.4062458 C16.1931818,15.2592261 16.8503313,14.2564705 17.829835,13.7128973 C18.3240779,13.4386183 18.6853529,13.3593798 18.6853529,13.3593798 L18.6853529,23.4375 L16.1931818,23.4375 Z M20.3461921,24.21875 L20.3461921,12.5 C20.3461921,12.0685275 19.9744006,11.71875 19.5157725,11.71875 C16.7636578,11.71875 14.5323427,13.817425 14.5323427,16.4062458 L14.5323427,24.21875 C14.5323427,24.6502225 14.9041342,25 15.3627622,25 L19.5157725,25 C19.9744006,25 20.3461921,24.6502225 20.3461921,24.21875 Z" id="Shape"></path>
                <path d="M20.0246884,16.6323064 C20.3867075,16.367408 20.4519241,15.8765677 20.1703537,15.5359839 C19.8887833,15.1954002 19.3670509,15.1340451 19.0050318,15.3989436 L15.2681437,18.1333186 C14.9061246,18.398217 14.8409081,18.8890573 15.1224785,19.2296411 C15.4040489,19.5702248 15.9257812,19.6315799 16.2878003,19.3666814 L20.0246884,16.6323064 Z" id="Shape"></path>
                <path d="M20.0246884,20.5385564 C20.3867075,20.273658 20.4519241,19.7828177 20.1703537,19.4422339 C19.8887833,19.1016502 19.3670509,19.0402951 19.0050318,19.3051936 L15.2681437,22.0395686 C14.9061246,22.304467 14.8409081,22.7953073 15.1224785,23.1358911 C15.4040489,23.4764748 15.9257812,23.5378299 16.2878003,23.2729314 L20.0246884,20.5385564 Z" id="Shape"></path>
                <path d="M6.22905919,25 C6.68768726,25 7.05947877,24.6502225 7.05947877,24.21875 L7.05947877,16.4062458 C7.05947877,13.817425 4.82816366,11.71875 2.07604895,11.71875 C1.61742088,11.71875 1.24562937,12.0685275 1.24562937,12.5 L1.24562937,24.21875 C1.24562937,24.6502225 1.61742088,25 2.07604895,25 L6.22905919,25 Z M2.90646853,23.4375 L2.90646853,13.3778348 C4.33587532,13.7222132 5.39863961,14.9475751 5.39863961,16.4062458 L5.39863961,23.4375 L2.90646853,23.4375 Z" id="Shape"></path>
                <path d="M17.4388112,12.5 C17.4388112,12.9314725 17.8106027,13.28125 18.2692308,13.28125 C18.7278588,13.28125 19.0996503,12.9314725 19.0996503,12.5 L19.0996503,7.8125 C19.0996503,7.38102754 18.7278588,7.03125 18.2692308,7.03125 C17.8106027,7.03125 17.4388112,7.38102754 17.4388112,7.8125 L17.4388112,12.5 Z" id="Shape"></path>
                <path d="M4.1520979,7.8125 C4.1520979,7.38102754 3.78030639,7.03125 3.32167832,7.03125 C2.86305025,7.03125 2.49125874,7.38102754 2.49125874,7.8125 L2.49125874,12.5 C2.49125874,12.9314725 2.86305025,13.28125 3.32167832,13.28125 C3.78030639,13.28125 4.1520979,12.9314725 4.1520979,12.5 L4.1520979,7.8125 Z" id="Shape"></path>
                <path d="M3.00108705,15.3989436 C2.63906796,15.1340451 2.1173356,15.1954002 1.83576521,15.5359839 C1.55419481,15.8765677 1.61941135,16.367408 1.98143043,16.6323064 L5.71831856,19.3666814 C6.08033765,19.6315799 6.60207001,19.5702248 6.88364038,19.2296411 C7.16521078,18.8890573 7.09999424,18.398217 6.73797515,18.1333186 L3.00108705,15.3989436 Z" id="Shape"></path>
                <path d="M3.00108705,19.3051936 C2.63906796,19.0402951 2.1173356,19.1016502 1.83576521,19.4422339 C1.55419481,19.7828177 1.61941135,20.273658 1.98143043,20.5385564 L5.71831856,23.2729314 C6.08033765,23.5378299 6.60207001,23.4764748 6.88364038,23.1358911 C7.16521078,22.7953073 7.09999424,22.304467 6.73797515,22.0395686 L3.00108705,19.3051936 Z" id="Shape"></path>
            </g>
            <g id="House" transform="translate(99.000000, 142.000000)" fill="#EF3E4A">
                <path d="M22.2232075,22.0410849 L15.9928302,22.0410849 L15.9928302,13.3365566 C15.9928302,12.8678774 15.6124528,12.4875 15.1437736,12.4875 L8.77754717,12.4875 C8.30886792,12.4875 7.92849057,12.8678774 7.92849057,13.3365566 L7.92849057,22.0410849 L1.69811321,22.0410849 L1.69811321,10.0778774 L11.9615094,1.93372642 L22.2232075,10.0778774 L22.2232075,22.0410849 Z M14.294717,22.0410849 L9.62660377,22.0410849 L9.62660377,14.1856132 L14.294717,14.1856132 L14.294717,22.0410849 Z M23.6003774,9.00127358 L12.4896226,0.184669811 C12.180566,-0.0615566038 11.7424528,-0.0615566038 11.4333962,0.184669811 L0.322641509,9.00127358 C0.117169811,9.16259434 0,9.40712264 0,9.66693396 L0,22.8901415 C0,23.3588208 0.380377358,23.7391981 0.849056604,23.7391981 L8.77754717,23.7391981 L15.1437736,23.7391981 L23.0722642,23.7391981 C23.5409434,23.7391981 23.9213208,23.3588208 23.9213208,22.8901415 L23.9213208,9.66693396 C23.9213208,9.40882075 23.8041509,9.16259434 23.6003774,9.00127358 L23.6003774,9.00127358 Z" id="Shape"></path>
            </g>
            <g id="Ratio" transform="translate(139.000000, 8.000000)" fill-rule="nonzero" fill="#EF3E4A">
                <path d="M19.032,9.58771429 C19.344,9.58771429 19.656,9.53428571 20.02,9.48085714 C22.36,8.94657143 23.868,6.48885714 23.348,4.08457143 C23.088,2.90914286 22.412,1.894 21.424,1.25285714 C20.436,0.611714286 19.24,0.398 18.096,0.665142857 C15.756,1.19942857 14.248,3.65714286 14.768,6.06142857 C15.184,8.19857143 17.004,9.58771429 19.032,9.58771429 Z M20.4847916,2.68489433 C21.0961132,3.07142734 21.5663606,3.74786011 21.7074348,4.47260951 L21.7074348,4.47260951 C22.036608,6.01874156 21.0961132,7.51655698 19.5913216,7.90308999 C18.08653,8.24130638 16.6287631,7.27497385 16.2525652,5.7288418 C15.923392,4.18270975 16.8638868,2.68489433 18.3686784,2.29836132 C18.5567774,2.25004469 18.791901,2.25004469 18.98,2.25004469 C19.5442969,2.25004469 20.061569,2.39499457 20.4847916,2.68489433 Z" id="Shape"></path>
                <path d="M22.204,9.76314286 L15.808,9.76314286 C13.936,9.76314286 12.428,11.3125714 12.428,13.236 L12.428,23.2805714 C12.428,24.9368571 13.572,26.326 15.132,26.6465714 L15.132,29.7071429 C15.132,30.0811429 15.444,30.4017143 15.808,30.4017143 C16.172,30.4017143 16.484,30.0811429 16.484,29.7071429 L16.484,26.0588571 C16.484,25.6848571 16.172,25.3642857 15.808,25.3642857 C14.664,25.3642857 13.78,24.4025714 13.78,23.2805714 L13.78,13.236 C13.78,12.0605714 14.716,11.1522857 15.808,11.1522857 L22.204,11.1522857 C23.348,11.1522857 24.232,12.114 24.232,13.236 L24.232,23.2805714 C24.232,24.456 23.296,25.3642857 22.204,25.3642857 C21.84,25.3642857 21.528,25.6848571 21.528,26.0588571 L21.528,29.7071429 C21.528,30.0811429 21.84,30.4017143 22.204,30.4017143 C22.568,30.4017143 22.88,30.0811429 22.88,29.7071429 L22.88,26.6465714 C24.44,26.326 25.584,24.9368571 25.584,23.2805714 L25.584,13.236 C25.584,11.3125714 24.076,9.76314286 22.204,9.76314286 Z" id="Shape" stroke="#EF3E4A" stroke-width="0.25"></path>
                <path d="M4.888,15.732 C3.484,15.732 2.184,14.7168571 1.872,13.2742857 C1.716,12.4728571 1.82,11.618 2.288,10.87 C2.704,10.1754286 3.432,9.64114286 4.212,9.48085714 C4.992,9.32057143 5.824,9.42742857 6.552,9.90828571 C7.28,10.3891429 7.748,11.0837143 7.904,11.8851429 L7.904,11.8851429 C8.06,12.6865714 7.956,13.5414286 7.488,14.2894286 C7.072,14.984 6.344,15.5182857 5.564,15.6785714 C5.356,15.6785714 5.148,15.732 4.888,15.732 Z M4.888,10.7631429 C4.784,10.7631429 4.628,10.7631429 4.524,10.8165714 C4.056,10.9234286 3.692,11.1905714 3.432,11.618 C3.172,12.0454286 3.12,12.5262857 3.224,12.9537143 C3.432,13.9154286 4.368,14.5031429 5.304,14.2894286 C5.772,14.1825714 6.136,13.9154286 6.396,13.488 C6.656,13.0605714 6.708,12.5797143 6.604,12.1522857 L6.604,12.1522857 C6.5,11.6714286 6.24,11.2974286 5.824,11.0302857 C5.564,10.87 5.252,10.7631429 4.888,10.7631429 Z" id="Shape"></path>
                <path d="M6.968,30.4017143 C6.604,30.4017143 6.292,30.0811429 6.292,29.7071429 L6.292,25.5245714 C6.292,25.1505714 6.604,24.83 6.968,24.83 C7.54,24.83 8.06,24.3491429 8.06,23.708 L8.06,18.0445714 C8.06,17.4568571 7.592,16.9225714 6.968,16.9225714 L2.808,16.9225714 C2.236,16.9225714 1.716,17.4034286 1.716,18.0445714 L1.716,23.7614286 C1.716,24.3491429 2.184,24.8834286 2.808,24.8834286 C3.172,24.8834286 3.484,25.204 3.484,25.578 L3.484,29.7605714 C3.484,30.1345714 3.172,30.4551429 2.808,30.4551429 C2.444,30.4551429 2.132,30.1345714 2.132,29.7605714 L2.132,26.1657143 C1.144,25.8451429 0.364,24.9368571 0.364,23.7614286 L0.364,18.0445714 C0.364,16.6554286 1.456,15.5868571 2.756,15.5868571 L6.916,15.5868571 C8.268,15.5868571 9.308,16.7088571 9.308,18.0445714 L9.308,23.7614286 C9.308,24.8834286 8.58,25.8451429 7.54,26.1657143 L7.54,29.7605714 C7.644,30.0811429 7.332,30.4017143 6.968,30.4017143 Z" id="Shape" stroke="#EF3E4A" stroke-width="0.25"></path>
            </g>
            <g id="Book" transform="translate(139.000000, 45.000000)" fill-rule="nonzero" fill="#EF3E4A">
                <path d="M6.31041667,0.262962 C4.87397156,0.344628 3.87880711,0.554466 2.6,0.882144 L2.6,1.764012 C1.74202022,1.704384 0.754557498,2.058351 0.25277772,2.570823 C0.09459372,2.735778 0.00179972,2.96652 -5.77783794e-08,3.199389 L-5.77783794e-08,20.05803 C4.61644438e-05,20.52957 0.412894387,20.9586 0.866666609,20.95866 L25.1333333,20.95866 C25.5871056,20.9586 25.9999538,20.52957 26,20.05803 L26,3.199389 C25.9982667,2.96652 25.9054062,2.735778 25.7472222,2.570823 C25.0147936,1.937838 24.2232091,1.708209 23.4,1.764012 L23.4,0.882144 C21.9831907,0.51138 20.4341627,0.241242 19.1314471,0.26349 C16.7587276,0.317271 14.8678573,1.111908 13,2.054838 C10.9892264,1.039761 8.94725,0.190623 6.31041667,0.262962 L6.31041667,0.262962 Z M6.825,2.036076 C8.83608556,2.051916 10.3756698,2.720637 12.1333333,3.612177 L12.1333333,16.00521 C9.43442356,14.90736 7.02402422,14.94051 4.33333333,16.04271 L4.33333333,2.326905 C5.21178378,2.149629 6.00253911,2.047323 6.825,2.036076 L6.825,2.036076 Z M19.2291667,2.054826 C19.9678122,2.053326 20.7676329,2.136234 21.6666667,2.326893 L21.6666667,16.04271 C18.9759758,14.94051 16.5655764,14.90736 13.8666667,16.00518 L13.8666667,3.612165 C15.6361256,2.717262 17.1964982,2.058924 19.2291667,2.054826 L19.2291667,2.054826 Z M2.6,3.593412 L2.6,18.81027 C6.06666667,16.82139 9.24444444,16.52118 12.1333333,17.92842 L12.1333333,19.1574 L1.73333333,19.1574 L1.73333333,3.677847 C2.04137556,3.530661 2.29751889,3.541353 2.6,3.593412 L2.6,3.593412 Z M24.2666667,3.677847 L24.2666667,19.1574 L13.8666667,19.1574 L13.8666667,17.92842 C16.7555556,16.52118 19.9333333,16.82139 23.4,18.81027 L23.4,3.593412 C23.7027267,3.499458 23.9946287,3.579222 24.2666667,3.677847 L24.2666667,3.677847 Z" id="Shape"></path>
            </g>
            <g id="EiffelTower" transform="translate(139.000000, 74.000000)" fill="#EF3E4A">
                <path d="M13.4642857,5.14705882 L13.4642857,1.02941176 C13.4642857,-0.343137255 15.5357143,-0.343137255 15.5357143,1.02941176 L15.5357143,5.14705882 L17.6071429,5.14705882 C18.1791521,5.14705882 18.6428571,5.60794217 18.6428571,6.17647059 L18.6428571,9.77941176 C18.6428571,10.3479402 18.1791521,10.8088235 17.6071429,10.8088235 L17.6071429,14.9264706 C17.6071429,18.2532056 18.2659032,21.1995882 20.107162,25.3172104 C20.5762408,26.3662154 21.1250606,27.4162646 21.7375864,28.4562953 C22.4819701,29.7202125 23.2805749,30.9042157 24.0785786,31.9727618 C24.3571751,32.3458093 24.6153133,32.6772088 24.8461356,32.9626154 C24.9825114,33.1312409 25.0779702,33.245358 25.1256586,33.300656 C25.4979173,33.7323149 25.4476214,34.3821825 25.0133196,34.7521759 C24.5790179,35.1221693 23.9251715,35.0721795 23.5529128,34.6405205 C23.4913657,34.5691526 23.382008,34.4384199 23.2316406,34.252494 C22.9845577,33.9469816 22.7101728,33.5947245 22.415283,33.19986 C21.5747543,32.0743717 20.7348268,30.8291039 19.9499136,29.4963701 C19.3001626,28.3931334 18.7161699,27.2757882 18.2142666,26.1533778 C16.2579063,21.778353 15.5357143,18.548265 15.5357143,14.9264706 L15.5357143,10.8088235 L13.4642857,10.8088235 L13.4642857,14.9264706 C13.4642857,18.548265 12.7420937,21.778353 10.7857334,26.1533778 C10.2838301,27.2757882 9.6998374,28.3931334 9.05008639,29.4963701 C8.26517322,30.8291039 7.42524571,32.0743717 6.58471696,33.19986 C6.28982719,33.5947245 6.01544235,33.9469816 5.76835939,34.252494 C5.61799201,34.4384199 5.50863426,34.5691526 5.44708719,34.6405205 C5.07482854,35.0721795 4.42098213,35.1221693 3.98668036,34.7521759 C3.5523786,34.3821825 3.50208272,33.7323149 3.87434138,33.300656 C3.92202982,33.245358 4.01748862,33.1312409 4.15386439,32.9626154 C4.3846867,32.6772088 4.64282488,32.3458093 4.92142146,31.9727618 C5.71942505,30.9042157 6.5180299,29.7202125 7.26241361,28.4562953 C7.87493938,27.4162646 8.42375915,26.3662154 8.89283804,25.3172104 C10.7340968,21.1995882 11.3928571,18.2532056 11.3928571,14.9264706 L11.3928571,10.8088235 C10.8208479,10.8088235 10.3571429,10.3479402 10.3571429,9.77941176 L10.3571429,6.17647059 C10.3571429,5.60794217 10.8208479,5.14705882 11.3928571,5.14705882 L13.4642857,5.14705882 L13.4642857,5.14705882 Z M16.5714286,7.20588235 L12.4285714,7.20588235 L12.4285714,8.75 L16.5714286,8.75 L16.5714286,7.20588235 Z" id="Shape"></path>
                <path d="M10.875,18.0147059 C9.4940476,18.0147059 9.4940476,20.0735294 10.875,20.0735294 L18.125,20.0735294 C19.5059524,20.0735294 19.5059524,18.0147059 18.125,18.0147059 L10.875,18.0147059 Z M8.28571429,25.2205882 C6.90476189,25.2205882 6.90476189,27.2794118 8.28571429,27.2794118 L20.7142857,27.2794118 C22.0952381,27.2794118 22.0952381,25.2205882 20.7142857,25.2205882 L8.28571429,25.2205882 Z M1.03571429,35 L27.9642857,35 C28.5362949,35 29,34.5391167 29,33.9705882 C29,33.4020598 28.5362949,32.9411765 27.9642857,32.9411765 L1.03571429,32.9411765 C0.46370508,32.9411765 0,33.4020598 0,33.9705882 C0,34.5391167 0.46370508,35 1.03571429,35 Z" id="Shape"></path>
                <path d="M19.6785714,33.9705882 C19.6785714,31.1279461 17.360046,28.8235294 14.5,28.8235294 C11.639954,28.8235294 9.32142857,31.1279461 9.32142857,33.9705882 C9.32142857,34.5391167 9.78513365,35 10.3571429,35 C10.9291521,35 11.3928571,34.5391167 11.3928571,33.9705882 C11.3928571,32.265003 12.7839724,30.8823529 14.5,30.8823529 C16.2160276,30.8823529 17.6071429,32.265003 17.6071429,33.9705882 C17.6071429,34.5391167 18.0708479,35 18.6428571,35 C19.2148663,35 19.6785714,34.5391167 19.6785714,33.9705882 Z" id="Shape"></path>
            </g>
            <g id="Pin" transform="translate(144.000000, 116.000000)" fill-rule="nonzero" fill="#EF3E4A">
                <path d="M9.5,27.7095 C9.16243333,27.7095 8.84323333,27.553575 8.63296667,27.286 C8.2802,26.8371542 0,16.2278375 0,10.1701833 C0,4.86295833 4.2617,0.545183333 9.5,0.545183333 C14.7383,0.545183333 19,4.86295833 19,10.1701833 C19,16.2143625 10.7201167,26.8361917 10.36735,27.2853583 C10.1574,27.5532542 9.83788333,27.7095 9.5,27.7095 L9.5,27.7095 Z M9.5,2.79101667 C5.48371667,2.79101667 2.21666667,6.10105417 2.21666667,10.1701833 C2.21666667,14.0667042 6.87578333,21.1885625 9.49936667,24.7443583 C12.1232667,21.1850333 16.7833333,14.0577208 16.7833333,10.1701833 C16.7833333,6.10105417 13.5162833,2.79101667 9.5,2.79101667 Z M9.5,14.5999292 C7.08953333,14.5999292 5.1281,12.6130083 5.1281,10.1701833 C5.1281,7.728 7.08921667,5.74107917 9.5,5.74107917 C11.9107833,5.74107917 13.8719,7.72767917 13.8719,10.1701833 C13.8719,12.6126875 11.9104667,14.5999292 9.5,14.5999292 Z M9.5,7.9869125 C8.31155,7.9869125 7.34476667,8.96641667 7.34476667,10.1701833 C7.34476667,11.3742708 8.31155,12.3540958 9.5,12.3540958 C10.68845,12.3540958 11.6552333,11.3742708 11.6552333,10.1701833 C11.6552333,8.96641667 10.68845,7.9869125 9.5,7.9869125 Z" id="Shape"></path>
            </g>
            <g id="Group" transform="translate(39.000000, 84.000000)" fill="#242526">
                <path d="M23.5,47 C10.5213084,47 0,36.4786916 0,23.5 C0,10.5213084 10.5213084,0 23.5,0 C36.4786916,0 47,10.5213084 47,23.5 C47,36.4786916 36.4786916,47 23.5,47 Z M23.5,45 C35.3741221,45 45,35.3741221 45,23.5 C45,11.6258779 35.3741221,2 23.5,2 C11.6258779,2 2,11.6258779 2,23.5 C2,35.3741221 11.6258779,45 23.5,45 Z" id="Oval-3" fill-rule="nonzero"></path>
                <rect id="Rectangle" transform="translate(22.596194, 20.889087) scale(-1, 1) rotate(-45.000000) translate(-22.596194, -20.889087) " x="21.5961941" y="16.3890873" width="2" height="9" rx="1"></rect>
                <rect id="Rectangle" transform="translate(22.596194, 25.838835) scale(-1, 1) rotate(45.000000) translate(-22.596194, -25.838835) " x="21.5961941" y="21.3388348" width="2" height="9" rx="1"></rect>
            </g>
            <g id="Group" transform="translate(39.000000, 132.000000)" fill="#242526">
                <path d="M23.5,47 C10.5213084,47 0,36.4786916 0,23.5 C0,10.5213084 10.5213084,0 23.5,0 C36.4786916,0 47,10.5213084 47,23.5 C47,36.4786916 36.4786916,47 23.5,47 Z M23.5,45 C35.3741221,45 45,35.3741221 45,23.5 C45,11.6258779 35.3741221,2 23.5,2 C11.6258779,2 2,11.6258779 2,23.5 C2,35.3741221 11.6258779,45 23.5,45 Z" id="Oval-3" fill-rule="nonzero"></path>
                <rect id="Rectangle" transform="translate(24.545942, 20.889087) rotate(-45.000000) translate(-24.545942, -20.889087) " x="23.5459415" y="16.3890873" width="2" height="9" rx="1"></rect>
                <rect id="Rectangle" transform="translate(24.545942, 25.838835) rotate(45.000000) translate(-24.545942, -25.838835) " x="23.5459415" y="21.3388348" width="2" height="9" rx="1"></rect>
            </g>
            <g id="faq-academia" transform="translate(180.000000, 8.000000)" fill-rule="nonzero" fill="#EF3E4A">
                <path d="M68.8890085,26.11079 L44.4957987,13.9379308 C43.4307075,13.4102653 42.147544,13.8451441 41.6149984,14.9032869 C41.0861965,15.9661158 41.5185973,17.2576311 42.5790089,17.7890455 L64.0586607,28.5073099 L42.1175941,39.3942773 L20.3721375,28.3320462 C20.0838703,28.0386904 19.699202,27.8671757 19.282712,27.778138 L7.81473062,21.9447629 L42.1175941,5.08289742 L77.2852593,21.9447629 L68.8890085,26.11079 Z M60.9841223,51.1510024 C40.7408374,64.7287827 24.3929037,51.8501826 20.9917248,48.7994699 L20.9917248,33.4718645 L41.1329931,43.7177604 C41.439043,43.8733421 41.772235,43.9501957 42.105427,43.9501957 C42.4330034,43.9501957 42.757772,43.877091 43.0600782,43.7280701 L60.9841223,34.8336726 L60.9841223,51.1510024 Z M83.1142472,19.9709378 L43.0320002,0.752853579 C42.438619,0.466995706 41.7488367,0.471681901 41.1601351,0.763163207 L2.06342518,19.9812474 C1.33152594,20.3402099 0.868239329,21.0815659 0.861687801,21.8960265 C0.855136274,22.7104871 1.30999949,23.4584038 2.03534721,23.8276759 L16.6976664,31.2871606 L16.6976664,49.7292109 C16.6976664,50.2962405 16.9213542,50.8426507 17.3200615,51.2456635 C17.4670029,51.39281 27.7295032,61.4924967 42.6361008,61.4906222 C49.1445756,61.4906222 56.5431224,59.5627217 64.3684543,54.04051 C64.9384373,53.6374972 65.2781808,52.9823672 65.2781808,52.283187 L65.2781808,32.7023913 L67.7818003,31.4605498 L67.7818003,46.9071845 C67.7818003,48.0956035 68.7420671,49.0572106 69.9297655,49.0572106 C71.1165279,49.0572106 72.0767947,48.0956035 72.0767947,46.9071845 L72.0767947,29.3292684 L83.1423251,23.8389228 C83.8779681,23.4733996 84.3412547,22.7189223 84.3347032,21.8960265 C84.3290876,21.0731307 83.8545698,20.3280258 83.1142472,19.9709378 L83.1142472,19.9709378 Z" id="Shape"></path>
            </g>
            <g id="faq-accommodation" transform="translate(180.000000, 92.000000)" fill-rule="nonzero" fill="#EF3E4A">
                <path d="M40.35,46.95 L54.15,46.95 L54.15,37.65 L40.35,37.65 L40.35,46.95 L40.35,46.95 Z M43.35,40.65 L51.15,40.65 L51.15,43.95 L43.35,43.95 L43.35,40.65 L43.35,40.65 Z" id="Shape"></path>
                <path d="M13.95,42.45 L27.75,42.45 L27.75,33.15 L13.95,33.15 L13.95,42.45 Z M16.95,36.15 L24.75,36.15 L24.75,39.45 L16.95,39.45 L16.95,36.15 Z" id="Shape"></path>
                <path d="M80.7,33.15 L66.9,33.15 L66.9,42.45 L80.7,42.45 L80.7,33.15 Z M77.7,39.45 L69.9,39.45 L69.9,36.15 L77.7,36.15 L77.7,39.45 Z" id="Shape"></path>
                <path d="M13.95,60.6 L27.75,60.6 L27.75,46.8 L13.95,46.8 L13.95,60.6 Z M24.75,57.6 L22.35,57.6 L22.35,49.8 L24.75,49.8 L24.75,57.6 Z M16.95,49.8 L19.35,49.8 L19.35,57.6 L16.95,57.6 L16.95,49.8 Z" id="Shape"></path>
                <path d="M80.7,46.8 L66.9,46.8 L66.9,60.6 L80.7,60.6 L80.7,46.8 Z M69.9,49.8 L72.3,49.8 L72.3,57.6 L69.9,57.6 L69.9,49.8 Z M77.7,57.6 L75.3,57.6 L75.3,49.8 L77.7,49.8 L77.7,57.6 Z" id="Shape"></path>
                <path d="M88.2,30.15 L94.65,30.15 L84.45,11.25 L27.45,11.25 L27.45,0.45 L18.15,0.45 L18.15,11.25 L10.05,11.25 L0,30.15 L6.45,30.15 L6.45,66.6 L2.55,66.6 L2.55,69.6 L30.75,69.6 L30.75,74.1 L40.35,74.1 L54.15,74.1 L63.75,74.1 L63.75,69.6 L91.95,69.6 L91.95,66.6 L88.05,66.6 L88.05,30.15 L88.2,30.15 Z M21.15,3.45 L24.45,3.45 L24.45,11.25 L21.15,11.25 L21.15,3.45 Z M4.95,27.15 L11.85,14.25 L18,14.25 L27.3,14.25 L82.5,14.25 L89.4,27.15 L88.05,27.15 L55.5,27.15 L47.25,21 L39,27.15 L6.3,27.15 L4.95,27.15 Z M9.3,66.6 L9.3,30.15 L34.95,30.15 L30.6,33.3 L30.6,66.6 L9.3,66.6 L9.3,66.6 Z M43.35,71.1 L43.35,54.9 L51.15,54.9 L51.15,71.1 L43.35,71.1 L43.35,71.1 Z M60.9,71.1 L54.3,71.1 L54.3,51.9 L40.5,51.9 L40.5,71.1 L33.9,71.1 L33.9,34.8 L47.4,24.75 L60.9,34.8 L60.9,71.1 Z M59.55,30.15 L85.2,30.15 L85.2,66.6 L63.9,66.6 L63.9,33.3 L59.55,30.15 Z" id="Shape"></path>
            </g>
            <g id="faq-agents" transform="translate(294.000000, 13.000000)" fill="#EF3E4A">
                <path d="M74.8838714,63.7404998 C74.5782252,64.1837143 74.0960562,64.4374505 73.564853,64.4374505 L59.5067651,64.4374505 L61.5988884,48.6151887 C61.7852181,47.2031634 61.3602556,45.7779571 60.4286069,44.7053451 C59.4969583,43.6327332 58.1534228,43.0181645 56.7379707,43.0181645 L40.1301075,43.0181645 L48.0916173,30.1781263 L63.3673864,35.3418219 C64.7763007,35.8179891 65.8812033,36.9021345 66.3960618,38.317455 L75.0800079,62.2164353 C75.2663377,62.735441 75.1960554,63.2906948 74.8838714,63.7404998 L74.8838714,63.7404998 Z M24.3116939,67.7327252 L21.7259603,48.1785648 C21.6605814,47.7007499 21.7995115,47.2377638 22.1149644,46.8752836 C22.4304174,46.5128034 22.8668212,46.3134392 23.3457213,46.3134392 L56.7379707,46.3134392 C57.2168708,46.3134392 57.6532746,46.5128034 57.9687276,46.8752836 C58.2841805,47.2377638 58.4231106,47.7007499 58.3593662,48.1802124 L55.7719981,67.7327252 L24.3116939,67.7327252 Z M4.88436765,64.4374505 C4.35316446,64.4374505 3.87262989,64.1837143 3.56534928,63.7404998 C3.25316526,63.2906948 3.18288299,62.735441 3.37084719,62.2164353 L12.0531589,38.3191026 C12.5680174,36.9021345 13.67292,35.8179891 15.0834688,35.3418219 L30.3576034,30.1781263 L38.3174787,43.0181645 L23.3457213,43.0181645 C21.9302692,43.0181645 20.5867337,43.6327332 19.6550851,44.7053451 C18.7250709,45.7779571 18.2984739,47.2031634 18.4848036,48.613541 L20.5769269,64.4374505 L4.88436765,64.4374505 Z M44.3421401,30.0084197 L39.2246103,38.2614353 L33.8798891,29.6426442 C35.4800365,30.6921892 37.2763205,31.3051103 39.2246103,31.3051103 C41.0715629,31.3051103 42.7910268,30.8454195 44.3421401,30.0084197 L44.3421401,30.0084197 Z M39.2246103,3.29527477 C44.6314415,3.29527477 49.0330728,7.73071461 49.0330728,13.1810991 C49.0330728,21.773528 44.9076672,28.0098355 39.2246103,28.0098355 C34.1839007,28.0098355 29.4177823,20.8030696 29.4177823,13.1810991 C29.4177823,7.73071461 33.8161447,3.29527477 39.2246103,3.29527477 L39.2246103,3.29527477 Z M47.1305482,28.0197214 L47.053728,27.9719399 C47.1043966,27.9225108 47.1534308,27.871434 47.2024649,27.8203572 C47.1763134,27.8862627 47.1583342,27.9554635 47.1305482,28.0197214 L47.1305482,28.0197214 Z M78.1495451,61.0845084 L69.4655989,37.1838805 C68.605867,34.8228161 66.7605489,33.0120626 64.4069101,32.2162538 L48.166803,26.7279736 C50.7459988,23.4854233 52.3020155,18.7451705 52.3020155,13.1810991 C52.3020155,5.91337057 46.4358979,7.10542736e-15 39.2246103,7.10542736e-15 C32.0133228,7.10542736e-15 26.1488397,5.91337057 26.1488397,13.1810991 C26.1488397,17.9625428 27.8209039,23.0455041 30.6354635,26.6076961 L14.043945,32.2162538 C11.6870373,33.0120626 9.84335367,34.8228161 8.98362175,37.1855281 L0.301310031,61.0845084 C-0.25277575,62.6036301 -0.0337565919,64.3023442 0.884816297,65.6286923 C1.79848577,66.9451546 3.29402704,67.7327252 4.88436765,67.7327252 L17.976483,67.7327252 L17.976483,69.3820103 C17.976483,70.2915061 18.7070917,71.028 19.6093199,71.028 L21.4481001,71.028 L58.6355919,71.028 L60.4776411,71.028 C61.3766003,71.028 62.107209,70.2931537 62.107209,69.3853055 L62.107209,67.7327252 L73.564853,67.7327252 C75.1551936,67.7327252 76.6507349,66.9451546 77.5644044,65.6286923 C78.4829773,64.3023442 78.7019964,62.6036301 78.1495451,61.0845084 L78.1495451,61.0845084 Z" id="Fill-1" fill-rule="nonzero"></path>
                <g id="Icon" transform="translate(3.000000, 86.000000)">
                    <path d="M17.7329909,52.3545447 C16.3363068,52.3545447 15.1997065,51.2179444 15.1997065,49.8212602 C15.1997065,48.4245761 16.3363068,47.2879758 17.7329909,47.2879758 C19.1296751,47.2879758 20.2662754,48.4245761 20.2662754,49.8212602 C20.2662754,51.2179444 19.1296751,52.3545447 17.7329909,52.3545447 L17.7329909,52.3545447 Z M17.7329909,43.9102633 C14.4734983,43.9102633 11.821994,46.5617676 11.821994,49.8212602 C11.821994,53.0807529 14.4734983,55.7322572 17.7329909,55.7322572 C20.9924836,55.7322572 23.6439879,53.0807529 23.6439879,49.8212602 C23.6439879,46.5617676 20.9924836,43.9102633 17.7329909,43.9102633 L17.7329909,43.9102633 Z M34.6215537,52.3545447 C33.2248696,52.3545447 32.0882693,51.2179444 32.0882693,49.8212602 C32.0882693,48.4245761 33.2248696,47.2879758 34.6215537,47.2879758 C36.0182379,47.2879758 37.1548382,48.4245761 37.1548382,49.8212602 C37.1548382,51.2179444 36.0182379,52.3545447 34.6215537,52.3545447 L34.6215537,52.3545447 Z M34.6215537,43.9102633 C31.3620611,43.9102633 28.7105568,46.5617676 28.7105568,49.8212602 C28.7105568,53.0807529 31.3620611,55.7322572 34.6215537,55.7322572 C37.8810464,55.7322572 40.5325507,53.0807529 40.5325507,49.8212602 C40.5325507,46.5617676 37.8810464,43.9102633 34.6215537,43.9102633 L34.6215537,43.9102633 Z M54.0434009,32.9326975 C54.0434009,34.3293816 52.9068007,35.4659819 51.5101165,35.4659819 C50.1134324,35.4659819 48.9768321,34.3293816 48.9768321,32.9326975 C48.9768321,31.5360133 50.1134324,30.399413 51.5101165,30.399413 C52.9068007,30.399413 54.0434009,31.5360133 54.0434009,32.9326975 L54.0434009,32.9326975 Z M45.5991195,32.9326975 C45.5991195,36.1921901 48.2506239,38.8436944 51.5101165,38.8436944 C54.7696091,38.8436944 57.4211135,36.1921901 57.4211135,32.9326975 C57.4211135,29.6732048 54.7696091,27.0217005 51.5101165,27.0217005 C48.2506239,27.0217005 45.5991195,29.6732048 45.5991195,32.9326975 L45.5991195,32.9326975 Z M34.6215537,35.4659819 C33.2248696,35.4659819 32.0882693,34.3293816 32.0882693,32.9326975 C32.0882693,31.5360133 33.2248696,30.399413 34.6215537,30.399413 C36.0182379,30.399413 37.1548382,31.5360133 37.1548382,32.9326975 C37.1548382,34.3293816 36.0182379,35.4659819 34.6215537,35.4659819 L34.6215537,35.4659819 Z M34.6215537,27.0217005 C31.3620611,27.0217005 28.7105568,29.6732048 28.7105568,32.9326975 C28.7105568,36.1921901 31.3620611,38.8436944 34.6215537,38.8436944 C37.8810464,38.8436944 40.5325507,36.1921901 40.5325507,32.9326975 C40.5325507,29.6732048 37.8810464,27.0217005 34.6215537,27.0217005 L34.6215537,27.0217005 Z M17.7329909,35.4659819 C16.3363068,35.4659819 15.1997065,34.3293816 15.1997065,32.9326975 C15.1997065,31.5360133 16.3363068,30.399413 17.7329909,30.399413 C19.1296751,30.399413 20.2662754,31.5360133 20.2662754,32.9326975 C20.2662754,34.3293816 19.1296751,35.4659819 17.7329909,35.4659819 L17.7329909,35.4659819 Z M17.7329909,27.0217005 C14.4734983,27.0217005 11.821994,29.6732048 11.821994,32.9326975 C11.821994,36.1921901 14.4734983,38.8436944 17.7329909,38.8436944 C20.9924836,38.8436944 23.6439879,36.1921901 23.6439879,32.9326975 C23.6439879,29.6732048 20.9924836,27.0217005 17.7329909,27.0217005 L17.7329909,27.0217005 Z M47.2879758,5.91099698 C47.2879758,4.51431284 48.4245761,3.37771256 49.8212602,3.37771256 C51.2179444,3.37771256 52.3545447,4.51431284 52.3545447,5.91099698 L52.3545447,10.9775658 C52.3545447,12.37425 51.2179444,13.5108502 49.8212602,13.5108502 C48.4245761,13.5108502 47.2879758,12.37425 47.2879758,10.9775658 L47.2879758,5.91099698 Z M18.5774191,5.91099698 C18.5774191,4.51431284 19.7140194,3.37771256 21.1107035,3.37771256 C22.5073876,3.37771256 23.6439879,4.51431284 23.6439879,5.91099698 L23.6439879,10.9775658 C23.6439879,12.37425 22.5073876,13.5108502 21.1107035,13.5108502 C19.7140194,13.5108502 18.5774191,12.37425 18.5774191,10.9775658 L18.5774191,5.91099698 Z M3.37771256,13.5108502 C3.37771256,11.6480418 4.89261664,10.1331377 6.75542512,10.1331377 L15.1997065,10.1331377 L15.1997065,10.9775658 C15.1997065,14.2370584 17.8512109,16.8885628 21.1107035,16.8885628 C24.3701961,16.8885628 27.0217005,14.2370584 27.0217005,10.9775658 L27.0217005,10.1331377 L43.9102633,10.1331377 L43.9102633,10.9775658 C43.9102633,14.2370584 46.5617676,16.8885628 49.8212602,16.8885628 C53.0807529,16.8885628 55.7322572,14.2370584 55.7322572,10.9775658 L55.7322572,10.1331377 L62.4876823,10.1331377 C64.3504908,10.1331377 65.8653949,11.6480418 65.8653949,13.5108502 L65.8653949,20.2662754 L3.37771256,20.2662754 L3.37771256,13.5108502 Z M65.8653949,43.0092085 L65.8653949,23.6439879 L3.37771256,23.6439879 L3.37771256,59.1099698 C3.37771256,60.9727783 4.89261664,62.4876823 6.75542512,62.4876823 L45.9834665,62.4876823 C43.4541121,57.0280608 44.4406416,50.3413505 48.943055,45.8389371 C51.8259327,42.9543706 55.6039041,41.5137762 59.3818756,41.5137762 C61.6041623,41.5137762 63.8258652,42.0123681 65.8653949,43.0092085 Z M69.2431075,45.2896247 C69.4398914,45.466516 69.6330683,45.6496203 69.8223852,45.8389371 C75.5881405,51.6046925 75.5881405,60.952512 69.8223852,66.7182673 C66.9395075,69.601145 63.161536,71.0434283 59.3818756,71.0434283 C55.6039041,71.0434283 51.8259327,69.601145 48.943055,66.7182673 C48.6667288,66.4419411 48.4036456,66.1573874 48.1538054,65.8653949 L6.75542512,65.8653949 C3.02980817,65.8653949 0,62.8355867 0,59.1099698 L0,13.5108502 C0,9.78523328 3.02980817,6.75542512 6.75542512,6.75542512 L15.1997065,6.75542512 L15.1997065,5.91099698 C15.1997065,2.65150436 17.8512109,0 21.1107035,0 C24.3701961,0 27.0217005,2.65150436 27.0217005,5.91099698 L27.0217005,6.75542512 L43.9102633,6.75542512 L43.9102633,5.91099698 C43.9102633,2.65150436 46.5617676,0 49.8212602,0 C53.0807529,0 55.7322572,2.65150436 55.7322572,5.91099698 L55.7322572,6.75542512 L62.4876823,6.75542512 C66.2132993,6.75542512 69.2431075,9.78523328 69.2431075,13.5108502 L69.2431075,45.2896247 Z M64.1765386,54.0434009 L60.7988261,54.0434009 L60.7988261,50.6656884 C60.7988261,49.7334397 60.0422185,48.9768321 59.1099698,48.9768321 C58.1777211,48.9768321 57.4211135,49.7334397 57.4211135,50.6656884 L57.4211135,55.7322572 C57.4211135,56.6645059 58.1777211,57.4211135 59.1099698,57.4211135 L64.1765386,57.4211135 C65.1087873,57.4211135 65.8653949,56.6645059 65.8653949,55.7322572 C65.8653949,54.8000086 65.1087873,54.0434009 64.1765386,54.0434009 L64.1765386,54.0434009 Z M67.4343424,64.3302245 C65.2844283,66.4801386 62.4235058,67.6657157 59.3818756,67.6657157 C56.3419343,67.6657157 53.4810118,66.4801386 51.3310978,64.3302245 C46.8910946,59.8902214 46.8910946,52.6669831 51.3310978,48.2269799 C53.4810118,46.075377 56.3419343,44.8914888 59.3818756,44.8914888 C62.4235058,44.8914888 65.2844283,46.075377 67.4343424,48.2269799 C69.5842564,50.376894 70.7698335,53.2361276 70.7698335,56.2777578 C70.7698335,59.319388 69.5842564,62.1803105 67.4343424,64.3302245 L67.4343424,64.3302245 Z" id="Fill-1"></path>
                </g>
            </g>
            <g id="faq-excursions-activities" transform="translate(402.000000, 10.000000)">
                <g id="Group-3" transform="translate(0.000000, 0.000172)">
                    <g id="Fill-1-Clipped">
                        <mask id="mask-2" fill="white">
                            <use xlink:href="#path-1"></use>
                        </mask>
                        <g id="path-1"></g>
                        <path d="M65.0517682,70.5581395 L57.2453591,61.9534884 L70.9711318,61.9534884 L72.2665864,70.5581395 L65.0517682,70.5581395 Z M35.3729045,70.5581395 L24.6318591,57.1667209 L34.6319045,50.3656047 C35.2295409,51.602093 35.8280409,52.8385814 36.4256773,54.0750698 C36.7020409,54.6644884 37.3385409,55.0697674 37.99145,55.0697674 C38.6443591,55.0697674 39.2799955,54.6644884 39.5563591,54.0750698 C40.2645409,52.5890465 40.9830864,51.108186 41.6990409,49.6256047 L61.1740409,70.5581395 L35.3729045,70.5581395 Z M3.71545,70.5581395 L8.00685909,42.0010233 L8.00685909,42.0010233 L30.9467682,70.5581395 L3.71545,70.5581395 Z M29.4138136,39.5813953 C30.6427682,42.1214884 31.8708591,44.6607209 33.1006773,47.200814 L22.4727682,54.5053023 L10.4898136,39.5813953 L29.4138136,39.5813953 Z M24.1732682,16.994186 C24.1732682,9.20095349 30.2653591,3.44186047 37.9638136,3.44186047 C45.6631318,3.44186047 51.8096318,9.20611628 51.8096318,16.994186 C51.8096318,18.6531628 51.2284045,21.5993953 50.6756773,23.0707907 C46.4887682,31.8432326 42.2249955,40.6087907 37.99145,49.369186 C33.9073136,40.5425349 29.2954955,31.9275581 25.3063591,23.0707907 C24.7553591,21.596814 24.1732682,18.6497209 24.1732682,16.994186 L24.1732682,16.994186 Z M67.5977682,39.5813953 L68.6229045,46.4651163 L43.2216318,46.4651163 C44.3365864,44.1693953 45.4558591,41.8753953 46.5751318,39.5813953 L67.5977682,39.5813953 Z M69.1626773,49.9069767 L70.4581318,58.5116279 L54.4653136,58.5116279 L46.1398591,49.9069767 L46.1398591,49.9069767 L69.1626773,49.9069767 Z M75.9638136,72.0097442 L70.7819955,37.5911395 C70.6550409,36.7926279 69.8941773,36.1421163 69.0823591,36.1395349 L48.2479955,36.1395349 C50.1557682,32.2192558 52.0566318,28.2972558 53.9143136,24.3614884 C54.7010864,22.3023953 55.2641773,19.3208837 55.2641773,16.994186 C55.2641773,7.37332558 47.4379045,0 37.9638136,0 L37.9638136,0 C28.4905864,0 20.7187227,7.37848837 20.7187227,16.994186 C20.7187227,19.3226047 21.2869955,22.3075581 22.0677227,24.3614884 C23.9564955,28.2860698 25.8547682,32.2132326 27.7521773,36.1395349 L6.90054091,36.1395349 L6.90054091,36.1395349 C5.92463182,36.1395349 5.50490455,36.6738837 5.20004091,37.5911395 L0.0182227273,72.0097442 C-0.137231818,72.9872326 0.725540909,73.9965581 1.71872273,74 L74.2641773,74 C75.2564955,74 76.1192682,72.9872326 75.9638136,72.0097442 L75.9638136,72.0097442 Z" id="Fill-1" fill="#EF3E4A" fill-rule="nonzero" mask="url(#mask-2)"></path>
                    </g>
                </g>
                <path d="M31.94565,17.2093884 C31.94565,13.8621791 34.6315591,11.1861326 37.9911045,11.1861326 C41.35065,11.1861326 44.0365591,13.8621791 44.0365591,17.2093884 C44.0365591,20.5557372 41.35065,23.2326442 37.9911045,23.2326442 C34.6324227,23.2326442 31.94565,20.5557372 31.94565,17.2093884 M47.4911045,17.2093884 C47.4911045,12.002714 43.2169682,7.74427209 37.9911045,7.74427209 C32.7652409,7.74427209 28.4911045,12.002714 28.4911045,17.2093884 C28.4911045,22.4160628 32.7652409,26.6745047 37.9911045,26.6745047 C43.2178318,26.6745047 47.4911045,22.4160628 47.4911045,17.2093884" id="Fill-4" fill="#EF3E4A" fill-rule="nonzero"></path>
            </g>
            <g id="faq-locations" transform="translate(507.000000, 11.000000)" stroke="#D25C43" fill-rule="nonzero" stroke-width="0.5" fill="#EF3E4A">
                <path d="M88.4954153,50.11668 L80.9515339,19.02508 C80.827839,18.51512 80.3737881,18.15564 79.8526102,18.15564 L45.507661,18.15564 L45.507661,13.61464 L55.1581271,9.10784 C55.5352458,8.93152 55.7856525,8.56064 55.8105424,8.14264 C55.8369407,7.72464 55.6325424,7.3264 55.2788051,7.10524 L44.9744153,0.64524 C44.6252034,0.42712 44.1862373,0.41496 43.8272203,0.61636 C43.4674492,0.81776 43.2457034,1.19928 43.2457034,1.61348 L43.2457034,18.1564 L8.70389831,18.1564 C8.18272034,18.1564 7.72866949,18.51588 7.60497458,19.02584 L0.0618474576,50.11744 C-0.0203644068,50.45716 0.0565677966,50.81664 0.270771186,51.09176 C0.484974576,51.36688 0.813067797,51.528 1.16077119,51.528 L3.59997458,51.528 L3.59997458,74.83416 C3.59997458,75.46344 4.10682203,75.97416 4.73133051,75.97416 L26.8991186,75.97416 L37.1801271,75.97416 L51.3786441,75.97416 L61.6588983,75.97416 L83.8266864,75.97416 C84.4511949,75.97416 84.9580424,75.46344 84.9580424,74.83416 L84.9580424,51.528 L87.3957373,51.528 C87.7434407,51.528 88.0707797,51.36688 88.2857373,51.09176 C88.4991864,50.81588 88.5776271,50.45716 88.4954153,50.11668 Z M45.507661,3.66624 L52.3063559,7.9268 L45.507661,11.10208 L45.507661,3.66624 Z M25.7677627,73.69416 L5.86268644,73.69416 L5.86268644,51.528 L25.7677627,51.528 L25.7677627,73.69416 Z M25.7677627,49.248 L2.60211864,49.248 L3.77118644,44.43112 L25.7677627,44.43112 L25.7677627,49.248 Z M26.1124492,36.46176 C25.8922119,36.67608 25.7677627,36.97248 25.7677627,37.28104 L25.7677627,42.15112 L4.32404237,42.15112 L9.59163559,20.4364 L42.5563305,20.4364 L26.1124492,36.46176 Z M50.2472881,73.69416 L38.3114831,73.69416 L38.3114831,56.8328 C38.3114831,53.51768 40.9890254,50.81968 44.2797627,50.81968 C47.5689915,50.81968 50.2472881,53.51768 50.2472881,56.8328 L50.2472881,73.69416 Z M60.5275424,73.69416 L52.51,73.69416 L52.51,56.8328 C52.51,52.25988 48.8172542,48.53968 44.2797627,48.53968 C39.7415169,48.53968 36.0487712,52.26064 36.0487712,56.8328 L36.0487712,73.69416 L28.0304746,73.69416 L28.0304746,37.76364 L44.4532373,21.75956 L60.5275424,37.75756 L60.5275424,73.69416 Z M46.3433559,20.4364 L78.9641186,20.4364 L84.2317119,42.15112 L62.7902542,42.15112 L62.7902542,37.28104 C62.7902542,36.97628 62.6695763,36.68444 62.4531102,36.47012 L46.3433559,20.4364 Z M82.6953305,73.69416 L62.7902542,73.69416 L62.7902542,51.528 L82.6953305,51.528 L82.6953305,73.69416 L82.6953305,73.69416 Z M62.7902542,49.248 L62.7902542,44.43112 L84.785322,44.43112 L85.9536356,49.248 L62.7902542,49.248 Z" id="Shape"></path>
                <path d="M37.5104831,37.61164 C37.5104831,41.37136 40.5462881,44.43112 44.2775,44.43112 C48.0087119,44.43112 51.0452712,41.37212 51.0452712,37.61164 C51.0452712,33.85116 48.0094661,30.79216 44.2775,30.79216 C40.5470424,30.79292 37.5104831,33.85192 37.5104831,37.61164 Z M48.7825593,37.61164 C48.7825593,40.11432 46.7612034,42.15112 44.2775,42.15112 C41.7945508,42.15112 39.7731949,40.11432 39.7731949,37.61164 C39.7731949,35.10896 41.7945508,33.07216 44.2775,33.07216 C46.7619576,33.07292 48.7825593,35.10896 48.7825593,37.61164 Z" id="Shape"></path>
                <rect id="Rectangle-path" x="11.3437288" y="58.48808" width="2.26271186" height="7.09308"></rect>
                <rect id="Rectangle-path" x="18.0059068" y="58.48808" width="2.26271186" height="7.09308"></rect>
                <rect id="Rectangle-path" x="68.2886441" y="58.48808" width="2.26271186" height="7.09308"></rect>
                <rect id="Rectangle-path" x="74.9515763" y="58.48808" width="2.26271186" height="7.09308"></rect>
            </g>
            <g id="faq-medical" transform="translate(518.000000, 103.000000)" fill-rule="nonzero" fill="#EF3E4A">
                <path d="M18.080817,0.819638 C8.09010789,0.819638 0,8.9097489 0,18.900455 L0,49.0351501 C0,59.0258562 8.09010789,67.1159671 18.080817,67.1159671 L48.2155121,67.1159671 C58.2062212,67.1159671 66.2963291,59.0258562 66.2963291,49.0351501 L66.2963291,18.900455 C66.2963291,8.9097489 58.2062212,0.819638 48.2155121,0.819638 L18.080817,0.819638 Z M18.080817,3.8331075 L48.2155121,3.8331075 C56.5888838,3.8331075 63.2828596,10.5270855 63.2828596,18.900455 L63.2828596,49.0351501 C63.2828596,57.4085271 56.5888838,64.1024976 48.2155121,64.1024976 L18.080817,64.1024976 C9.70744526,64.1024976 3.0134695,57.4085271 3.0134695,49.0351501 L3.0134695,18.900455 C3.0134695,10.5270855 9.70744526,3.8331075 18.080817,3.8331075 Z M26.9799692,15.1336181 C26.203465,15.2068014 25.6111277,15.8604149 25.6144908,16.6403529 L25.6144908,26.4341288 L15.8207149,26.4341288 C14.9886027,26.4342119 14.3140633,27.1087514 14.3139801,27.9408635 L14.3139801,39.9947416 C14.3140633,40.8268537 14.9886027,41.5013931 15.8207149,41.5014763 L25.6144908,41.5014763 L25.6144908,51.2952522 C25.6145739,52.1273644 26.2891134,52.8019038 27.1212255,52.8019869 L39.1751036,52.8019869 C40.0072157,52.8019038 40.6817551,52.1273644 40.6818383,51.2952522 L40.6818383,41.5014763 L50.4756142,41.5014763 C51.3077264,41.5013931 51.9822658,40.8268537 51.9823489,39.9947416 L51.9823489,27.9408635 C51.9822658,27.1087514 51.3077264,26.4342119 50.4756142,26.4341288 L40.6818383,26.4341288 L40.6818383,16.6403529 C40.6817551,15.8082407 40.0072157,15.1337013 39.1751036,15.1336181 L27.1212255,15.1336181 C27.074166,15.13141 27.0270287,15.13141 26.9799692,15.1336181 Z M28.6279603,18.1470876 L37.6683688,18.1470876 L37.6683688,27.9408635 C37.668452,28.7729757 38.3429914,29.4475151 39.1751036,29.4475983 L48.9688794,29.4475983 L48.9688794,38.4880068 L39.1751036,38.4880068 C38.3429914,38.48809 37.668452,39.1626294 37.6683688,39.9947416 L37.6683688,49.7885174 L28.6279603,49.7885174 L28.6279603,39.9947416 C28.6278771,39.1626294 27.9533377,38.48809 27.1212255,38.4880068 L17.3274496,38.4880068 L17.3274496,29.4475983 L27.1212255,29.4475983 C27.9533377,29.4475151 28.6278771,28.7729757 28.6279603,27.9408635 L28.6279603,18.1470876 Z" id="Shape"></path>
            </g>
            <g id="Icon" transform="translate(402.000000, 92.000000)" fill="#EF3E4A">
                <path d="M78.9777105,66.643669 L39.4888553,66.643669 L65.4590033,59.5285599 L78.9777105,59.5285599 L78.9777105,66.643669 Z M12.8071963,70.556979 C12.4514409,70.556979 11.7399299,70.556979 11.7399299,69.8454681 L11.7399299,59.5285599 L51.9402961,59.5285599 L12.8071963,70.556979 Z M6.7593536,55.6152499 C7.82661996,37.4717219 22.768349,22.8857483 41.2676325,22.8857483 C59.7669161,22.8857483 74.7086451,37.4717219 75.7759115,55.6152499 L6.7593536,55.6152499 Z M3.55755453,66.2879135 L8.53813087,66.2879135 L8.53813087,59.1728045 L3.55755453,59.1728045 L3.55755453,66.2879135 Z M41.2676325,11.5015738 C43.4021653,11.5015738 45.1809425,13.2803511 45.1809425,15.4148838 C45.1809425,17.5494165 43.4021653,18.9724383 41.2676325,18.9724383 C39.1330998,18.9724383 37.3543226,17.193661 37.3543226,15.0591283 C37.3543226,12.9245956 39.1330998,11.5015738 41.2676325,11.5015738 L41.2676325,11.5015738 Z M78.9777105,55.9710054 C78.2661996,37.4717219 64.391737,22.5299928 46.6039643,20.0397047 C47.8704537,18.3534238 48.635328,16.6635854 48.3080329,14.383193 C47.9380473,11.8181961 46.1343671,9.52713103 43.676097,8.70177838 C38.7595566,7.05107308 34.1525235,10.7224693 34.1525235,15.4148838 C34.1525235,17.193661 34.8640344,18.9724383 35.9313007,20.0397047 C30.3494977,20.8223667 25.1554681,22.8288274 20.6302587,25.7887128 C20.6160285,25.7744826 17.4391323,22.9284389 20.2780608,15.4753622 C24.1913708,5.86996497 17.7877726,0.533633179 17.4320172,0.533633179 C17.0762617,-0.177877726 16.0089954,-0.177877726 15.2974845,0.533633179 C14.5859736,1.24514409 14.941729,2.31241044 15.6532399,3.02392135 C15.6532399,3.02392135 20.2780608,6.93723133 17.4320172,14.4080958 C14.2800239,22.1422194 16.8948265,26.1800438 18.0332439,27.6493138 C15.3401751,29.7518285 12.9566136,32.231444 10.9181348,34.9885488 C10.4165197,34.4442429 8.11833943,31.4843576 10.6726636,24.7819248 C14.5859736,15.1765276 8.18237542,9.84019583 7.82661996,9.84019583 C7.47086451,9.48444037 6.40359815,9.84019583 5.69208725,10.5517067 C5.33633179,11.2632176 5.33633179,12.330484 6.0478427,12.6862394 C6.0478427,13.0419949 10.6726636,16.5995494 7.82661996,24.0704139 C4.28329565,32.7686348 8.02228546,37.0768333 9.02551584,37.8168046 C5.79525633,43.1389062 3.81369845,49.3183784 3.55755453,55.9710054 L3.63797881e-12,55.9710054 L3.63797881e-12,67.0100971 C3.63797881e-12,68.5754211 1.27004697,69.8454681 2.83537096,69.8454681 L8.53813087,69.8454681 C8.53813087,71.9800008 10.3169081,73.758778 12.8071963,73.758778 L13.8744627,73.758778 L27.7489253,69.8454681 L28.1046808,69.8454681 L80.0343042,69.8454681 C81.6138584,69.8454681 82.8910205,68.568306 82.8910205,66.9887518 L82.8910205,55.9710054 L78.9777105,55.9710054 Z" id="Page-1"></path>
            </g>
            <g id="faq-parents" transform="translate(625.000000, 26.000000)" fill-rule="nonzero" fill="#EF3E4A">
                <path d="M63.572862,58.0541538 C63.4059608,51.9147248 60.7661753,45.8407886 57.1640671,40.8010061 C60.2137112,39.2460784 64.0714529,38.2721359 67.5520825,38.178122 C67.607012,38.1791783 67.6577161,38.190798 67.7126456,38.190798 C67.8626455,38.190798 68.0073636,38.1686149 68.1552507,38.1622769 C73.9217929,38.178122 79.7284759,40.4767107 83.7784709,44.3418468 C87.5654381,47.9576874 89.7679002,52.9826812 90.0636744,58.0541538 L63.572862,58.0541538 Z M3.27716166,58.0731679 C3.49476702,51.3305706 6.58877729,44.9946629 11.6137711,40.1967815 C16.8352435,35.2129848 24.1091782,31.8960875 31.5331128,31.8960875 C38.9570473,31.8960875 46.5795731,35.2129848 51.7999892,40.1967815 C56.8260393,44.9957192 59.6063176,51.3295142 59.823923,58.0731679 L3.27716166,58.0731679 Z M21.4609421,13.4302651 C21.4609421,7.8749903 25.9788942,3.35703812 31.5331128,3.35703812 C37.0873313,3.35703812 41.6073961,7.8749903 41.6073961,13.4302651 C41.6073961,22.1841276 37.3714858,28.5390493 31.5331128,28.5390493 C26.3560065,28.5390493 21.4609421,21.1953964 21.4609421,13.4302651 L21.4609421,13.4302651 Z M57.640475,19.7239194 C57.640475,14.1697009 62.1584271,9.65069233 67.7126456,9.65069233 C73.2668642,9.65069233 77.786929,14.1697009 77.786929,19.7239194 C77.786929,28.4788382 73.5510187,34.8327036 67.7126456,34.8327036 C62.5355393,34.8327036 57.640475,27.490107 57.640475,19.7239194 L57.640475,19.7239194 Z M92.9907835,59.1104906 L92.9907835,59.0777441 C92.9823328,52.6752872 90.2432517,46.3774076 85.5309336,41.8784695 C82.4897401,38.9756562 78.6890406,36.9189686 74.5999611,35.8013643 C78.6066463,32.7168611 81.1450235,26.884826 81.1450235,19.7239194 C81.1450235,12.3189989 75.1196788,6.29365422 67.7126456,6.29365422 C60.3077252,6.29365422 54.2823805,12.3189989 54.2823805,19.7239194 C54.2823805,25.7788415 56.9358984,32.3070024 61.1992734,35.7464348 C59.0010367,36.3485468 56.8767435,37.2062922 54.8971685,38.3143894 C54.5971688,38.0017137 54.3859015,37.6235452 54.0711132,37.3235456 C49.857386,33.299959 44.4668996,30.5408074 38.7056391,29.2774287 C42.5454231,26.137996 44.9654906,20.4189889 44.9654906,13.4302651 C44.9654906,6.02428835 38.9401459,0 31.5331128,0 C24.1281923,0 18.1028476,6.02428835 18.1028476,13.4302651 C18.1028476,19.3700466 20.6581262,25.7640528 24.7799521,29.2520766 C18.9912268,30.5070047 13.5806701,33.2777759 9.34264714,37.3235456 C3.4567389,42.9422006 0.00885582359,50.7928952 0.000405129774,58.7798572 L0.000405129774,58.8136599 C-0.00276388041,59.2858424 0.0130811705,59.761194 0.0331515683,60.2333765 C0.069067017,61.3742202 1.00498136,61.223164 2.14582502,61.223164 L90.8781101,61.223164 C92.0200101,61.223164 92.9548681,61.3742202 92.9907835,60.2333765 C93.0097976,59.7865461 92.9939525,59.4199972 92.9907835,59.1104906 L92.9907835,59.1104906 Z" id="Fill-1"></path>
            </g>
            <g id="faq-student-suppport" transform="translate(625.000000, 107.000000)" fill-rule="nonzero" fill="#EF3E4A">
                <path d="M80.1113691,57.1812143 L76.2530764,57.1812143 C69.4473576,52.7949246 58.1512774,50.6600218 47.4672155,53.6570969 C50.7001229,51.3560612 54.5106762,50.1864477 58.864503,50.1864477 C64.0079384,50.1864477 69.803493,51.8926513 75.6276912,55.1226944 C76.071667,55.3690293 76.6101666,55.361391 77.0484137,55.1035986 C77.4847511,54.8458062 77.7530462,54.3760512 77.7530462,53.8690596 L77.7530462,11.0650218 L80.1123238,11.0650218 L80.1123238,57.1812143 L80.1113691,57.1812143 Z M44.6295897,59.5070744 C44.1980262,60.1009517 43.5401782,60.4876402 42.8059473,60.4876402 L40.1688267,60.4876402 C39.4345959,60.4876402 38.7767479,60.1009517 38.3442296,59.5070744 C37.2538633,58.0051951 35.6316809,57.1812143 33.7746209,57.1812143 L12.6203692,57.1812143 C20.4085634,53.9664478 31.2024259,53.2369908 40.5727015,58.5742479 C40.6108929,58.5942984 40.6519488,58.6076654 40.6920498,58.6267612 C40.8257199,58.734652 40.9727571,58.8263116 41.1427091,58.882644 C41.2897462,58.9313381 41.4406025,58.9552077 41.5895492,58.9552077 C41.9179958,58.9552077 42.2368945,58.8396786 42.4927773,58.6305803 C51.6377233,54.0170515 62.1604263,54.3416789 69.8054026,57.1812143 L49.1991983,57.1812143 C47.3430932,57.1812143 45.7209108,58.0051951 44.6295897,59.5070744 L44.6295897,59.5070744 Z M2.86435978,11.0650218 L5.37258416,11.0650218 L5.37258416,53.598855 C5.37258416,54.1058466 5.64087919,54.5756016 6.07721666,54.833394 C6.51546371,55.0911864 7.05491813,55.0978699 7.4988939,54.8505802 C13.3211825,51.6224467 19.1176919,49.9162431 24.2611273,49.9162431 C28.5681696,49.9162431 32.3443506,51.0591226 35.5543431,53.312419 C24.8569142,50.0231792 13.587568,52.5743689 6.63863118,57.057092 C6.58134398,57.0943287 6.53360465,57.1392036 6.48300096,57.182169 L2.86435978,57.182169 L2.86435978,11.0650218 Z M8.23694394,6.78566831 C13.4691745,4.18292006 18.7787427,2.86435978 24.030069,2.86435978 C29.3339085,2.86435978 34.5947826,4.14186424 40.0857603,6.76084386 C40.0867151,12.7740898 40.1039013,22.307634 40.1210874,31.8526355 C40.1239518,33.4156212 40.1268161,34.9766973 40.1296805,36.5234515 C40.1182231,42.7543888 40.10963,48.7237146 40.104856,53.4050333 C35.877061,49.2335707 30.468195,47.0518833 24.2611273,47.0518833 C19.2714126,47.0518833 13.7727966,48.4897919 8.23694394,51.2309842 L8.23694394,6.78566831 Z M56.0259225,4.11894936 L56.0259225,20.5470075 L53.3219668,18.1524027 C52.7806028,17.6730998 51.9661699,17.672145 51.4238511,18.1524027 L48.7179859,20.5470075 L48.7179859,5.67334193 C51.1641491,4.88850735 53.612222,4.36719388 56.0259225,4.11894936 L56.0259225,4.11894936 Z M74.8877316,7.05587292 L74.8877316,51.500234 C69.3518789,48.7609513 63.8523082,47.3211331 58.8635482,47.3211331 C52.6555258,47.3211331 47.2466598,49.5028205 43.0188647,53.6742831 C43.0150456,48.941406 43.0045429,42.8899685 42.9940403,36.5826483 C42.9969046,34.9280031 42.999769,33.2561718 43.0035881,31.5824309 C43.0207743,22.3238653 43.0370057,13.0662545 43.0389152,7.03104847 C43.984154,6.5803892 44.9207996,6.18224319 45.8526713,5.8108312 L45.8526713,23.7283564 C45.8526713,24.2916805 46.1839823,24.8024913 46.6976575,25.0345045 C46.8857504,25.1194805 47.0862556,25.1605363 47.2848512,25.1605363 C47.6276196,25.1605363 47.9675236,25.0373688 48.2339091,24.8005817 L52.3719542,21.1380204 L56.5071349,24.8005817 C56.9291506,25.1739033 57.5316209,25.2655628 58.0443413,25.0345045 C58.5580165,24.8034461 58.8893275,24.2926353 58.8893275,23.7283564 L58.8893275,3.1402931 C58.891237,3.13838353 58.8921918,3.13742874 58.8941014,3.13551917 C64.2113079,3.10114685 69.588666,4.41970714 74.8877316,7.05587292 L74.8877316,7.05587292 Z M77.7520914,8.20066204 L77.7520914,6.17937883 C77.7520914,5.65138184 77.4589719,5.15775717 76.9911265,4.91333181 C71.0934097,1.83223547 65.0725254,0.270204606 59.0946066,0.270204606 C53.4527726,0.270204606 47.6562632,1.68424355 41.8492511,4.44071244 C35.8512818,1.50092452 29.8580863,0 24.0291142,0 C18.0502405,0 12.0293563,1.56298565 6.13259429,4.6431272 C5.66474885,4.88755257 5.37162937,5.38022245 5.37162937,5.90821944 L5.37162937,8.20066204 L2.3860117,8.20066204 C1.0684062,8.20066204 8.52651283e-13,9.26906824 8.52651283e-13,10.5866737 L8.52651283e-13,57.6614719 C8.52651283e-13,58.9781226 1.06745141,60.045574 2.38410212,60.045574 L33.7755757,60.045574 C34.6740299,60.045574 35.5142421,60.4800019 36.0412843,61.2085041 C37.0132571,62.550934 38.5762427,63.352 40.2251592,63.352 L42.7505697,63.352 C44.3994861,63.352 45.9643814,62.5499793 46.9363541,61.2075493 C47.4624415,60.4800019 48.3016989,60.045574 49.2001531,60.045574 L80.5868528,60.045574 C81.9063679,60.045574 82.9766836,58.976213 82.9766836,57.6557432 L82.9766836,10.5866737 C82.9766836,9.26906824 81.9082774,8.20066204 80.5906719,8.20066204 L77.7520914,8.20066204 Z" id="Page-1"></path>
            </g>
            <g id="faq-travel" transform="translate(747.000000, 24.000000)" stroke="#EF3E4A" stroke-width="3">
                <path d="M14.3385491,63.2280702 L7.16927454,63.2280702 L7.16927454,11.1472281 C7.16927454,10.2620351 7.88859175,9.54385965 8.77519203,9.54385965 L12.7326316,9.54385965 C13.6192319,9.54385965 14.3385491,10.2620351 14.3385491,11.1472281 L14.3385491,63.2280702 L14.3385491,63.2280702 Z" id="Shape"></path>
                <path d="M57.3541963,68 C55.7434993,67.3689123 54.0539403,66.774807 52.5746799,65.6140351 C47.8847795,61.9336842 45.4054054,56.3946667 45.4054054,50.1052632 L45.4054054,39.3684211 C51.012973,38.6538246 54.8043243,36.3263158 57.3541963,34.5964912 C59.9040683,36.3263158 63.6954196,38.6538246 69.3029872,39.3684211 L69.3029872,50.1052632 C69.3029872,56.3946667 66.8224182,61.9336842 62.1337127,65.6140351 C60.6532575,66.774807 58.9648933,67.3689123 57.3541963,68 L57.3541963,68 Z" id="Shape"></path>
                <polyline id="Shape" points="51.3798009 53.6842105 51.3798009 45.3333333 56.1593172 42.9473684"></polyline>
                <path d="M64.6929047,14.3157895 L4.60960455,14.3157895 C2.06451209,14.3157895 -0.000238975816,16.3760702 -0.000238975816,18.9183158 L-0.000238975816,58.6255439 C-0.000238975816,61.1677895 2.06451209,63.2280702 4.60960455,63.2280702 L50.1022361,63.2280702 C47.0349815,59.7171228 45.4051664,55.1635088 45.4051664,50.1052632 L45.4051664,39.3684211 C51.012734,38.6538246 54.8040853,36.3263158 57.3539573,34.5964912 C59.9038293,36.3263158 63.6951807,38.6538246 69.3027482,39.3684211 L69.3027482,18.9183158 C69.3027482,16.3760702 67.239192,14.3157895 64.6929047,14.3157895 L64.6929047,14.3157895 Z" id="Shape"></path>
                <polygon id="Shape" points="19.1180654 14.3157895 28.6770982 14.3157895 28.6770982 9.54385965 19.1180654 9.54385965"></polygon>
                <polygon id="Shape" points="40.625889 14.3157895 50.1849218 14.3157895 50.1849218 9.54385965 40.625889 9.54385965"></polygon>
                <path d="M43.0156472,6.49471579 L43.0156472,9.54397895 L47.7951636,9.54397895 L47.7951636,7.0244 C47.7951636,3.14482105 44.6454623,0.000119298246 40.7585206,0.000119298246 L28.5444666,0.000119298246 C24.6575249,0.000119298246 21.5078236,3.14482105 21.5078236,7.0244 L21.5078236,9.54397895 L26.28734,9.54397895 L26.28734,6.49471579 C26.28734,5.16692632 27.6375533,4.26503158 28.8670839,4.77204912 C32.5712091,6.30025965 36.7317781,6.30025965 40.4359033,4.77204912 C41.6654339,4.26503158 43.0156472,5.16692632 43.0156472,6.49471579 L43.0156472,6.49471579 Z" id="Shape"></path>
                <path d="M57.3541963,34.5964912 C58.6183784,35.4542456 60.1896444,36.4575439 62.1337127,37.3391579 L62.1337127,11.1472281 C62.1337127,10.2620351 61.4143954,9.54385965 60.5277952,9.54385965 L56.5703556,9.54385965 C55.6837553,9.54385965 54.9644381,10.2620351 54.9644381,11.1472281 L54.9644381,36.1020351 C55.8582077,35.5854737 56.6575818,35.0689123 57.3541963,34.5964912 L57.3541963,34.5964912 Z" id="Shape"></path>
                <path d="M35.8463727,47.7192982 C30.5673969,47.7192982 26.28734,43.4460351 26.28734,38.1754386 C26.28734,32.9048421 30.5673969,28.6315789 35.8463727,28.6315789 C41.1253485,28.6315789 45.4054054,32.9048421 45.4054054,38.1754386 C45.4054054,43.4460351 41.1253485,47.7192982 35.8463727,47.7192982 Z" id="Shape"></path>
                <path d="M39.43101,38.1754386 C39.43101,40.1522105 37.8262873,41.754386 35.8463727,41.754386 C33.866458,41.754386 32.2617354,40.1522105 32.2617354,38.1754386 C32.2617354,36.1986667 33.866458,34.5964912 35.8463727,34.5964912 C37.8262873,34.5964912 39.43101,36.1986667 39.43101,38.1754386 L39.43101,38.1754386 Z" id="Shape"></path>
                <path d="M26.6006373,40.5614035 L20.3131835,40.5614035 L20.3131835,52.4912281 L34.6517326,52.4912281 L34.6517326,47.6369825 C30.7373087,47.1478596 27.5660996,44.3002105 26.6006373,40.5614035 L26.6006373,40.5614035 Z" id="Shape"></path>
                <path d="M33.4566145,22.6666667 L33.4566145,28.9441404 C34.2213371,28.7472982 35.0195164,28.6315789 35.8463727,28.6315789 C39.8575818,28.6315789 43.2856899,31.0998596 44.7040114,34.5964912 L47.7951636,34.5964912 L47.7951636,22.6666667 L33.4566145,22.6666667 L33.4566145,22.6666667 Z" id="Shape"></path>
            </g>
        </g>
    </g>
</svg>