<svg width="831" height="183" viewBox="0 0 831 183" xmlns="http://www.w3.org/2000/svg" xmlns:xlink="http://www.w3.org/1999/xlink"><title>Artboard</title><defs><path id="a" d="M37.99 74h37.992V0H0v74z"/></defs><g fill="none" fill-rule="evenodd"><g fill="#EF3E4A"><path d="M34.68 11h2.644c.005.885.01 1.773.018 2.658.885.01 1.774.01 2.658.018v2.644c-.884.01-1.77.013-2.658.022-.01.89-.013 1.773-.018 2.658h-2.648c-.01-.885-.01-1.77-.018-2.653-.885-.01-1.773-.018-2.658-.027v-2.644c.885-.01 1.77-.014 2.658-.018.004-.89.013-1.773.022-2.658M10.026 15.025c.083-4.894 4.673-9.18 9.666-9.017 2.392-.11 4.64.91 6.473 2.345-.782.87-1.592 1.71-2.457 2.494-2.203-1.492-5.335-1.918-7.538-.195-3.15 2.137-3.294 7.18-.263 9.48 2.947 2.622 8.518 1.32 9.332-2.694-1.847-.028-3.698 0-5.544-.06-.004-1.08-.01-2.158-.004-3.238 3.086-.01 6.172-.014 9.263.01.185 2.54-.158 5.243-1.75 7.343-2.41 3.324-7.25 4.295-11.025 2.87-3.79-1.414-6.474-5.338-6.154-9.338"/></g><g transform="translate(11 33)" fill="#EF3E4A"><path d="M12.88 2.162c3.203 0 3.582.012 4.848.07 1.17.054 1.805.25 2.228.413.52.193.993.5 1.38.898.398.387.705.86.897 1.38.165.423.36 1.058.414 2.228.057 1.266.07 1.646.07 4.85 0 3.204-.013 3.584-.07 4.85-.054 1.17-.25 1.805-.414 2.228-.403 1.046-1.23 1.873-2.277 2.277-.423.164-1.058.36-2.228.413-1.265.058-1.645.07-4.85.07-3.204 0-3.583-.012-4.848-.07-1.17-.053-1.806-.25-2.23-.413-.52-.192-.99-.5-1.378-.898-.4-.387-.706-.858-.898-1.38-.164-.422-.36-1.058-.413-2.228-.057-1.266-.07-1.646-.07-4.85 0-3.204.013-3.583.07-4.85.054-1.17.25-1.804.414-2.227.192-.52.5-.993.898-1.38.387-.4.858-.705 1.38-.898.422-.164 1.058-.36 2.228-.413 1.265-.058 1.645-.07 4.85-.07zm0-2.162C9.62 0 9.21.014 7.93.072 6.655.132 5.783.332 5.02.63c-.8.3-1.526.774-2.125 1.384-.61.6-1.083 1.325-1.384 2.126-.298.763-.5 1.635-.56 2.912C.894 8.332.88 8.742.88 12c0 3.26.013 3.668.07 4.948.06 1.277.262 2.15.56 2.912.3.8.773 1.526 1.383 2.126.6.61 1.325 1.083 2.126 1.384.762.297 1.634.5 2.91.558 1.28.058 1.69.072 4.95.072 3.258 0 3.667-.014 4.946-.072 1.278-.06 2.15-.26 2.913-.558 1.61-.623 2.885-1.898 3.51-3.51.295-.763.498-1.635.557-2.912.058-1.28.072-1.69.072-4.948 0-3.26-.015-3.668-.073-4.948-.06-1.277-.262-2.15-.558-2.912-.303-.8-.775-1.526-1.385-2.126-.6-.61-1.325-1.083-2.126-1.384-.764-.297-1.636-.5-2.914-.558C16.546.014 16.138 0 12.88 0z"/><path d="M12.88 7c-2.763 0-5 2.24-5 5s2.237 5 5 5c2.76 0 5-2.24 5-5s-2.24-5-5-5zm0 8.246c-1.794 0-3.247-1.454-3.247-3.246 0-1.793 1.453-3.246 3.246-3.246 1.79 0 3.244 1.454 3.244 3.246s-1.453 3.246-3.245 3.246z"/><circle cx="19.282" cy="6.596" r="1.44"/></g><path d="M39 72.604c-1.03.442-2.137.74-3.3.875 1.188-.688 2.096-1.778 2.528-3.074-1.11.636-2.34 1.098-3.648 1.347C33.53 70.673 32.037 70 30.387 70c-3.173 0-5.746 2.486-5.746 5.553 0 .435.052.86.15 1.266-4.774-.233-9.01-2.443-11.84-5.803-.494.82-.777 1.773-.777 2.792 0 1.926 1.013 3.625 2.554 4.62-.94-.027-1.827-.278-2.602-.694v.07c0 2.69 1.98 4.937 4.606 5.446-.478.13-.986.196-1.51.196-.372 0-.73-.035-1.08-.1.73 2.207 2.852 3.813 5.363 3.857-1.965 1.49-4.44 2.377-7.133 2.377-.462 0-.918-.025-1.37-.076C13.543 91.08 16.56 92 19.806 92c10.566 0 16.345-8.464 16.345-15.802 0-.242-.004-.48-.017-.72 1.124-.783 2.1-1.76 2.867-2.874M28 112.448h-3.407v-2.387c0-.896.557-1.105.948-1.105h2.404v-3.942l-3.31-.013c-3.674 0-4.51 2.94-4.51 4.82v2.628H18v4.06h2.125V128h4.468v-11.492h3.016l.39-4.06z" fill="#EF3E4A"/><g transform="translate(51 9)" fill="#000"><rect width="35" height="3" rx="1.5"/><rect y="27" width="35" height="3" rx="1.5"/><rect y="14" width="35" height="3" rx="1.5"/></g><g transform="translate(54 47)" fill="#000"><rect transform="rotate(45 13.5 13.5)" x="-4" y="12" width="35" height="3" rx="1.5"/><rect transform="rotate(135 13.5 13.5)" x="-4" y="12" width="35" height="3" rx="1.5"/></g><g fill="#EF3E4A"><path d="M123.182 19.99c-.148.212-.205.47-.16.723.045.255.186.477.398.625.166.115.358.175.555.175.057 0 .114-.005.17-.015l3.37-.82c.254-.044.476-.186.625-.397.15-.21.206-.468.16-.722-.092-.525-.595-.875-1.154-.778l-3.337.813c-.256.045-.48.186-.628.398M120.16 14.923c.027 0 .056 0 .084-.004.255-.023.487-.142.653-.335l2.224-2.457c.168-.197.248-.45.225-.706-.022-.258-.144-.49-.343-.657-.41-.342-1.023-.29-1.356.106l-2.23 2.464c-.344.408-.29 1.02.12 1.363.177.147.394.226.623.226M112.5 12.32c.535 0 .97-.434.97-.967V7.967c0-.533-.435-.967-.97-.967-.535 0-.97.434-.97.967v3.386c0 .533.435.967.97.967M104.103 14.585c.19.223.464.337.738.337.22 0 .442-.074.624-.226.2-.166.32-.4.343-.656.023-.258-.057-.508-.235-.72l-2.207-2.436c-.166-.198-.4-.32-.66-.34-.257-.022-.508.055-.707.22-.2.167-.32.4-.343.658-.023.257.057.508.235.72l2.213 2.443z"/><path d="M117.96 27.314h-11.404c-.84-1.155-1.336-2.576-1.336-4.11 0-3.875 3.15-7.014 7.037-7.014 3.886 0 7.037 3.14 7.037 7.013 0 1.535-.495 2.956-1.335 4.11m9.828 0h-7.554c.64-1.23 1-2.628 1-4.11 0-4.942-4.018-8.948-8.977-8.948-4.958 0-8.978 4.006-8.978 8.948 0 1.482.36 2.88 1 4.11h-7.31c-.535 0-.97.434-.97.968 0 .536.435.968.97.968h30.818c.536 0 .97-.432.97-.967 0-.533-.434-.966-.97-.966"/><path d="M97.468 20.675l3.386.823c.057.01.114.015.17.015.198 0 .39-.06.555-.175.212-.15.353-.37.398-.624.045-.255-.012-.512-.16-.724-.15-.21-.372-.352-.596-.39l-3.4-.827c-.525-.09-1.03.26-1.123.785-.093.52.25 1.016.768 1.117"/></g><g transform="translate(96 39)" stroke="#EF3E4A" stroke-width="2" stroke-linecap="round" stroke-linejoin="round"><ellipse cx="15.712" cy="5.674" rx="4.793" ry="4.814"/><path d="M24.858 20.205c0-5.16-4.017-9.345-8.97-9.345s-8.97 4.185-8.97 9.345M9.526 8.4c-.69.732-1.665 1.19-2.748 1.19C4.69 9.59 3 7.89 3 5.794 3 3.7 4.69 2 6.778 2c.93 0 1.784.34 2.442.9M4.934 17.366H0C0 13.3 3.166 10 7.07 10c1.372 0 2.65.407 3.736 1.11M22 8.4c.69.732 1.665 1.19 2.748 1.19 2.087 0 3.778-1.7 3.778-3.795C28.526 3.7 26.836 2 24.748 2c-.93 0-1.784.34-2.442.9"/><path d="M25.872 17.366h4.934c0-4.067-3.166-7.366-7.07-7.366-1.372 0-2.652.407-3.736 1.11"/></g><path d="M124.28 89.642h-3.638c0-.053.006-.107.006-.16 0-2.905-2.357-5.262-5.25-5.262-2.9 0-5.253 2.363-5.253 5.262 0 .053.006.107.006.16H97.663V71.665h26.617v17.977zm-8.883 3.437c-1.98 0-3.59-1.613-3.59-3.598 0-1.984 1.61-3.596 3.59-3.596 1.98 0 3.59 1.612 3.59 3.596 0 1.985-1.61 3.597-3.59 3.597zm1.096 4.416l-.595-.455c-.295-.223-.707-.223-1.002 0l-.595.456v-2.864c.72.153 1.48.153 2.2 0v2.864h-.007zM125.11 70H96.83c-.46 0-.83.372-.83.833v19.64c0 .462.37.834.83.834h13.64c.412 1.1 1.178 2.026 2.163 2.64v5.214c0 .32.176.604.46.746.282.14.618.112.872-.083l1.432-1.08 1.432 1.08c.146.112.594.212.87.083.284-.136.46-.432.46-.745v-5.213c.985-.614 1.752-1.54 2.164-2.646h4.792c.46 0 .83-.37.83-.83V70.832c-.005-.46-.376-.833-.836-.833z" fill="#EF3E4A"/><path d="M108.637 75.598h12.636c.46 0 .83-.372.83-.832 0-.46-.37-.833-.83-.833h-12.636c-.46 0-.83.372-.83.833 0 .46.37.832.83.832M100.674 83.453h20.6c.46 0 .83-.372.83-.833 0-.46-.37-.833-.83-.833h-20.6c-.46 0-.83.372-.83.833 0 .46.37.833.83.833M100.674 87.38h7.803c.46 0 .83-.372.83-.833 0-.46-.37-.832-.83-.832h-7.803c-.46 0-.83.372-.83.832-.007.46.37.833.83.833M108.454 79.526h12.82c.46 0 .83-.372.83-.833 0-.46-.37-.833-.83-.833h-12.82c-.46 0-.83.372-.83.833-.007.46.37.833.83.833M102.193 74.402h-.472c-.28 0-.486.03-.62.09-.13.062-.242.183-.33.364-.09.18-.145.395-.165.644h-.467v-1.6h5.61v1.6h-.467c-.088-.43-.212-.722-.372-.872-.16-.15-.414-.226-.764-.226h-.484v3.968c0 .257.044.436.13.536.087.1.27.152.548.152h.145v.46h-3.096v-.46h.132c.28 0 .463-.052.547-.156.084-.103.126-.28.126-.532v-3.968z" fill="#EF3E4A"/><path d="M102.193 74.402h-.472c-.28 0-.486.03-.62.09-.13.062-.242.183-.33.364-.09.18-.145.395-.165.644h-.467v-1.6h5.61v1.6h-.467c-.088-.43-.212-.722-.372-.872-.16-.15-.414-.226-.764-.226h-.484v3.968c0 .257.044.436.13.536.087.1.27.152.548.152h.145v.46h-3.096v-.46h.132c.28 0 .463-.052.547-.156.084-.103.126-.28.126-.532v-3.968z" stroke="#EF3E4A" stroke-linejoin="round"/><g fill="#EF3E4A"><path d="M120.76 115.594c.46 0 .83-.35.83-.78v-7.033c0-.43-.37-.78-.83-.78h-3.736c-.46 0-.83.35-.83.78v2.345h-2.077v-2.344c0-.43-.372-.78-.83-.78h-4.983c-.458 0-.83.35-.83.78v2.345h-2.076v-2.344c0-.43-.372-.78-.83-.78h-3.738c-.458 0-.83.35-.83.78v7.032c0 .432.372.782.83.782h19.93zm-19.1-1.563v-5.468h2.077v2.344c0 .432.372.78.83.78h3.737c.46 0 .83-.348.83-.78v-2.344h3.322v2.344c0 .432.372.78.83.78h3.738c.458 0 .83-.348.83-.78v-2.344h2.076V114.03h-18.27zM107.06 123.406c0-1.726 1.486-3.125 3.32-3.125h.83c1.835 0 3.322 1.4 3.322 3.126v7.813c0 .43.372.78.83.78.46 0 .83-.35.83-.78v-7.814c0-2.59-2.23-4.687-4.982-4.687h-.83c-2.75 0-4.982 2.097-4.982 4.686v7.813c0 .43.372.78.83.78.46 0 .83-.35.83-.78v-7.814z"/><path d="M116.193 130.438v-7.032c0-1.147.657-2.15 1.637-2.693.494-.274.855-.354.855-.354v10.078h-2.492zm4.153.78V119.5c0-.43-.372-.78-.83-.78-2.752 0-4.984 2.097-4.984 4.686v7.813c0 .43.372.78.83.78h4.154c.458 0 .83-.35.83-.78z"/><path d="M120.025 123.632c.362-.265.427-.755.145-1.096-.28-.34-.803-.402-1.165-.137l-3.737 2.733c-.362.265-.427.756-.146 1.097.282.34.804.402 1.166.137l3.737-2.735zM120.025 127.54c.362-.266.427-.757.145-1.098-.28-.34-.803-.402-1.165-.137l-3.737 2.735c-.362.264-.427.755-.146 1.096.282.34.804.402 1.166.137l3.737-2.734zM106.23 132c.458 0 .83-.35.83-.78v-7.814c0-2.59-2.232-4.687-4.984-4.687-.46 0-.83.35-.83.78v11.72c0 .43.37.78.83.78h4.153zm-3.324-1.563v-10.06c1.43.345 2.493 1.57 2.493 3.03v7.03h-2.494zM117.44 119.5c0 .43.37.78.83.78.458 0 .83-.35.83-.78v-4.688c0-.43-.372-.78-.83-.78-.46 0-.83.35-.83.78v4.688z"/><path d="M104.152 114.813c0-.432-.372-.782-.83-.782-.46 0-.83.35-.83.782v4.688c0 .43.37.78.83.78.458 0 .83-.35.83-.78v-4.688zM103 122.4c-.36-.266-.883-.205-1.164.136-.282.34-.217.83.145 1.096l3.738 2.735c.362.265.884.203 1.166-.137.28-.34.216-.832-.146-1.097L103 122.4zM103 126.305c-.36-.265-.883-.203-1.164.137-.282.34-.217.832.145 1.097l3.738 2.733c.362.265.884.203 1.166-.137.28-.34.216-.832-.146-1.096L103 126.305z"/></g><path d="M121.223 164.04h-6.23v-8.703c0-.47-.38-.85-.85-.85h-6.365c-.47 0-.85.38-.85.85v8.704h-6.23V152.08l10.264-8.144 10.26 8.144v11.963zm-7.928 0h-4.668v-7.854h4.668v7.855zM122.6 151l-11.11-8.815c-.31-.247-.748-.247-1.057 0L99.323 151c-.206.163-.323.407-.323.667v13.223c0 .47.38.85.85.85h22.222c.47 0 .85-.38.85-.85v-13.223c0-.258-.118-.504-.322-.666z" fill="#EF3E4A"/><g fill-rule="nonzero" fill="#EF3E4A"><path d="M158.032 17.588c.312 0 .624-.054.988-.107 2.34-.533 3.848-2.99 3.328-5.395-.26-1.176-.936-2.19-1.924-2.832-.988-.64-2.184-.855-3.328-.588-2.34.534-3.848 2.992-3.328 5.396.416 2.14 2.236 3.528 4.264 3.528zm1.453-6.903c.61.386 1.08 1.063 1.222 1.788.33 1.546-.61 3.044-2.116 3.43-1.503.338-2.96-.628-3.337-2.174-.33-1.547.61-3.045 2.116-3.432.187-.048.422-.048.61-.048.564 0 1.082.145 1.505.435z"/><path d="M161.204 17.763h-6.396c-1.872 0-3.38 1.55-3.38 3.473V31.28c0 1.657 1.144 3.046 2.704 3.367v3.06c0 .374.312.695.676.695.364 0 .676-.32.676-.695V34.06c0-.375-.312-.696-.676-.696-1.144 0-2.028-.96-2.028-2.083V21.237c0-1.175.936-2.084 2.028-2.084h6.396c1.144 0 2.028.962 2.028 2.084V31.28c0 1.176-.936 2.084-2.028 2.084-.364 0-.676.32-.676.695v3.647c0 .374.312.695.676.695.364 0 .676-.32.676-.695v-3.06c1.56-.32 2.704-1.71 2.704-3.366V21.237c0-1.923-1.508-3.473-3.38-3.473z" stroke="#EF3E4A" stroke-width=".25"/><path d="M143.888 23.732c-1.404 0-2.704-1.015-3.016-2.458-.156-.8-.052-1.656.416-2.404.416-.695 1.144-1.23 1.924-1.39.78-.16 1.612-.053 2.34.428.728.48 1.196 1.176 1.352 1.977.156.802.052 1.656-.416 2.404-.416.694-1.144 1.228-1.924 1.39-.208 0-.416.052-.676.052zm0-4.97c-.104 0-.26 0-.364.055-.468.106-.832.374-1.092.8-.26.428-.312.91-.208 1.337.208.96 1.144 1.55 2.08 1.335.468-.107.832-.375 1.092-.802.26-.427.312-.908.208-1.336-.104-.48-.364-.855-.78-1.122-.26-.16-.572-.267-.936-.267z"/><path d="M145.968 38.402c-.364 0-.676-.32-.676-.695v-4.182c0-.374.312-.695.676-.695.572 0 1.092-.48 1.092-1.122v-5.663c0-.588-.468-1.122-1.092-1.122h-4.16c-.572 0-1.092.48-1.092 1.122v5.716c0 .59.468 1.123 1.092 1.123.364 0 .676.32.676.695v4.183c0 .375-.312.695-.676.695-.364 0-.676-.32-.676-.694v-3.594c-.988-.32-1.768-1.23-1.768-2.405v-5.715c0-1.39 1.092-2.458 2.392-2.458h4.16c1.352 0 2.392 1.122 2.392 2.458v5.716c0 1.123-.728 2.085-1.768 2.406v3.595c.104.32-.208.642-.572.642z" stroke="#EF3E4A" stroke-width=".25"/></g><path d="M145.31 45.263c-1.436.082-2.43.29-3.71.62v.88c-.858-.06-1.845.295-2.347.808-.158.166-.25.397-.253.63v16.858c0 .472.413.9.867.9h24.266c.454 0 .867-.428.867-.9v-16.86c-.002-.23-.095-.462-.253-.627-.732-.632-1.524-.862-2.347-.806v-.882c-1.417-.37-2.966-.64-4.27-.62-2.37.055-4.262.85-6.13 1.793-2.01-1.015-4.053-1.864-6.69-1.792zm.515 1.773c2.01.016 3.55.685 5.308 1.576v12.393c-2.7-1.098-5.11-1.064-7.8.038V47.327c.88-.177 1.67-.28 2.492-.29zm12.404.02c.738-.003 1.538.08 2.437.27v13.717c-2.69-1.102-5.1-1.136-7.8-.038V48.612c1.77-.895 3.33-1.553 5.362-1.557zm-16.63 1.537V63.81c3.467-1.99 6.644-2.29 9.533-.882v1.23h-10.4v-15.48c.308-.147.565-.137.867-.085zm21.667.085v15.48h-10.4v-1.23c2.89-1.407 6.066-1.107 9.533.882V48.593c.303-.094.595-.014.867.085z" fill-rule="nonzero" fill="#EF3E4A"/><g fill="#EF3E4A"><path d="M152.464 79.147V75.03c0-1.373 2.072-1.373 2.072 0v4.117h2.07c.573 0 1.037.46 1.037 1.03v3.602c0 .568-.464 1.03-1.036 1.03v4.116c0 3.327.66 6.274 2.5 10.39.47 1.05 1.018 2.1 1.63 3.14.745 1.264 1.544 2.448 2.342 3.517.277.373.535.704.766.99.137.168.232.282.28.338.372.432.322 1.082-.113 1.452-.434.37-1.088.32-1.46-.11-.062-.073-.17-.204-.32-.39-.248-.305-.523-.657-.818-1.052-.84-1.126-1.68-2.37-2.465-3.704-.65-1.103-1.234-2.22-1.736-3.343-1.956-4.375-2.678-7.605-2.678-11.227V84.81h-2.072v4.116c0 3.622-.722 6.852-2.678 11.227-.502 1.123-1.086 2.24-1.736 3.343-.785 1.333-1.625 2.578-2.465 3.704-.295.395-.57.747-.817 1.052-.15.186-.26.317-.32.39-.373.43-1.027.48-1.46.11-.436-.37-.486-1.02-.114-1.45.048-.057.143-.17.28-.34.23-.285.49-.616.767-.99.8-1.068 1.598-2.252 2.342-3.516.613-1.04 1.162-2.09 1.63-3.14 1.842-4.116 2.5-7.063 2.5-10.39V84.81c-.57 0-1.035-.462-1.035-1.03v-3.604c0-.568.464-1.03 1.036-1.03h2.07zm3.107 2.06h-4.14v1.543h4.14v-1.544z"/><path d="M149.875 92.015c-1.38 0-1.38 2.06 0 2.06h7.25c1.38 0 1.38-2.06 0-2.06h-7.25zm-2.59 7.206c-1.38 0-1.38 2.06 0 2.06h12.43c1.38 0 1.38-2.06 0-2.06h-12.43zm-7.25 9.78h26.93c.57 0 1.035-.46 1.035-1.03 0-.568-.464-1.03-1.036-1.03h-26.928c-.572 0-1.036.462-1.036 1.03 0 .57.464 1.03 1.036 1.03z"/><path d="M158.68 107.97c0-2.842-2.32-5.146-5.18-5.146s-5.18 2.304-5.18 5.147c0 .57.465 1.03 1.037 1.03.572 0 1.036-.46 1.036-1.03 0-1.705 1.39-3.088 3.107-3.088 1.716 0 3.107 1.383 3.107 3.09 0 .567.464 1.028 1.036 1.028.572 0 1.036-.46 1.036-1.03z"/></g><path d="M153.5 143.71c-.338 0-.657-.156-.867-.424-.353-.45-8.633-11.058-8.633-17.116 0-5.307 4.262-9.625 9.5-9.625s9.5 4.318 9.5 9.625c0 6.044-8.28 16.666-8.633 17.115-.21.268-.53.424-.867.424zm0-24.92c-4.016 0-7.283 3.31-7.283 7.38 0 3.897 4.66 11.02 7.282 14.574 2.623-3.56 7.283-10.686 7.283-14.574 0-4.07-3.267-7.38-7.283-7.38zm0 11.81c-2.41 0-4.372-1.987-4.372-4.43 0-2.442 1.96-4.43 4.372-4.43 2.41 0 4.372 1.988 4.372 4.43 0 2.443-1.962 4.43-4.372 4.43zm0-6.613c-1.188 0-2.155.98-2.155 2.183 0 1.204.967 2.184 2.155 2.184 1.188 0 2.155-.98 2.155-2.184 0-1.204-.967-2.183-2.155-2.183z" fill-rule="nonzero" fill="#EF3E4A"/><g transform="translate(39 84)" fill="#242526"><path d="M23.5 47C10.52 47 0 36.48 0 23.5S10.52 0 23.5 0 47 10.52 47 23.5 36.48 47 23.5 47zm0-2C35.374 45 45 35.374 45 23.5S35.374 2 23.5 2 2 11.626 2 23.5 11.626 45 23.5 45z" fill-rule="nonzero"/><rect transform="rotate(-135 31.25 0)" x="21.596" y="16.389" width="2" height="9" rx="1"/><rect transform="rotate(135 11.893 0)" x="21.596" y="21.339" width="2" height="9" rx="1"/></g><g transform="translate(39 132)" fill="#242526"><path d="M23.5 47C10.52 47 0 36.48 0 23.5S10.52 0 23.5 0 47 10.52 47 23.5 36.48 47 23.5 47zm0-2C35.374 45 45 35.374 45 23.5S35.374 2 23.5 2 2 11.626 2 23.5 11.626 45 23.5 45z" fill-rule="nonzero"/><rect transform="rotate(-45 24.546 20.89)" x="23.546" y="16.389" width="2" height="9" rx="1"/><rect transform="rotate(45 24.546 25.84)" x="23.546" y="21.339" width="2" height="9" rx="1"/></g><path d="M248.89 34.11L224.495 21.94c-1.065-.528-2.348-.093-2.88.965-.53 1.063-.097 2.355.963 2.886l21.48 10.717-21.942 10.887-21.746-11.062c-.288-.293-.673-.465-1.09-.554l-11.467-5.833 34.303-16.862 35.167 16.862-8.396 4.166zm-7.906 25.04c-20.243 13.58-36.59.7-39.992-2.35V41.47l20.14 10.246c.307.155.64.232.973.232.328 0 .653-.073.955-.222l17.924-8.894V59.15zm22.13-31.18L223.032 8.754c-.593-.286-1.283-.28-1.872.01L182.063 27.98c-.73.36-1.195 1.102-1.2 1.916-.008.814.447 1.562 1.172 1.932l14.663 7.46v18.44c0 .568.223 1.115.622 1.518.147.147 10.41 10.246 25.316 10.245 6.51 0 13.907-1.927 21.732-7.45.57-.403.91-1.058.91-1.757v-19.58l2.504-1.242v15.447c0 1.19.96 2.15 2.148 2.15 1.187 0 2.147-.96 2.147-2.15V37.33l11.065-5.49c.736-.367 1.2-1.12 1.193-1.944-.006-.823-.48-1.568-1.22-1.925z" fill-rule="nonzero" fill="#EF3E4A"/><g fill-rule="nonzero" fill="#EF3E4A"><path d="M220.35 138.95h13.8v-9.3h-13.8v9.3zm3-6.3h7.8v3.3h-7.8v-3.3zM193.95 134.45h13.8v-9.3h-13.8v9.3zm3-6.3h7.8v3.3h-7.8v-3.3zM260.7 125.15h-13.8v9.3h13.8v-9.3zm-3 6.3h-7.8v-3.3h7.8v3.3zM193.95 152.6h13.8v-13.8h-13.8v13.8zm10.8-3h-2.4v-7.8h2.4v7.8zm-7.8-7.8h2.4v7.8h-2.4v-7.8zM260.7 138.8h-13.8v13.8h13.8v-13.8zm-10.8 3h2.4v7.8h-2.4v-7.8zm7.8 7.8h-2.4v-7.8h2.4v7.8z"/><path d="M268.2 122.15h6.45l-10.2-18.9h-57v-10.8h-9.3v10.8h-8.1L180 122.15h6.45v36.45h-3.9v3h28.2v4.5h33v-4.5h28.2v-3h-3.9v-36.45h.15zm-67.05-26.7h3.3v7.8h-3.3v-7.8zm-16.2 23.7l6.9-12.9h70.65l6.9 12.9h-33.9l-8.25-6.15-8.25 6.15H184.95zm4.35 39.45v-36.45h25.65l-4.35 3.15v33.3h-21.3zm34.05 4.5v-16.2h7.8v16.2h-7.8zm17.55 0h-6.6v-19.2h-13.8v19.2h-6.6v-36.3l13.5-10.05 13.5 10.05v36.3zm-1.35-40.95h25.65v36.45h-21.3v-33.3l-4.35-3.15z"/></g><g fill="#EF3E4A"><path d="M368.884 76.74c-.306.444-.788.697-1.32.697h-14.057l2.092-15.822c.185-1.412-.24-2.837-1.17-3.91-.933-1.072-2.277-1.687-3.692-1.687H334.13l7.962-12.84 15.275 5.164c1.41.476 2.514 1.56 3.03 2.975l8.683 23.9c.186.518.116 1.074-.196 1.523zm-50.572 3.993l-2.586-19.554c-.065-.48.074-.942.39-1.305.314-.362.75-.562 1.23-.562h33.392c.48 0 .915.2 1.23.562.316.363.455.826.39 1.305l-2.586 19.553h-31.46zm-19.428-3.296c-.53 0-1.01-.253-1.32-.697-.31-.45-.38-1.005-.193-1.524l8.683-23.897c.515-1.418 1.62-2.502 3.03-2.978l15.275-5.164 7.96 12.84h-14.972c-1.416 0-2.76.615-3.69 1.687-.93 1.073-1.358 2.498-1.17 3.91l2.09 15.822h-15.692zm39.458-34.43l-5.117 8.254-5.345-8.617c1.6 1.05 3.396 1.662 5.345 1.662 1.847 0 3.566-.46 5.117-1.297zm-5.117-26.712c5.406 0 9.808 4.436 9.808 9.886 0 8.594-4.125 14.83-9.808 14.83-5.04 0-9.807-7.207-9.807-14.83 0-5.45 4.398-9.885 9.807-9.885zm7.906 24.725l-.076-.048c.05-.05.1-.1.148-.152-.026.066-.044.135-.07.2zm31.02 33.065l-8.684-23.9c-.86-2.362-2.705-4.173-5.06-4.97l-16.24-5.487c2.58-3.243 4.136-7.983 4.136-13.547 0-7.267-5.866-13.18-13.077-13.18-7.212 0-13.076 5.913-13.076 13.18 0 4.783 1.67 9.866 4.485 13.428l-16.59 5.608c-2.358.796-4.202 2.607-5.06 4.97l-8.684 23.9c-.553 1.518-.334 3.216.585 4.543.913 1.315 2.41 2.103 4 2.103h13.09v1.65c0 .91.732 1.645 1.634 1.645h40.868c.9 0 1.63-.735 1.63-1.643v-1.652h11.457c1.59 0 3.086-.788 4-2.104.918-1.328 1.137-3.026.585-4.545z" fill-rule="nonzero"/><path d="M314.733 151.355c-1.397 0-2.533-1.137-2.533-2.534 0-1.395 1.136-2.532 2.533-2.532s2.533 1.137 2.533 2.533c0 1.398-1.136 2.535-2.533 2.535zm0-8.445c-3.26 0-5.91 2.652-5.91 5.91 0 3.26 2.65 5.912 5.91 5.912 3.26 0 5.91-2.65 5.91-5.91 0-3.26-2.65-5.912-5.91-5.912zm16.89 8.445c-1.398 0-2.535-1.137-2.535-2.534 0-1.395 1.137-2.532 2.534-2.532 1.396 0 2.533 1.137 2.533 2.533 0 1.398-1.137 2.535-2.533 2.535zm0-8.445c-3.26 0-5.912 2.652-5.912 5.91 0 3.26 2.652 5.912 5.912 5.912s5.91-2.65 5.91-5.91c0-3.26-2.65-5.912-5.91-5.912zm19.42-10.977c0 1.396-1.136 2.533-2.533 2.533s-2.533-1.137-2.533-2.533c0-1.397 1.136-2.534 2.533-2.534s2.533 1.136 2.533 2.533zm-8.444 0c0 3.26 2.65 5.91 5.91 5.91 3.26 0 5.91-2.65 5.91-5.91 0-3.26-2.65-5.91-5.91-5.91-3.26 0-5.91 2.65-5.91 5.91zm-10.978 2.533c-1.397 0-2.534-1.137-2.534-2.533 0-1.397 1.137-2.534 2.534-2.534 1.396 0 2.533 1.136 2.533 2.533 0 1.396-1.137 2.533-2.533 2.533zm0-8.444c-3.26 0-5.91 2.65-5.91 5.91 0 3.26 2.65 5.912 5.91 5.912 3.26 0 5.91-2.652 5.91-5.91 0-3.26-2.65-5.912-5.91-5.912zm-16.89 8.444c-1.396 0-2.532-1.137-2.532-2.533 0-1.397 1.136-2.534 2.533-2.534s2.533 1.136 2.533 2.533c0 1.396-1.136 2.533-2.533 2.533zm0-8.444c-3.26 0-5.91 2.65-5.91 5.91 0 3.26 2.65 5.912 5.91 5.912 3.26 0 5.912-2.652 5.912-5.91 0-3.26-2.652-5.912-5.91-5.912zm29.556-21.11c0-1.398 1.137-2.534 2.533-2.534 1.398 0 2.535 1.136 2.535 2.533v5.068c0 1.396-1.137 2.533-2.534 2.533-1.395 0-2.532-1.136-2.532-2.532v-5.067zm-28.71 0c0-1.398 1.136-2.534 2.533-2.534s2.534 1.136 2.534 2.533v5.068c0 1.396-1.137 2.533-2.533 2.533s-2.533-1.136-2.533-2.532v-5.067zm-15.2 7.6c0-1.864 1.515-3.38 3.377-3.38h8.445v.846c0 3.26 2.65 5.91 5.91 5.91 3.26 0 5.912-2.65 5.912-5.91v-.845h16.888v.845c0 3.26 2.652 5.91 5.91 5.91 3.26 0 5.912-2.65 5.912-5.91v-.845h6.756c1.862 0 3.377 1.515 3.377 3.378v6.756h-62.487v-6.755zm62.487 29.497v-19.366h-62.487v35.466c0 1.863 1.515 3.378 3.377 3.378h39.228c-2.53-5.46-1.542-12.147 2.96-16.65 2.883-2.884 6.66-4.324 10.44-4.324 2.22 0 4.443.498 6.482 1.495zm3.378 2.28c.197.177.39.36.58.55 5.765 5.765 5.765 15.113 0 20.878-2.883 2.883-6.66 4.325-10.44 4.325-3.78 0-7.557-1.442-10.44-4.325-.276-.276-.54-.56-.79-.853h-41.398c-3.725 0-6.755-3.03-6.755-6.755v-45.6c0-3.725 3.03-6.755 6.755-6.755h8.445v-.844c0-3.258 2.65-5.91 5.91-5.91 3.26 0 5.912 2.652 5.912 5.91v.845h16.888v-.844c0-3.258 2.652-5.91 5.91-5.91 3.26 0 5.912 2.652 5.912 5.91v.845h6.756c3.725 0 6.755 3.03 6.755 6.756v31.78zm-5.066 8.753H357.8v-3.377c0-.933-.758-1.69-1.69-1.69-.932 0-1.69.757-1.69 1.69v5.066c0 .933.758 1.69 1.69 1.69h5.067c.932 0 1.688-.757 1.688-1.69 0-.932-.756-1.69-1.688-1.69zm3.257 10.287c-2.15 2.15-5.01 3.336-8.052 3.336-3.04 0-5.9-1.186-8.05-3.336-4.44-4.44-4.44-11.663 0-16.103 2.15-2.152 5.01-3.336 8.05-3.336 3.042 0 5.902 1.185 8.052 3.337 2.15 2.15 3.336 5.01 3.336 8.05 0 3.042-1.186 5.903-3.336 8.053z"/></g><g transform="translate(402 10)"><mask id="b" fill="#fff"><use xlink:href="#a"/></mask><path d="M65.052 70.558l-7.807-8.605H70.97l1.297 8.605h-7.215zm-29.68 0l-10.74-13.39 10-6.802 1.794 3.71c.276.588.913.994 1.565.994.654 0 1.29-.406 1.566-.995.71-1.486 1.427-2.967 2.143-4.45L61.173 70.56h-25.8zm-31.657 0L8.007 42l22.94 28.558H3.715zm25.7-30.977c1.228 2.54 2.456 5.08 3.686 7.62l-10.627 7.305L10.49 39.58h18.924zm-5.242-22.586c0-7.793 6.092-13.552 13.79-13.552 7.7 0 13.847 5.764 13.847 13.552 0 1.66-.582 4.605-1.134 6.077-4.187 8.773-8.45 17.54-12.685 26.3-4.083-8.827-8.695-17.442-12.684-26.3-.55-1.473-1.133-4.42-1.133-6.076zM67.598 39.58l1.025 6.885h-25.4c1.114-2.296 2.233-4.59 3.352-6.884h21.023zm1.565 10.327l1.295 8.605H54.465l-8.325-8.605h23.023zm6.8 22.103l-5.18-34.42c-.128-.797-.89-1.448-1.7-1.45H48.247c1.908-3.92 3.81-7.843 5.666-11.78.787-2.058 1.35-5.04 1.35-7.366C55.264 7.374 47.438 0 37.964 0 28.49 0 20.72 7.378 20.72 16.994c0 2.33.567 5.314 1.348 7.367 1.888 3.926 3.787 7.853 5.684 11.78H6.902c-.977 0-1.397.534-1.702 1.45L.018 72.01c-.155.977.708 1.987 1.7 1.99h72.546c.992 0 1.855-1.013 1.7-1.99z" fill="#EF3E4A" fill-rule="nonzero" mask="url(#b)"/></g><path d="M433.946 27.21c0-3.348 2.686-6.024 6.045-6.024 3.36 0 6.047 2.676 6.047 6.023 0 3.346-2.686 6.023-6.046 6.023-3.358 0-6.044-2.677-6.044-6.024m15.545 0c0-5.207-4.273-9.466-9.5-9.466-5.225 0-9.5 4.26-9.5 9.465 0 5.206 4.275 9.465 9.5 9.465 5.228 0 9.5-4.26 9.5-9.466" fill="#EF3E4A" fill-rule="nonzero"/><g stroke="#D25C43" fill-rule="nonzero" stroke-width=".5" fill="#EF3E4A"><path d="M595.495 61.117l-7.543-31.092c-.124-.51-.578-.87-1.1-.87H552.51v-4.54l9.65-4.507c.377-.176.628-.547.653-.965.027-.418-.177-.817-.53-1.038l-10.306-6.46c-.35-.218-.788-.23-1.147-.03-.36.203-.58.584-.58.998v16.543h-34.543c-.52 0-.975.36-1.1.87l-7.542 31.09c-.082.34-.005.7.21.976.213.275.54.436.89.436h2.438v23.306c0 .63.507 1.14 1.13 1.14H590.828c.624 0 1.13-.51 1.13-1.14V62.528h2.44c.346 0 .674-.16.89-.436.212-.276.29-.635.208-.975zm-42.987-46.45l6.798 4.26-6.798 3.175v-7.436zm-19.74 70.027h-19.905V62.528h19.905v22.166zm0-24.446h-23.166l1.17-4.817h21.996v4.818zm.344-12.786c-.22.214-.344.51-.344.82v4.87h-21.444l5.268-21.716h32.964l-16.444 16.026zm24.135 37.232H545.31v-16.86c0-3.316 2.68-6.014 5.97-6.014 3.29 0 5.967 2.698 5.967 6.013v16.86zm10.28 0h-8.017v-16.86c0-4.574-3.693-8.294-8.23-8.294-4.538 0-8.23 3.72-8.23 8.293v16.86h-8.02v-35.93l16.423-16.003 16.075 15.998v35.936zm-14.184-53.258h32.62l5.27 21.715H569.79v-4.87c0-.304-.12-.596-.337-.81l-16.11-16.034zm36.352 53.258H569.79V62.528h19.905v22.166zM569.79 60.248V55.43h21.995l1.17 4.818H569.79z"/><path d="M544.51 48.612c0 3.76 3.036 6.82 6.767 6.82 3.732 0 6.768-3.06 6.768-6.82 0-3.76-3.036-6.82-6.767-6.82-3.73 0-6.768 3.06-6.768 6.82zm11.273 0c0 2.502-2.022 4.54-4.506 4.54-2.482 0-4.504-2.038-4.504-4.54 0-2.503 2.022-4.54 4.505-4.54 2.484 0 4.505 2.037 4.505 4.54zM518.344 69.488h2.263v7.093h-2.263zM525.006 69.488h2.263v7.093h-2.264zM575.29 69.488h2.262v7.093h-2.263zM581.952 69.488h2.263v7.093h-2.263z"/></g><g fill-rule="nonzero" fill="#EF3E4A"><path d="M536.08 103.82c-9.99 0-18.08 8.09-18.08 18.08v30.135c0 9.99 8.09 18.08 18.08 18.08h30.136c9.99 0 18.08-8.09 18.08-18.08V121.9c0-9.99-8.09-18.08-18.08-18.08H536.08zm0 3.013h30.136c8.373 0 15.067 6.694 15.067 15.067v30.135c0 8.374-6.694 15.067-15.067 15.067H536.08c-8.373 0-15.067-6.693-15.067-15.067V121.9c0-8.373 6.694-15.067 15.068-15.067zm8.9 11.3c-.777.074-1.37.727-1.366 1.507v9.794h-9.793c-.83 0-1.506.675-1.506 1.507v12.055c0 .832.675 1.506 1.507 1.506h9.794v9.795c0 .832.675 1.507 1.507 1.507h12.055c.832 0 1.507-.675 1.507-1.507V144.5h9.794c.832 0 1.506-.673 1.506-1.505V130.94c0-.83-.674-1.506-1.506-1.506h-9.794v-9.794c0-.832-.675-1.506-1.507-1.506H545.12c-.046-.003-.093-.003-.14 0zm1.648 3.014h9.04v9.794c0 .833.675 1.508 1.507 1.508h9.794v9.04h-9.795c-.832 0-1.507.675-1.507 1.507v9.794h-9.04v-9.795c0-.832-.675-1.507-1.507-1.507h-9.793v-9.04h9.794c.833 0 1.508-.675 1.508-1.507v-9.793z"/></g><g fill="#EF3E4A"><path d="M480.978 158.644h-39.49l25.97-7.115h13.52v7.114zm-66.17 3.913c-.357 0-1.068 0-1.068-.712V151.53h40.2l-39.133 11.027zm-6.05-14.942c1.07-18.143 16.01-32.73 34.51-32.73 18.5 0 33.44 14.587 34.508 32.73H408.76zm-3.2 10.673h4.98v-7.115h-4.98v7.115zm37.71-54.786c2.134 0 3.913 1.778 3.913 3.913 0 2.134-1.778 3.557-3.912 3.557-2.135 0-3.914-1.778-3.914-3.913s1.78-3.558 3.914-3.558zm37.71 44.47c-.712-18.5-14.586-33.442-32.374-35.932 1.266-1.687 2.03-3.376 1.704-5.657-.37-2.565-2.174-4.856-4.632-5.68-4.916-1.652-9.523 2.02-9.523 6.712 0 1.78.71 3.557 1.778 4.625-5.58.782-10.775 2.79-15.3 5.75-.014-.016-3.19-2.862-.352-10.315 3.913-9.605-2.49-14.94-2.846-14.94-.356-.713-1.423-.713-2.135 0-.71.71-.355 1.777.356 2.49 0 0 4.625 3.912 1.78 11.383-3.153 7.734-.538 11.772.6 13.24-2.693 2.104-5.076 4.583-7.115 7.34-.5-.544-2.8-3.504-.245-10.206 3.913-9.605-2.49-14.942-2.846-14.942-.356-.356-1.423 0-2.135.712-.356.71-.356 1.778.356 2.134 0 .356 4.625 3.914 1.78 11.384-3.545 8.7.194 13.007 1.198 13.747-3.23 5.322-5.212 11.5-5.468 18.154H402v11.04c0 1.565 1.27 2.835 2.835 2.835h5.703c0 2.135 1.78 3.914 4.27 3.914h1.066l13.875-3.915h52.285c1.58 0 2.856-1.277 2.856-2.856v-11.02h-3.912z"/></g><g fill-rule="nonzero" fill="#EF3E4A"><path d="M688.573 84.054c-.167-6.14-2.807-12.213-6.41-17.253 3.05-1.554 6.908-2.528 10.39-2.622.054 0 .105.013.16.013.15 0 .294-.02.442-.028 5.767.016 11.573 2.315 15.623 6.18 3.787 3.616 5.99 8.64 6.286 13.712h-26.49zm-60.296.02c.218-6.743 3.312-13.08 8.337-17.877 5.22-4.984 12.495-8.3 19.92-8.3 7.423 0 15.046 3.316 20.266 8.3 5.026 4.8 7.806 11.133 8.024 17.876h-56.547zM646.46 39.43c0-5.555 4.52-10.073 10.073-10.073 5.554 0 10.074 4.518 10.074 10.073 0 8.754-4.236 15.11-10.074 15.11-5.177 0-10.072-7.345-10.072-15.11zm36.18 6.294c0-5.554 4.518-10.073 10.073-10.073 5.554 0 10.074 4.52 10.074 10.074 0 8.755-4.236 15.11-10.074 15.11-5.177 0-10.073-7.344-10.073-15.11zm35.35 39.386v-.032c-.008-6.403-2.747-12.7-7.46-17.2-3.04-2.902-6.84-4.96-10.93-6.077 4.007-3.083 6.545-8.915 6.545-16.076 0-7.405-6.025-13.43-13.432-13.43-7.405 0-13.43 6.025-13.43 13.43 0 6.055 2.653 12.583 6.916 16.022-2.2.603-4.323 1.46-6.303 2.568-.3-.312-.51-.69-.826-.99-4.213-4.024-9.603-6.783-15.364-8.047 3.84-3.14 6.26-8.858 6.26-15.847 0-7.406-6.026-13.43-13.433-13.43-7.405 0-13.43 6.024-13.43 13.43 0 5.94 2.555 12.334 6.677 15.822-5.79 1.255-11.2 4.026-15.437 8.072-5.886 5.618-9.334 13.47-9.343 21.456v.034c-.003.472.013.947.033 1.42.036 1.14.972.99 2.113.99h88.732c1.142 0 2.077.15 2.113-.99.02-.447.004-.814 0-1.124z"/></g><g fill-rule="nonzero" fill="#EF3E4A"><path d="M705.11 164.18h-3.857c-6.806-4.385-18.102-6.52-28.786-3.523 3.233-2.3 7.044-3.47 11.398-3.47 5.143 0 10.938 1.706 16.763 4.936.444.246.982.238 1.42-.02.437-.257.705-.727.705-1.234v-42.805h2.36v46.116h-.002zm-35.48 2.327c-.432.594-1.09.98-1.824.98h-2.637c-.735 0-1.393-.386-1.826-.98-1.09-1.502-2.712-2.326-4.57-2.326H637.62c7.79-3.214 18.582-3.943 27.953 1.394.038.02.08.034.12.053.133.108.28.2.45.256.147.048.298.072.447.072.328 0 .647-.115.903-.324 9.145-4.613 19.667-4.288 27.312-1.45H674.2c-1.857 0-3.48.825-4.57 2.327zm-41.766-48.442h2.51V160.6c0 .506.267.976.703 1.233.438.258.978.265 1.422.018 5.82-3.228 11.618-4.934 16.76-4.934 4.308 0 8.084 1.143 11.294 3.396-10.697-3.29-21.966-.738-28.915 3.745-.06.037-.106.082-.157.125h-3.62v-46.117zm5.373-4.28c5.232-2.602 10.542-3.92 15.793-3.92 5.304 0 10.565 1.277 16.056 3.896 0 6.014.018 15.548.035 25.093l.01 4.67c-.012 6.23-.02 12.2-.025 16.882-4.228-4.17-9.637-6.353-15.844-6.353-4.99 0-10.487 1.438-16.023 4.18v-44.446zm47.79-2.666v16.427l-2.705-2.395c-.54-.48-1.356-.48-1.898 0l-2.706 2.395v-14.874c2.446-.784 4.894-1.306 7.308-1.554zm18.86 2.936V158.5c-5.535-2.74-11.035-4.18-16.023-4.18-6.208 0-11.617 2.183-15.845 6.354-.005-4.733-.015-10.784-.026-17.09l.01-5.002c.017-9.258.033-18.516.035-24.55.944-.452 1.88-.85 2.813-1.22v17.916c0 .564.33 1.074.845 1.307.188.084.388.126.587.126.343 0 .683-.123.95-.36l4.137-3.662 4.135 3.663c.422.374 1.025.466 1.537.235.514-.232.845-.742.845-1.307V110.14c0-.002.002-.003.004-.004 5.317-.035 10.695 1.284 15.994 3.92zm2.865 1.145v-2.02c0-.53-.293-1.022-.76-1.267-5.9-3.08-11.92-4.643-17.897-4.643-5.642 0-11.44 1.414-17.246 4.17-6-2.94-11.992-4.44-17.82-4.44-5.98 0-12 1.563-17.897 4.643-.468.245-.76.737-.76 1.265v2.293h-2.987c-1.318 0-2.386 1.07-2.386 2.387v47.074c0 1.318 1.067 2.386 2.384 2.386h31.392c.898 0 1.738.434 2.265 1.163.973 1.34 2.536 2.142 4.185 2.142h2.526c1.65 0 3.214-.802 4.186-2.144.526-.728 1.366-1.162 2.264-1.162h31.387c1.32 0 2.39-1.07 2.39-2.39v-47.07c0-1.317-1.07-2.385-2.386-2.385h-2.838z"/></g><g stroke="#EF3E4A" stroke-width="3"><path d="M761.34 87.228h-7.17v-52.08c0-.886.72-1.604 1.605-1.604h3.958c.886 0 1.606.718 1.606 1.603v52.08zM804.354 92c-1.61-.63-3.3-1.225-4.78-2.386-4.69-3.68-7.17-9.22-7.17-15.51V63.37c5.61-.714 9.4-3.042 11.95-4.772 2.55 1.73 6.34 4.058 11.95 4.772v10.737c0 6.29-2.482 11.83-7.17 15.51-1.48 1.16-3.17 1.754-4.78 2.385z"/><path d="M798.38 77.684v-8.35l4.78-2.387"/><path d="M811.693 38.316H751.61c-2.545 0-4.61 2.06-4.61 4.602v39.708c0 2.542 2.065 4.602 4.61 4.602h45.492c-3.067-3.51-4.697-8.064-4.697-13.123V63.368c5.608-.714 9.4-3.042 11.95-4.772 2.55 1.73 6.34 4.058 11.948 4.772v-20.45c0-2.542-2.064-4.602-4.61-4.602zM766.118 38.316h9.56v-4.772h-9.56zM787.626 38.316h9.56v-4.772h-9.56z"/><path d="M790.016 30.495v3.05h4.78v-2.52c0-3.88-3.15-7.025-7.037-7.025h-12.216c-3.886 0-7.036 3.145-7.036 7.024v2.52h4.78v-3.05c0-1.327 1.35-2.23 2.58-1.722 3.703 1.528 7.864 1.528 11.568 0 1.23-.507 2.58.395 2.58 1.723zM804.354 58.596c1.264.858 2.836 1.862 4.78 2.743V35.146c0-.885-.72-1.603-1.606-1.603h-3.958c-.886 0-1.606.718-1.606 1.603v24.955c.894-.517 1.694-1.033 2.39-1.506zM782.846 71.72c-5.28 0-9.56-4.274-9.56-9.545 0-5.27 4.28-9.543 9.56-9.543s9.56 4.273 9.56 9.543-4.28 9.544-9.56 9.544z"/><path d="M786.43 62.175c0 1.977-1.604 3.58-3.584 3.58s-3.584-1.603-3.584-3.58c0-1.976 1.604-3.58 3.584-3.58s3.585 1.604 3.585 3.58zM773.6 64.56h-6.287v11.93h14.34v-4.853c-3.916-.49-7.087-3.337-8.052-7.076zM780.457 46.667v6.277c.764-.197 1.563-.312 2.39-.312 4.01 0 7.44 2.468 8.857 5.964h3.09v-11.93h-14.337z"/></g></g></svg>