<svg version="1.1" id="Layer_1" xmlns="http://www.w3.org/2000/svg" xmlns:xlink="http://www.w3.org/1999/xlink" x="0px" y="0px"
	 viewBox="1333 74 3086 274" style="enable-background:new 1333 74 3086 274;" xml:space="preserve">
<g>
	<path d="M2242.2,211.9c-13.3-8-27.7-13.6-42.9-15.7c-31.3-4.3-62.8-7.5-94.2-11.2c-14.8-1.7-29.3-4-42.9-10.6
		c-22.4-10.9-19.5-38.8-5.3-49.5c5.7-4.3,11.9-8,18.4-10.8c15.4-6.8,32-8.6,48.7-9.5c33.3-1.8,64.1,5.7,91.4,25.4
		c8.3,6,15.8,13.1,24,19.9c8.2-6.6,16.7-13.5,25.3-20.5c-1.2-1.5-2-2.8-3-3.9c-21.8-25.9-49.6-41.4-82.7-47.4
		c-9.3-1.7-18.7-2.8-28-4.1c-13,0-26,0-39,0c-1.8,0.3-3.5,0.8-5.3,1c-19.1,2-37.8,5.9-55,14.4c-21.7,10.7-37.3,26.1-41.1,51.5
		c-4.2,28.1,6.4,51.1,31.8,63.9c8.5,4.3,17.7,8.4,27,9.9c28.6,4.5,57.4,7.8,86.1,11.2c16.8,2,33.8,3.3,49.9,9.1
		c4.4,1.6,8.7,3.3,12.8,5.5c21.7,11.7,24.3,36.4,5.7,52.9c-7.4,6.5-16,10.9-25.3,13.6c-28.9,8.4-58.4,9.8-88,5.6
		c-26.5-3.7-50-14.6-69.3-33.6c-5.2-5.1-9.9-10.7-15.1-16.4c-9.1,7.7-18.2,15.3-27.6,23.1c23.9,26.1,51.9,44.6,85.4,54.2
		c26.2,7.5,53.1,8.2,80.2,6.1c23.6-1.9,46.3-7.2,67.4-18.3c23.9-12.6,40-30.6,40.6-59.3C2272.7,244,2263.6,224.7,2242.2,211.9z"/>
	<path d="M4417.1,181.9c-9.7-46.6-35.9-78.9-81.9-93.9c-21.2-7-43.2-7.4-65.2-7.5c-39-0.2-78,0.2-117,0.3c-1.3,0-2.6,0.2-4.2,0.3
		c0,85.9,0,171.6,0,257.8c2.3,0,4.2,0,6.2,0c42.3,0,84.7-0.2,127,0.1c14.6,0.1,28.9-1.5,43-5c44.7-11.1,75.5-37.2,88.5-82.3
		c2.3-8.1,3.7-16.5,5.5-24.7c0-11.7,0-23.3,0.1-34.9C4418.4,188.7,4417.8,185.3,4417.1,181.9z M4378.7,243
		c-8.4,31.7-29.8,50.2-60.6,58.9c-15.8,4.4-32.1,6.1-48.4,6.3c-26.6,0.4-53.3,0.4-79.9,0.5c-1.1,0-2.3-0.1-3.9-0.2
		c0-65.8,0-131,0-196.6c1.2-0.1,2.1-0.3,3.1-0.3c28.6,0.1,57.3-0.3,85.9,0.4c21.4,0.5,42.3,4.6,61.8,14.1
		c25.4,12.4,39.9,32.7,44.5,60.5C4384.3,205.6,4383.6,224.4,4378.7,243z"/>
	<path d="M1466.9,81c-0.5,0.8-0.8,1.3-1.1,1.9c-37.8,72.6-75.5,145.2-113.3,217.7c-6.4,12.2-13,24.3-19.5,36.4c0,0.7,0,1.3,0,2
		c13.1,0,26.2,0,39.3,0c11.4-21.8,22.5-43.1,33.6-64.2c54.9,0,109.2,0,163.7,0c11,21.3,21.9,42.6,32.8,63.8c13.4,0,26.5,0,40.5,0
		c-45-86.3-89.7-172-134.3-257.6C1494.5,81,1480.7,81,1466.9,81z M1422.2,242.1c22.2-43.3,44-86,66.1-129.3
		c21.6,43.4,42.7,86.1,64.2,129.3C1508.9,242.1,1466.2,242.1,1422.2,242.1z"/>
	<path d="M1940.9,81c-11.9,0-23.6,0-35.6,0c0,10.6,0,20.8,0,30.9c0,32.7-0.2,65.3,0.1,98c0.1,15.3-0.1,30.6-3.3,45.7
		c-5.9,27.3-20,47.2-48.2,54.9c-30.6,8.4-61.5,9.6-92.3,1.9c-27.9-6.9-45.8-24.8-51.4-53.1c-2.7-13.6-3.6-27.7-3.7-41.6
		c-0.5-43.7-0.2-87.3-0.2-131c0-1.9,0-3.8,0-5.6c-12.2,0-23.6,0-35.2,0c0,2.4,0,4.4,0,6.4c0,40.7-0.1,81.3,0,122
		c0,14.5,0,29,1.1,43.4c2.3,30.4,15.4,55,40.7,72.8c14.8,10.5,31.7,15,49.1,18.2c8.6,1.6,17.3,2.8,26,4.1c12,0,24,0,36.1-0.3
		c0.6-0.2,1.2-0.6,1.8-0.7c14.8-3.1,29.7-5.7,44.3-9.4c23.2-5.9,41.7-18.8,54.5-39.3c11.6-18.6,15.9-39.5,16.1-61
		c0.6-51.1,0.3-102.3,0.3-153.4C1941.1,82.9,1941,82,1940.9,81z"/>
	<path d="M3410.5,224c30.8-6.1,52.7-21.7,60.1-54.1c7.7-33.7-5.5-71.9-48.4-83.8c-16.5-4.6-33.4-5.6-50.4-5.6
		c-49.9-0.1-99.9,0.2-149.9,0.3c-1.3,0-2.6,0.2-4.2,0.3c0,85.9,0,171.6,0,257.4c12.1,0,23.8,0,36,0c0-37.2,0-73.9,0-111
		c32.5,0,64.4,0,97,0c27.6,37.1,55.2,74.2,82.5,111.2c14.6,0,28.7,0,43.7,0c-27.8-37.7-55.1-74.8-82.7-112.3
		C3400.1,225.5,3405.3,225,3410.5,224z M3255.7,195.7c-0.5,0-0.9-0.2-1.9-0.5c0-27.4,0-54.5-0.1-82.2c1.8-0.1,3.4-0.2,5-0.2
		c39.5-0.1,79-0.3,118.5-0.1c9.3,0,18.7,0.9,27.7,3c26.3,6.1,33.9,22.2,29.7,47.7c-1.7,10.9-8.6,18-18.3,22.7
		c-11.3,5.4-23.4,8.4-35.7,8.6C3339,195.5,3297.4,195.5,3255.7,195.7z"/>
	<path d="M2991.3,285.6c-63.6-69-126.3-136.9-188.7-204.5c-15.7,0-31,0-46.4,0c0,86,0,171.7,0,257.4c11.2,0,22.1,0,33.5,0
		c0-73.3,0-146.2,0-219.1c0.4-0.1,0.8-0.2,1.3-0.3c66.8,73.4,133.6,146.7,200,219.5c11.9,0,23,0,34.3,0c0-86,0-171.7,0-257.5
		c-11.4,0-22.3,0-34,0C2991.3,149,2991.3,216.6,2991.3,285.6z"/>
	<path d="M3575.3,222.1c55.5,0,110.5,0,165.6,0c0-10.6,0-20.7,0-31.2c-55.5,0-110.5,0-165.8,0c0-26.1,0-51.7,0-78.2
		c66.5,0,132.6,0,198.7,0.1c0-10.9,0-21.1,0-31.6c-78.5,0-156.7,0-235,0c0,86,0,171.7,0,257.5c79.9,0,159.3,0,238.9,0
		c0-9.7,0-19,0-28.9c-67.8,0-135.2,0-202.4,0C3575.3,280.4,3575.3,251.5,3575.3,222.1z"/>
	<path d="M3880.1,222.2c55.5,0,110.6,0,165.8,0c0-10.6,0-20.7,0-31.3c-55.5,0-110.8,0-166,0c0-26.2,0-51.8,0-78.1
		c66.5,0,132.7,0,198.8,0c0-10.9,0-21.2,0-31.6c-78.5,0-156.7,0-234.9,0c0,86,0,171.7,0,257.4c79.9,0,159.3,0,238.8,0
		c0-9.6,0-19,0-28.8c-67.8,0-135.2,0-202.5,0C3880.1,280.5,3880.1,251.6,3880.1,222.2z"/>
	<path d="M2307.5,111.9c41.4,0,82.4,0,124,0c0,76,0,151.3,0,226.7c11.8,0,23.1,0,34.9,0c0-76.1,0-151.8,0-228.1c41.9,0,83.3,0,125,0
		c0-10,0-19.4,0-29.3c-95,0-189.5,0-283.9,0C2307.5,91.5,2307.5,101.4,2307.5,111.9z"/>
	<path d="M2649.4,338.5c12.1,0,23.8,0,35.9,0c0-85.8,0-171.5,0-257.5c-12,0-23.8,0-35.9,0C2649.4,167.2,2649.4,252.8,2649.4,338.5z"
		/>
</g>
</svg>
