<svg width="242" height="74" viewBox="0 0 242 74" xmlns="http://www.w3.org/2000/svg" xmlns:xlink="http://www.w3.org/1999/xlink"><title>bluefin</title><defs><path id="a" d="M.02.852V72.68h241.203V.85z"/></defs><g fill="none" fill-rule="evenodd"><path d="M168.773 21.018c0-6.646 3.073-10.556 8.38-10.71l.657.008c5.096.148 8.123 3.885 8.356 10.056.063.605.238 1.2.51 1.757.25.51.584.992 1.01 1.417 2.074 2.075 5.44 2.075 7.516 0 .408-.408.73-.866.977-1.352.374-.735.566-1.537.574-2.34-.008-.222-.02-.443-.033-.662-.574-9.098-4.985-15.13-12.497-17.32l-.073-.022c-.213-.06-.43-.12-.65-.176-.186-.048-.377-.095-.567-.137-.07-.017-.142-.033-.215-.048-1.658-.364-3.45-.56-5.374-.566-5.148-.03-9.873 1.832-13.298 5.244-2.81 2.794-4.667 6.54-5.413 10.815-.256 1.43-.387 2.923-.387 4.458h.018V53.85h-.004v17.172c0 .554.448 1 1 1h.792c.04-.002.083-.01.123-.012 4.773-.334 8.552-4.27 8.594-9.12v-.186l.003-.003V39.228h13.118c.545 0 1-.448 1-.994V30.19c0-.555-.455-1-1-1h-13.117v-8.172z" fill="#000"/><g transform="translate(0 .702)"><mask id="b" fill="#fff"><use xlink:href="#a"/></mask><path d="M27.925 19.954c.015-2.43-.887-4.673-2.537-6.318-1.592-1.577-3.757-2.444-6.12-2.444l-7.855.002c-.517 0-.92.36-.92.894 0 1.42-.01 3.973.022 7.725l.002 7.777c0 .52.36.92.892.92 1.432 0 4.02.01 7.828-.022l-.004-.004c2.277-.005 4.44-.888 6.093-2.503 1.655-1.62 2.58-3.763 2.598-6.026zM35.11 49.91c-.095-6.91-5.533-12.206-12.377-12.23-.835-.003-9.618.026-11.49.026-.878 0-.776.6-.776 1.288 0 2.58.13 6.806.102 10.858-.05 3.306 1.213 6.454 3.557 8.85 2.3 2.35 5.34 3.66 8.552 3.686 3.447.023 6.63-1.255 8.968-3.6 2.235-2.26 3.465-5.334 3.465-8.688 0-.06 0-.127-.004-.19zM19.68.857c10.178 0 18.3 8.196 18.3 18.44.022 4.004-1.267 7.837-3.66 11.02 1.618.907 3.122 2.022 4.476 3.332 4.375 4.242 6.798 10.088 6.827 16.465 0 12.66-9.985 22.566-22.723 22.566-6.064.027-11.81-2.346-16.17-6.686C2.397 61.67 0 55.974 0 49.952V1.846c0-.554.444-.99.996-.99H19.68zM186.164 19.67c-.01-.203-.02-.403-.032-.6 0 .2.01.4.032.6zm10.556-1.178c.016.217.026.44.034.66.004-.22-.008-.44-.033-.66zm-1.093 52.82c.55 0 1-.43 1-.983l-.006-40.844c0-.546-.445-.998-1-.998h-8.513c-.55 0-1 .452-1 .998V62.2c.043 4.796 3.756 8.707 8.458 9.11h1.062zm45.596-8.98V48.628c0-12.775-7.035-20.09-19.298-20.14h-16.39c-.553.007-1.308-.02-2 .622-.827.76-.73 1.26-.73 2.073 0 3.555.037 12.642.037 17.607v21.54c0 .55.448.99 1 .99h8.514c.553 0 .994-.44.994-.99V49.51c0-3.097.032-8.687.032-9.674 0-.984.077-1.09 1.2-1.175 2.61-.193 4.743-.16 7.095.184 2.436.356 4.58.648 6.13 2.144 1.9 1.83 2.9 4.68 2.9 8.246V70.42c0 .55.45.99 1.002.99l.005-.002h.792c4.812-.27 8.64-4.212 8.716-9.075zm-99.37-17.694c-1.53-3.59-5.715-7-10.788-6.907-5.167.1-9.12 2.606-11.077 6.908h21.866zm12.268 6.87c0 .68-.022 1.363-.07 2.05-.04.52-.473.925-.998.925H119.92c1.14 4.046 5.64 7.944 11.436 7.846 3.42-.082 6.253-1.422 8.92-4.222.147-.158.333-.247.53-.283.038-.008.075-.02.117-.02.006-.003.013-.003.023-.005.03-.004.06-.01.09-.012.027 0 .054 0 .08-.002h.42c.133.004.264.02.398.03 3.318.216 6.16 2.17 7.602 4.974.118.225.183.58-.048.91-2.388 3.13-5.617 5.636-9.43 7.186-.868.352-1.76.658-2.687.91-1.855.567-3.843.88-6.05.88-12.747 0-23.168-10.097-23.226-22.507-.027-6.11 2.367-11.85 6.74-16.172 4.435-4.377 10.337-6.727 16.608-6.617 6.33.085 12.133 2.652 16.346 7.237 4.123 4.477 6.333 10.417 6.333 16.892zm-23.055-13.777c-5.167.1-9.12 2.606-11.077 6.908h21.866c-1.53-3.59-5.716-7-10.79-6.907zm10.79 6.908h-21.867c1.956-4.302 5.91-6.81 11.077-6.907 5.073-.092 9.258 3.318 10.79 6.908zM51.634.852h-.42c-.027 0-.052.002-.08.004-.54.01-.976.45-.976.996V70.33c0 .55.444.99.998.99h8.51c.555 0 1-.44 1-.99v-60.3C60.635 5.022 56.624.964 51.635.85zm-.5.004c-.54.01-.976.45-.976.996V19.25L51.135.856zm52.76 36.707c-.074-4.863-3.787-8.806-8.603-9.075h-.79l-.004-.004c-.554 0-1.004.44-1.004.993V50.67c0 3.566-1.002 6.416-2.9 8.247-1.552 1.496-3.694 1.79-6.133 2.146-2.35.343-4.48.375-7.093.18-1.125-.084-1.198-.19-1.198-1.174 0-.987-.034-6.576-.034-9.676V29.48c0-.55-.44-.992-.996-.992h-8.51c-.555 0-1 .44-1 .993v21.635c0 4.968-.038 13.956-.038 17.514 0 .812-.096 1.308.73 2.07.693.642 1.445.625 2 .63H84.59c12.262-.05 19.298-7.398 19.298-20.172l.008-13.595z" fill="#000" mask="url(#b)"/></g></g></svg>