<svg
   xmlns:svg="http://www.w3.org/2000/svg"
   xmlns="http://www.w3.org/2000/svg"
   version="1.1"
   width="1024"
   height="222"
   viewBox="-0.8370108 -0.8370108 136.6747716 29.5743816"
   id="svg4217">
  <path
     d="m 68.765392,26.66011 c -4.75586,0.40528 -7.08008,-3.98925 -7.44141,-8.22265 -0.49805,-5.79102 2.56836,-8.08106 5.52734,-8.33496 4.52149,-0.38574 7.00196,3.86718 7.37305,8.25683 0.4834,5.62988 -2.33887,8.02735 -5.45898,8.30078 M 67.852302,8.86226 c -5.97168,0 -10.17578,4.2041 -10.17578,9.68262 0,5.19531 3.78906,9.35547 10.17578,9.35547 5.80566,0 10.01465,-4.03809 10.01465,-9.59961 0,-5.03906 -3.37891,-9.43848 -10.01465,-9.43848 m 49.555668,0.45899 c -1.16699,0.0781 -2.03125,0.1123 -2.94434,0.1123 -0.9375,0 -1.88476,-0.0342 -3.11523,-0.1123 -0.41992,0.15625 -0.45898,0.82031 -0.0928,1.0205 l 0.86912,0.12696 c 0.99608,0.12695 0.9082,0.48828 0.28808,1.64551 l -1.64551,3.01757 c -0.69335,1.3086 -1.31835,2.29492 -1.98241,3.41309 -0.61524,-1.07422 -1.23536,-2.1875 -1.84571,-3.41309 l -1.52832,-2.92968 c -0.66895,-1.28907 -0.53222,-1.52344 0.36622,-1.7334 l 0.58105,-0.12696 c 0.41015,-0.20019 0.29296,-0.86425 -0.044,-1.0205 -1.31835,0.0781 -2.26074,0.1123 -3.50098,0.1123 -1.48437,0 -2.43652,-0.0342 -3.793938,-0.1123 -0.32228,0.1123 -0.40528,0.77636 -0.12696,1.0205 l 1.07422,0.20508 c 1.069338,0.20996 1.489258,0.58106 2.348628,2.22657 l 3.00781,5.5664 c 1.03517,1.89453 1.15235,2.22168 1.15235,3.50586 l 0,1.55762 c 0,2.43652 -0.16113,2.68554 -1.9336,2.88574 l -1.02538,0.12695 c -0.29785,0.20508 -0.2539,0.90821 0.0781,1.03028 1.85548,-0.0781 3.13965,-0.12208 4.45801,-0.12208 1.26953,0 2.63184,0.0439 4.43848,0.12208 0.33691,-0.12208 0.38086,-0.8252 0.0879,-1.03028 l -1.03027,-0.12695 c -1.76758,-0.2002 -1.94335,-0.44922 -1.94335,-2.88574 l 0,-2.22657 c 0,-1.1914 0.0879,-1.60156 1.57714,-3.94531 l 2.54883,-4.13086 c 1.27929,-2.05078 1.48438,-2.30468 2.76855,-2.55371 l 0.98633,-0.20508 c 0.33204,-0.20019 0.24414,-0.9082 -0.0781,-1.0205 M 88.672612,26.33296 c -3.14941,0 -3.5498,-1.32324 -3.5498,-3.94531 l 0,-9.81933 c 0,-0.91309 0,-1.43555 0.23438,-1.60645 0.33691,-0.2832 1.12305,-0.44922 2.48535,-0.44922 4.64843,0 8.19336,2.63672 8.19336,7.70508 0,5.01953 -2.42676,8.11523 -7.36329,8.11523 m 5.34669,-16.10839 c -1.9336,-0.66406 -3.95996,-0.90821 -6.26465,-0.90821 -3.33009,0 -5.64454,0.083 -7.9541,0.24415 -0.36621,0.12207 -0.41505,0.9082 -0.044,1.03027 l 1.23535,0.16601 c 0.95215,0.12208 0.99121,0.82032 0.99121,3.50098 l 0,8.74512 c 0,2.83691 -0.16601,2.99804 -1.93847,3.28613 l -0.78614,0.12208 c -0.2832,0.20996 -0.23925,0.91796 0.083,1.03027 1.61132,-0.0732 2.8955,-0.1123 4.21386,-0.1123 0.62013,0 1.40138,0.0391 2.21191,0.0781 0.87403,0.0879 1.83107,0.12695 2.73438,0.12695 2.05566,0 4.36035,-0.32226 6.22071,-1.28418 3.30078,-1.68457 4.98535,-4.69726 4.98535,-7.94922 0,-3.79394 -1.93847,-6.80175 -5.68847,-8.07617 m 37.631888,7.20214 -2.54883,-1.31836 c -1.65038,-0.86426 -2.74413,-1.77246 -2.74413,-3.24219 0,-1.40136 0.89355,-2.8125 3.32518,-2.8125 2.43165,0 3.50099,2.1045 3.84278,3.54493 0.19531,0.2832 0.93262,0.24414 1.07422,-0.0781 0.0244,-1.77246 -0.26367,-3.34473 -0.59082,-4.04297 -1.39649,-0.23926 -2.38769,-0.61524 -3.83789,-0.61524 -4.15039,0 -6.47461,2.09473 -6.47461,5.10742 0,2.30958 1.69922,3.91602 3.67676,4.94141 l 1.85059,0.95215 c 2.3584,1.19629 2.89062,2.55859 2.89062,3.87695 0,1.88965 -1.35742,2.96875 -3.46191,2.96875 -2.7588,0 -4.57031,-2.9248 -4.90235,-4.41406 -0.29296,-0.37598 -0.9082,-0.33203 -1.07421,0.0879 0,2.18262 0.49316,3.66699 0.86914,4.23828 0.57617,0.41016 2.23143,1.2793 4.73632,1.2793 4.08204,0 6.71875,-2.02149 6.71875,-5.22949 0,-2.76368 -1.86035,-4.49708 -3.34961,-5.24415 m -7.0166,-13.36913 c 0,-2.13868 -1.47461,-3.95508 -3.17383,-3.95508 -1.59667,0 -1.97753,1.07422 -1.97753,1.69922 0,0.77148 0.54687,1.10839 1.11327,1.15234 0.78614,0.0439 2.05566,0.7373 2.05566,2.30957 0,1.68457 -1.59667,2.8418 -3.125,3.53516 -0.20507,0.28808 -0.044,0.708 0.28809,0.86914 2.59278,-0.77637 4.81934,-2.76367 4.81934,-5.61035 M 46.631602,26.66012 c -4.75586,0.40528 -7.08008,-3.98925 -7.44141,-8.22265 -0.49805,-5.79102 2.56836,-8.08106 5.52735,-8.33496 4.52148,-0.38574 7.00195,3.86718 7.37792,8.25683 0.47852,5.62988 -2.34863,8.02735 -5.46386,8.30078 M 45.718512,8.86227 c -5.97656,0 -10.17578,4.2041 -10.17578,9.68262 0,5.19531 3.78906,9.35547 10.17578,9.35547 5.80567,0 10.01465,-4.03809 10.01465,-9.59961 0,-5.03906 -3.37891,-9.43848 -10.01465,-9.43848 m -12.06055,17.42676 c -1.92871,-0.2002 -1.89453,-1.27441 -2.0166,-3.3252 -0.33203,-5.94726 -0.37597,-13.56445 -0.4541,-17.93456 -0.0439,-2.88086 0.28809,-3.62305 2.88086,-3.9209 l 0.87402,-0.0781 c 0.20508,-0.1709 0.20508,-0.86914 -0.0391,-1.03027 -1.28906,0.083 -2.6416,0.11719 -3.67187,0.11719 -0.8252,0 -1.68946,0 -3.09571,-0.11719 -0.083,1.89453 -1.23046,4.16504 -3.12988,7.91015 l -3.87695,7.86621 c -1.02539,2.10938 -2.06055,4.25782 -3.16895,6.18653 l -0.083,0 c -0.99609,-1.81641 -1.89941,-3.71094 -2.84668,-5.63965 L 10.332742,6.79687 C 9.058332,4.16504 8.023172,1.60644 8.189182,0 c -1.3623,0.11719 -2.4707,0.11719 -3.42285,0.11719 -1.02539,0 -2.0166,-0.0342 -3.25195,-0.11719 -0.33203,0.16113 -0.37598,0.78125 -0.16602,1.03027 l 0.6543,0.0781 c 2.51465,0.41504 2.85645,0.94726 2.76367,3.54492 -0.083,2.26562 -0.24902,5.7666 -0.4541,9.18945 -0.24414,4.08691 -0.44433,6.34766 -0.69336,9.07227 -0.24902,2.88086 -0.83008,3.17382 -2.55859,3.37402 l -0.90820003,0.12208 c -0.25391,0.20996 -0.16602,0.83496 0.0879,1.03027 1.40137003,-0.0732 2.88086003,-0.1123 4.19434003,-0.1123 1.56738,0 3.17871,0.0391 4.58008,0.1123 0.28808,-0.1123 0.33203,-0.77637 0.0439,-1.03027 l -1.56739,-0.12208 c -1.61133,-0.11719 -1.85058,-0.77637 -1.85058,-3.82813 0,-3.50097 0.16113,-7.17773 0.2832,-9.68749 0.12695,-2.39258 0.25391,-4.78516 0.41016,-7.33887 l 0.083,0 c 0.9082,1.89941 1.77246,4.04297 2.6416,5.9375 l 3.70117,7.9541 c 0.95215,2.02148 2.92481,6.06445 3.6377,8.24219 0.0781,0.12695 0.28808,0.16601 0.36621,0.16601 0.16601,0 0.32715,-0.0391 0.40527,-0.16601 0.74707,-1.89453 2.60742,-5.76172 4.45313,-9.39453 l 3.67187,-7.2168 c 0.8252,-1.59668 2.38281,-4.89746 2.67578,-5.35156 l 0.083,0 0.12696,17.18261 c 0,2.6416 0,3.30078 -2.02149,3.50098 l -1.18652,0.12208 c -0.25391,0.2539 -0.20996,0.83496 0.083,1.03027 1.67969,-0.0732 3.54004,-0.1123 4.97558,-0.1123 1.48438,0 3.17872,0.0391 4.87305,0.1123 0.2832,-0.16113 0.32227,-0.77637 0.083,-1.03027 z m 0,0"
     id="path3664"
     style="fill:#000000;fill-opacity:1;fill-rule:nonzero;stroke:none" />
</svg>
