<svg version="1.1"
	 id="svg2" xmlns:svg="http://www.w3.org/2000/svg" xmlns:dc="http://purl.org/dc/elements/1.1/" xmlns:cc="http://creativecommons.org/ns#" xmlns:rdf="http://www.w3.org/1999/02/22-rdf-syntax-ns#"
	 xmlns="http://www.w3.org/2000/svg" xmlns:xlink="http://www.w3.org/1999/xlink" x="0px" y="0px" viewBox="-109 159.2 200 103.8"
	 style="enable-background:new -109 159.2 200 103.8;" xml:space="preserve">
<g id="g2997" transform="matrix(3.6623329,0,0,3.6623329,-0.7,-0.123)">
	<path id="path6" d="M7.2,54.3c-0.3-0.3-0.9-0.4-1.4-0.4c-0.6,0-1.1,0.2-1.5,0.5v-3.6H2.5v11.7h1.8v-6.1c0-0.4,0.4-0.9,1-0.9
		c0.3,0,0.7,0.1,0.9,0.4c0.2,0.3,0.2,0.8,0.2,1.2l0,5.4h1.8v-5.4C8.2,55.5,8,54.9,7.2,54.3"/>
	<path id="path8" d="M-7.2,58.4c0,1.1,0,1.5,0,1.6c-0.1,0.6-0.3,1.3-1.1,1.3c-0.7,0-1-0.7-1.1-1.3c0,0,0-0.4,0-1.5
		c0-1.1,0-1.6,0-1.6c0-0.6,0.3-1.3,1.1-1.3s1.1,0.6,1.1,1.3C-7.3,56.7-7.2,57.2-7.2,58.4 M-5.5,57c-0.3-2.5-1.7-3-2.8-3
		c-1.6,0-2.7,1-2.8,3c0,0.2,0,0.4,0,1.4c0,0.7,0,1.2,0,1.4c0.1,1.8,1.2,3,2.8,3c1.7,0,2.7-1.2,2.8-3c0-0.1,0-0.7,0-1.4
		C-5.5,58-5.5,57.2-5.5,57z"/>
	<path id="path10" d="M11.1,57.3c0-0.4,0-0.5,0-0.6c0-0.7,0.4-1.3,1.1-1.3c0.8,0,1,0.8,1.1,1.3c0,0.2,0,0.4,0,0.6H11.1 M13.3,59.6
		c0,0,0,0.1,0,0.3c0,0.4-0.2,1.3-1.1,1.3c-0.7,0-1-0.7-1.1-1.3c0-0.2,0-0.4,0-1.1h3.9c0,0,0-0.6,0-0.9c0-0.1,0-0.4,0-0.9
		c-0.1-0.7-0.3-1.6-0.8-2.1c-0.5-0.6-1.2-0.9-2-0.9c-1.6,0-2.6,1-2.8,3c0,0.2,0,0.4,0,1.4c0,0.7,0,1.2,0,1.4c0.1,1.8,1.2,3,2.8,3
		c1.6,0,2.7-1.1,2.8-3.1L13.3,59.6L13.3,59.6z"/>
	<path id="path12" d="M-16.8,44.9H12l11,12.9L12,70.5h-28.8l-11-12.7L-16.8,44.9 M12.7,43.5h-30.2l-12.2,14.2l12.2,14.1h30.2
		l12.2-14.1L12.7,43.5z"/>
	<path id="path14" d="M-16.5,52.4h0.8c0.9,0,1.4,0.5,1.4,1.3c0,0.1,0,0.1,0,0.3c0,0.2,0,0.2,0,0.3c-0.1,0.5-0.3,1.4-1.3,1.4h-0.9
		V52.4 M-12.3,61.8c0,0-0.2-2.9-0.2-2.9c-0.1-1.3-0.4-2-1.1-2.4c0.5-0.3,1.1-1,1.1-2.5c0-2.3-1.4-3.1-3.1-3.1h-2.7v11.6h1.7l0-5.3h1
		c0.6,0,1.2,0.5,1.3,1.9l0.2,2.7c0,0.4,0.1,0.7,0.1,0.7h1.7C-12.2,62.5-12.3,62.2-12.3,61.8z"/>
	<path id="path16" d="M-0.3,59.6c0,0.1,0,0.2,0,0.3c0,0.6-0.3,1.3-1.1,1.3c-0.7,0-1-0.7-1.1-1.3c0-0.3,0-0.6,0-1.6
		c0-1.1,0-1.4,0-1.6c0.1-0.7,0.3-1.3,1.1-1.3c0.7,0,1.1,0.6,1.1,1.3c0,0,0,0.2,0,0.5h1.8c0-0.1,0-0.2,0-0.3c-0.2-2.4-1.7-3-2.8-3
		c-1.6,0-2.7,1-2.8,3c0,0.2,0,0.4,0,1.4c0,0.7,0,1.2,0,1.4c0.1,1.8,1.2,3,2.8,3c1.7,0,2.7-1,2.8-3c0-0.1,0-0.1,0-0.2H-0.3"/>
</g>
</svg>
