<svg version="1.1"
	 xmlns="http://www.w3.org/2000/svg" xmlns:xlink="http://www.w3.org/1999/xlink" xmlns:a="http://ns.adobe.com/AdobeSVGViewerExtensions/3.0/"
	 x="0px" y="0px" width="128px" height="55px" viewBox="-0.439 -0.879 128 55" enable-background="new -0.439 -0.879 128 55"
	 xml:space="preserve">
<path fill-rule="evenodd" clip-rule="evenodd" fill="#000000" d="M57.209,25.225v-2.737H46.658c-5.177,0-7.584,1.781-7.584,4.518
	c0,2.539,2.308,4.748,8.276,4.748C54.703,31.753,57.209,31.094,57.209,25.225L57.209,25.225L57.209,25.225z M34.655,6.858
	l-3.726,3.759c-3.462-2.077-6.99-3.495-11.738-3.495c-5.639,0-7.518,1.913-7.518,4.517c0,1.649,1.352,3.265,5.771,3.562l7.254,0.461
	c4.484,0.231,7.65,1.517,9.694,3.495c2.374-2.044,5.935-3.331,10.617-3.331h12.2v-3.858c0-3.561-2.671-4.814-9.001-4.814
	c-4.583,0-7.551,1.352-9.859,3.496L34.655,6.858L34.655,6.858z M100.206,16.388h20.378c0-6.529-4.847-9.76-10.222-9.76
	S100.206,9.826,100.206,16.388L100.206,16.388L100.206,16.388z M69.706,19.257c0.099,6.166,0.198,7.122,1.78,8.836
	c1.253,1.353,3.957,2.935,7.617,2.935c3.561,0,5.869-1.583,7.122-2.935c1.583-1.714,1.78-2.77,1.78-8.836
	c0-6.133-0.197-7.188-1.78-8.903c-1.253-1.352-3.562-2.935-7.122-2.935c-3.66,0-6.364,1.583-7.617,2.935
	C69.904,12.068,69.64,13.058,69.706,19.257L69.706,19.257L69.706,19.257z M64.167,5.737c0.297-0.362,0.593-0.725,0.957-1.121
	C67.101,2.474,70.992,0,76.696,0c4.484,0,8.046,1.484,11.31,4.452v-3.99h8.837v4.122C100.338,1.286,105.021,0,109.406,0
	c9.661,0,17.97,6.628,18.003,17.707c0.033,1.912-0.197,5.309-0.197,5.309h-27.006c0,6.133,4.188,8.441,10.222,8.441
	c3.363,0,7.617-1.517,10.189-3.825l5.935,4.319c-4.319,4.287-10.09,6.595-15.959,6.595c-4.813,0-9.99-1.121-13.75-4.551v3.166
	c0,11.343-9.001,16.553-19.025,16.553c-5.605,0-11.31-2.539-15.201-6.298l6.826-4.682c2.143,1.846,5.177,3.396,8.54,3.396
	c5.902,0,10.023-2.869,10.023-8.145v-3.858c-2.736,2.605-6.825,4.386-11.31,4.386c-4.946,0-8.507-1.847-10.683-3.726v3.792h-8.804
	v-3.825h-0.165c-1.813,2.605-4.847,3.792-10.815,3.792c-5.573,0-9.826-1.616-12.431-4.221c-3.297,2.704-8.54,4.155-14.541,4.155
	c-7.089,0-13.651-2.209-19.257-6.727l6.133-5.209c3.792,3.198,7.947,4.847,13.816,4.847c5.012,0,8.639-1.649,8.639-4.847
	c0-2.671-2.341-3.462-5.342-3.693l-7.782-0.593C8.211,21.729,2.836,18.037,2.836,11.574C2.836,3.924,9.925,0,19.191,0
	c6.661,0,11.441,1.517,15.431,3.957c3.232-2.901,7.452-3.924,13.157-3.924C55.396,0.033,61.331,1.583,64.167,5.737L64.167,5.737z"/>
</svg>
