<?xml version="1.0" encoding="utf-8"?>
<!-- Generator: Adobe Illustrator 19.0.1, SVG Export Plug-In . SVG Version: 6.00 Build 0)  -->
<!DOCTYPE svg PUBLIC "-//W3C//DTD SVG 1.1//EN" "http://www.w3.org/Graphics/SVG/1.1/DTD/svg11.dtd">
<svg version="1.1" id="Layer_1" xmlns:svg="http://www.w3.org/2000/svg"
	 xmlns="http://www.w3.org/2000/svg" xmlns:xlink="http://www.w3.org/1999/xlink" x="0px" y="0px" viewBox="-78 16 263 390"
	 style="enable-background:new -78 16 263 390;" xml:space="preserve">
<style type="text/css">
	.st0{fill:#FFFFFF;}
	.st1{fill:#6D6D6D;}
</style>
<path id="background" class="st0" d="M-14.7,57.3c5.1-1.9,17.7-4.8,35.2,1.2C40,57,46,54,63.5,51S109,48.5,130,63s41,15,45,57.5
	s-3.5,57.5-8,67s-58,23.5-67.5,27s-47.5,11.5-57,9s-70.5-13-79-19.5S-70,144-68,135s14.5-51,24-59S-23.4,60.6-14.7,57.3z"/>
<path id="foreground" d="M43.2,17.8c-5.6,0.1-11.5,2-15.7,5.6c-7.5,6.5-15,13.2-14.8,22S18,59.2,18,59.2s3.4,2.6,0,5.2
	c-3.4,2.6-43.3,28-41.2,80.4c0,0,1,13.6-0.5,28.2c-1.1,10.4,2.5,23.1,4.7,29.4c0.1,0.1,1.1,2.7-1.2,1.1
	c-10.8-6.8-19.7-16.9-27.1-29.6c-6.8-12.3-10.7-26.6-10.7-41.8c0-32.2,17.5-60.3,43.3-74.8c-35.4,9.8-61.4,42.9-61.4,82.2
	c0,3,0.1,6,0.4,8.9c0.3,6.8,1,17.6,2.9,21.9c2.9,6.5,2.6,20.5,2.6,22.8c0,2.3,0.8,79.1,46.2,78.9c0,0,21.6,0.5,21.8-8.3
	c0.1-7.8-2.1-8.6-4.1-13.1c-1.9-4.3-3.4-4.5-2.3-18.3c0,0,0.1-2.8,1.1-2.8S6,267.3,22.4,287c16.3,19.7,32.7,21.8,45.1,21.8
	c0,0,23.3,0,23.3-11.7c0-11.7-10.6-7-10.6-44.1c0-37.1,17.9-35.3,20-26.2c2.1,9.1,3.9,16.3,0.3,40.7c-3.6,24.4,6.2,27.2,15.3,27.2
	s56.8,1.5,65.1-134.9c0,0,1-22-6.2-41c0,0,3.1,36.3-19.5,55.8s-35.5,16.6-35.5,16.6s-10.9-0.8-15.3,4.7c-4.4,5.4-3.6,9.3-13,6.5
	c-9.3-2.9-9.4-5.2-17.9-4.1s-13.7,2.1-17.1-4.9c-3.4-7-7.1-11.5-14.1-12.8c-7-1.3-37.8-15.9-37-57.2C6,84.9,23.4,71.7,23.4,71.7
	s2.9-3.1,5.7-1.8c2.9,1.3,7.5,1.6,13-3.4s9.1-8.8,18.9-12.2c0,0,6.8-1,6.5-7.8c-0.3-6.7-5.7-21.5-12.7-25.9
	C51.7,18.6,47.6,17.7,43.2,17.8z M66.8,203.5c1.6-0.1,3.8,1,6.2,1.9c3.5,1.3,11.4,0.7,14.5,0.5c3.1-0.2,5.2,1.1,2.7,4.1
	c-3.4,4.1-7.5,3.9-12.7,4.3s-10.7-4.7-10.7-4.7c-0.3-0.5-2.8-3.2-1.6-5.1C65.5,203.8,66.1,203.5,66.8,203.5z M40.3,120.7
	c6-7.4,9.3-8.3,14.5-8.3c5.2,0,12.4,3.3,14.5,11.4c2.3,8.8,3.5,10.2-4.9,20c-6,7.1-16.9,22.5-27.8,12.7
	C25.8,146.7,29.8,133.6,40.3,120.7z M137.7,134.4c-3.5-8.8-6.4-10.7-11.4-12.3c-4.9-1.6-12.8-0.5-17.3,6.5
	c-4.9,7.7-6.6,8.4-1.5,20.4c3.6,8.5,9.5,26.8,22.9,20.6C143.8,163.6,143.9,149.9,137.7,134.4z M80.3,192.3c2.8-4.3,9.2-5.8,13-5.9
	c4.9-0.2,4.8-4.4,4.8-4.4s0.3-4.3-17.4-6c-17.7-1.7-18.2,2.8-18.2,2.8s-0.8,4.2,4,5.2c3.7,0.8,9.7,3.5,11.7,8.2
	C78.6,193.4,79.7,193.4,80.3,192.3z M163.9,85.9c-3,1-7.6,0.7-12.5-4.8s-8-9.8-17.5-14.2c0,0-6.6-1.8-5.6-8.5s8.1-20.8,15.5-24.4
	c7.4-3.6,20-1.4,26.8,5.9c6.8,7.3,13.5,14.8,12.3,23.6c-1.2,8.7-6.7,13.1-6.7,13.1l0.1,0C173.6,80,163.9,85.9,163.9,85.9z"/>
<path id="cw" class="st1" d="M-24.6,279.3c-3.1,0-6,1.2-8.2,3.4c-2.2,2.2-3.4,5.1-3.4,8.2c0,3.1,1.2,6,3.4,8.2s5.1,3.4,8.2,3.4
	c6.4,0,11.6-5.2,11.6-11.6v0c0-3.1-1.2-6-3.4-8.2S-21.5,279.3-24.6,279.3z M-29.9,296.3c-1.4-1.4-2.2-3.3-2.2-5.4
	c0-2,0.8-3.9,2.2-5.4c1.4-1.4,3.3-2.2,5.4-2.2c2,0,3.9,0.8,5.4,2.2c1.4,1.4,2.2,3.3,2.2,5.4v0c0,4.2-3.4,7.6-7.6,7.6
	C-26.6,298.5-28.5,297.7-29.9,296.3z M-22,292l2,0.6c-0.3,1.1-0.8,1.9-1.5,2.5c-0.7,0.5-1.6,0.8-2.7,0.8c-1.3,0-2.5-0.5-3.3-1.4
	c-0.9-0.9-1.3-2.2-1.3-3.8c0-1.7,0.4-3,1.3-3.9s2-1.4,3.4-1.4c1.2,0,2.3,0.4,3,1.1c0.5,0.4,0.8,1.1,1,1.9l-2,0.5
	c-0.1-0.5-0.4-0.9-0.8-1.2c-0.4-0.3-0.8-0.5-1.4-0.5c-0.8,0-1.4,0.3-1.8,0.8c-0.5,0.5-0.7,1.4-0.7,2.6c0,1.3,0.2,2.2,0.7,2.7
	c0.5,0.5,1.1,0.8,1.8,0.8c0.5,0,1-0.2,1.4-0.5S-22.2,292.8-22,292L-22,292z"/>
<path id="Rmark" class="st1" d="M166.6,304.4c-3.1,0-6,1.2-8.2,3.4s-3.4,5.1-3.4,8.2c0,6.4,5.2,11.6,11.6,11.6c3.1,0,6-1.2,8.2-3.4
	c2.2-2.2,3.4-5.1,3.4-8.2v0c0-3.1-1.2-6-3.4-8.2C172.6,305.6,169.7,304.4,166.6,304.4z M161.2,321.4c-1.4-1.4-2.2-3.3-2.2-5.4
	c0-4.2,3.4-7.6,7.6-7.6c2,0,3.9,0.8,5.4,2.2s2.2,3.3,2.2,5.4v0c0,2-0.8,3.9-2.2,5.4c-1.4,1.4-3.3,2.2-5.4,2.2
	C164.6,323.6,162.6,322.8,161.2,321.4z M162.6,321.1v-10.2h4.3c1.1,0,1.9,0.1,2.4,0.3c0.5,0.2,0.9,0.5,1.2,1c0.3,0.5,0.4,1,0.4,1.6
	c0,0.8-0.2,1.4-0.7,1.9c-0.4,0.5-1.1,0.8-2,0.9c0.4,0.3,0.8,0.5,1.1,0.9s0.7,0.9,1.2,1.6l1.2,2h-2.5l-1.5-2.2
	c-0.5-0.8-0.9-1.3-1.1-1.5c-0.2-0.2-0.4-0.3-0.6-0.4s-0.6-0.1-1-0.1h-0.4v4.2H162.6L162.6,321.1z M164.6,315.2h1.5
	c1,0,1.6,0,1.8-0.1c0.2-0.1,0.4-0.2,0.6-0.4c0.1-0.2,0.2-0.5,0.2-0.8c0-0.3-0.1-0.6-0.3-0.8c-0.2-0.2-0.4-0.3-0.8-0.4
	c-0.2,0-0.7,0-1.5,0h-1.6L164.6,315.2L164.6,315.2L164.6,315.2z"/>
<path id="WWF" d="M-67.8,334.7L-67.8,334.7h13.2c0,0,3.4-0.6,4.8,2.9c1.6,4.1,8.1,30.3,8.1,30.3l9.4-13.9c0,0-3.8-19.4,2.9-19.3
	c8.1,0.1,12.6,0,12.6,0s3.2-0.3,5.2,5.1c2.4,6.3,8.1,28.5,8.1,28.5l13.3-30.4c0,0,1.8-3.2,4.8-3.2c3.1,0,5.1,2.2,4.4,4.7
	c-1.1,3.8-23.1,61.8-23.1,61.8s-1.5,3.5-4.6,3.5c-3.1,0-4.4-1.8-6.1-6.1s-12.1-32.5-12.1-32.5l-15.8,35.8c0,0-1.2,2.8-3.7,2.8
	c-2.9,0-4-1.3-5.5-4c-1.5-2.8-20-55.8-20-55.8S-75.5,334.7-67.8,334.7z M29.7,334.7L29.7,334.7h13.2c0,0,3.4-0.6,4.8,2.9
	c1.6,4.1,8.1,30.3,8.1,30.3l9.4-13.9c0,0-3.8-19.4,2.9-19.3c8.1,0.1,12.6,0,12.6,0s3.2-0.3,5.2,5.1c2.4,6.3,8.1,28.5,8.1,28.5
	l13.3-30.4c0,0,1.8-3.2,4.8-3.2c3.1,0,5.1,2.2,4.4,4.7c-1,3.8-23.1,61.8-23.1,61.8s-1.5,3.5-4.6,3.5s-4.4-1.8-6.1-6.1
	c-1.7-4.2-12.1-32.5-12.1-32.5l-15.8,35.8c0,0-1.2,2.8-3.7,2.8c-2.9,0-4-1.3-5.5-4c-1.5-2.8-20-55.8-20-55.8S22,334.7,29.7,334.7z
	 M127.3,404.7c0,0-4.5,0.4-4.5-6.8c0-7.1,0-58.9,0-58.9s0-4.4,6.5-4.4s44.4,0,44.4,0s5.4-0.3,5.4,4.9s-5,4.7-5,4.7h-26.5
	c0,0-3.1,0-3.1,3c0,3,0,14.5,0,14.5h20.4c0,0,5.5,0,5.5,4.3c0,4.3-4.6,4.5-4.6,4.5h-21.4v28.3c0,0,0.3,5.8-3.4,5.8
	C138.3,404.7,127.3,404.5,127.3,404.7z"/>
</svg>
