<svg version="1.1" id="Layer_1" xmlns="http://www.w3.org/2000/svg" xmlns:xlink="http://www.w3.org/1999/xlink" x="0px" y="0px"
	 viewBox="0 0 6015.3 957" style="enable-background:new 0 0 6015.3 957;" xml:space="preserve">
<g>
	<path d="M1029,474.7v-3.9c80-23.3,138.1-54.5,138.1-214.9C1167.1,72.3,1055.7,10,826.8,10H0v937h914.7c164.2,0,286-42.8,286-248.4
		C1200.8,557.6,1154,490.2,1029,474.7z M288,235h507.8c53,0,84.1,19.8,84.1,74.1c0,53-31,72.9-84.1,72.9H288V235z M802.2,722H288
		V576h514.2c62.1,0,103.5,14.2,103.5,77.5C905.7,707.8,864.3,722,802.2,722z"/>
	<rect x="1270" y="10" width="287" height="937"/>
	<path d="M2262.3,364.7c-307.8,1.3-342.7-1.1-342.7-82.5c0-50.4,44-72.2,108.6-72.2h318.1c131.9,0,139.7,28,139.7,97h287v-30.2
		C2773,112.6,2742.1,0,2411,0h-400.9c-362.1,0-377.6,130.6-377.6,300.1c0,230.2,49.1,281.9,481.1,281.9
		c369.9,0,403.5,5.4,403.5,86.9c0,72.4-62.1,79.1-122.9,79.1h-351.8c-82.8,0-122.9-8-124.2-108H1631v64.9
		c0,203,104.9,252.1,366.2,252.1h347.9c381.5,0,466.9-41.4,466.9-293.5C2811.9,390.6,2708.5,363.5,2262.3,364.7z"/>
	<polygon points="3157,10 2870,10 2870,947 3803,947 3803,706 3157,706 	"/>
	<polygon points="5668.7,10 5353.2,392.8 5037.6,10 4877.2,10 4691,10 3853,10 3853,947 4894,947 4894,722 4140,722 4140,572 
		4838,572 4838,378 4140,378 4140,228 4875.6,228 5210,620.8 5210,947 5497,947 5497,620.8 6015.3,10 	"/>
</g>
</svg>
