<?xml version="1.0" encoding="utf-8"?>
<!-- Generator: Adobe Illustrator 20.0.0, SVG Export Plug-In . SVG Version: 6.00 Build 0)  -->
<svg version="1.1"
	 id="svg6683" inkscape:version="0.48.1 " sodipodi:docname="Neues Dokument 3" xmlns:cc="http://creativecommons.org/ns#" xmlns:dc="http://purl.org/dc/elements/1.1/" xmlns:inkscape="http://www.inkscape.org/namespaces/inkscape" xmlns:rdf="http://www.w3.org/1999/02/22-rdf-syntax-ns#" xmlns:sodipodi="http://sodipodi.sourceforge.net/DTD/sodipodi-0.dtd" xmlns:svg="http://www.w3.org/2000/svg"
	 xmlns="http://www.w3.org/2000/svg" xmlns:xlink="http://www.w3.org/1999/xlink" x="0px" y="0px" viewBox="0 0 964.4 520"
	 style="enable-background:new 0 0 964.4 520;" xml:space="preserve">
<sodipodi:namedview  bordercolor="#666666" borderopacity="1.0" fit-margin-bottom="0" fit-margin-left="0" fit-margin-right="0" fit-margin-top="0" id="base" inkscape:current-layer="layer1" inkscape:cx="482.19502" inkscape:cy="182.38034" inkscape:document-units="px" inkscape:pageopacity="0.0" inkscape:pageshadow="2" inkscape:window-height="990" inkscape:window-maximized="1" inkscape:window-width="1680" inkscape:window-x="-4" inkscape:window-y="-4" inkscape:zoom="1.546" pagecolor="#ffffff" showgrid="false">
	</sodipodi:namedview>
<g>
	<path d="M-0.9,290.7c0-10.4,7.1-16.2,17.1-16.2h41.5c22.5,0,40.7,15.1,40.7,38.1c0,15.1-6.3,25.3-20.1,31.8v0.4
		c18.4,2.6,32.9,17.9,32.9,36.8c0,30.5-20.3,46.9-50.2,46.9H16.4c-9.9,0-17.3-6.3-17.3-16.4V290.7z M31.5,335.4h16.9
		c10.6,0,17.5-6.3,17.5-17.1c0-10.2-8-15.4-17.5-15.4H31.5V335.4z M31.5,399.9h25.5c11.7,0,20.3-6.7,20.3-18.8
		c0-10.2-7.8-17.1-22.9-17.1H31.5V399.9z"/>
	<path d="M121.9,279.2c0-10.4,6.5-17.3,15.6-17.3s15.6,6.9,15.6,17.3v133.2c0,10.4-6.5,17.3-15.6,17.3s-15.6-6.9-15.6-17.3V279.2z"
		/>
	<path d="M170.4,329.4c0-10.4,6.5-17.3,15.6-17.3s15.6,6.9,15.6,17.3v55.6c0,13,9.7,20.1,20.1,20.1s20.1-7.1,20.1-20.1v-55.6
		c0-10.4,6.5-17.3,15.6-17.3c9.1,0,15.6,6.9,15.6,17.3v56.2c0,27.7-18.4,45.4-51.2,45.4c-32.9,0-51.2-17.7-51.2-45.4V329.4z"/>
	<path d="M315.7,381.3c2.2,15.4,14.9,22.5,29.4,22.5c16,0,27-12.5,35.2-12.5c6.7,0,12.8,6.7,12.8,13.4c0,13.4-27.7,26.4-50.8,26.4
		c-35,0-58.4-25.5-58.4-59.9c0-31.6,22.9-60.3,55.8-60.3c33.7,0,56,30.7,56,56.7c0,9.3-4.1,13.8-13.6,13.8H315.7z M364.5,360.5
		c-1.7-13.6-10.4-23.8-24.9-23.8c-13.8,0-23.1,10.6-24.7,23.8H364.5z"/>
	<path d="M498.6,293.5c0,8.4-5.6,16-14.5,16c-8.9,0-15.8-6.5-28.8-6.5c-9.3,0-17.7,5-17.7,14.1c0,22.3,72.2,8,72.2,63.8
		c0,30.9-25.5,50.2-55.4,50.2c-16.7,0-52.5-3.9-52.5-24.2c0-8.4,5.6-15.4,14.5-15.4c10.2,0,22.3,8.4,36.3,8.4
		c14.3,0,22.1-8,22.1-18.6c0-25.5-72.2-10.2-72.2-60.3c0-30.3,24.9-49.1,53.6-49.1C468.3,271.8,498.6,276.4,498.6,293.5z"/>
	<path d="M522.8,279.2c0-10.4,6.5-17.3,15.6-17.3c9.1,0,15.6,6.9,15.6,17.3v72.7l34.2-33.1c5-4.8,9.9-6.7,14.1-6.7
		c7.8,0,13.2,7.1,13.2,14.1c0,4.5-1.5,8.2-6.1,12.3l-27.7,24.6l36.5,42.8c2.8,3.2,3.9,6.9,3.9,10.4c0,8.2-6.5,14.7-14.7,14.7
		c-5.6,0-9.9-3.5-14.9-9.5l-38.1-46.9h-0.4v37.8c0,10.4-6.5,17.3-15.6,17.3c-9.1,0-15.6-6.9-15.6-17.3V279.2z"/>
	<path d="M623.1,333.5c-0.9-2.4-1.5-4.8-1.5-8c0-7.8,8.2-13.4,14.7-13.4c7.6,0,13,4.1,15.6,11l21.4,58.6l22.9-58.6
		c2.6-6.9,8-11,15.6-11c6.5,0,14.7,5.6,14.7,13.4c0,3.2-0.4,5.6-1.5,8l-52.1,129.7c-2.6,6.5-7.4,12.3-14.7,12.3
		c-10.6,0-16.2-6.7-16.2-13.4c0-3,0.9-6.3,1.9-9.1l13.6-33.7L623.1,333.5z"/>
</g>
<path d="M892.1,102.3c-11.3,0-22,2.6-31.6,7.3c-14.8-37.8-51.6-64.6-94.6-64.6c-50.6,0-92.5,36.9-100.3,85.3
	c-29.8,0.6-53.8,24.9-53.8,54.9c0,30.3,24.6,54.9,54.9,54.9c13.9,0,26.6-5.2,36.2-13.7c17.3,13.7,39.2,21.9,62.9,21.9
	c27.3,0,52-10.8,70.3-28.3c13.2,16.2,33.4,26.6,55.9,26.6c39.8,0,72.1-32.3,72.1-72.1C964.3,134.5,932,102.3,892.1,102.3z
	 M891.7,228.8c-26.8,0-48.9-19.7-52.8-45.4c-13.6,27-41.6,45.6-73.9,45.6c-26.1,0-49.4-12.1-64.5-31c-5,13.6-18.1,23.2-33.4,23.2
	c-19.7,0-35.7-16-35.7-35.7c0-19.7,16-35.7,35.7-35.7c5.6,0,10.9,1.3,15.6,3.6c-0.2-2.4-0.3-4.8-0.3-7.3c0-45.7,37-82.7,82.7-82.7
	c45.3,0,82.1,36.4,82.7,81.6c9.6-14,25.8-23.2,44-23.2c29.5,0,53.4,23.9,53.4,53.4C945.1,204.9,921.2,228.8,891.7,228.8z"/>
</svg>
