<?xml version="1.0" encoding="UTF-8"?>
<svg width="190px" height="75px" viewBox="0 0 190 75" version="1.1" xmlns="http://www.w3.org/2000/svg" xmlns:xlink="http://www.w3.org/1999/xlink">
    <!-- Generator: Sketch 45.2 (43514) - http://www.bohemiancoding.com/sketch -->
    <title>cube</title>
    <desc>Created with Sketch.</desc>
    <defs>
        <polygon id="path-1" points="31.6911458 0.0409722222 0.0208333333 0.0409722222 0.0208333333 74.9791667 63.3614583 74.9791667 63.3614583 0.0409722222"></polygon>
        <polygon id="path-3" points="31.6911458 0.0409722222 0.0208333333 0.0409722222 0.0208333333 74.9791667 63.3614583 74.9791667 63.3614583 0.0409722222"></polygon>
        <polygon id="path-5" points="31.6911458 0.0409722222 0.0208333333 0.0409722222 0.0208333333 74.9791667 63.3614583 74.9791667 63.3614583 0.0409722222"></polygon>
    </defs>
    <g id="Page-1" stroke="none" stroke-width="1" fill="none" fill-rule="evenodd">
        <g id="cube">
            <g id="Group-5">
                <g id="Fill-1-Clipped">
                    <mask id="mask-2" fill="white">
                        <use xlink:href="#path-1"></use>
                    </mask>
                    <g id="path-1"></g>
                    <polygon id="Fill-1" fill="#0081C2" fill-rule="nonzero" mask="url(#mask-2)" points="60.5201389 16.6013889 31.5729167 33.1177083 2.88680556 16.7503472 31.5836806 0.0409722222"></polygon>
                </g>
                <g id="Fill-3-Clipped">
                    <mask id="mask-4" fill="white">
                        <use xlink:href="#path-3"></use>
                    </mask>
                    <g id="path-1"></g>
                    <polygon id="Fill-3" fill="#0081C2" fill-rule="nonzero" mask="url(#mask-4)" points="28.5840278 37.7927083 28.5840278 74.7631944 0 58.4822917 0 21.4854167"></polygon>
                </g>
                <g id="Fill-4-Clipped">
                    <mask id="mask-6" fill="white">
                        <use xlink:href="#path-5"></use>
                    </mask>
                    <g id="path-1"></g>
                    <polygon id="Fill-4" fill="#0081C2" fill-rule="nonzero" mask="url(#mask-6)" points="34.1263889 38.040625 63.3614583 21.3618056 63.3614583 58.2680556 34.1263889 75"></polygon>
                </g>
            </g>
            <path d="M76.4465278,32.7496528 C76.4465278,24.1385417 82.2243056,18.3604167 90.7802083,18.3604167 C93.7802083,18.3604167 96.6690972,19.2493056 99.3361111,20.971875 C100.169097,21.5270833 100.669097,22.4159722 100.669097,23.3607639 C100.669097,24.8607639 99.3913194,26.0829861 97.7802083,26.0829861 C97.2802083,26.0829861 96.7798611,25.9163194 96.2802083,25.6385417 C94.5024306,24.5274306 92.66875,23.8052083 90.7802083,23.8052083 C85.3909722,23.8052083 82.3354167,27.3607639 82.3354167,32.7496528 L82.3354167,44.0277778 C82.3354167,49.4170139 85.3909722,52.9725694 90.7802083,52.9725694 C92.66875,52.9725694 94.446875,52.1947917 96.2246528,51.0833333 C96.7243056,50.75 97.2802083,50.5833333 97.8357639,50.5833333 C99.3361111,50.5833333 100.669097,51.75 100.669097,53.3611111 C100.669097,54.3059028 100.169097,55.25 99.3361111,55.8059028 C96.6690972,57.528125 93.7802083,58.4170139 90.7802083,58.4170139 C82.2243056,58.4170139 76.4465278,52.6388889 76.4465278,44.0277778 L76.4465278,32.7496528" id="Fill-6" fill="#1A1919" fill-rule="nonzero"></path>
            <path d="M125.834722,21.3052083 C125.834722,19.6940972 127.168056,18.3604167 128.779167,18.3604167 C130.335069,18.3604167 131.723958,19.6940972 131.723958,21.3052083 L131.723958,44.5833333 C131.723958,52.8614583 126.168403,58.4170139 117.889931,58.4170139 C109.612153,58.4170139 104.056597,52.8614583 104.056597,44.5833333 L104.056597,21.3052083 C104.056597,19.6940972 105.445486,18.3604167 107.056944,18.3604167 C108.611806,18.3604167 109.945833,19.6940972 109.945833,21.3052083 L109.945833,44.9166667 C109.945833,49.9722222 112.835069,52.9725694 117.889931,52.9725694 C122.945833,52.9725694 125.834722,49.9722222 125.834722,44.9166667 L125.834722,21.3052083" id="Fill-7" fill="#1A1919" fill-rule="nonzero"></path>
            <path d="M150.446181,52.2503472 C154.223611,52.2503472 156.168403,50.0836806 156.168403,46.3055556 C156.168403,43.0833333 153.389931,40.4722222 149.556944,40.4722222 C149.6125,40.4722222 149.001736,40.4722222 143.279167,40.4722222 L143.279167,52.2503472 L150.446181,52.2503472 Z M149.223264,34.8607639 C152.612847,34.8607639 155.1125,32.5829861 155.1125,29.6940972 C155.1125,26.4163194 153.445833,24.5274306 150.056944,24.5274306 L143.279167,24.5274306 L143.279167,34.8607639 L149.223264,34.8607639 Z M141.001389,57.8614583 C139.001389,57.8614583 137.389931,56.25 137.389931,54.3059028 L137.389931,22.471875 C137.389931,20.5270833 139.001389,18.9159722 141.001389,18.9159722 L150.056944,18.9159722 C156.612847,18.9159722 161.001736,23.2496528 161.001736,29.6940972 C161.001736,32.6385417 159.779167,35.3611111 157.279514,37.4166667 C160.556944,39.6385417 162.056944,42.9722222 162.056944,46.3055556 C162.056944,53.2503472 157.390625,57.8614583 150.446181,57.8614583 L141.001389,57.8614583 L141.001389,57.8614583 Z" id="Fill-8" fill="#1A1919" fill-rule="nonzero"></path>
            <path d="M170.556597,57.8614583 C168.667708,57.8614583 166.945139,56.3055556 166.945139,54.3059028 L166.945139,22.471875 C166.945139,20.5829861 168.556597,18.9159722 170.556597,18.9159722 L186.667708,18.9159722 C188.279167,18.9159722 189.556944,20.19375 189.556944,21.8052083 C189.556944,23.3607639 188.279167,24.5274306 186.667708,24.5274306 L172.834375,24.5274306 L172.834375,34.8607639 L185.945486,34.8607639 C187.556944,34.8607639 188.834375,36.0829861 188.834375,37.6940972 C188.834375,39.25 187.556944,40.4722222 185.945486,40.4722222 L172.834375,40.4722222 L172.834375,52.2503472 L187.056944,52.2503472 C188.612153,52.2503472 189.946181,53.4722222 189.946181,55.028125 C189.946181,56.6388889 188.612153,57.8614583 187.056944,57.8614583 L170.556597,57.8614583" id="Fill-9" fill="#1A1919" fill-rule="nonzero"></path>
        </g>
    </g>
</svg>