<svg
   xmlns:dc="http://purl.org/dc/elements/1.1/"
   xmlns:cc="http://creativecommons.org/ns#"
   xmlns:rdf="http://www.w3.org/1999/02/22-rdf-syntax-ns#"
   xmlns:svg="http://www.w3.org/2000/svg"
   xmlns="http://www.w3.org/2000/svg"
   version="1.1"
   width="196"
   height="75"
   id="svg4240">
  <g
     transform="translate(-382.25722,-407.38408)"
     id="layer1">
    <g
       transform="matrix(2.8192195,0,0,-2.8192195,-655.02042,849.80727)"
       id="g4215">
      <path
         d="m 421.5644,136.1525 1.148,3.915 -0.848,0.18 c -0.939,-2.077 -1.561,-2.939 -2.997,-2.939 l -3.99,0 c -0.349,0 -0.632,0.278 -0.632,0.622 l 0.007,14.21 c 0,0.344 0.282,0.622 0.631,0.622 l 1.659,0 0.001,1.083 -7.757,0 0,-1.083 1.658,0 c 0.349,0 0.631,-0.278 0.631,-0.622 l -0.006,-14.21 c 0,-0.344 -0.283,-0.622 -0.632,-0.622 l -1.665,0 0,-1.155 12.792,-0.001 z"
         id="path960"
         style="fill:#000000;fill-opacity:1;fill-rule:nonzero;stroke:none" />
      <path
         d="m 430.0061,152.7586 c -0.342,0 -0.619,-0.278 -0.619,-0.621 l -0.009,-14.247 c 0,-0.343 0.276,-0.621 0.618,-0.621 l 1.849,0 0,-1.128 -8.057,0.009 -10e-4,1.129 1.847,0 c 0.342,0 0.62,0.278 0.62,0.62 l 0.002,14.238 c 0,0.343 -0.276,0.621 -0.618,0.621 l -1.788,0.003 c -2.314,-0.017 -3.026,-0.355 -3.993,-2.477 l -0.91,10e-4 0.919,3.548 15.902,0 0.921,-3.548 -0.912,-10e-4 c -0.966,2.122 -1.678,2.46 -3.991,2.477 l -1.78,-0.003 z"
         id="path964"
         style="fill:#000000;fill-opacity:1;fill-rule:nonzero;stroke:none" />
      <path
         d="m 397.894,131.0374 c 2.701,0.025 4.912,1.606 5.864,3.865 0.503,1.194 0.584,2.961 0.584,5.067 l 0.004,12.166 c 0,0.341 0.28,0.617 0.626,0.617 l 1.662,0 10e-4,1.081 -7.737,10e-4 0,-1.082 1.655,0 c 0.346,0 0.626,-0.276 0.626,-0.617 l 0.011,-12.24 c 0,-4.534 -0.142,-7.254 -1.227,-7.369 -1.02,-0.107 -1.48,0.947 -2.62,0.947 -0.7,0 -1.215,-0.55 -1.213,-1.118 0.002,-0.722 0.574,-1.318 1.764,-1.318"
         id="path968"
         style="fill:#000000;fill-opacity:1;fill-rule:nonzero;stroke:none" />
      <path
         d="m 377.0779,144.6499 c 0.555,0.071 1.324,0.111 1.897,0.111 5.753,0 10.574,-3.764 12.268,-8.624 0,0 0.252,0.399 0.319,0.516 0.068,0.116 0.277,0.497 0.277,0.497 -0.711,5.841 -5.626,10.355 -11.832,10.396 l -2.929,-2.896 z"
         id="path972"
         style="fill:#000000;fill-opacity:1;fill-rule:nonzero;stroke:none" />
      <path
         d="m 389.0893,156.1363 c 1.149,-1.152 6.984,-7.608 3.645,-16.973 l -0.01,-0.025 c -0.745,5.573 -4.948,9.807 -10.667,10.444 l 6.647,6.547 0.011,0.01 c 0.047,0.047 0.113,0.076 0.185,0.076 0.071,0 0.135,-0.028 0.182,-0.073 l 0.007,-0.006 z"
         id="path976"
         style="fill:#000000;fill-opacity:1;fill-rule:nonzero;stroke:none" />
      <path
         d="m 389.7682,134.3246 c 0.02,-0.024 0.049,-0.039 0.083,-0.039 0.036,0 0.068,0.018 0.087,0.044 l 0.009,0.011 c 0.078,0.094 0.188,0.228 0.269,0.328 0.161,0.202 0.342,0.447 0.342,0.447 -2.574,4.302 -6.977,7.19 -12.994,7.203 -0.985,0.003 -2.276,-0.152 -3.27,-0.411 l -5.625,-5.615 -0.003,-0.005 c -0.016,-0.016 -0.026,-0.038 -0.026,-0.062 0,-0.048 0.04,-0.088 0.089,-0.088 0.019,0 0.036,0.006 0.051,0.015 l 0.319,0.207 c 2.585,1.805 5.739,2.865 9.144,2.865 4.499,0 8.562,-1.851 11.45,-4.827 l 0.075,-0.073 z"
         id="path980"
         style="fill:#000000;fill-opacity:1;fill-rule:nonzero;stroke:none" />
    </g>
  </g>
</svg>
