<svg version="1.1" id="Layer_1" xmlns="http://www.w3.org/2000/svg" xmlns:xlink="http://www.w3.org/1999/xlink" x="0px" y="0px"
	 viewBox="0 0 1229.7 571" style="enable-background:new 0 0 1229.7 571;" xml:space="preserve">
<style type="text/css">
	.st0{fill:#000000;}
	.st1{fill:#000000;}
	.st2{fill:#000000;}
</style>
<g>
	<path class="st0" d="M652,0c0.7,0,1.3,0,2,0c4.4,2.4,8.8,4.8,13.3,7.2c6.4,5.9,13.7,11,17.1,19.5c0.2,0.4,0.9,0.6,1.1,1
		c2.5,4.8,6.6,9.3,7.2,14.3c3,23.8,5.2,47.6,7.4,71.5c1.5,16.4,2.9,32.8,3.6,49.3c0.7,14.3,0.5,28.6,0.5,42.9
		c0,16-0.3,31.9-0.3,47.9c0,15.3,0,30.6,0.4,45.9c0.2,9.8,0.5,19.6,1.7,29.3c0.9,7.4,4.4,8.6,11.4,5.6c10.1-1.2,12.4-3.6,12.7-13.5
		c0.1-2,0.3-4.1-0.1-6c-4.4-18.4-1.5-36.7,0.7-55.1c1.9-15.9,4.6-32,1.1-47.7c-3-13.7-1.8-26.8,1.1-40c4.5-20.6,7.1-41.1,6.3-62.3
		c-0.6-15.2,1.6-30.5,3.2-45.7c0.3-2.5,2.9-5.8,5.3-7c8.7-4.5,18.2-5.9,28-5.7c5,0.1,9.1,1.7,11.4,6.5c4.4,13.1,7.4,26.5,7.9,40.4
		c0.4,11.6,0.4,23.3,1.5,34.9c0.9,8.6,1.7,17-0.1,25.7c-1.1,5.3-2.1,11.2-0.8,16.3c5.9,22.7,11.4,45.4,13,68.9
		c0.6,8.6,4,10.8,12.9,11.1c3.1,0.4,6.2,1.1,9.3,1.1c9.7,0.1,13.7-3,15.4-12.5c0.6-3.5,0.3-7.3-0.4-10.7c-1-5-3.1-9.8-4.3-14.8
		c-2.9-11.9-3.4-23.8,2.9-34.9c1.4-2.5,4.3-4.1,5.6-6.6c3.8-7.4,9.4-10.5,17.4-7.2c8.2,3.4,15.8,8.2,23.6,12.4
		c0.8,9.9,1.4,19.8,2.4,29.6c0.5,4.4,1.9,8.7,2.9,13.1c0.6,0,1.3,0,1.9-0.1c2-6.6,4.1-13.1,6.1-19.7c2.3-9,4.1-18.1,6.9-26.9
		c10.7-33.5,31.5-56.2,67.7-61.4c11.8-1.7,23.7-1.2,33.4,7.5c6.2,9.2,11.8,18.8,18.7,27.3c5.9,7.3,10.7,14.6,10.8,24.3
		c0,1.1,0.4,2.1,0.8,3.9c5.6-3.7,5.3-9.3,6.5-14.1c0.9-6.4,3-12.8,2.6-19.1c-1-14.4,5.3-24.3,15.7-33.5c11.7-10.4,34.3-15.2,46.4-3
		c10.8,15.2,17.6,32.1,21.3,50.4c2.9,14.4,6.8,28.7,11,42.8c2.2,7.3,6.1,14,9.3,21c0.6,0,1.2,0,1.7,0c1.3-2.6,2.5-5.1,3.8-7.7
		c2-12.6,4.3-25.1,5.9-37.8c3.3-25.2,5.9-50.5,9.4-75.7c1.7-12.7,9.4-22.1,20.6-27.7c9.3-4.7,17.1,1.8,24.9,6.1
		c0.3,0.1,0.5,0.5,0.7,0.7c6.4,8.8,8.9,18.4,6,29.2c-0.8,3.2-1.3,6.5-1.5,9.9c-1.3,17.3-3.3,34.3-8.4,51.1
		c-4.5,15-4.2,30.1,0.8,45.2c2.2,6.4,3.8,13.2,4.5,19.9c1.3,13.1,2.1,26.2,2.6,39.3c0.8,19.6,1.5,39.2-3.1,58.6
		c-3.7,15.7-5.9,31.7-9.2,47.4c-3.1,14.8-6.4,29.5-10.3,44.1c-2.6,10.1-9,14.5-19.4,14.6c-3.5,0-7-0.1-10.5-0.1
		c-13.6-4-22.7-15.5-23-30.2c-0.3-11.1-3-21.1-9-30.6c-7.3-11.5-11-24.4-14.1-37.6c-3-12.7-6.1-25.4-9.1-38.2
		c-1.7-3.6-2.9-7.5-5.2-10.6c-2.5-3.3-4.7-2.7-6,1.2c-0.9,2.6-1.6,5.5-1.7,8.2c-0.4,18.1-1.1,36.2-0.8,54.3
		c0.5,34.3-33.6,53.7-55.9,52.3c-10.7-2.7-16.7-10.6-22.1-19.4c-1.5-3.8-2.9-7.6-4.5-11.8c-3.3,2.5-6,4.7-8.9,6.7
		c-4.4,3.2-8.6,6.9-13.4,9.3c-16.3,8-33.4,7.7-50.5,2.9c-1.6-0.4-3.2-0.5-4.8-0.7c-8.6-5.8-17.2-11.6-25.8-17.3
		c-3.1-3.4-6.2-6.7-10.4-11.3c-0.9,4.4-2.3,7.3-2,10c0.9,9.2,2.2,18.5,3.7,27.6c3.5,20.5-7.1,38-27.4,42.6c-9.8,2.3-20,2.3-30.1,3.3
		c-14.6-4.6-21.2-12.5-22.3-27.5c-0.3-4.2,0.9-8.5,1.2-12.8c0.3-4.4,0.3-8.8,0.3-13.2c0.1-6.5-0.5-13.2,0.2-19.6
		c0.7-6,2.9-11.9,4.1-17.9c0.7-3.4,0.8-6.9,1.1-10.3c-1.5-1.5-2.7-3.7-4.5-4.3c-11.1-3.9-22.7-4.2-34.4-4.7
		c-8.5-0.3-10.6,4.5-11.7,10.6c-1.1,5.5-1.5,11.2-2.2,16.8c-1.5,12-4.2,23.6-11.7,33.5c-8.1,10.7-19.4,15-32.4,14.1
		c-8.4-0.6-16.7-2.8-25-4.1c-26.3-3.9-52.6-7.8-79.3-6.6c-7.6-1.9-13.8-5.6-16.5-13.4c-0.9-2.6-1.4-5.4-2.1-8.1
		c-0.4-2.4-0.9-4.8-1.4-7.6c-2.7,0.2-5,0.1-7.2,0.7c-11.8,3.3-23.6,6.6-35.3,10.3c-4.7,1.5-8.9,1.5-13.6-0.1c-3-1-6.4-1.5-9.7-1.4
		c-7.3,0.3-14.5,1-21.7,1.7c-8,0.8-16.1,1.5-24.1,2.8c-8.3,1.4-16.5,3.5-24.7,5.2c-6.7-0.2-11.2-3.8-14.1-9.6
		c-0.8-4.4-1.5-8.8-2.4-13.5c-1,0.6-1.8,0.9-2.4,1.4c-3.2,2.7-6.9,4.9-9.4,8.1c-12.1,15.2-29.2,20.7-46.9,25.4
		c-12.9,3.5-26,3.7-39.1,2.3c-15.3-1.6-29.9,3.8-45,4.7c-9.5-1.5-14.8-5.9-15.7-16.3c-1.2-14.5-3.6-29.2-0.4-43.8
		c0.3-1.3,0-2.6,0-3.9c0.2-3.9-2.5-5.5-5.6-5.7c-3.4-0.3-7-0.2-10.4,0.5c-6.5,1.4-12.9,3.2-19.7,1.4c-7.9-2.1-15.8-4.1-23.8-5.5
		c-4.8-0.8-10-1.3-14.7-0.2c-6.8,1.6-7.7,6.8-3.5,12.4c2.3,3,4.2,6.4,5.6,9.8c4.8,12.9-0.3,24.2-6.7,34.9c-2.1,3.5-5.9,6.4-9.5,8.4
		c-8.9,5.1-18.6,7.1-28.8,5.1c-9.3-3.1-16.8-8.5-22.2-16.8c-4.6-7.1-9.5-14-13.6-21.5c-9.2-17-18-34.3-27-51.5
		c-1.7-5.5-4.5-9.8-11.1-11.8c-0.4,2.5-1.2,4.6-0.9,6.5c1.3,9.6,2.5,19.4,4.6,28.9c3.7,16.8,3.2,32.9-5.7,48.1
		c-4.2,7.1-9.9,12.2-18.2,13.3c-5.5,0.7-11.2,0.5-16.8,0.7l0.1,0.1c-0.5-0.3-1.1-0.7-1.6-1c-5.2-2.9-10.6-5.5-15.5-8.8
		c-4.7-3.2-7.8-7.9-7.8-13.8c0-8.5-0.3-17.1,0.8-25.4c1.4-11.1,2.7-22.1-0.2-33.2c-1.3-5-1.9-10.1-2.5-15.3
		c-5.7-46.3-11.4-92.5-17.1-138.8c-1.2-9.7-3.3-19.4-0.3-29.2c0.4-1.4-0.4-3.2-0.6-4.8c-2.5-6.4-5.5-7.6-15-5.8
		c-8.8-0.6-13.9-5.3-14.3-14c-0.2-3.9-0.2-8.4,1.5-11.7C9.6,96.2,6.1,88,0,80c0-1.3,0-2.7,0-4c0.5-0.8,1.2-1.4,1.6-2.3
		c3.1-8.4,8.4-15,16.2-19.5c8.7-4.9,17.2-10,26.2-14.4c22-10.8,44.7-18.7,69.8-17c10.1,0.7,19.3,3,27.3,9.2c0.7,0.3,1.3,0.6,2,0.9
		l0,0c3,5.5,6.2,10.8,8.9,16.4c9.7,19.8,21.1,38.9,23.6,61.5c1.6,14.4,4.4,28.8,1.3,43.1c-1.6,7.3-5.5,14.1-8.6,21
		c-4.9,10.7-9.8,21.4-15.2,31.8c-1.7,3.4-2.3,6-0.4,9.2c8.3,13.8,16.4,27.7,24.9,41.4c1.7,2.7,4.5,4.6,7.5,7.5
		c0.9-2.3,1.4-3.6,1.8-5c1-7.5,2.6-15,2.8-22.6c0.4-16.8,0.1-33.6,0.2-50.4c0.1-9.6,0.6-19.3,0.9-28.9c1.5-8,2.8-16.1,4.4-24
		c2.1-10.5,3.2-21,1.1-31.7c-2.5-13-1.8-25.8,3.2-38.2c2.3-5.8,6.4-9.8,10-12.1c4.5,1.7,7.4,3.5,10.6,4c9.8,1.5,19.8,2.1,29.5,4
		c13.9,2.7,27.6,3.9,41.5,0.5c12-2.9,23.1-1.4,32.9,6.6c0.7,0.3,1.4,0.6,2,0.9l0,0c1,2.2,1.8,4.5,3,6.5c11,18.7,2,49.8-23.3,52.9
		c-7.8,0.9-16-1.3-24.1-1.7c-8.2-0.4-16.5-0.7-24.7-0.3c-4.8,0.2-6.9,3.6-6.9,8.7c0,5.1-1,10.2-1.4,15.3c-0.2,3.1-0.5,6.3,0,9.3
		c1.7,10,1.8,9.9,12.2,9.3c19.6,0,39.1,0,59.2,0c0-1.7-0.1-3.7,0-5.7c0.5-6.1,0.5-12.4,1.7-18.3c1.7-8.6,4.8-10.8,13.5-10.7
		c9.8,0.1,19.7,0.2,29.4,1.1c14.9,1.4,29.7,3.9,42.4,13c0.3,0.3,0.6,0.6,0.9,0.9l-0.1-0.1c12.2,13,21.7,27.8,29.4,43.8
		c8,16.8,6.3,35.5-9.2,49.1c-2.4,2.1-4.6,4.3-7.5,6.9c5.3,4.8,10.1,9.5,15.2,13.6c3,2.4,6.7,3.8,10.1,5.6l0,0
		c0.7,0.6,1.4,1.3,2.1,1.9l-0.1-0.1c2.9,3.9,5.8,8,8.9,11.7c1,1.2,2.8,2.3,4.4,2.4c0.8,0,1.7-2.3,2.5-3.6
		c7.2-15.6,10.8-32.2,12.9-49c3.3-25.7,5.2-51.7,8.3-77.4c1.4-11.2,3.9-22.2,7-33.1c2.6-9.3,9.6-14.5,19.6-15
		c5.2-0.3,10.3-0.7,15.5-0.7c17.5,0.2,35,0.8,52.4,0.7c12.2-0.1,23.3,2.6,33.3,9.8c1.2,1.4,2.3,2.8,3.7,4c5,4.4,7.1,9.8,6.6,16.5
		c-1,12.1-7.1,21.2-16.3,28.5c-6.6,5.2-14.1,6.2-22.1,3.6c-2.4-0.8-4.8-1.5-7.3-1.7c-8.5-0.7-17.1-1.9-25.6-1.4
		c-6.7,0.4-9.9,6.8-8.2,13.3c1.8,6.8,10.9,14.5,18,15.2c2.5-0.7,5.1-1.4,7.6-2.2c14.8-4.7,28.5-2.6,41,6.6c0.6,0.3,1.2,0.6,1.7,0.8
		l-0.1-0.1c0.1,0.6,0,1.3,0.3,1.9c6.8,13.8,5.4,27.4-1,40.8c-5.3,11.1-16.5,15.7-28.7,14c-11.1-1.5-22.4-2-33.6-2.5
		c-4.9-0.2-8.5,2-9.4,7.6c-1.9,12.6-2.3,25.2,1.2,37.6c1.9,7,5,9,12.4,8.5c7-1.2,14.1-2.2,21.1-3.7c14.4-3,29.6-2.1,43.5-8.1
		c1.2-0.5,3-0.2,4.4,0.1c8.5,1.5,9.3,0.8,8.9-8.1c0-1-0.1-2-0.3-3c-2.6-10.6-1.3-21.2,0.7-31.7c2.8-14.2,6.5-28.2,8.4-42.6
		c4-31,2.8-62.3,0.4-93.3c-2.8-35-0.6-69.5,4.7-104C645.7,6.6,647.1,2.3,652,0z M396.8,193.8c-3-4.9-10.4-7.4-17-6.2
		c-3.1,0.6-4.2,2.1-3.7,5.1c0.7,4.2,1.4,8.5,1.9,12.7c0.8,7.1,1.5,7.8,8.6,7.2c1.1-0.1,2.3-0.5,3.4-0.7
		C399,209.2,401.5,202.7,396.8,193.8z M406.9,302.8c-9.5-8.2-19-8.7-25.4-0.8c-2.2,2.7-4.2,6.5-4.4,9.8c-0.5,11.2-0.2,22.5-0.2,34.1
		c4.9-0.2,8.3-3.1,11.2-6.9c6-5.1,12.3-10,18-15.5C412.6,317.3,412.7,309.7,406.9,302.8z M255.4,261.5c9.1-0.9,18.2-1.5,27.2-2.7
		c7.4-1,14.1-0.1,20.4,4.1c2,1.3,4.3,2.2,6.8,3.5c0-9,0-17.3,0-25.6c0-3.6,0-7.2,0-11.6c-4.9,2.1-9.3,3.7-13.4,5.7
		c-13,6.3-26.1,8.5-39.8,2.2c-4.9-2.3-10.5,0.9-12.2,6.2c-0.7,2-1.2,4.3-1.1,6.4C243.8,261.1,243.2,261.8,255.4,261.5z M117.3,89.7
		c-6-6.8-12.8-7.4-17.5-4.5c-4.2,2.6-8.4,5.3-12.7,7.8c-3.3,1.9-4.9,4.3-4.2,8.1c3,16.9,6.1,33.8,9.4,52.2c4.1-2,7.2-3.6,10.3-5.1
		c9-4.7,14.9-11.6,16.8-21.8c0.8-4.2,2.9-8.2,4.4-12.4c0.5-1.5,1.6-3.4,1.2-4.7C122.5,102.7,119.9,96.3,117.3,89.7z M983,305.7
		c6.2-9.5,12-19.3,9.2-31.3c-4-17.3-5.3-34.6-2.7-52.4c1.5-10.3-0.5-20.5-5.5-29.8c-0.5-1.4-0.9-2.8-1.6-4.2
		c-3.3-6.5-5.8-6.9-10.7-1.6c-7.6,8.2-12.9,18-13.6,28.9c-1,14.9-0.1,29.9,0.5,44.8c0.2,4.7,1.8,9.4,3.2,14
		c1.6,5.4,3.3,10.7,5.6,15.8c2.4,5.4,5.3,10.5,8.3,15.6C977.8,308.8,980.5,308.8,983,305.7z"/>
	<path class="st1" d="M1091,488.7c-3.8-4.8-8.6-6.8-14.8-6.5c-15,0.7-30,1.3-44.9,1.4c-8.3,0-16.8-0.1-24.8-2
		c-15.5-3.7-31.1-2.5-46.7-2.3c-16.3,0.2-32.6,0.9-48.9,1.5c-25.5,1-51,1.4-76.3,3.5c-19,1.6-37.8,5.5-56.8,8.1
		c-22.9,3.1-45.8,6.6-68.8,8.5c-26.5,2.2-53.2,2.6-79.8,4.4c-16.3,1.1-32.4,3.2-48.6,5.2c-29.7,3.7-59.3,8-89.1,11.5
		c-30.9,3.6-61.8,6.9-92.8,9.7c-24.7,2.2-49.5,3.5-74.2,5.4c-38.3,2.9-76.8,4.5-114.9,9.5c-39.7,5.2-78.9,13.9-118.3,20.9
		c-9.6,1.7-19.5,2.4-29.2,3.6c-1.6-0.3-3.3-0.6-4.9-0.8c-4.8-0.5-7.2-3.3-7.3-7.9c-0.1-4.3,0.6-8.7,0.3-13c-0.2-3.2-0.8-6.6-2.3-9.3
		c-3.6-6.6-3.9-8.5,0.5-14.4c2.9-3.9,5.5-7,2.5-12.8c-2.2-4.2,1.3-8.9,4.9-12.2c9.7-8.8,20.8-14.4,34.1-14.6
		c32.7-0.4,65.1-4.8,97.5-8.6c17.3-2,34.9-2,52.4-3.4c32.2-2.6,64.3-5.7,96.5-8.4c24.6-2,49.1-4.3,73.8-5.4
		c64.4-2.7,128.8-5.6,193.3-7c42.8-1,85.6,0,128.4,0.9c13.9,0.3,27.7,3.7,41.7,4.7c21.6,1.5,43.3,2.3,64.9,3
		c57.8,1.9,115.6,2.9,173.4,5.5c48,2.1,95.9,1.6,143.9,1.1c16.8-0.2,33.7,3.3,50.4,6.1c6,1,11.4,5.1,17.1,7.7
		c0.4,0.3,0.8,0.5,1.1,0.8c0,0-0.1-0.1-0.1-0.1c0.4,0.9,0.8,1.8,1.4,2.6c3.8,5.6,3.5,11.2,0.4,16.9c-3,5.5-7.9,6.6-13.6,5.8
		c-2-0.3-3.9-0.5-5.9-0.7c-12.4-1.1-24.7-2.7-37.1-3.3c-19-1-38.1-1.4-57.2-2C1103.4,500,1097.6,493.8,1091,488.7z"/>
	<path class="st2" d="M863.5,152c-4.8-2.6-9.8-4.9-14.3-7.9c-10.4-7-12.3-18.2-12.9-29.4c-0.5-9.1,0.1-18.2,0.8-27.3
		c0.5-7,6-10.6,11.7-13.1c9.1-3.9,18.8-4.4,28.4-2.2c3.5,0.8,6.4,3.8,9.6,5.8c3.9,8.4,6.3,17.9,11.9,25c6.1,7.7,5.8,14.1,2.1,21.9
		c-0.9,1.8-1.5,3.7-2.2,5.5C891.3,148.2,882.6,153.7,863.5,152z"/>
</g>
</svg>
