<?xml version="1.0" encoding="utf-8"?>
<!-- Generator: Adobe Illustrator 20.0.0, SVG Export Plug-In . SVG Version: 6.00 Build 0)  -->
<svg version="1.1"
	 id="svg6683" inkscape:version="0.48.1 " sodipodi:docname="Neues Dokument 3" xmlns:cc="http://creativecommons.org/ns#" xmlns:dc="http://purl.org/dc/elements/1.1/" xmlns:inkscape="http://www.inkscape.org/namespaces/inkscape" xmlns:rdf="http://www.w3.org/1999/02/22-rdf-syntax-ns#" xmlns:sodipodi="http://sodipodi.sourceforge.net/DTD/sodipodi-0.dtd" xmlns:svg="http://www.w3.org/2000/svg"
	 xmlns="http://www.w3.org/2000/svg" xmlns:xlink="http://www.w3.org/1999/xlink" x="0px" y="0px" viewBox="0 0 964.4 520"
	 style="enable-background:new 0 0 964.4 520;" xml:space="preserve">
<style type="text/css">
	.st0{fill:#0F1415;}
</style>
<sodipodi:namedview  bordercolor="#666666" borderopacity="1.0" fit-margin-bottom="0" fit-margin-left="0" fit-margin-right="0" fit-margin-top="0" id="base" inkscape:current-layer="layer1" inkscape:cx="482.19502" inkscape:cy="182.38034" inkscape:document-units="px" inkscape:pageopacity="0.0" inkscape:pageshadow="2" inkscape:window-height="990" inkscape:window-maximized="1" inkscape:window-width="1680" inkscape:window-x="-4" inkscape:window-y="-4" inkscape:zoom="1.546" pagecolor="#ffffff" showgrid="false">
	</sodipodi:namedview>
<g>
	<path class="st0" d="M240.3,321.9c-13.8,0-23.4,2.5-32.4,6.2l5.8,19.7c7.3-2.7,13.8-4.4,22.2-4.4c10.8,0,16,4.7,16,13.2v1.3
		c-4.6-1.8-11.8-3.1-19.2-3.1c-18.8,0-31.4,8.4-31.4,25.2v0.3c0,15.8,11.5,24.7,26.8,24.7c10.5,0,18.1-4.1,23.7-10.2v8.4h27.7v-46
		c0-11.3-2.5-19.5-8.6-25.5C264.5,325.3,254.7,321.9,240.3,321.9z M252.2,374.1c0,8-5.8,13.2-14.1,13.2c-5.8,0-9.9-3.3-9.9-8.7v-0.3
		c0-6.1,4.7-9.9,12.9-9.9c4.1,0,8.1,0.9,11.1,2.1V374.1z"/>
	<path class="st0" d="M346.9,332.8c-5.2-6.1-12.3-11.5-24.4-11.5c-19,0-35.4,15.8-35.4,41.9v0.3c0,25.6,16.4,41.5,35.5,41.5
		c12,0,18.8-5.8,24.3-12.4v10.7H375V302.8h-28.1V332.8z M347.5,363.2c0,10.7-7.3,18.2-16.4,18.2c-9,0-16.4-7.6-16.4-18.2v-0.3
		c0-10.7,7.4-18.2,16.4-18.2c9.2,0,16.4,7.7,16.4,18.2V363.2z"/>
	<polygon class="st0" points="439.4,323 423.9,369.8 408.5,323 378.9,323 410.9,403.7 436.5,403.7 468.5,323 	"/>
	<path class="st0" d="M505.6,321.9c-13.8,0-23.4,2.5-32.4,6.2l5.8,19.7c7.3-2.7,13.8-4.4,22.2-4.4c10.8,0,16,4.7,16,13.2v1.3
		c-4.6-1.8-11.8-3.1-19.2-3.1c-18.8,0-31.4,8.4-31.4,25.2v0.3c0,15.8,11.5,24.7,26.8,24.7c10.5,0,18.1-4.1,23.7-10.2v8.4h27.7v-46
		c0-11.3-2.5-19.5-8.6-25.5C529.7,325.3,520,321.9,505.6,321.9z M517.5,374.1c0,8-5.8,13.2-14.1,13.2c-5.8,0-9.9-3.3-9.9-8.7v-0.3
		c0-6.1,4.7-9.9,12.9-9.9c4.1,0,8.1,0.9,11.1,2.1V374.1z"/>
	<path class="st0" d="M608.2,321.3c-11.4,0-18.8,6.4-24,13V323h-28.1v80.1h28.1v-43.4c0-8.9,5-13.6,11.8-13.6
		c6.8,0,11.4,4.7,11.4,13.6v43.4h28v-52.4C635.5,332.5,625.2,321.3,608.2,321.3z"/>
	<path class="st0" d="M678.8,302.8h-28V323h-9.5v22.5h9.5v32.7c0,19.1,9.9,26.5,26.8,26.5c7.8,0,14.5-1.9,19.5-4.7v-21.9
		c-3.4,1.6-7,2.7-10.7,2.7c-5.2,0-7.7-2.4-7.7-8v-27.2h18.7V323h-18.7V302.8z"/>
	<path class="st0" d="M741,321.9c-13.8,0-23.4,2.5-32.4,6.2l5.8,19.7c7.3-2.7,13.8-4.4,22.2-4.4c10.8,0,16,4.7,16,13.2v1.3
		c-4.6-1.8-11.8-3.1-19.2-3.1c-18.8,0-31.4,8.4-31.4,25.2v0.3c0,15.8,11.5,24.7,26.8,24.7c10.5,0,18.1-4.1,23.7-10.2v8.4h27.7v-46
		c0-11.3-2.5-19.5-8.6-25.5C765.2,325.3,755.4,321.9,741,321.9z M752.9,374.1c0,8-5.8,13.2-14.1,13.2c-5.8,0-9.9-3.3-9.9-8.7v-0.3
		c0-6.1,4.7-9.9,12.9-9.9c4.1,0,8.1,0.9,11.1,2.1V374.1z"/>
	<path class="st0" d="M847.3,332.5c-5.9-6.4-13-11.3-25.2-11.3c-18.4,0-34.6,14.2-34.6,37.3v0.3c0,22.9,16,37.2,35.7,37.2
		c11.5,0,19-5.5,24.6-12v3.1c0,12.7-7,19.7-20.9,19.7c-10.8,0-19.4-2.8-28-7.6l-9,18.7c11.5,5.9,24.6,9.2,40,9.2
		c16.7,0,28-3.9,35.2-11.3c7.1-7,10.4-17.3,10.4-32V323h-28.1V332.5z M847.9,358.9c0,8.9-6.8,15.5-16.4,15.5
		c-9.6,0-16.4-6.5-16.4-15.4v-0.3c0-9,6.8-15.7,16.4-15.7c9.5,0,16.4,6.7,16.4,15.5V358.9z"/>
	<path class="st0" d="M964.4,365.1c0-23.5-12.7-43.8-40.3-43.8c-23.7,0-40.4,18.5-40.4,41.9v0.3c0,24.7,17.8,41.6,42.9,41.6
		c15.8,0,26.9-6.5,34.6-16.3l-15.5-12.9c-5.8,5.6-11,8.1-17.8,8.1c-8.7,0-15.1-4.4-17.3-13.2h53.6
		C964.4,368.9,964.4,366.9,964.4,365.1z M910.2,356.5c1.5-8.9,6.5-14.5,13.9-14.5c7.7,0,13,5.6,14.1,14.5H910.2z"/>
	<path class="st0" d="M322.7,225.9v-20h-11.4v76.5h11.4v-30.5c0-23.1,13.6-35.1,30.4-35.1h0.9v-12.3
		C339.4,204,328.3,213.2,322.7,225.9z"/>
	<path class="st0" d="M353.3,244.4c0,23.7,17.2,39.8,38.2,39.8c14.5,0,23.8-5.8,31.5-14.4l-7.1-6.4c-6.2,6.5-13.6,10.8-24.1,10.8
		c-13.6,0-25.3-9.3-26.9-25.9h60.7c0.1-1.3,0.1-2.2,0.1-3.7c0-22.4-13-40.4-35.7-40.4c-21.2,0-36.7,17.8-36.7,39.8V244.4z
		 M389.7,213.9c15.3,0,23.2,12.1,24.4,26.1h-49.3C366.3,225,376.4,213.9,389.7,213.9z"/>
	<path class="st0" d="M437.2,262.2c0,15.5,9.3,21.6,21.6,21.6c5.5,0,9.8-1.2,13.8-3.3v-9.8c-4,1.9-7.3,2.7-11.1,2.7
		c-7.7,0-12.9-3.4-12.9-12.7V216h24.3v-10.1h-24.3v-23.1h-11.4v23.1h-10.7V216h10.7V262.2z"/>
	<rect x="480.4" y="205.9" class="st0" width="11.4" height="76.5"/>
	<rect x="479.7" y="176.6" class="st0" width="13" height="12.6"/>
	<path class="st0" d="M549.4,204.6c-14.5-0.6-25.6,8.6-31.2,21.3v-20h-11.4v76.5h11.4v-30.5c0-23.1,13.6-35.1,30.4-35.1h0.9V204.6z"
		/>
	<path class="st0" d="M587,284.2c14.5,0,23.8-5.8,31.5-14.4l-7.1-6.4c-6.2,6.5-13.6,10.8-24.1,10.8c-13.6,0-25.3-9.3-26.9-25.9H621
		c0.1-1.3,0.1-2.2,0.1-3.7c0-22.4-13-40.4-35.7-40.4c-21.2,0-36.7,17.8-36.7,39.8v0.3C548.8,268.1,566,284.2,587,284.2z
		 M585.2,213.9c15.3,0,23.2,12.1,24.4,26.1h-49.3C561.8,225,571.9,213.9,585.2,213.9z"/>
	<path class="st0" d="M735.6,237.7v44.7H747v-47.4c0-19-10.8-30.8-28.4-30.8c-13.3,0-21.5,6.8-26.9,15.3
		c-4.1-8.6-12.1-15.3-24.6-15.3c-12.9,0-19.7,7-24.7,14.5v-12.9h-11.4v76.5h11.4v-43.7c0-14.1,9.2-24.1,21.3-24.1
		c12.1,0,19.7,8.4,19.7,22.8v45h11.4v-44.1c0-15.1,9.5-23.7,21-23.7C728.2,214.6,735.6,222.9,735.6,237.7z"/>
	<path class="st0" d="M794.8,284.2c14.5,0,23.8-5.8,31.5-14.4l-7.1-6.4c-6.2,6.5-13.6,10.8-24.1,10.8c-13.6,0-25.3-9.3-26.9-25.9
		h60.7c0.1-1.3,0.1-2.2,0.1-3.7c0-22.4-13-40.4-35.7-40.4c-21.2,0-36.7,17.8-36.7,39.8v0.3C756.6,268.1,773.8,284.2,794.8,284.2z
		 M793.1,213.9c15.3,0,23.2,12.1,24.4,26.1h-49.3C769.7,225,779.7,213.9,793.1,213.9z"/>
	<path class="st0" d="M850.2,238.6c0-14.4,9.8-24,23-24c13.5,0,21.2,8.9,21.2,23.1v44.7h11.4v-47.5c0-18.2-10.8-30.6-29.3-30.6
		c-13.2,0-21.2,6.7-26.2,15v-13.3h-11.4v76.5h11.4V238.6z"/>
	<path class="st0" d="M921.5,262.2c0,15.5,9.3,21.6,21.6,21.6c5.5,0,9.8-1.2,13.8-3.3v-9.8c-4,1.9-7.3,2.7-11.1,2.7
		c-7.7,0-12.9-3.4-12.9-12.7V216h24.3v-10.1h-24.3v-23.1h-11.4v23.1h-10.7V216h10.7V262.2z"/>
	<path class="st0" d="M347.9,168.6L347.9,168.6c-3.8-4.6-27.7-31.1-63.5-16.5c4.7,4.5,8,9,9.8,13.3c1.3,3.2,2,6.4,2.2,9.7
		c0.1,0.6,0.2,1.3,0.3,1.9c-0.5-3.9-1.8-7.7-3.8-11.3C268.8,123.7,74.9,91.9,1.4,81c-1.6-0.2-2.1,2.1-0.5,2.5
		c20,5.3,49.4,13.5,81.3,23.4c0,0,0,0,0,0l0,0c59.3,22.7,117.9,50.9,135.9,82.5c-9.8-14.8-29.2-28.1-53.6-40
		c-45.8-8-97.2-11.3-139.5-11.3c-1.9,0-2.4,2.1-0.5,2.4c54.4,6.4,180.7,28.8,194.9,73.2c0.6,2.1,0.9,4.3,0.9,6.6
		C204.4,275.4,105.9,347,105.9,347l0,0c0,0,0.1,0,0.1-0.1c0,0-0.1,0-0.1,0.1c-0.1,0.1-0.1,0.1-0.1,0.3c0.1,0.2,0.4,0.1,0.4,0.1
		C138.9,330.8,251,267.2,286.3,212l0,0l0.2-0.3c1.4-2.2,2.7-4.4,3.8-6.5c-0.1,0.2-0.2,0.4-0.3,0.5c0,0,5.8-10.4,15.1-22.6
		c6.9-6.5,15.2-11.2,21.3-13.1c10.7-3.3,18.8-1.5,21.3-1C347.9,169.2,348.1,168.9,347.9,168.6z"/>
	<path class="st0" d="M240.3,321.9c-13.8,0-23.4,2.5-32.4,6.2l5.8,19.7c7.3-2.7,13.8-4.4,22.2-4.4c10.8,0,16,4.7,16,13.2v1.3
		c-4.6-1.8-11.8-3.1-19.2-3.1c-18.8,0-31.4,8.4-31.4,25.2v0.3c0,15.8,11.5,24.7,26.8,24.7c10.5,0,18.1-4.1,23.7-10.2v8.4h27.7v-46
		c0-11.3-2.5-19.5-8.6-25.5C264.5,325.3,254.7,321.9,240.3,321.9z M252.2,374.1c0,8-5.8,13.2-14.1,13.2c-5.8,0-9.9-3.3-9.9-8.7v-0.3
		c0-6.1,4.7-9.9,12.9-9.9c4.1,0,8.1,0.9,11.1,2.1V374.1z"/>
	<path class="st0" d="M346.9,332.8c-5.2-6.1-12.3-11.5-24.4-11.5c-19,0-35.4,15.8-35.4,41.9v0.3c0,25.6,16.4,41.5,35.5,41.5
		c12,0,18.8-5.8,24.3-12.4v10.7H375V302.8h-28.1V332.8z M347.5,363.2c0,10.7-7.3,18.2-16.4,18.2c-9,0-16.4-7.6-16.4-18.2v-0.3
		c0-10.7,7.4-18.2,16.4-18.2c9.2,0,16.4,7.7,16.4,18.2V363.2z"/>
	<polygon class="st0" points="439.4,323 423.9,369.8 408.5,323 378.9,323 410.9,403.7 436.5,403.7 468.5,323 	"/>
	<path class="st0" d="M505.6,321.9c-13.8,0-23.4,2.5-32.4,6.2l5.8,19.7c7.3-2.7,13.8-4.4,22.2-4.4c10.8,0,16,4.7,16,13.2v1.3
		c-4.6-1.8-11.8-3.1-19.2-3.1c-18.8,0-31.4,8.4-31.4,25.2v0.3c0,15.8,11.5,24.7,26.8,24.7c10.5,0,18.1-4.1,23.7-10.2v8.4h27.7v-46
		c0-11.3-2.5-19.5-8.6-25.5C529.7,325.3,520,321.9,505.6,321.9z M517.5,374.1c0,8-5.8,13.2-14.1,13.2c-5.8,0-9.9-3.3-9.9-8.7v-0.3
		c0-6.1,4.7-9.9,12.9-9.9c4.1,0,8.1,0.9,11.1,2.1V374.1z"/>
	<path class="st0" d="M608.2,321.3c-11.4,0-18.8,6.4-24,13V323h-28.1v80.1h28.1v-43.4c0-8.9,5-13.6,11.8-13.6
		c6.8,0,11.4,4.7,11.4,13.6v43.4h28v-52.4C635.5,332.5,625.2,321.3,608.2,321.3z"/>
	<path class="st0" d="M678.8,302.8h-28V323h-9.5v22.5h9.5v32.7c0,19.1,9.9,26.5,26.8,26.5c7.8,0,14.5-1.9,19.5-4.7v-21.9
		c-3.4,1.6-7,2.7-10.7,2.7c-5.2,0-7.7-2.4-7.7-8v-27.2h18.7V323h-18.7V302.8z"/>
	<path class="st0" d="M741,321.9c-13.8,0-23.4,2.5-32.4,6.2l5.8,19.7c7.3-2.7,13.8-4.4,22.2-4.4c10.8,0,16,4.7,16,13.2v1.3
		c-4.6-1.8-11.8-3.1-19.2-3.1c-18.8,0-31.4,8.4-31.4,25.2v0.3c0,15.8,11.5,24.7,26.8,24.7c10.5,0,18.1-4.1,23.7-10.2v8.4h27.7v-46
		c0-11.3-2.5-19.5-8.6-25.5C765.2,325.3,755.4,321.9,741,321.9z M752.9,374.1c0,8-5.8,13.2-14.1,13.2c-5.8,0-9.9-3.3-9.9-8.7v-0.3
		c0-6.1,4.7-9.9,12.9-9.9c4.1,0,8.1,0.9,11.1,2.1V374.1z"/>
	<path class="st0" d="M847.3,332.5c-5.9-6.4-13-11.3-25.2-11.3c-18.4,0-34.6,14.2-34.6,37.3v0.3c0,22.9,16,37.2,35.7,37.2
		c11.5,0,19-5.5,24.6-12v3.1c0,12.7-7,19.7-20.9,19.7c-10.8,0-19.4-2.8-28-7.6l-9,18.7c11.5,5.9,24.6,9.2,40,9.2
		c16.7,0,28-3.9,35.2-11.3c7.1-7,10.4-17.3,10.4-32V323h-28.1V332.5z M847.9,358.9c0,8.9-6.8,15.5-16.4,15.5
		c-9.6,0-16.4-6.5-16.4-15.4v-0.3c0-9,6.8-15.7,16.4-15.7c9.5,0,16.4,6.7,16.4,15.5V358.9z"/>
	<path class="st0" d="M964.4,365.1c0-23.5-12.7-43.8-40.3-43.8c-23.7,0-40.4,18.5-40.4,41.9v0.3c0,24.7,17.8,41.6,42.9,41.6
		c15.8,0,26.9-6.5,34.6-16.3l-15.5-12.9c-5.8,5.6-11,8.1-17.8,8.1c-8.7,0-15.1-4.4-17.3-13.2h53.6
		C964.4,368.9,964.4,366.9,964.4,365.1z M910.2,356.5c1.5-8.9,6.5-14.5,13.9-14.5c7.7,0,13,5.6,14.1,14.5H910.2z"/>
	<path class="st0" d="M322.7,225.9v-20h-11.4v76.5h11.4v-30.5c0-23.1,13.6-35.1,30.4-35.1h0.9v-12.3
		C339.4,204,328.3,213.2,322.7,225.9z"/>
	<path class="st0" d="M353.3,244.4c0,23.7,17.2,39.8,38.2,39.8c14.5,0,23.8-5.8,31.5-14.4l-7.1-6.4c-6.2,6.5-13.6,10.8-24.1,10.8
		c-13.6,0-25.3-9.3-26.9-25.9h60.7c0.1-1.3,0.1-2.2,0.1-3.7c0-22.4-13-40.4-35.7-40.4c-21.2,0-36.7,17.8-36.7,39.8V244.4z
		 M389.7,213.9c15.3,0,23.2,12.1,24.4,26.1h-49.3C366.3,225,376.4,213.9,389.7,213.9z"/>
	<path class="st0" d="M437.2,262.2c0,15.5,9.3,21.6,21.6,21.6c5.5,0,9.8-1.2,13.8-3.3v-9.8c-4,1.9-7.3,2.7-11.1,2.7
		c-7.7,0-12.9-3.4-12.9-12.7V216h24.3v-10.1h-24.3v-23.1h-11.4v23.1h-10.7V216h10.7V262.2z"/>
	<rect x="480.4" y="205.9" class="st0" width="11.4" height="76.5"/>
	<rect x="479.7" y="176.6" class="st0" width="13" height="12.6"/>
	<path class="st0" d="M549.4,204.6c-14.5-0.6-25.6,8.6-31.2,21.3v-20h-11.4v76.5h11.4v-30.5c0-23.1,13.6-35.1,30.4-35.1h0.9V204.6z"
		/>
	<path class="st0" d="M587,284.2c14.5,0,23.8-5.8,31.5-14.4l-7.1-6.4c-6.2,6.5-13.6,10.8-24.1,10.8c-13.6,0-25.3-9.3-26.9-25.9H621
		c0.1-1.3,0.1-2.2,0.1-3.7c0-22.4-13-40.4-35.7-40.4c-21.2,0-36.7,17.8-36.7,39.8v0.3C548.8,268.1,566,284.2,587,284.2z
		 M585.2,213.9c15.3,0,23.2,12.1,24.4,26.1h-49.3C561.8,225,571.9,213.9,585.2,213.9z"/>
	<path class="st0" d="M735.6,237.7v44.7H747v-47.4c0-19-10.8-30.8-28.4-30.8c-13.3,0-21.5,6.8-26.9,15.3
		c-4.1-8.6-12.1-15.3-24.6-15.3c-12.9,0-19.7,7-24.7,14.5v-12.9h-11.4v76.5h11.4v-43.7c0-14.1,9.2-24.1,21.3-24.1
		c12.1,0,19.7,8.4,19.7,22.8v45h11.4v-44.1c0-15.1,9.5-23.7,21-23.7C728.2,214.6,735.6,222.9,735.6,237.7z"/>
	<path class="st0" d="M794.8,284.2c14.5,0,23.8-5.8,31.5-14.4l-7.1-6.4c-6.2,6.5-13.6,10.8-24.1,10.8c-13.6,0-25.3-9.3-26.9-25.9
		h60.7c0.1-1.3,0.1-2.2,0.1-3.7c0-22.4-13-40.4-35.7-40.4c-21.2,0-36.7,17.8-36.7,39.8v0.3C756.6,268.1,773.8,284.2,794.8,284.2z
		 M793.1,213.9c15.3,0,23.2,12.1,24.4,26.1h-49.3C769.7,225,779.7,213.9,793.1,213.9z"/>
	<path class="st0" d="M850.2,238.6c0-14.4,9.8-24,23-24c13.5,0,21.2,8.9,21.2,23.1v44.7h11.4v-47.5c0-18.2-10.8-30.6-29.3-30.6
		c-13.2,0-21.2,6.7-26.2,15v-13.3h-11.4v76.5h11.4V238.6z"/>
	<path class="st0" d="M921.5,262.2c0,15.5,9.3,21.6,21.6,21.6c5.5,0,9.8-1.2,13.8-3.3v-9.8c-4,1.9-7.3,2.7-11.1,2.7
		c-7.7,0-12.9-3.4-12.9-12.7V216h24.3v-10.1h-24.3v-23.1h-11.4v23.1h-10.7V216h10.7V262.2z"/>
</g>
</svg>
