<?xml version="1.0" encoding="UTF-8"?>
<svg width="966px" height="347px" viewBox="0 0 966 347" version="1.1" xmlns="http://www.w3.org/2000/svg" xmlns:xlink="http://www.w3.org/1999/xlink">
    <!-- Generator: Sketch 45.2 (43514) - http://www.bohemiancoding.com/sketch -->
    <title>retirement-advantage</title>
    <desc>Created with Sketch.</desc>
    <defs></defs>
    <g id="Page-1" stroke="none" stroke-width="1" fill="none" fill-rule="evenodd">
        <g id="retirement-advantage" transform="translate(0.000000, -1.000000)" fill-rule="nonzero" fill="#0F1415">
            <path d="M241.3,241.9 C227.5,241.9 217.9,244.4 208.9,248.1 L214.7,267.8 C222,265.1 228.5,263.4 236.9,263.4 C247.7,263.4 252.9,268.1 252.9,276.6 L252.9,277.9 C248.3,276.1 241.1,274.8 233.7,274.8 C214.9,274.8 202.3,283.2 202.3,300 L202.3,300.3 C202.3,316.1 213.8,325 229.1,325 C239.6,325 247.2,320.9 252.8,314.8 L252.8,323.2 L280.5,323.2 L280.5,277.2 C280.5,265.9 278,257.7 271.9,251.7 C265.5,245.3 255.7,241.9 241.3,241.9 Z M253.2,294.1 C253.2,302.1 247.4,307.3 239.1,307.3 C233.3,307.3 229.2,304 229.2,298.6 L229.2,298.3 C229.2,292.2 233.9,288.4 242.1,288.4 C246.2,288.4 250.2,289.3 253.2,290.5 L253.2,294.1 Z" id="Shape"></path>
            <path d="M347.9,252.8 C342.7,246.7 335.6,241.3 323.5,241.3 C304.5,241.3 288.1,257.1 288.1,283.2 L288.1,283.5 C288.1,309.1 304.5,325 323.6,325 C335.6,325 342.4,319.2 347.9,312.6 L347.9,323.3 L376,323.3 L376,222.8 L347.9,222.8 L347.9,252.8 Z M348.5,283.2 C348.5,293.9 341.2,301.4 332.1,301.4 C323.1,301.4 315.7,293.8 315.7,283.2 L315.7,282.9 C315.7,272.2 323.1,264.7 332.1,264.7 C341.3,264.7 348.5,272.4 348.5,282.9 L348.5,283.2 Z" id="Shape"></path>
            <polygon id="Shape" points="440.4 243 424.9 289.8 409.5 243 379.9 243 411.9 323.7 437.5 323.7 469.5 243"></polygon>
            <path d="M506.6,241.9 C492.8,241.9 483.2,244.4 474.2,248.1 L480,267.8 C487.3,265.1 493.8,263.4 502.2,263.4 C513,263.4 518.2,268.1 518.2,276.6 L518.2,277.9 C513.6,276.1 506.4,274.8 499,274.8 C480.2,274.8 467.6,283.2 467.6,300 L467.6,300.3 C467.6,316.1 479.1,325 494.4,325 C504.9,325 512.5,320.9 518.1,314.8 L518.1,323.2 L545.8,323.2 L545.8,277.2 C545.8,265.9 543.3,257.7 537.2,251.7 C530.7,245.3 521,241.9 506.6,241.9 Z M518.5,294.1 C518.5,302.1 512.7,307.3 504.4,307.3 C498.6,307.3 494.5,304 494.5,298.6 L494.5,298.3 C494.5,292.2 499.2,288.4 507.4,288.4 C511.5,288.4 515.5,289.3 518.5,290.5 L518.5,294.1 Z" id="Shape"></path>
            <path d="M609.2,241.3 C597.8,241.3 590.4,247.7 585.2,254.3 L585.2,243 L557.1,243 L557.1,323.1 L585.2,323.1 L585.2,279.7 C585.2,270.8 590.2,266.1 597,266.1 C603.8,266.1 608.4,270.8 608.4,279.7 L608.4,323.1 L636.4,323.1 L636.4,270.7 C636.5,252.5 626.2,241.3 609.2,241.3 Z" id="Shape"></path>
            <path d="M679.8,222.8 L651.8,222.8 L651.8,243 L642.3,243 L642.3,265.5 L651.8,265.5 L651.8,298.2 C651.8,317.3 661.7,324.7 678.6,324.7 C686.4,324.7 693.1,322.8 698.1,320 L698.1,298.1 C694.7,299.7 691.1,300.8 687.4,300.8 C682.2,300.8 679.7,298.4 679.7,292.8 L679.7,265.6 L698.4,265.6 L698.4,243 L679.7,243 L679.7,222.8 L679.8,222.8 Z" id="Shape"></path>
            <path d="M742,241.9 C728.2,241.9 718.6,244.4 709.6,248.1 L715.4,267.8 C722.7,265.1 729.2,263.4 737.6,263.4 C748.4,263.4 753.6,268.1 753.6,276.6 L753.6,277.9 C749,276.1 741.8,274.8 734.4,274.8 C715.6,274.8 703,283.2 703,300 L703,300.3 C703,316.1 714.5,325 729.8,325 C740.3,325 747.9,320.9 753.5,314.8 L753.5,323.2 L781.2,323.2 L781.2,277.2 C781.2,265.9 778.7,257.7 772.6,251.7 C766.2,245.3 756.4,241.9 742,241.9 Z M753.9,294.1 C753.9,302.1 748.1,307.3 739.8,307.3 C734,307.3 729.9,304 729.9,298.6 L729.9,298.3 C729.9,292.2 734.6,288.4 742.8,288.4 C746.9,288.4 750.9,289.3 753.9,290.5 L753.9,294.1 Z" id="Shape"></path>
            <path d="M848.3,252.5 C842.4,246.1 835.3,241.2 823.1,241.2 C804.7,241.2 788.5,255.4 788.5,278.5 L788.5,278.8 C788.5,301.7 804.5,316 824.2,316 C835.7,316 843.2,310.5 848.8,304 L848.8,307.1 C848.8,319.8 841.8,326.8 827.9,326.8 C817.1,326.8 808.5,324 799.9,319.2 L790.9,337.9 C802.4,343.8 815.5,347.1 830.9,347.1 C847.6,347.1 858.9,343.2 866.1,335.8 C873.2,328.8 876.5,318.5 876.5,303.8 L876.5,243 L848.4,243 L848.4,252.5 L848.3,252.5 Z M848.9,278.9 C848.9,287.8 842.1,294.4 832.5,294.4 C822.9,294.4 816.1,287.9 816.1,279 L816.1,278.7 C816.1,269.7 822.9,263 832.5,263 C842,263 848.9,269.7 848.9,278.5 L848.9,278.9 Z" id="Shape"></path>
            <path d="M965.4,285.1 C965.4,261.6 952.7,241.3 925.1,241.3 C901.4,241.3 884.7,259.8 884.7,283.2 L884.7,283.5 C884.7,308.2 902.5,325.1 927.6,325.1 C943.4,325.1 954.5,318.6 962.2,308.8 L946.7,295.9 C940.9,301.5 935.7,304 928.9,304 C920.2,304 913.8,299.6 911.6,290.8 L965.2,290.8 C965.4,288.9 965.4,286.9 965.4,285.1 Z M911.2,276.5 C912.7,267.6 917.7,262 925.1,262 C932.8,262 938.1,267.6 939.2,276.5 L911.2,276.5 Z" id="Shape"></path>
            <path d="M323.7,145.9 L323.7,125.9 L312.3,125.9 L312.3,202.4 L323.7,202.4 L323.7,171.9 C323.7,148.8 337.3,136.8 354.1,136.8 L355,136.8 L355,124.5 C340.4,124 329.3,133.2 323.7,145.9 Z" id="Shape"></path>
            <path d="M354.3,164.4 C354.3,188.1 371.5,204.2 392.5,204.2 C407,204.2 416.3,198.4 424,189.8 L416.9,183.4 C410.7,189.9 403.3,194.2 392.8,194.2 C379.2,194.2 367.5,184.9 365.9,168.3 L426.6,168.3 C426.7,167 426.7,166.1 426.7,164.6 C426.7,142.2 413.7,124.2 391,124.2 C369.8,124.2 354.3,142 354.3,164 L354.3,164.4 Z M390.7,133.9 C406,133.9 413.9,146 415.1,160 L365.8,160 C367.3,145 377.4,133.9 390.7,133.9 Z" id="Shape"></path>
            <path d="M438.2,182.2 C438.2,197.7 447.5,203.8 459.8,203.8 C465.3,203.8 469.6,202.6 473.6,200.5 L473.6,190.7 C469.6,192.6 466.3,193.4 462.5,193.4 C454.8,193.4 449.6,190 449.6,180.7 L449.6,136 L473.9,136 L473.9,125.9 L449.6,125.9 L449.6,102.8 L438.2,102.8 L438.2,125.9 L427.5,125.9 L427.5,136 L438.2,136 L438.2,182.2 L438.2,182.2 Z" id="Shape"></path>
            <rect id="Rectangle-path" x="481.4" y="125.9" width="11.4" height="76.5"></rect>
            <rect id="Rectangle-path" x="480.7" y="96.6" width="13" height="12.6"></rect>
            <path d="M550.4,124.6 C535.9,124 524.8,133.2 519.2,145.9 L519.2,125.9 L507.8,125.9 L507.8,202.4 L519.2,202.4 L519.2,171.9 C519.2,148.8 532.8,136.8 549.6,136.8 L550.5,136.8 L550.5,124.6 L550.4,124.6 Z" id="Shape"></path>
            <path d="M588,204.2 C602.5,204.2 611.8,198.4 619.5,189.8 L612.4,183.4 C606.2,189.9 598.8,194.2 588.3,194.2 C574.7,194.2 563,184.9 561.4,168.3 L622,168.3 C622.1,167 622.1,166.1 622.1,164.6 C622.1,142.2 609.1,124.2 586.4,124.2 C565.2,124.2 549.7,142 549.7,164 L549.7,164.3 C549.8,188.1 567,204.2 588,204.2 Z M586.2,133.9 C601.5,133.9 609.4,146 610.6,160 L561.3,160 C562.8,145 572.9,133.9 586.2,133.9 Z" id="Shape"></path>
            <path d="M736.6,157.7 L736.6,202.4 L748,202.4 L748,155 C748,136 737.2,124.2 719.6,124.2 C706.3,124.2 698.1,131 692.7,139.5 C688.6,130.9 680.6,124.2 668.1,124.2 C655.2,124.2 648.4,131.2 643.4,138.7 L643.4,125.8 L632,125.8 L632,202.3 L643.4,202.3 L643.4,158.6 C643.4,144.5 652.6,134.5 664.7,134.5 C676.8,134.5 684.4,142.9 684.4,157.3 L684.4,202.3 L695.8,202.3 L695.8,158.2 C695.8,143.1 705.3,134.5 716.8,134.5 C729.2,134.6 736.6,142.9 736.6,157.7 Z" id="Shape"></path>
            <path d="M795.8,204.2 C810.3,204.2 819.6,198.4 827.3,189.8 L820.2,183.4 C814,189.9 806.6,194.2 796.1,194.2 C782.5,194.2 770.8,184.9 769.2,168.3 L829.9,168.3 C830,167 830,166.1 830,164.6 C830,142.2 817,124.2 794.3,124.2 C773.1,124.2 757.6,142 757.6,164 L757.6,164.3 C757.6,188.1 774.8,204.2 795.8,204.2 Z M794.1,133.9 C809.4,133.9 817.3,146 818.5,160 L769.2,160 C770.7,145 780.7,133.9 794.1,133.9 Z" id="Shape"></path>
            <path d="M851.2,158.6 C851.2,144.2 861,134.6 874.2,134.6 C887.7,134.6 895.4,143.5 895.4,157.7 L895.4,202.4 L906.8,202.4 L906.8,154.9 C906.8,136.7 896,124.3 877.5,124.3 C864.3,124.3 856.3,131 851.3,139.3 L851.3,126 L839.9,126 L839.9,202.5 L851.3,202.5 L851.3,158.6 L851.2,158.6 Z" id="Shape"></path>
            <path d="M922.5,182.2 C922.5,197.7 931.8,203.8 944.1,203.8 C949.6,203.8 953.9,202.6 957.9,200.5 L957.9,190.7 C953.9,192.6 950.6,193.4 946.8,193.4 C939.1,193.4 933.9,190 933.9,180.7 L933.9,136 L958.2,136 L958.2,125.9 L933.9,125.9 L933.9,102.8 L922.5,102.8 L922.5,125.9 L911.8,125.9 L911.8,136 L922.5,136 L922.5,182.2 Z" id="Shape"></path>
            <path d="M348.9,88.6 L348.9,88.6 C345.1,84 321.2,57.5 285.4,72.1 C290.1,76.6 293.4,81.1 295.2,85.4 C296.5,88.6 297.2,91.8 297.4,95.1 C297.5,95.7 297.6,96.4 297.7,97 C297.2,93.1 295.9,89.3 293.9,85.7 C269.8,43.7 75.9,11.9 2.4,1 C0.8,0.8 0.3,3.1 1.9,3.5 C21.9,8.8 51.3,17 83.2,26.9 C83.2,26.9 83.2,26.9 83.2,26.9 L83.2,26.9 C142.5,49.6 201.1,77.8 219.1,109.4 C209.3,94.6 189.9,81.3 165.5,69.4 C119.7,61.4 68.3,58.1 26,58.1 C24.1,58.1 23.6,60.2 25.5,60.5 C79.9,66.9 206.2,89.3 220.4,133.7 C221,135.8 221.3,138 221.3,140.3 C205.4,195.4 106.9,267 106.9,267 L106.9,267 C106.9,267 107,267 107,266.9 C107,266.9 106.9,266.9 106.9,267 C106.8,267.1 106.8,267.1 106.8,267.3 C106.9,267.5 107.2,267.4 107.2,267.4 C139.9,250.8 252,187.2 287.3,132 L287.3,132 L287.5,131.7 C288.9,129.5 290.2,127.3 291.3,125.2 C291.2,125.4 291.1,125.6 291,125.7 C291,125.7 296.8,115.3 306.1,103.1 C313,96.6 321.3,91.9 327.4,90 C338.1,86.7 346.2,88.5 348.7,89 C348.9,89.2 349.1,88.9 348.9,88.6 Z" id="Shape"></path>
            <path d="M241.3,241.9 C227.5,241.9 217.9,244.4 208.9,248.1 L214.7,267.8 C222,265.1 228.5,263.4 236.9,263.4 C247.7,263.4 252.9,268.1 252.9,276.6 L252.9,277.9 C248.3,276.1 241.1,274.8 233.7,274.8 C214.9,274.8 202.3,283.2 202.3,300 L202.3,300.3 C202.3,316.1 213.8,325 229.1,325 C239.6,325 247.2,320.9 252.8,314.8 L252.8,323.2 L280.5,323.2 L280.5,277.2 C280.5,265.9 278,257.7 271.9,251.7 C265.5,245.3 255.7,241.9 241.3,241.9 Z M253.2,294.1 C253.2,302.1 247.4,307.3 239.1,307.3 C233.3,307.3 229.2,304 229.2,298.6 L229.2,298.3 C229.2,292.2 233.9,288.4 242.1,288.4 C246.2,288.4 250.2,289.3 253.2,290.5 L253.2,294.1 Z" id="Shape"></path>
            <path d="M347.9,252.8 C342.7,246.7 335.6,241.3 323.5,241.3 C304.5,241.3 288.1,257.1 288.1,283.2 L288.1,283.5 C288.1,309.1 304.5,325 323.6,325 C335.6,325 342.4,319.2 347.9,312.6 L347.9,323.3 L376,323.3 L376,222.8 L347.9,222.8 L347.9,252.8 Z M348.5,283.2 C348.5,293.9 341.2,301.4 332.1,301.4 C323.1,301.4 315.7,293.8 315.7,283.2 L315.7,282.9 C315.7,272.2 323.1,264.7 332.1,264.7 C341.3,264.7 348.5,272.4 348.5,282.9 L348.5,283.2 Z" id="Shape"></path>
            <polygon id="Shape" points="440.4 243 424.9 289.8 409.5 243 379.9 243 411.9 323.7 437.5 323.7 469.5 243"></polygon>
            <path d="M506.6,241.9 C492.8,241.9 483.2,244.4 474.2,248.1 L480,267.8 C487.3,265.1 493.8,263.4 502.2,263.4 C513,263.4 518.2,268.1 518.2,276.6 L518.2,277.9 C513.6,276.1 506.4,274.8 499,274.8 C480.2,274.8 467.6,283.2 467.6,300 L467.6,300.3 C467.6,316.1 479.1,325 494.4,325 C504.9,325 512.5,320.9 518.1,314.8 L518.1,323.2 L545.8,323.2 L545.8,277.2 C545.8,265.9 543.3,257.7 537.2,251.7 C530.7,245.3 521,241.9 506.6,241.9 Z M518.5,294.1 C518.5,302.1 512.7,307.3 504.4,307.3 C498.6,307.3 494.5,304 494.5,298.6 L494.5,298.3 C494.5,292.2 499.2,288.4 507.4,288.4 C511.5,288.4 515.5,289.3 518.5,290.5 L518.5,294.1 Z" id="Shape"></path>
            <path d="M609.2,241.3 C597.8,241.3 590.4,247.7 585.2,254.3 L585.2,243 L557.1,243 L557.1,323.1 L585.2,323.1 L585.2,279.7 C585.2,270.8 590.2,266.1 597,266.1 C603.8,266.1 608.4,270.8 608.4,279.7 L608.4,323.1 L636.4,323.1 L636.4,270.7 C636.5,252.5 626.2,241.3 609.2,241.3 Z" id="Shape"></path>
            <path d="M679.8,222.8 L651.8,222.8 L651.8,243 L642.3,243 L642.3,265.5 L651.8,265.5 L651.8,298.2 C651.8,317.3 661.7,324.7 678.6,324.7 C686.4,324.7 693.1,322.8 698.1,320 L698.1,298.1 C694.7,299.7 691.1,300.8 687.4,300.8 C682.2,300.8 679.7,298.4 679.7,292.8 L679.7,265.6 L698.4,265.6 L698.4,243 L679.7,243 L679.7,222.8 L679.8,222.8 Z" id="Shape"></path>
            <path d="M742,241.9 C728.2,241.9 718.6,244.4 709.6,248.1 L715.4,267.8 C722.7,265.1 729.2,263.4 737.6,263.4 C748.4,263.4 753.6,268.1 753.6,276.6 L753.6,277.9 C749,276.1 741.8,274.8 734.4,274.8 C715.6,274.8 703,283.2 703,300 L703,300.3 C703,316.1 714.5,325 729.8,325 C740.3,325 747.9,320.9 753.5,314.8 L753.5,323.2 L781.2,323.2 L781.2,277.2 C781.2,265.9 778.7,257.7 772.6,251.7 C766.2,245.3 756.4,241.9 742,241.9 Z M753.9,294.1 C753.9,302.1 748.1,307.3 739.8,307.3 C734,307.3 729.9,304 729.9,298.6 L729.9,298.3 C729.9,292.2 734.6,288.4 742.8,288.4 C746.9,288.4 750.9,289.3 753.9,290.5 L753.9,294.1 Z" id="Shape"></path>
            <path d="M848.3,252.5 C842.4,246.1 835.3,241.2 823.1,241.2 C804.7,241.2 788.5,255.4 788.5,278.5 L788.5,278.8 C788.5,301.7 804.5,316 824.2,316 C835.7,316 843.2,310.5 848.8,304 L848.8,307.1 C848.8,319.8 841.8,326.8 827.9,326.8 C817.1,326.8 808.5,324 799.9,319.2 L790.9,337.9 C802.4,343.8 815.5,347.1 830.9,347.1 C847.6,347.1 858.9,343.2 866.1,335.8 C873.2,328.8 876.5,318.5 876.5,303.8 L876.5,243 L848.4,243 L848.4,252.5 L848.3,252.5 Z M848.9,278.9 C848.9,287.8 842.1,294.4 832.5,294.4 C822.9,294.4 816.1,287.9 816.1,279 L816.1,278.7 C816.1,269.7 822.9,263 832.5,263 C842,263 848.9,269.7 848.9,278.5 L848.9,278.9 Z" id="Shape"></path>
            <path d="M965.4,285.1 C965.4,261.6 952.7,241.3 925.1,241.3 C901.4,241.3 884.7,259.8 884.7,283.2 L884.7,283.5 C884.7,308.2 902.5,325.1 927.6,325.1 C943.4,325.1 954.5,318.6 962.2,308.8 L946.7,295.9 C940.9,301.5 935.7,304 928.9,304 C920.2,304 913.8,299.6 911.6,290.8 L965.2,290.8 C965.4,288.9 965.4,286.9 965.4,285.1 Z M911.2,276.5 C912.7,267.6 917.7,262 925.1,262 C932.8,262 938.1,267.6 939.2,276.5 L911.2,276.5 Z" id="Shape"></path>
            <path d="M323.7,145.9 L323.7,125.9 L312.3,125.9 L312.3,202.4 L323.7,202.4 L323.7,171.9 C323.7,148.8 337.3,136.8 354.1,136.8 L355,136.8 L355,124.5 C340.4,124 329.3,133.2 323.7,145.9 Z" id="Shape"></path>
            <path d="M354.3,164.4 C354.3,188.1 371.5,204.2 392.5,204.2 C407,204.2 416.3,198.4 424,189.8 L416.9,183.4 C410.7,189.9 403.3,194.2 392.8,194.2 C379.2,194.2 367.5,184.9 365.9,168.3 L426.6,168.3 C426.7,167 426.7,166.1 426.7,164.6 C426.7,142.2 413.7,124.2 391,124.2 C369.8,124.2 354.3,142 354.3,164 L354.3,164.4 Z M390.7,133.9 C406,133.9 413.9,146 415.1,160 L365.8,160 C367.3,145 377.4,133.9 390.7,133.9 Z" id="Shape"></path>
            <path d="M438.2,182.2 C438.2,197.7 447.5,203.8 459.8,203.8 C465.3,203.8 469.6,202.6 473.6,200.5 L473.6,190.7 C469.6,192.6 466.3,193.4 462.5,193.4 C454.8,193.4 449.6,190 449.6,180.7 L449.6,136 L473.9,136 L473.9,125.9 L449.6,125.9 L449.6,102.8 L438.2,102.8 L438.2,125.9 L427.5,125.9 L427.5,136 L438.2,136 L438.2,182.2 L438.2,182.2 Z" id="Shape"></path>
            <rect id="Rectangle-path" x="481.4" y="125.9" width="11.4" height="76.5"></rect>
            <rect id="Rectangle-path" x="480.7" y="96.6" width="13" height="12.6"></rect>
            <path d="M550.4,124.6 C535.9,124 524.8,133.2 519.2,145.9 L519.2,125.9 L507.8,125.9 L507.8,202.4 L519.2,202.4 L519.2,171.9 C519.2,148.8 532.8,136.8 549.6,136.8 L550.5,136.8 L550.5,124.6 L550.4,124.6 Z" id="Shape"></path>
            <path d="M588,204.2 C602.5,204.2 611.8,198.4 619.5,189.8 L612.4,183.4 C606.2,189.9 598.8,194.2 588.3,194.2 C574.7,194.2 563,184.9 561.4,168.3 L622,168.3 C622.1,167 622.1,166.1 622.1,164.6 C622.1,142.2 609.1,124.2 586.4,124.2 C565.2,124.2 549.7,142 549.7,164 L549.7,164.3 C549.8,188.1 567,204.2 588,204.2 Z M586.2,133.9 C601.5,133.9 609.4,146 610.6,160 L561.3,160 C562.8,145 572.9,133.9 586.2,133.9 Z" id="Shape"></path>
            <path d="M736.6,157.7 L736.6,202.4 L748,202.4 L748,155 C748,136 737.2,124.2 719.6,124.2 C706.3,124.2 698.1,131 692.7,139.5 C688.6,130.9 680.6,124.2 668.1,124.2 C655.2,124.2 648.4,131.2 643.4,138.7 L643.4,125.8 L632,125.8 L632,202.3 L643.4,202.3 L643.4,158.6 C643.4,144.5 652.6,134.5 664.7,134.5 C676.8,134.5 684.4,142.9 684.4,157.3 L684.4,202.3 L695.8,202.3 L695.8,158.2 C695.8,143.1 705.3,134.5 716.8,134.5 C729.2,134.6 736.6,142.9 736.6,157.7 Z" id="Shape"></path>
            <path d="M795.8,204.2 C810.3,204.2 819.6,198.4 827.3,189.8 L820.2,183.4 C814,189.9 806.6,194.2 796.1,194.2 C782.5,194.2 770.8,184.9 769.2,168.3 L829.9,168.3 C830,167 830,166.1 830,164.6 C830,142.2 817,124.2 794.3,124.2 C773.1,124.2 757.6,142 757.6,164 L757.6,164.3 C757.6,188.1 774.8,204.2 795.8,204.2 Z M794.1,133.9 C809.4,133.9 817.3,146 818.5,160 L769.2,160 C770.7,145 780.7,133.9 794.1,133.9 Z" id="Shape"></path>
            <path d="M851.2,158.6 C851.2,144.2 861,134.6 874.2,134.6 C887.7,134.6 895.4,143.5 895.4,157.7 L895.4,202.4 L906.8,202.4 L906.8,154.9 C906.8,136.7 896,124.3 877.5,124.3 C864.3,124.3 856.3,131 851.3,139.3 L851.3,126 L839.9,126 L839.9,202.5 L851.3,202.5 L851.3,158.6 L851.2,158.6 Z" id="Shape"></path>
            <path d="M922.5,182.2 C922.5,197.7 931.8,203.8 944.1,203.8 C949.6,203.8 953.9,202.6 957.9,200.5 L957.9,190.7 C953.9,192.6 950.6,193.4 946.8,193.4 C939.1,193.4 933.9,190 933.9,180.7 L933.9,136 L958.2,136 L958.2,125.9 L933.9,125.9 L933.9,102.8 L922.5,102.8 L922.5,125.9 L911.8,125.9 L911.8,136 L922.5,136 L922.5,182.2 Z" id="Shape"></path>
        </g>
    </g>
</svg>