<?xml version="1.0" encoding="UTF-8"?>
<svg width="596px" height="75px" viewBox="0 0 596 75" version="1.1" xmlns="http://www.w3.org/2000/svg" xmlns:xlink="http://www.w3.org/1999/xlink">
    <!-- Generator: Sketch 45.2 (43514) - http://www.bohemiancoding.com/sketch -->
    <title>risksave</title>
    <desc>Created with Sketch.</desc>
    <defs>
        <polygon id="path-1" points="0 74.1127941 595.848529 74.1127941 595.848529 -0.000441176471 0 -0.000441176471"></polygon>
        <polygon id="path-3" points="0.0455611979 73.8411765 77.5003212 73.8411765 77.5003212 0.717941176 0.0455611979 0.717941176"></polygon>
        <polygon id="path-5" points="1.55294118 1.71042393 1.55294118 11.2958824 12.0847059 11.2958824 12.0847059 1.71042393 1.55294118 1.71042393"></polygon>
    </defs>
    <g id="Page-1" stroke="none" stroke-width="1" fill="none" fill-rule="evenodd">
        <g id="risksave">
            <path d="M137.708162,68.0891912 C135.786838,71.3141912 131.143456,73.9546324 127.389044,73.9546324 L100.521397,73.9546324 C96.7669853,73.9546324 95.2669853,71.3141912 97.1883088,68.0891912 L117.010368,34.8046324 C118.931691,31.5796324 123.575074,28.9391912 127.329485,28.9391912 L154.197132,28.9391912 C157.951544,28.9391912 159.451544,31.5796324 157.530221,34.8046324 L137.708162,68.0891912 Z" id="Fill-1" fill="#000000"></path>
            <path d="M205.505735,9.17558824 C201.237353,9.17558824 197.970441,9.27926471 195.698382,9.48661765 L195.698382,36.4292647 L202.821176,36.4292647 C206.262353,36.4292647 209.359412,36.2594118 212.112353,35.9152941 C214.865294,35.5711765 217.188088,34.9182353 219.080735,33.9520588 C220.975588,32.9902941 222.438088,31.6314706 223.470441,29.8755882 C224.500588,28.1197059 225.018971,25.7969118 225.018971,22.9072059 C225.018971,20.2226471 224.500588,17.9858824 223.470441,16.1969118 C222.438088,14.4079412 221.043971,12.9939706 219.288088,11.9638235 C217.532206,10.9314706 215.469706,10.2079412 213.093971,9.79544118 C210.718235,9.38294118 208.190294,9.17558824 205.505735,9.17558824 M220.682206,42.7270588 C221.782941,44.1035294 223.177059,45.9123529 224.862353,48.1469118 C226.549853,50.3858824 228.285882,52.8652941 230.077059,55.5807353 C231.866029,58.3027941 233.639559,61.1417647 235.393235,64.0976471 C237.149118,67.0579412 238.644706,69.9145588 239.884412,72.6675 L228.941029,72.6675 C227.564559,70.0535294 226.066765,67.4020588 224.449853,64.7197059 C222.830735,62.0329412 221.198382,59.4719118 219.546176,57.0255882 C217.893971,54.5836765 216.259412,52.2939706 214.644706,50.1608824 C213.023382,48.0277941 211.560882,46.1704412 210.255,44.5866176 C209.359412,44.655 208.448382,44.6902941 207.519706,44.6902941 L204.680735,44.6902941 L195.698382,44.6902941 L195.698382,72.6675 L185.685882,72.6675 L185.685882,2.15426471 C188.505,1.46823529 191.655,1.005 195.131471,0.762352941 C198.605735,0.521911765 201.788824,0.398382353 204.680735,0.398382353 C214.728529,0.398382353 222.385147,2.29544118 227.650588,6.07852941 C232.916029,9.86382353 235.547647,15.5086765 235.547647,23.0086765 C235.547647,27.7601471 234.2925,31.8211765 231.78,35.1917647 C229.265294,38.5645588 225.568235,41.0748529 220.682206,42.7270588" id="Fill-3" fill="#000000"></path>
            <path d="M254.7525,12.66 C253.031912,12.66 251.567206,12.0908824 250.365,10.9570588 C249.158382,9.82102941 248.556176,8.29014706 248.556176,6.36441176 C248.556176,4.43426471 249.158382,2.90338235 250.365,1.76955882 C251.567206,0.633529412 253.031912,0.0644117647 254.7525,0.0644117647 C256.470882,0.0644117647 257.933382,0.633529412 259.137794,1.76955882 C260.342206,2.90338235 260.946618,4.43426471 260.946618,6.36441176 C260.946618,8.29014706 260.342206,9.82102941 259.137794,10.9570588 C257.933382,12.0908824 256.470882,12.66 254.7525,12.66" id="Fill-5" fill="#000000"></path>
            <mask id="mask-2" fill="white">
                <use xlink:href="#path-1"></use>
            </mask>
            <g id="Clip-8"></g>
            <polygon id="Fill-7" fill="#000000" mask="url(#mask-2)" points="250.001471 72.6657353 259.603676 72.6657353 259.603676 18.9811765 250.001471 18.9811765"></polygon>
            <path d="M288.611912,65.7496324 C292.533971,65.7496324 295.441324,65.2356618 297.336176,64.2033088 C299.226618,63.16875 300.175147,61.5165441 300.175147,59.2488971 C300.175147,56.90625 299.244265,55.0466912 297.389118,53.6702206 C295.529559,52.29375 292.465588,50.7452206 288.199412,49.0246324 C286.134706,48.1996324 284.153824,47.3569853 282.263382,46.4944853 C280.368529,45.6386029 278.733971,44.6216912 277.3575,43.4525735 C275.981029,42.2790441 274.880294,40.8716912 274.055294,39.2194853 C273.228088,37.5650735 272.815588,35.5356618 272.815588,33.1268382 C272.815588,28.3797794 274.571471,24.6121324 278.083235,21.8216912 C281.590588,19.0334559 286.372941,17.6393382 292.430294,17.6393382 C293.945735,17.6393382 295.458971,17.7253676 296.974412,17.9018382 C298.487647,18.0716912 299.897206,18.2768382 301.2075,18.5172794 C302.513382,18.7599265 303.667059,19.0158088 304.664118,19.2915441 C305.661176,19.5672794 306.437647,19.8077206 306.989118,20.0172794 L305.233235,28.2738971 C304.200882,27.7246324 302.583971,27.1555147 300.380294,26.56875 C298.176618,25.9863971 295.529559,25.6930147 292.430294,25.6930147 C289.747941,25.6930147 287.4075,26.2268382 285.411176,27.2922794 C283.414853,28.3621324 282.415588,30.0297794 282.415588,32.2996324 C282.415588,33.4709559 282.640588,34.5033088 283.088382,35.3966912 C283.533971,36.2922794 284.224412,37.1018382 285.153088,37.8231618 C286.083971,38.5466912 287.233235,39.2194853 288.611912,39.8371324 C289.988382,40.4547794 291.638382,41.1099265 293.566324,41.8003676 C296.111912,42.7621324 298.383971,43.7106618 300.380294,44.6393382 C302.376618,45.5702206 304.079559,46.6533088 305.491324,47.8886029 C306.900882,49.1305147 307.983971,50.6283088 308.742794,52.3797794 C309.501618,54.1334559 309.881029,56.2863971 309.881029,58.8319853 C309.881029,63.7863971 308.036912,67.5408088 304.3575,70.0886029 C300.673676,72.6319853 295.425882,73.9047794 288.611912,73.9047794 C283.862647,73.9047794 280.145735,73.5121324 277.461176,72.7180147 C274.778824,71.9305147 272.952353,71.3238971 271.990588,70.9136029 L273.746471,62.6547794 C274.845,63.0650735 276.600882,63.6849265 279.009706,64.5099265 C281.418529,65.3371324 284.619265,65.7496324 288.611912,65.7496324" id="Fill-9" fill="#000000" mask="url(#mask-2)"></path>
            <path d="M395.568088,60.4914706 C397.835735,60.4914706 399.712941,60.3039706 401.195294,59.9267647 C402.673235,59.5539706 403.862206,59.04 404.755588,58.3914706 C405.646765,57.7429412 406.271029,56.9752941 406.615147,56.0863235 C406.954853,55.1995588 407.126912,54.2113235 407.126912,53.1172059 C407.126912,50.7988235 406.026176,48.8664706 403.824706,47.3311765 C401.621029,45.7958824 397.835735,44.1392647 392.471029,42.3635294 C390.128382,41.5451471 387.790147,40.6054412 385.4475,39.5466176 C383.111471,38.4877941 381.007059,37.1576471 379.154118,35.5517647 C377.294559,33.9502941 375.776912,32.0025 374.61,29.715 C373.438676,27.4275 372.851912,24.6458824 372.851912,21.3679412 C372.851912,18.09 373.471765,15.1363235 374.713676,12.5091176 C375.948971,9.87970588 377.704853,7.64514706 379.979118,5.80102941 C382.251176,3.95691176 385.001912,2.54073529 388.237941,1.55029412 C391.473971,0.559852941 395.120294,0.0657352941 399.181324,0.0657352941 C403.994559,0.0657352941 408.163676,0.5775 411.673235,1.60102941 C415.185,2.62455882 418.0725,3.75176471 420.342353,4.98264706 L415.698971,17.5782353 C413.702647,16.5547059 411.483529,15.6502941 409.037206,14.8627941 C406.5975,14.0797059 403.654853,13.6870588 400.209265,13.6870588 C396.355588,13.6870588 393.589412,14.2164706 391.904118,15.2730882 C390.212206,16.3341176 389.369559,17.9532353 389.369559,20.1370588 C389.369559,21.4363235 389.680588,22.5282353 390.300441,23.415 C390.9225,24.3039706 391.800441,25.1069118 392.936471,25.8216176 C394.068088,26.5407353 395.373971,27.1892647 396.858529,27.7694118 C398.338676,28.3495588 399.968824,28.9473529 401.762206,29.5627941 C405.476912,30.9282353 408.712941,32.2760294 411.463676,33.6083824 C414.216618,34.9385294 416.504118,36.4914706 418.328382,38.2672059 C420.154853,40.0429412 421.515882,42.1252941 422.409265,44.5142647 C423.300441,46.9032353 423.748235,49.8061765 423.748235,53.2186765 C423.748235,59.8429412 421.412206,64.9804412 416.731324,68.6333824 C412.050441,72.2885294 404.993824,74.1127941 395.568088,74.1127941 C392.398235,74.1127941 389.546029,73.9252941 386.996029,73.5480882 C384.452647,73.1730882 382.196029,72.7120588 380.237206,72.165 C378.271765,71.6201471 376.588676,71.04 375.179118,70.4267647 C373.762941,69.8113235 372.576176,69.2311765 371.616618,68.6841176 L376.156324,55.9848529 C378.291618,57.1473529 380.921029,58.1885294 384.053382,59.1083824 C387.185735,60.0304412 391.021765,60.4914706 395.568088,60.4914706" id="Fill-10" fill="#000000" mask="url(#mask-2)"></path>
            <path d="M457.097868,61.9303676 C458.611103,61.9303676 460.055956,61.8950735 461.434632,61.8266912 C462.808897,61.7583088 463.911838,61.6546324 464.736838,61.5178676 L464.736838,49.8509559 C464.119191,49.7141912 463.188309,49.5752206 461.946397,49.4384559 C460.711103,49.2994853 459.572868,49.2311029 458.540515,49.2311029 C457.097868,49.2311029 455.736838,49.3171324 454.46625,49.4891912 C453.19125,49.66125 452.072868,49.9899265 451.106691,50.4730147 C450.144926,50.9516912 449.388309,51.6046324 448.839044,52.4318382 C448.287574,53.2568382 448.011838,54.2891912 448.011838,55.5311029 C448.011838,57.9377206 448.816985,59.6053676 450.436103,60.53625 C452.055221,61.4649265 454.274338,61.9303676 457.097868,61.9303676 M455.858162,16.9171324 C460.397868,16.9171324 464.185368,17.4333088 467.214044,18.4656618 C470.242721,19.5002206 472.669191,20.9825735 474.493456,22.9061029 C476.315515,24.8340441 477.605956,27.1744853 478.364779,29.9252206 C479.116985,32.6781618 479.496397,35.7421324 479.496397,39.1127206 L479.496397,71.1178676 C477.294926,71.6031618 474.235368,72.1722794 470.308897,72.8208088 C466.389044,73.47375 461.639779,73.8024265 456.061103,73.8024265 C452.551544,73.8024265 449.368456,73.4913971 446.511838,72.87375 C443.655221,72.2561029 441.195662,71.2413971 439.130956,69.8274265 C437.068456,68.4178676 435.482426,66.57375 434.381691,64.3038971 C433.280956,62.0340441 432.729485,59.2458088 432.729485,55.9413971 C432.729485,52.7803676 433.364779,50.0958088 434.639779,47.8921324 C435.912574,45.6906618 437.619926,43.9325735 439.753015,42.6244853 C441.886103,41.3163971 444.330221,40.3744853 447.083162,39.7855147 C449.831691,39.2009559 452.692721,38.9075735 455.653015,38.9075735 C457.644926,38.9075735 459.420662,38.9980147 460.969191,39.1678676 C462.515515,39.3399265 463.768456,39.5627206 464.736838,39.83625 L464.736838,38.3913971 C464.736838,35.7796324 463.944926,33.6774265 462.363309,32.0936029 C460.779485,30.5119853 458.026544,29.7178676 454.104485,29.7178676 C451.483897,29.7178676 448.903015,29.9097794 446.359632,30.2869853 C443.814044,30.6663971 441.610368,31.2002206 439.753015,31.8884559 L437.789779,19.5002206 C438.683162,19.2244853 439.801544,18.9311029 441.147132,18.6200735 C442.488309,18.31125 443.948603,18.0399265 445.534632,17.7950735 C447.118456,17.5546324 448.783897,17.3472794 450.537574,17.1752206 C452.293456,17.0053676 454.066985,16.9171324 455.858162,16.9171324" id="Fill-11" fill="#000000" mask="url(#mask-2)"></path>
            <path d="M506.937132,72.6668382 C503.412132,65.7844853 499.834191,57.7308088 496.212132,48.5102206 C492.583456,39.2852206 489.148897,29.2396324 485.901838,18.3624265 L502.209926,18.3624265 C502.904779,21.0469853 503.714338,23.9565441 504.651838,27.0866912 C505.584926,30.2190441 506.548897,33.3844853 507.552574,36.5874265 C508.554044,39.7881618 509.555515,42.9006618 510.563603,45.9271324 C511.565074,48.9580147 512.551103,51.70875 513.515074,54.1859559 C514.417279,51.70875 515.38125,48.9580147 516.420221,45.9271324 C517.454779,42.9006618 518.471691,39.7881618 519.477574,36.5874265 C520.479044,33.3844853 521.443015,30.2190441 522.378309,27.0866912 C523.311397,23.9565441 524.123162,21.0469853 524.813603,18.3624265 L540.718015,18.3624265 C537.477574,29.2396324 534.040809,39.2852206 530.420956,48.5102206 C526.796691,57.7308088 523.223162,65.7844853 519.700368,72.6668382 L506.937132,72.6668382 Z" id="Fill-12" fill="#000000" mask="url(#mask-2)"></path>
            <path d="M580.980662,40.0438235 C580.914485,38.7357353 580.687279,37.4629412 580.310074,36.2232353 C579.930662,34.9835294 579.348309,33.885 578.554191,32.9210294 C577.762279,31.9570588 576.767426,31.1651471 575.563015,30.5452941 C574.356397,29.9254412 572.858603,29.6144118 571.074044,29.6144118 C569.353456,29.6144118 567.873309,29.91 566.631397,30.4945588 C565.396103,31.0791176 564.361544,31.8533824 563.536544,32.8173529 C562.711544,33.7813235 562.074044,34.8997059 561.62625,36.1702941 C561.174044,37.4452941 560.849779,38.7357353 560.642426,40.0438235 L580.980662,40.0438235 Z M544.848309,45.9269118 C544.848309,41.1092647 545.587279,36.8938235 547.067426,33.2827941 C548.549779,29.6673529 550.493162,26.6585294 552.901985,24.2475 C555.308603,21.8386765 558.079191,20.0144118 561.211544,18.7747059 C564.341691,17.5372059 567.560074,16.9173529 570.864485,16.9173529 C578.571838,16.9173529 584.664485,19.2754412 589.135809,23.9894118 C593.61375,28.7033824 595.848309,35.6386765 595.848309,44.7908824 C595.848309,45.6908824 595.815221,46.6680882 595.744632,47.7335294 C595.674044,48.8055882 595.607868,49.7475 595.541691,50.5725 L560.642426,50.5725 C560.98875,53.7401471 562.464485,56.2548529 565.085074,58.11 C567.699044,59.9673529 571.206397,60.8982353 575.611544,60.8982353 C578.437279,60.8982353 581.207868,60.6401471 583.923309,60.1261765 C586.640956,59.6055882 588.860074,58.9702941 590.585074,58.2114706 L592.647574,70.7033824 C591.822574,71.1180882 590.719632,71.5305882 589.343162,71.9452941 C587.966691,72.3555882 586.438015,72.7195588 584.750515,73.0283824 C583.060809,73.3416176 581.256397,73.5952941 579.332868,73.8048529 C577.404926,74.0077941 575.476985,74.1114706 573.55125,74.1114706 C568.660809,74.1114706 564.410074,73.3879412 560.80125,71.9452941 C557.188015,70.5026471 554.190221,68.5217647 551.816691,66.0092647 C549.440956,63.4967647 547.687279,60.5188235 546.553456,57.0798529 C545.417426,53.6364706 544.848309,49.9239706 544.848309,45.9269118 L544.848309,45.9269118 Z" id="Fill-13" fill="#000000" mask="url(#mask-2)"></path>
            <path d="M98.0799265,66.5726471 L94.7225735,72.2880882 C94.7225735,72.2880882 97.4005147,73.9557353 100.224044,73.9557353 C103.045368,73.9557353 102.046103,70.4991176 102.046103,70.4991176 L98.0799265,66.5726471 Z" id="Fill-14" fill="#000000" mask="url(#mask-2)"></path>
            <path d="M41.6360294,68.4747794 C39.3970588,71.4880147 34.4933824,73.9541912 30.7389706,73.9541912 L3.87132353,73.9541912 C0.116911765,73.9541912 -1.125,71.4880147 1.11617647,68.4747794 L47.3051471,6.30860294 C49.5441176,3.29536765 54.4477941,0.829191176 58.2044118,0.829191176 L85.0720588,0.829191176 C88.8264706,0.829191176 90.0661765,3.29536765 87.8272059,6.30860294 L41.6360294,68.4747794 Z" id="Fill-15" fill="#000000" opacity="0.9" mask="url(#mask-2)"></path>
            <path d="M85.51125,9.42529412 L90.6840441,2.46352941 C90.6840441,2.46352941 88.62375,1.06941176 85.51125,0.828970588 C82.39875,0.588529412 82.9325735,4.30544118 82.9325735,4.30544118 L85.0766912,7.41132353 L85.51125,9.42529412 Z" id="Fill-16" fill="#000000" mask="url(#mask-2)"></path>
            <g id="Group-23" mask="url(#mask-2)">
                <g transform="translate(50.735294, -0.887206)">
                    <g id="Group-19" transform="translate(3.205882, 1.000000)">
                        <mask id="mask-4" fill="white">
                            <use xlink:href="#path-3"></use>
                        </mask>
                        <g id="Clip-18"></g>
                        <path d="M36.1810294,67.9289706 C38.0560294,71.1826471 42.6619118,73.8429412 46.4163235,73.8429412 L73.2839706,73.8429412 C77.0383824,73.8429412 78.5758824,71.1826471 76.7008824,67.9289706 L41.3670588,6.62970588 C39.4898529,3.37823529 34.8839706,0.717941176 31.1295588,0.717941176 L4.26191176,0.717941176 C0.5075,0.717941176 -1.03,3.37823529 0.845,6.62970588 L36.1810294,67.9289706 Z" id="Fill-17" fill="#000000" opacity="0.8" mask="url(#mask-4)"></path>
                    </g>
                    <g id="Group-22">
                        <mask id="mask-6" fill="white">
                            <use xlink:href="#path-5"></use>
                        </mask>
                        <g id="Clip-21"></g>
                        <path d="M6.16411765,11.2958824 L1.55161765,3.29514706 C1.55161765,3.29514706 3.94058824,1.95838235 6.97588235,1.71794118 C10.0133824,1.4775 12.0847059,7.08485294 12.0847059,7.08485294 L10.3001471,8.72823529 L6.16411765,11.2958824 Z" id="Fill-20" fill="#000000" mask="url(#mask-6)"></path>
                    </g>
                </g>
            </g>
            <path d="M361.292868,64.4313971 C359.29875,61.6431618 357.181103,59.1130147 354.942132,56.3931618 C352.705368,53.6755147 350.433309,51.2556618 348.128162,48.9152206 C345.820809,46.5747794 343.636985,44.6711029 341.576691,43.0850735 C343.36125,41.2277206 345.271544,39.2777206 347.303162,37.1777206 C349.332574,35.0799265 351.344338,32.9931618 353.342868,30.8931618 C355.341397,28.7953676 357.269338,26.6468382 359.126691,24.5843382 C360.981838,22.5174265 362.704632,21.0483088 364.284044,18.8424265 L353.03625,18.8424265 C351.794338,21.0483088 350.311985,22.0277206 348.593603,23.9181618 C346.875221,25.8130147 345.050956,27.8269853 343.125221,29.8916912 C341.197279,31.9563971 339.103897,34.0034559 337.107574,35.9997794 C335.113456,38.0005147 333.714926,39.8402206 331.509044,41.4924265 L331.509044,-0.000220588235 L322.685515,1.69830882 L322.685515,71.7836029 L331.509044,71.7836029 L331.509044,46.8571324 C333.714926,48.1652206 335.596544,49.7843382 337.729632,51.7100735 C339.860515,53.6380147 342.028897,55.7556618 344.089191,58.0608088 C346.158309,60.36375 348.167868,62.3313971 350.058309,64.8438971 C351.953162,67.3563971 353.651691,69.5777206 355.096544,71.7836029 L366.350956,71.7836029 C364.972279,69.5777206 363.286985,67.2196324 361.292868,64.4313971" id="Fill-24" fill="#000000" mask="url(#mask-2)"></path>
        </g>
    </g>
</svg>