<?xml version="1.0" encoding="UTF-8"?>
<svg width="115px" height="74px" viewBox="0 0 115 74" version="1.1" xmlns="http://www.w3.org/2000/svg" xmlns:xlink="http://www.w3.org/1999/xlink">
    <!-- Generator: Sketch 45.2 (43514) - http://www.bohemiancoding.com/sketch -->
    <title>saidso</title>
    <desc>Created with Sketch.</desc>
    <defs>
        <polygon id="path-1" points="114.299557 73.6607143 0 73.6607143 0 0.183482143 114.299557 0.183482143 114.299557 73.6607143"></polygon>
    </defs>
    <g id="Page-1" stroke="none" stroke-width="1" fill="none" fill-rule="evenodd">
        <g id="saidso">
            <path d="M35.8892411,39.9564286 L35.8892411,44.6733929 C35.8892411,46.3180357 36.2762946,47.1403571 37.0504018,47.1403571 C37.8606696,47.1403571 38.6173661,46.7640179 39.3218304,46.0140179 L39.3218304,37.3836607 C38.6521875,37.0260714 37.9651339,36.8466071 37.2606696,36.8466071 C36.3472768,36.8466071 35.8892411,37.8845536 35.8892411,39.9564286" id="Fill-1" fill="#000000"></path>
            <path d="M58.7800446,30.3067411 L58.7800446,44.1911161 C58.7800446,46.1571875 59.3264732,47.1402232 60.4206696,47.1402232 C61.3019196,47.1402232 62.0961161,46.6754911 62.8005804,45.7460268 L62.8005804,26.8219196 C62.2715625,26.6437946 61.7425446,26.5540625 61.2135268,26.5540625 C59.5903125,26.5540625 58.7800446,27.8049554 58.7800446,30.3067411" id="Fill-3" fill="#000000"></path>
            <g id="Group-7" transform="translate(0.000000, 0.156473)">
                <mask id="mask-2" fill="white">
                    <use xlink:href="#path-1"></use>
                </mask>
                <g id="Clip-6"></g>
                <path d="M98.3961161,44.0349107 C98.3961161,48.8241964 96.4474554,51.2188393 92.5528125,51.2188393 C88.6206696,51.2188393 86.6559375,48.8416071 86.6559375,44.0884821 L86.6559375,29.4527679 C86.6559375,24.6996429 88.6032589,22.32375 92.4992411,22.32375 C96.4300446,22.32375 98.3961161,24.6822321 98.3961161,29.3991964 L98.3961161,44.0349107 Z M83.0117411,43.7670536 C83.0117411,48.7344643 80.9197768,51.2188393 76.7385268,51.2188393 C72.5920982,51.2188393 70.5202232,48.7170536 70.5202232,43.7134821 L70.5202232,36.4759821 L74.7563839,36.4759821 L74.7563839,43.23 C74.7563839,44.8398214 74.9331696,45.8670536 75.2920982,46.3130357 C75.6483482,46.7603571 76.1304911,46.9840179 76.7385268,46.9840179 C77.3452232,46.9840179 77.8367411,46.7603571 78.2130804,46.3130357 C78.5880804,45.8670536 78.7769196,44.8398214 78.7769196,43.23 L78.7769196,38.7273214 C78.7769196,37.3344643 78.5532589,36.2255357 78.1059375,35.4032143 C77.6586161,34.5822321 77.1054911,33.8764286 76.4438839,33.2858036 C75.7822768,32.6965179 75.0764732,32.1433929 74.3264732,31.62375 C73.5764732,31.1067857 72.8961161,30.4371429 72.2894196,29.6134821 C71.7885268,28.9358036 71.3679911,28.1228571 71.0291518,27.1746429 C70.6889732,26.2277679 70.5202232,25.0036607 70.5202232,23.5023214 L70.5202232,19.2675 C70.5202232,16.7657143 71.0023661,14.889375 71.9679911,13.6384821 C72.9322768,12.3875893 74.4510268,11.7621429 76.5242411,11.7621429 C80.5635268,11.7621429 82.5818304,14.2465179 82.5818304,19.2139286 L82.5818304,25.4858036 L78.3470089,25.4858036 L78.3470089,19.7496429 C78.3470089,18.1425 78.1943304,17.1139286 77.8903125,16.6666071 C77.5876339,16.220625 77.1322768,15.9969643 76.5242411,15.9969643 C75.9162054,15.9969643 75.4702232,16.220625 75.1836161,16.6666071 C74.8983482,17.1139286 74.7563839,18.1425 74.7563839,19.7496429 L74.7563839,22.8594643 C74.7563839,24.2175 74.9612946,25.2808929 75.3724554,26.0483036 C75.7822768,26.8183929 76.3005804,27.46125 76.9273661,27.9782143 C77.5514732,28.4965179 78.2304911,28.989375 78.9630804,29.4527679 C79.6956696,29.9175 80.3653125,30.508125 80.9733482,31.2219643 C81.5800446,31.9371429 82.0729018,32.8130357 82.4479018,33.8496429 C82.8229018,34.88625 83.0117411,36.2616964 83.0117411,37.9773214 L83.0117411,43.7670536 Z M66.8746875,50.6817857 L63.8733482,50.6817857 L63.3362946,49.0733036 C62.1711161,50.4326786 60.7420982,51.1116964 59.0479018,51.1116964 C56.1537054,51.1116964 54.7059375,48.94875 54.7059375,44.6241964 L54.7059375,30.2041071 C54.7059375,25.0572321 56.7778125,22.4844643 60.9242411,22.4844643 C61.2095089,22.4844643 61.5148661,22.4938393 61.8349554,22.51125 C62.1563839,22.5286607 62.4791518,22.5554464 62.8005804,22.5916071 L62.8005804,11.4407143 L66.8746875,11.4407143 L66.8746875,50.6817857 Z M46.9327232,16.5326786 L51.0068304,16.5326786 L51.0068304,12.2978571 L46.9327232,12.2978571 L46.9327232,16.5326786 Z M46.9327232,50.6817857 L51.0068304,50.6817857 L51.0068304,22.8594643 L46.9327232,22.8594643 L46.9327232,50.6817857 Z M43.3956696,50.6817857 L40.3916518,50.6817857 L39.8559375,49.0733036 C39.1528125,50.4326786 37.9554911,51.1116964 36.2639732,51.1116964 C33.2987946,51.1116964 31.8148661,49.2527679 31.8148661,45.53625 L31.8148661,39.2630357 C31.8148661,35.3322321 33.5304911,33.3661607 36.9617411,33.3661607 C37.8202232,33.3661607 38.6050446,33.6166071 39.3215625,34.1175 L39.3215625,29.93625 C39.3215625,28.4000893 39.1702232,27.4157143 38.8715625,26.9871429 C38.5729018,26.5585714 38.1590625,26.3442857 37.6313839,26.3442857 C37.1023661,26.3442857 36.6818304,26.5585714 36.3644196,26.9871429 C36.0470089,27.4157143 35.8889732,28.4000893 35.8889732,29.93625 L35.8889732,30.8469643 L31.9755804,30.8469643 L31.9755804,29.3991964 C31.9755804,27.0407143 32.4054911,25.2715179 33.2626339,24.0916071 C34.1211161,22.9130357 35.5675446,22.32375 37.6045982,22.32375 C41.4644196,22.32375 43.3956696,24.6996429 43.3956696,29.4527679 L43.3956696,50.6817857 Z M28.4385268,43.7670536 C28.4385268,48.7344643 26.3479018,51.2188393 22.1666518,51.2188393 C18.0188839,51.2188393 15.9470089,48.7170536 15.9470089,43.7134821 L15.9470089,36.4759821 L20.1831696,36.4759821 L20.1831696,43.23 C20.1831696,44.8398214 20.3599554,45.8670536 20.7188839,46.3130357 C21.0764732,46.7603571 21.5586161,46.9840179 22.1666518,46.9840179 C22.7733482,46.9840179 23.2648661,46.7603571 23.6412054,46.3130357 C24.0162054,45.8670536 24.2037054,44.8398214 24.2037054,43.23 L24.2037054,38.7273214 C24.2037054,37.3344643 23.9800446,36.2255357 23.5340625,35.4032143 C23.0867411,34.5822321 22.5309375,33.8764286 21.8706696,33.2858036 C21.2090625,32.6965179 20.5045982,32.1433929 19.7532589,31.62375 C19.0032589,31.1067857 18.3242411,30.4371429 17.7162054,29.6134821 C17.2153125,28.9358036 16.7961161,28.1228571 16.4559375,27.1746429 C16.1157589,26.2277679 15.9470089,25.0036607 15.9470089,23.5023214 L15.9470089,19.2675 C15.9470089,16.7657143 16.4304911,14.889375 17.3961161,13.6384821 C18.3590625,12.3875893 19.8778125,11.7621429 21.9523661,11.7621429 C25.9903125,11.7621429 28.0086161,14.2465179 28.0086161,19.2139286 L28.0086161,25.4858036 L23.7737946,25.4858036 L23.7737946,19.7496429 C23.7737946,18.1425 23.6224554,17.1139286 23.3184375,16.6666071 C23.0144196,16.220625 22.5590625,15.9969643 21.9523661,15.9969643 C21.3443304,15.9969643 20.8970089,16.220625 20.6117411,16.6666071 C20.3251339,17.1139286 20.1831696,18.1425 20.1831696,19.7496429 L20.1831696,22.8594643 C20.1831696,24.2175 20.3880804,25.2808929 20.7992411,26.0483036 C21.2090625,26.8183929 21.7287054,27.46125 22.3541518,27.9782143 C22.9782589,28.4965179 23.6572768,28.989375 24.3912054,29.4527679 C25.1224554,29.9175 25.7934375,30.508125 26.4014732,31.2219643 C27.0081696,31.9371429 27.4996875,32.8130357 27.8760268,33.8496429 C28.2510268,34.88625 28.4385268,36.2616964 28.4385268,37.9773214 L28.4385268,43.7670536 Z M104.414866,0.182678571 L9.82513393,0.182678571 C-0.277098214,0.221517857 0.000133928571,10.033125 0.000133928571,10.033125 L0.000133928571,50.7420536 C0.000133928571,59.0509821 9.8840625,60.9608036 9.8840625,60.9608036 L57.1380804,73.6532143 L57.1380804,73.66125 L57.1514732,73.6572321 L57.1608482,73.6599107 L57.1608482,73.6545536 L104.414866,60.9621429 C104.414866,60.9621429 114.298795,59.0523214 114.298795,50.7433929 L114.298795,10.033125 C114.298795,10.033125 114.578705,0.182678571 104.414866,0.182678571 L104.414866,0.182678571 Z" id="Fill-5" fill="#000000" mask="url(#mask-2)"></path>
            </g>
            <path d="M92.4988393,26.5000893 C91.9269643,26.5000893 91.4890179,26.714375 91.1863393,27.1429464 C90.8823214,27.5728571 90.7309821,28.5558929 90.7309821,30.0920536 L90.7309821,43.7621429 C90.7309821,45.2634821 90.8997321,46.2277679 91.2399107,46.6576786 C91.57875,47.08625 92.0166964,47.3005357 92.5524107,47.3005357 C93.1242857,47.3005357 93.5622321,47.08625 93.86625,46.6576786 C94.1689286,46.2277679 94.3216071,45.2634821 94.3216071,43.7621429 L94.3216071,30.0920536 C94.3216071,28.5558929 94.1608929,27.5728571 93.8394643,27.1429464 C93.5180357,26.714375 93.0707143,26.5000893 92.4988393,26.5000893" id="Fill-8" fill="#000000"></path>
        </g>
    </g>
</svg>