<?xml version="1.0" encoding="UTF-8" standalone="no"?>
<!-- Created with Inkscape (http://www.inkscape.org/) -->
<svg
   xmlns:dc="http://purl.org/dc/elements/1.1/"
   xmlns:cc="http://web.resource.org/cc/"
   xmlns:rdf="http://www.w3.org/1999/02/22-rdf-syntax-ns#"
   xmlns:svg="http://www.w3.org/2000/svg"
   xmlns="http://www.w3.org/2000/svg"
   xmlns:sodipodi="http://sodipodi.sourceforge.net/DTD/sodipodi-0.dtd"
   xmlns:inkscape="http://www.inkscape.org/namespaces/inkscape"
   width="744.09448"
   height="359.15582"
   id="svg14588"
   sodipodi:version="0.32"
   inkscape:version="0.44"
   version="1.0"
   sodipodi:docbase="F:\Logos"
   sodipodi:docname="Universal.svg">
  <defs
     id="defs14590" />
  <sodipodi:namedview
     id="base"
     pagecolor="#ffffff"
     bordercolor="#666666"
     borderopacity="1.0"
     inkscape:pageopacity="0.0"
     inkscape:pageshadow="2"
     inkscape:zoom="0.35"
     inkscape:cx="350"
     inkscape:cy="520"
     inkscape:document-units="px"
     inkscape:current-layer="layer1"
     inkscape:window-width="925"
     inkscape:window-height="573"
     inkscape:window-x="-12"
     inkscape:window-y="389"
     width="240.43mm"
     height="40.61mm"
     units="mm" />
  <metadata
     id="metadata14593">
    <rdf:RDF>
      <cc:Work
         rdf:about="">
        <dc:format>image/svg+xml</dc:format>
        <dc:type
           rdf:resource="http://purl.org/dc/dcmitype/StillImage" />
      </cc:Work>
    </rdf:RDF>
  </metadata>
  <g
     inkscape:label="Ebene 1"
     inkscape:groupmode="layer"
     id="layer1"
     transform="translate(539.3042,555.636)">
    <path
       id="path8596"
       style="fill:black;fill-rule:nonzero;stroke:none"
       d="M -41.161934,-326.32491 C -42.513659,-328.14725 -40.931652,-330.86068 -40.931652,-330.86068 L -139.81716,-330.86068 L -128.80319,-321.23851 C -126.3701,-320.26725 -123.32623,-317.84418 -121.93446,-314.12949 C -118.63027,-305.37832 -123.53649,-312.47744 -123.53649,-299.25057 C -123.53649,-287.07517 -126.97087,-289.04765 -126.97087,-289.04765 C -126.97087,-289.04765 -127.70173,-274.66934 -135.14123,-265.83814 C -139.8772,-261.08207 -136.20256,-257.14712 -136.20256,-257.14712 C -136.20256,-257.14712 -137.79458,-256.24598 -140.11749,-245.82276 C -140.86849,-242.44841 -136.54301,-237.2419 -132.78824,-238.54356 C -129.98467,-239.51475 -139.61692,-240.44596 -129.18365,-244.84152 C -125.14853,-246.54364 -128.44271,-249.75779 -128.44271,-249.75779 C -128.44271,-249.75779 -121.66413,-250.27839 -117.85929,-260.50144 C -111.13074,-259.52013 -113.6239,-263.64539 -99.76633,-266.62918 C -96.091655,-267.43024 -95.320639,-268.52153 -95.771263,-271.97598 C -96.231826,-275.43031 -91.255485,-271.47537 -77.518104,-285.49309 C -66.684346,-296.54712 -70.589303,-299.0303 -63.09978,-303.04535 C -55.199756,-307.26073 -54.458813,-302.68488 -51.815471,-306.11933 C -45.77776,-313.97927 -47.900502,-313.47866 -45.37727,-318.48496 L -43.604994,-321.25854 C -43.604994,-321.25854 -39.800195,-324.51266 -41.161934,-326.32491 M 4.3358163,-322.38996 C -18.392998,-251.57008 -82.324163,-196.48016 -163.33702,-196.48016 C -249.24604,-196.48016 -307.00937,-250.82906 -330.20876,-320.85794 C -306.06815,-255.62518 -240.41484,-208.85588 -163.21687,-208.85588 C -85.418129,-208.85588 -19.294173,-256.36612 4.3358163,-322.38996 M -135.75201,-439.36843 C -141.85973,-439.18818 -141.91981,-444.16452 -146.19522,-443.25337 C -150.4707,-442.34218 -149.72972,-446.928 -152.84368,-446.98804 C -155.1466,-447.04819 -158.40076,-448.1396 -159.48212,-446.50749 C -161.25433,-443.84409 -157.41949,-447.63887 -153.45446,-444.25459 C -147.81731,-439.45851 -148.2679,-442.72272 -144.90357,-439.98923 C -142.73087,-438.20694 -144.50311,-437.18573 -143.21142,-437.83652 C -140.77838,-439.05802 -136.9735,-437.23568 -136.9735,-437.23568 C -136.9735,-437.23568 -129.62423,-439.54858 -135.75201,-439.36843 M -112.4624,-430.52718 C -111.59134,-430.52718 -110.37978,-430.73744 -110.26965,-431.82881 C -111.14071,-432.27936 -111.81157,-432.83007 -112.90298,-432.71997 L -112.4624,-430.52718 M -132.24754,-432.71997 L -130.92589,-432.71997 C -129.82447,-433.04044 -128.95333,-431.72869 -128.7331,-430.95775 C -125.43893,-433.60105 -121.69416,-432.83007 -118.17968,-433.60105 C -121.69416,-435.03291 -124.6579,-437.87657 -128.7331,-437.99668 C -133.99976,-437.87657 -129.17364,-435.24317 -132.24754,-432.71997 M -163.33702,-555.63597 C -253.69166,-555.63597 -307.74023,-501.07677 -330.59931,-430.43707 C -312.62646,-480.0401 -270.69325,-519.1196 -217.88627,-535.34024 C -218.49698,-534.79954 -218.87756,-534.30894 -218.91757,-533.86844 C -223.80377,-530.81448 -222.12164,-527.31002 -224.55472,-526.49902 C -228.77009,-525.08719 -233.37583,-512.19087 -233.37583,-512.19087 C -233.37583,-512.19087 -230.7626,-510.43866 -238.94297,-501.25695 C -245.70153,-493.69735 -247.69411,-482.25288 -247.69411,-482.25288 C -247.69411,-482.25288 -243.23848,-474.09257 -244.07947,-464.67054 C -244.73034,-457.50144 -245.03067,-462.8182 -241.90674,-457.63157 C -240.08444,-454.57772 -238.10187,-443.95419 -236.9004,-448.08953 C -234.58746,-455.99954 -241.09575,-463.31885 -240.01435,-471.1888 C -239.77402,-470.19752 -237.53121,-474.31277 -237.61123,-470.59812 C -237.85153,-460.87575 -225.64602,-442.17193 -225.64602,-442.17193 C -225.64602,-442.17193 -230.20188,-437.53608 -225.44585,-437.53608 L -226.64739,-434.67247 C -226.64739,-434.67247 -223.1229,-434.87272 -220.84,-433.01037 C -218.55713,-431.13797 -216.58461,-428.83504 -214.50188,-428.83504 C -209.74592,-428.83504 -179.42739,-428.83504 -179.42739,-428.83504 C -179.42739,-428.83504 -176.93423,-439.47853 -174.91168,-441.29086 C -172.86911,-443.09313 -178.97687,-441.29086 -180.78912,-443.09313 C -182.60141,-444.9055 -183.73291,-441.51116 -184.63405,-439.69884 C -185.5452,-437.88647 -186.67662,-434.72253 -189.39004,-433.82136 C -192.10354,-432.91021 -198.65188,-432.45966 -200.00361,-432.45966 C -201.36523,-432.45966 -205.45041,-440.19949 -205.45041,-440.19949 C -209.06501,-446.04689 -206.37165,-453.33621 -202.26648,-460.42513 C -199.23259,-465.63175 -191.20237,-467.93464 -184.18349,-465.20126 C -176.33349,-471.39906 -174.44107,-464.73061 -167.48227,-467.74441 C -158.33064,-471.70951 -163.4371,-457.22103 -154.59593,-453.56645 C -150.94124,-463.31885 -162.94647,-470.65812 -155.40696,-475.25392 C -150.03013,-478.53812 -145.97499,-480.57067 -143.77218,-484.9663 C -140.63817,-491.2343 -139.4166,-495.81004 -136.99357,-496.63108 C -131.40648,-498.52354 -132.61803,-503.83021 -132.61803,-503.83021 C -132.61803,-503.83021 -126.67043,-502.09806 -122.06458,-506.43354 C -125.58907,-508.32596 -130.73562,-509.95803 -129.3839,-513.75282 C -127.79191,-518.22847 -115.8267,-509.13695 -112.30224,-516.46625 C -119.40125,-519.57026 -126.66046,-526.29874 -131.01596,-527.85079 C -133.98971,-524.6066 -135.85213,-525.90823 -139.68697,-528.94208 C -146.19522,-534.08863 -146.74597,-529.21249 -150.80107,-532.73698 C -154.05519,-526.22869 -149.15903,-526.74929 -147.66713,-525.10729 C -143.48183,-520.53147 -151.88246,-529.22254 -151.07144,-517.54771 C -150.87119,-514.53381 -155.34685,-513.96304 -158.67109,-520.53147 C -160.40329,-523.94579 -174.21083,-523.22487 -176.30346,-526.49902 C -174.39101,-530.30386 -158.1304,-543.85104 -133.17868,-540.60693 C -133.92964,-540.89729 -134.69064,-541.15764 -135.46162,-541.42801 C -69.60803,-531.6155 -15.789705,-487.43944 4.7363059,-428.9052 C -17.692141,-500.33575 -79.370442,-555.63597 -163.33702,-555.63597" />
    <path
       style="fill:black;fill-rule:nonzero;stroke:none"
       d="M -465.57067,-413.14509 L -493.12564,-413.14509 L -489.01035,-408.24899 L -489.01035,-372.063 C -489.01035,-363.93265 -494.39716,-360.49831 -502.43739,-360.49831 C -510.46761,-360.49831 -515.87444,-363.93265 -515.87444,-372.063 L -515.87444,-408.24899 L -511.74918,-413.14509 L -539.30422,-413.14509 L -535.17896,-408.24899 L -535.17896,-371.48229 C -535.17896,-353.4494 -525.0861,-346.49056 -502.43739,-346.49056 C -479.78864,-346.49056 -469.68584,-353.4494 -469.68584,-371.48229 L -469.68584,-408.24899 L -465.57067,-413.14509"
       class="ps024"
       id="path8615" />
    <path
       style="fill:black;fill-rule:nonzero;stroke:none"
       d="M -369.94918,-413.14509 L -393.17875,-413.14509 L -389.06347,-408.24899 L -389.06347,-375.30711 L -422.39587,-413.14509 L -443.28232,-413.14509 L -439.15709,-408.24899 L -439.15709,-352.65843 L -443.28232,-347.76219 L -420.04281,-347.76219 L -424.16803,-352.65843 L -424.16803,-386.19096 L -388.77315,-347.76219 L -374.06443,-347.76219 L -374.06443,-408.24899 L -369.94918,-413.14509"
       class="ps024"
       id="path8617" />
    <path
       style="fill:black;fill-rule:nonzero;stroke:none"
       d="M -316.4013,-347.76219 L -320.51655,-352.65843 L -320.51655,-408.24899 L -316.4013,-413.14509 L -344.14646,-413.14509 L -340.02127,-408.24899 L -340.02127,-352.65843 L -344.14646,-347.76219 L -316.4013,-347.76219"
       class="ps024"
       id="path8619" />
    <path
       style="fill:black;fill-rule:nonzero;stroke:none"
       d="M -224.90515,-413.14509 L -248.23477,-413.14509 L -244.11952,-408.24899 L -260.59043,-372.27325 L -276.47054,-408.24899 L -272.35536,-413.14509 L -299.80023,-413.14509 L -269.32147,-347.76219 L -255.68424,-347.76219 L -224.90515,-413.14509"
       class="ps024"
       id="path8621" />
    <path
       style="fill:black;fill-rule:nonzero;stroke:none"
       d="M -146.98626,-347.76219 L -146.98626,-365.50465 L -151.89248,-361.38947 L -185.32489,-361.38947 L -185.32489,-373.93536 L -164.14805,-373.93536 L -159.34195,-369.81013 L -159.34195,-391.09715 L -164.14805,-386.98197 L -185.32489,-386.98197 L -185.32489,-399.52786 L -151.89248,-399.52786 L -146.98626,-395.40263 L -146.98626,-413.14509 L -208.55439,-413.14509 L -204.43917,-408.24899 L -204.43917,-352.65843 L -208.55439,-347.76219 L -146.98626,-347.76219"
       class="ps024"
       id="path8623" />
    <path
       style="fill:black;fill-rule:evenodd;stroke:none"
       d="M -53.247259,-347.76219 L -70.999769,-373.54488 C -62.278703,-377.06937 -56.20098,-383.8379 -56.20098,-393.34997 C -56.20098,-404.23379 -62.85945,-413.14509 -81.493147,-413.14509 L -122.27487,-413.14509 L -118.15962,-408.24899 L -118.15962,-352.65843 L -122.27487,-347.76219 L -94.920186,-347.76219 L -99.045376,-352.65843 L -99.045376,-371.19193 L -90.804935,-371.19193 L -78.25901,-352.65843 L -82.374224,-347.76219 L -53.247259,-347.76219 z M -75.805901,-391.96828 C -75.805901,-387.26227 -80.321642,-383.43741 -86.589598,-383.43741 L -99.045376,-383.43741 L -99.045376,-399.52786 L -84.236611,-399.52786 C -79.921115,-399.52786 -75.805901,-397.36514 -75.805901,-391.96828"
       class="ps029"
       id="path8625" />
    <path
       style="fill:black;fill-rule:nonzero;stroke:none"
       d="M 29.567874,-366.86635 C 29.567874,-377.26958 21.257274,-383.05699 9.141912,-386.98197 C 1.3319973,-389.42499 -9.7821036,-391.18722 -9.7821036,-396.38383 C -9.7821036,-398.92708 -6.6781255,-400.69932 -1.3714178,-400.69932 C 5.6374443,-400.69932 17.252231,-397.75558 26.263651,-393.44016 L 26.263651,-415.30788 L 21.057065,-410.3015 C 15.550076,-412.5544 6.0379706,-414.91744 -0.57040183,-414.91744 C -22.79864,-414.91744 -29.937698,-405.10493 -29.937698,-396.1936 C -29.937698,-384.02817 -21.897502,-378.73148 -9.2814915,-374.32591 C 0.13049171,-371.09181 8.8415447,-370.79133 8.8415447,-365.40452 C 8.8415447,-360.79864 3.4346412,-360.20795 0.73122616,-360.20795 C -6.1775501,-360.20795 -18.593316,-362.66102 -29.55716,-369.81013 L -29.55716,-345.5994 L -24.360586,-351.28668 C -19.294173,-349.33418 -7.779582,-345.98995 1.6323645,-345.98995 C 20.956906,-345.98995 29.567874,-354.52074 29.567874,-366.86635"
       class="ps024"
       id="path8627" />
    <path
       style="fill:black;fill-rule:evenodd;stroke:none"
       d="M 127.39205,-347.76219 L 95.151059,-413.14509 L 73.123102,-413.14509 L 75.526187,-408.24899 L 46.389172,-347.76219 L 70.419724,-347.76219 L 66.314522,-352.65843 L 69.518549,-359.51711 L 100.65808,-359.51711 L 103.86219,-352.65843 L 99.75691,-347.76219 L 127.39205,-347.76219 z M 95.852026,-371.282 L 74.224522,-371.282 L 85.038256,-394.71178 L 95.852026,-371.282"
       class="ps029"
       id="path8629" />
    <path
       style="fill:black;fill-rule:nonzero;stroke:none"
       d="M 204.79027,-347.76219 L 204.79027,-365.50465 L 199.88401,-361.38947 L 168.44411,-361.38947 L 168.44411,-408.24899 L 172.54935,-413.14509 L 145.21465,-413.14509 L 149.31989,-408.24899 L 149.31989,-352.65843 L 145.21465,-347.76219 L 204.79027,-347.76219"
       class="ps024"
       id="path8638" />
    <path
       style="fill:black;fill-rule:nonzero;stroke:none"
       d="M 187.36813,-403.81328 C 187.36813,-399.27751 191.07284,-395.61289 195.57853,-395.61289 C 200.08426,-395.61289 203.78897,-399.27751 203.78897,-403.81328 C 203.78897,-408.35906 200.08426,-412.03369 195.57853,-412.03369 C 191.07284,-412.03369 187.36813,-408.35906 187.36813,-403.81328 z M 186.46699,-403.81328 C 186.46699,-408.81966 190.57223,-412.8748 195.57853,-412.8748 C 200.58491,-412.8748 204.59002,-408.81966 204.59002,-403.81328 C 204.59002,-398.80697 200.58491,-394.76185 195.57853,-394.76185 C 190.57223,-394.76185 186.46699,-398.80697 186.46699,-403.81328"
       class="ps024"
       id="path8647" />
    <path
       style="fill:black;fill-rule:evenodd;stroke:none"
       d="M 198.98288,-407.35779 C 198.08174,-408.12881 196.98032,-408.47924 195.87893,-408.47924 C 193.17548,-408.47924 191.17296,-406.4066 191.17296,-403.78324 C 191.17296,-401.15992 193.17548,-399.06726 195.77885,-399.06726 C 197.08048,-399.06726 198.1819,-399.51781 199.083,-400.3189 L 199.083,-401.51035 C 198.28198,-400.50909 197.08048,-399.88833 195.77885,-399.88833 C 193.67613,-399.88833 192.0741,-401.74063 192.0741,-403.78324 C 192.0741,-405.83586 193.67613,-407.65816 195.77885,-407.65816 C 197.08048,-407.65816 198.1819,-407.12751 198.98288,-406.18629 L 198.98288,-407.35779"
       class="ps029"
       id="path8649" />
  </g>
</svg>
