<svg width="302" height="74" viewBox="0 0 302 74" xmlns="http://www.w3.org/2000/svg"><title>zurich</title><g fill-rule="nonzero" fill="#000"><path d="M36.5.694C16.42.694.21 16.904.21 36.984.21 45.21 2.87 52.952 7.71 59l30.242-39.677H31.66c-3.386 0-6.773.242-8.95.725-1.452.242-2.662.726-3.63 1.452-1.21.726-2.66 2.66-3.628 4.355 0 .242-.242.484-.484.968l-2.178-.242 2.904-11.37h37.74l-30 39.92c1.937-.243 2.663-.243 4.356-.243 1.21 0 3.145 0 5.565.242l5.322.24c1.936 0 3.63.243 4.84.243 2.66 0 4.596-.242 6.29-.726 1.45-.484 2.66-.968 3.87-1.935 2.178-1.452 4.113-3.87 5.323-6.05 0-.24.242-.483.484-.967l1.693.484c-.483 1.935-.725 2.66-1.693 4.596-1.694 3.63-3.387 6.05-6.05 7.984-2.66 1.935-5.32 2.903-8.708 2.903h-.484c-2.42 0-4.355-.242-10.403-1.21-6.05-.967-9.195-1.21-12.34-1.21-1.935 0-3.87.243-5.806.485-2.662.484-3.63.726-6.05 1.693 6.533 7.26 16.21 11.856 26.856 11.856 20.08 0 36.29-16.21 36.29-36.29C72.79 16.903 56.58.694 36.5.694M195.21 34.806c-1.21.726-2.662 1.21-4.355 1.452-.726 0-1.452.242-1.936.242h-.485V23.435h.968c1.694 0 3.387.242 4.84.484.967.24 1.692.725 2.418 1.21 1.21.967 1.937 2.418 1.937 4.354 0 1.693-.484 2.903-1.452 3.87-.726.727-1.45 1.21-1.935 1.452zm13.306 17.42l-4.113-4.113c-.968-1.21-1.935-2.178-2.66-2.903l-5.566-6.533c.726-.242.968-.242 1.452-.483 1.693-.726 3.144-1.452 4.354-2.42 1.45-1.21 2.177-2.42 2.903-4.113.242-.966.484-1.692.484-2.66 0-2.177-.725-4.113-2.418-5.806-1.452-1.452-3.387-2.662-5.807-3.146-1.693-.483-3.145-.483-6.048-.725H178.516c.726.483.726.725 1.21 1.45.242.485.484.97.726 1.21.242.727.242 1.936.242 3.872V49.08c0 1.694 0 2.662-.484 3.388-.242.484-.242.726-.484 1.21-.242.483-.484.725-1.21 1.21h11.13c-.485-.485-.727-.727-.97-1.21-.24-.243-.482-.726-.482-.968-.242-.726-.484-1.694-.484-3.387v-9.679l6.532 7.742c.242.484.726.968 1.452 1.694.725.968 1.45 1.452 1.693 1.936 1.21 1.21 2.42 2.178 3.63 2.903.967.483 1.935.725 3.386.725h6.29c-.484-.484-.726-.726-1.21-.968.242-.483-.242-.967-.968-1.45zm15-26.37c0-2.42 0-2.904.484-3.872 0-.484 0-.726.242-1.21.484-.484.726-.968 1.21-1.45h-11.13c.726.724.968.966 1.21 1.45s.484.726.484 1.21c.242.968.242 1.693.484 3.87v23.228c0 1.208-.242 2.66-.484 3.386-.242.242-.242.726-.484.967-.242.484-.484.484-.967 1.21h11.13c-.485-.484-.727-.726-.97-1.21-.24-.24-.483-.725-.483-.967-.242-.726-.484-1.936-.484-3.145v-21.29l-.242-2.178zm33.87 23.71c-2.176.966-4.112 1.208-6.29 1.208-3.628 0-6.773-1.21-9.193-3.87-2.177-2.42-3.63-5.807-3.63-9.678 0-3.63 1.21-7.258 3.146-9.436.967-.967 1.935-1.935 3.145-2.66 1.935-1.21 4.354-1.695 6.774-1.695 2.176 0 4.354.484 6.29 1.21 1.21.484 1.693.726 2.902 1.694v-6.775c-.967-.242-1.21-.484-2.177-.484-1.936-.483-4.113-.725-6.29-.725-3.87 0-7.017.726-10.162 1.935-1.693.726-3.387 1.694-4.838 2.904-4.355 3.387-6.775 8.467-6.775 14.516 0 5.564 2.178 10.645 6.533 13.79 3.387 2.66 7.983 4.113 13.306 4.113 3.386 0 6.53-.484 9.918-1.694.242 0 .242 0 .484-.243v-6.29c-.967.484-1.21.726-1.693.968 0 .484-.727.968-1.453 1.21zM299 25.855c0-1.453.242-2.662.484-3.63.242-.484.242-.968.484-1.21.484-.484.726-.968 1.45-1.45h-11.612c.726.482.968.724 1.21 1.45.242.484.484.726.484 1.21.242.726.484 1.935.484 3.63v8.467h-15.968V27.79v-4.113c0-.483.242-.967.242-1.45.242-.727.968-1.937 1.452-2.42l.484-.484h-11.37c.724.725.966.967 1.208 1.45.242.243.484.727.726 1.21.242.97.242 1.452.484 3.63v21.532c0 1.936 0 2.903-.242 3.63 0 .483-.242.967-.242 1.45-.242.727-.726 1.452-1.452 1.936 0 0-.24.243-.483.243h11.13c-.485-.484-.727-.726-.97-1.21-.24-.24-.483-.725-.483-1.21-.242-.967-.484-1.693-.484-3.144V38.193h15.968v8.71c0 1.935 0 2.66-.242 3.628 0 .484-.242.968-.484 1.452-.242.726-.726 1.21-1.21 1.935 0 0-.242.24-.483.483h11.37c-.483-.484-.725-.726-.967-1.21-.242-.483-.484-.725-.726-1.21-.242-.725-.484-1.45-.484-3.144V27.547l.242-1.693zm-174.435 23.95c-1.452.242-3.388.484-5.565.484h-8.226l21.532-30.967h-27.822l-3.387 7.5c1.21-.484 1.693-.726 2.66-1.21 1.695-.726 3.388-1.21 5.082-1.452 1.45-.24 2.902-.483 5.08-.483h6.774L98.677 54.645h30.484l3.63-7.984c-1.21.727-1.693.97-2.66 1.453-1.695.726-3.63 1.21-5.565 1.693zm38.71-29.032c.24.484.483.726.483 1.21.242.968.242 1.693.242 3.63V39.16c0 2.905 0 4.598-.242 6.05-.242.967-.484 1.935-.968 2.66-.967 1.453-2.42 2.42-4.355 2.904-.725.242-1.693.242-2.42.242-3.144 0-5.563-1.21-7.015-2.903-.968-1.452-1.21-2.903-1.21-6.532V28.033 23.92c0-.726.242-1.21.242-1.694.242-.726.726-1.936 1.452-2.66l.242-.243h-11.37c.725.483.967.967 1.45 1.45.242.485.484.727.484 1.21.242.485.242.97.242 1.694v14.275c0 3.87 0 4.596.242 6.29.242 2.66.968 4.597 2.42 6.532 2.66 3.387 7.016 5.08 12.58 5.08 2.66 0 5.08-.483 7.016-1.21 1.936-.725 3.87-1.934 5.323-3.628 1.693-1.935 2.66-4.113 2.903-6.774.242-1.694.242-3.63.242-6.29V25.37c0-1.45 0-2.418.242-3.144.242-.484.242-.968.726-1.452s.726-.968 1.45-1.45h-11.37c.484.482.726.724.968 1.45z"/></g></svg>