<?xml version="1.0" encoding="UTF-8"?>
<svg width="311px" height="181px" viewBox="0 0 311 181" version="1.1" xmlns="http://www.w3.org/2000/svg" xmlns:xlink="http://www.w3.org/1999/xlink">
    <!-- Generator: Sketch 43.2 (39069) - http://www.bohemiancoding.com/sketch -->
    <title>Fill 1</title>
    <desc>Created with Sketch.</desc>
    <defs></defs>
    <g id="Page-1" stroke="none" stroke-width="1" fill="none" fill-rule="evenodd" opacity="0.949501812">
        <g id="01" transform="translate(-744.000000, -170.000000)" fill="#F0544F">
            <g id="Hero" transform="translate(0.000000, 1.000000)">
                <g id="Campus-Logo" transform="translate(740.000000, 160.000000)">
                    <path d="M298.312416,80.0273756 C297.967002,84.3698383 297.350193,88.8183611 295.636462,92.8726604 C294.392174,95.8169969 292.560416,98.504521 290.116517,100.581699 C287.184504,103.073779 283.427634,104.525269 279.55407,104.045663 C278.959932,103.972289 278.371796,103.844216 277.803664,103.653441 C276.544039,103.2292 275.453786,102.397395 275.003015,101.109999 C277.149513,100.002037 280.506957,97.5232979 282.77615,92.2476393 C283.837729,89.7789059 284.490547,86.6291196 282.702132,84.3231452 C281.055751,82.2006081 278.138408,81.6336199 275.735185,82.7575906 C271.402181,84.7847403 268.712891,89.2539415 267.303898,93.65377 C267.222546,93.9072471 266.686422,96.3152794 266.611071,96.323284 C265.366783,96.456693 264.129829,96.5921031 262.900878,96.7301814 C261.557233,96.8702608 260.185582,97.0303516 258.791259,97.2051174 C240.962462,99.3109784 224.758708,101.909786 210.043965,104.854122 C211.565651,97.1617595 213.298719,91.6613068 213.34473,91.5178921 C213.340729,91.6866545 214.846411,92.6865549 215.015784,92.8059559 C215.629926,93.2415363 216.266073,93.6470996 216.925559,94.0113061 C218.229862,94.7323817 219.634187,95.3033722 221.106528,95.5628527 C223.982528,96.0704739 226.569127,95.061902 228.816981,93.2688851 C233.47206,89.5554458 236.426077,83.7074627 238.743281,78.3530928 C239.442776,76.7375099 240.059586,75.0879077 240.611714,73.416293 C242.318776,71.2590696 244.159869,68.8136828 246.128325,66.0534507 C245.908274,70.4999725 246.347043,74.9831816 247.790711,79.2129137 C249.30106,83.6374229 252.986581,86.7805388 258.33382,87.140076 C259.754149,87.2354634 261.193816,87.0426875 262.518123,86.5210583 C266.249654,85.0515582 269.006959,81.9718117 271.188131,78.7373107 C271.903631,77.6767092 272.563117,76.5774191 273.163922,75.4474449 C273.537342,75.7396106 273.924099,76.0371127 274.340195,76.3466215 C274.359533,76.3606295 274.378204,76.3719692 274.397542,76.3866442 C275.42778,77.2784833 276.758755,78.1409725 278.425141,78.6959539 C287.07848,82.2092797 293.511303,75.2239849 297.708276,67.6863768 C298.435111,71.7573522 298.639825,75.9057048 298.312416,80.0273756 L298.312416,80.0273756 Z M219.473483,66.8619092 C219.475484,66.8452331 219.478151,66.8312252 219.479484,66.8152161 C219.595511,65.7652873 219.741545,64.6833404 219.923587,63.5807151 C220.447042,60.4202561 221.159207,57.2571289 222.407496,54.2967833 C223.533757,51.6259353 225.062778,48.9290725 227.457333,47.2020931 C230.30866,45.1455935 231.206868,48.5308467 231.162858,50.8434916 C231.022826,58.1869895 229.743196,65.4998034 227.396652,72.4584165 C226.787844,74.2654412 222.974294,84.2891259 220.001605,80.9945908 C219.789556,80.7591239 219.634854,80.4722946 219.543499,80.1687891 C218.301878,76.0317763 218.976701,71.1116527 219.473483,66.8619092 L219.473483,66.8619092 Z M165.484975,133.65779 L163.67989,134.510941 C163.599871,134.548295 163.506516,134.499601 163.491846,134.412218 L161.539394,122.893019 C161.528725,122.828982 161.5654,122.76628 161.626747,122.744935 L163.427831,122.111909 C163.505849,122.08456 163.589202,122.133922 163.603205,122.215301 L165.559659,133.514376 C165.569661,133.573076 165.539654,133.631776 165.484975,133.65779 L165.484975,133.65779 Z M159.880343,136.371329 L158.075258,137.22448 C157.995239,137.262501 157.901218,137.212473 157.886548,137.12509 L155.932095,124.996879 C155.922092,124.932842 155.958768,124.870807 156.020115,124.849462 L157.820532,124.217103 C157.899217,124.189754 157.983237,124.239783 157.996573,124.321162 L159.955027,136.229249 C159.964362,136.287949 159.933688,136.345982 159.880343,136.371329 L159.880343,136.371329 Z M152.410612,140.184825 C152.385273,140.227516 152.365268,140.260868 152.339262,140.302892 L150.354136,141.356156 L150.354136,141.317468 L150.322128,141.335478 L143.686591,130.047076 C143.645248,129.977036 143.675922,129.886318 143.751273,129.855634 L145.655714,129.079861 C145.717728,129.054513 145.788411,129.079194 145.821752,129.13656 L150.105411,136.547429 C150.174094,136.665496 150.354136,136.617469 150.354136,136.480725 L150.354136,127.264164 C150.354136,127.2088 150.388144,127.160105 150.438822,127.139427 L152.22857,126.436362 C152.315924,126.401675 152.410612,126.466379 152.410612,126.560432 L152.410612,140.184825 Z M145.460335,143.99632 L143.760608,145.010229 C143.709263,145.040913 143.643914,145.033575 143.600571,144.991551 L140.490517,142.015864 C140.405164,141.934484 140.264465,141.994518 140.264465,142.112585 L140.277134,146.827926 C140.253796,146.869283 140.234458,146.901968 140.211119,146.943325 L138.421371,147.979246 C138.332684,148.030608 138.221325,147.966572 138.221325,147.863847 L138.199986,139.880653 C138.185316,139.847301 138.172647,139.817951 138.158643,139.784598 L133.069464,134.91517 C133.002115,134.8498 133.020786,134.737069 133.105473,134.697713 L134.998578,133.815213 C135.04859,133.791866 135.107937,133.801872 135.147279,133.839894 L137.964599,136.550764 C138.049952,136.632811 138.190651,136.57211 138.190651,136.45471 L138.179982,132.373062 C138.207988,132.329037 138.229993,132.295018 138.258667,132.250993 L140.047748,131.445202 C140.136435,131.405847 140.235791,131.469883 140.235791,131.566604 L140.255129,138.698649 C140.269799,138.732001 140.281802,138.760684 140.296472,138.794037 L145.484341,143.786201 C145.547689,143.846902 145.535686,143.951628 145.460335,143.99632 L145.460335,143.99632 Z M133.81497,150.756154 L132.038559,151.848773 C131.963208,151.895467 131.864519,151.856778 131.840513,151.772063 L129.551316,143.7842 L129.518642,147.733106 C129.495303,147.773796 129.475965,147.806481 129.452626,147.847171 L127.776905,148.837733 C127.718891,148.871752 127.644207,148.857077 127.603531,148.803713 L125.669083,146.281616 C125.579062,146.164216 125.392352,146.259604 125.435696,146.401684 L127.946944,154.681713 C127.964282,154.738412 127.942276,154.79978 127.892932,154.831799 L126.134524,155.986453 C126.05984,156.035815 125.95915,155.999127 125.933811,155.913078 L121.45544,140.85187 C121.438103,140.791836 121.464776,140.727133 121.519455,140.696449 L123.294533,139.730568 C123.352546,139.699217 123.42523,139.714559 123.464572,139.767255 L127.428824,145.033575 C127.506175,145.1363 127.66888,145.081602 127.66888,144.95353 L127.65621,137.171783 L127.65621,137.171116 L127.890264,137.065723 L129.533979,136.320634 C129.607329,136.287282 129.694016,136.326637 129.716688,136.404682 L133.872984,150.604735 C133.889654,150.6621 133.865649,150.724136 133.81497,150.756154 L133.81497,150.756154 Z M121.626813,158.667307 L119.885076,159.88333 C119.809726,159.936027 119.704368,159.898005 119.680362,159.808621 L117.489188,151.760724 C117.448512,151.610638 117.228461,151.639321 117.227127,151.794743 L117.199121,155.7163 C117.175782,155.756323 117.156444,155.789008 117.133105,155.829698 L115.573411,156.752221 C115.517398,156.784906 115.446048,156.773566 115.404038,156.724205 L112.856115,153.74785 C112.76276,153.638455 112.586052,153.735177 112.627395,153.873255 L115.358028,162.999764 C115.374031,163.053795 115.354693,163.112495 115.30935,163.145847 L113.343561,164.582662 C113.26821,164.637359 113.161519,164.600672 113.136179,164.510621 L108.497105,147.888528 C108.480434,147.828493 108.507107,147.765124 108.561786,147.735774 L110.37754,146.750549 C110.436221,146.718531 110.508904,146.735207 110.548246,146.78857 L115.19399,153.078137 C115.271341,153.182196 115.436046,153.126832 115.434712,152.997425 L115.335356,143.922945 C115.359361,143.880921 115.378699,143.847569 115.402705,143.805545 L117.38383,142.679573 C117.459848,142.636216 117.556537,142.677572 117.578542,142.762287 L121.679492,158.523892 C121.693495,158.577923 121.672157,158.635289 121.626813,158.667307 L121.626813,158.667307 Z M118.618116,92.1148973 C117.88728,95.686256 116.912388,98.9094173 115.962834,101.537574 C115.306015,103.322587 111.475795,111.9855 108.875192,108.369449 C107.825616,106.909955 107.717591,104.704037 107.688251,103.129144 C107.628903,99.9026472 107.876294,96.679486 108.414419,93.4976815 C109.073238,89.5968026 109.797406,85.6125431 111.441787,81.9778151 C112.229969,80.2348266 113.188858,78.5678812 114.303116,77.0129994 C115.185321,75.7823015 116.778357,74.038646 118.44941,74.1206925 C118.972865,74.1460402 119.305609,74.4889013 119.521659,74.9785123 C119.526327,74.9871839 119.531661,74.9918532 119.536329,75.0011918 C121.480779,78.8747219 118.624118,92.1115621 118.618116,92.1148973 L118.618116,92.1148973 Z M316.769359,23.5840323 C315.17899,18.9780868 310.912002,15.4554224 306.081549,14.7877104 C301.373792,14.1366745 296.421978,16.2445366 293.607992,20.0720405 C287.968019,27.0353229 288.92024,38.3470713 293.601324,53.4523044 C293.007853,56.4740181 292.208335,59.6698305 290.457262,62.2539627 C289.667746,63.4186232 288.457466,64.5712768 286.976456,64.633312 C283.870403,64.7633858 282.800155,61.3080929 282.406731,58.8453629 C282.184679,57.4572424 282.079321,56.0197605 282.146004,54.6069592 C282.158673,53.3495795 282.233357,51.9401135 282.394728,50.3378715 C282.742808,46.8785763 283.156904,43.4239505 283.460975,39.959986 C283.554997,38.8940482 283.744374,37.5726321 283.696363,36.3152524 C283.931751,32.6705187 280.058853,29.9042832 276.996811,29.6134516 C273.934768,29.32262 273.940769,31.1416516 273.940769,31.1416516 C274.077467,32.9726901 273.742723,36.577401 273.36797,39.7698782 C273.205932,40.8604967 273.060565,41.9537834 272.935203,43.045069 C272.479764,46.6697913 271.154124,54.2427527 269.117652,61.0919703 C269.074308,61.2247123 269.0383,61.3601224 268.993623,61.4928644 C268.515512,62.9283451 267.718661,65.3050263 266.520383,67.2154431 C266.427028,67.3468509 266.350344,67.4682531 266.27566,67.5889882 C265.161402,69.2285848 263.725069,70.4252634 261.905981,70.181792 C261.594575,70.1397682 261.237826,70.0270376 261.000438,69.8069127 C259.994871,69.1392007 259.408069,67.6710348 259.136006,66.339613 C258.641891,63.9235762 258.755918,61.3120952 258.871945,58.8627061 C258.99464,56.2659001 259.292042,53.6764315 259.786823,51.1236505 C260.603012,46.9119286 261.889977,42.8316146 263.140267,38.7352915 C263.356984,38.0475681 263.561031,37.3565095 263.741073,36.6581135 C264.005134,35.6341995 264.135164,34.5135639 263.224953,33.7891531 C262.369422,33.1087672 261.143137,32.9973707 260.092894,32.9960366 C259.655459,32.9953696 259.240697,33.0527355 258.845272,33.1554604 C257.48429,33.4329511 255.751888,34.2427437 254.202863,36.3706171 C252.468461,38.7526346 250.956111,42.9156622 249.946543,46.1741769 C249.94721,46.1808473 249.94721,46.1875178 249.947877,46.1941882 C249.903867,46.3215938 249.859857,46.442996 249.814513,46.5810743 C248.067441,51.9281067 245.764908,54.9491533 244.018503,56.5987555 C244.27923,53.5083362 244.301902,50.3932362 243.900476,47.3421726 C243.881805,47.244784 243.871136,47.1467284 243.860467,47.0473387 C243.723101,46.0687838 243.547061,45.0962322 243.317007,44.1350204 C241.751311,37.5979798 236.583447,31.4698378 229.204404,32.9626844 C224.457971,34.0726472 221.578638,36.7928565 219.982268,38.9180618 C218.319216,41.2467157 217.434344,43.7207855 217.02825,45.1155765 C214.98711,42.8542941 211.147554,41.6396052 208.720992,42.6975385 C207.867461,43.0697496 207.098616,43.7774843 206.815884,44.6846655 C206.500477,45.6952386 206.849892,46.6424424 207.075277,47.6236656 C207.313332,48.6589193 207.468702,49.7121833 207.564057,50.7701166 C208.010827,55.7275948 207.47537,60.7144229 206.781209,65.6232068 C206.103719,70.418593 205.068146,75.2306553 202.900977,79.5951305 C201.770715,81.872422 200.307042,84.0443204 198.148542,85.4511182 C197.702439,85.7419498 197.20299,85.9620746 196.675534,86.0381177 C193.524804,86.4897072 192.844647,83.2418653 192.61326,81.249402 C192.42455,79.6218123 192.378539,77.9788805 192.505235,76.3452874 C193.157386,67.9371857 196.648862,60.06272 200.537763,52.6031562 C200.852502,51.9994805 201.178578,51.3651207 201.168575,50.6840678 C201.15924,50.0717206 200.877175,49.4973948 200.5571,48.9744316 C199.486852,47.2254397 197.859142,45.6672227 195.970038,44.8320824 C195.658632,44.6946711 195.337891,44.5772712 195.009815,44.484552 C192.29652,43.7194514 189.552551,44.7713813 187.3207,46.3069188 C184.990827,47.9084938 183.031707,50.0310308 181.30664,52.2549587 C181.068585,52.5617994 180.834531,52.8719753 180.605144,53.1848194 C180.605144,53.1848194 180.594475,53.2001614 180.591808,53.2034966 C180.031011,53.9699313 179.567571,54.6549865 179.222157,55.1866213 C179.028779,55.4727836 178.824065,55.7796243 178.614683,56.0964706 C177.746482,52.7479049 175.643995,49.2392484 170.624165,49.4426972 C162.092189,49.7875594 157.707173,60.4309288 156.911655,62.5674738 C155.413308,59.6678293 151.211668,57.6039922 148.423688,58.4738189 C147.630171,58.7219596 146.892667,59.1795524 146.465901,59.9106337 C145.572361,61.443503 146.065142,63.4779902 146.182503,65.122256 C146.339872,67.3288407 146.098483,69.6448208 145.891768,71.8413999 C145.210277,79.0614945 143.25049,86.0034314 140.793254,92.8006195 C139.925053,95.2019814 138.907484,97.7013989 137.130405,99.5858009 C135.405339,101.415505 134.216397,101.791719 133.445552,101.690328 C130.356169,101.237404 130.938971,91.5792602 130.981647,90.9348948 C131.303055,86.6744786 132.15792,82.2613092 132.949437,79.4737283 C134.36043,74.5082456 136.604283,69.7822321 137.096397,68.5141796 C137.405136,67.7163938 137.736546,66.9012649 137.733878,66.0314383 C137.730544,65.0622219 137.23643,64.231751 136.493591,63.6327446 C135.000578,62.4267273 133.00545,62.0091572 131.142351,62.4167216 C129.664676,62.7369032 128.339035,63.5246833 127.292126,64.6086314 C126.534617,65.3937433 125.915807,66.3155994 125.449032,67.3008248 C125.425027,67.3508532 125.402355,67.4008816 125.379016,67.4509099 C125.334339,67.5502996 125.198307,67.555636 125.145629,67.4602486 C124.592834,66.4490084 123.118492,64.7186938 119.457644,63.8488672 C108.113016,61.1526714 99.9677951,75.8269935 96.8870814,84.5272609 C95.4920915,88.4681625 94.7405841,92.5791606 94.2458028,96.7101701 C94.0370877,98.3490995 93.8997226,99.6578417 93.8077013,100.715108 C93.8077013,100.715108 93.5449737,102.841647 93.685673,104.766739 C90.6289648,110.119108 86.9341087,115.621562 86.6967204,115.973761 C78.2067534,127.912532 63.1285933,144.840799 47.424955,141.971839 C34.2825767,139.845966 31.4792605,125.154301 31.6706382,112.125579 C31.8486795,107.334862 32.2907819,102.553484 33.0016133,97.8121283 C36.3823965,75.2573371 45.2337806,52.822614 59.6951311,35.0498681 C63.4753403,30.405234 67.3302334,25.7039011 72.1166757,22.0484948 C74.1424784,20.5016175 76.4010017,19.0608004 78.7895551,18.1482829 C81.1354319,17.2511074 84.0587759,16.8121918 86.0739094,18.6198837 C87.484903,19.885935 88.1343868,21.8090256 88.4824675,23.6200527 C89.0205921,26.4209745 88.9359059,29.3439655 88.6325022,32.1675668 C87.5115759,40.2754983 85.0870141,48.0272278 80.866703,55.0752248 C77.4459104,60.7884649 72.9075256,66.991316 66.7601013,69.9523285 C65.191738,70.7074234 63.5066809,71.2090412 61.7676113,71.3491207 C61.1861433,71.3944797 60.6000075,71.3944797 60.0192062,71.3431173 C58.7515792,71.2323878 57.5252951,70.9595664 56.3010114,71.4378377 C51.8933236,73.1601478 54.6506291,79.5177533 56.7077723,82.0265094 C59.0416464,84.8727902 62.4851109,86.783874 66.0406013,87.6303541 C67.0368321,87.8678221 68.0524007,88.0245776 69.0733039,88.0952844 C71.0430937,88.2313616 73.0175511,88.0439219 74.9313278,87.5876632 C80.2645635,86.3169425 84.9596513,82.1372388 88.1103813,77.7994454 C91.6445334,72.9346866 94.5018621,67.5796496 96.5896791,61.9411186 C98.8001913,55.9710662 100.364554,49.5407528 101.153403,43.2251711 C101.984262,36.5814033 101.714867,29.9729889 100.177177,23.4439528 C99.2916385,19.6838204 97.8773108,15.9203527 95.3580605,12.9493345 C90.3488999,7.04398543 82.4864116,5.15958342 75.1047013,7.00596387 C67.1841996,8.98775444 60.4273008,14.4168334 54.6446277,19.9553077 C54.2325322,20.3501983 53.823104,20.7490912 53.4163431,21.1499852 C50.4743281,24.0542989 47.6636769,27.0920217 44.9903909,30.2451432 C38.6749277,37.6940343 33.2403352,45.8740066 28.6546061,54.4935616 C22.5051814,66.0541178 17.514025,78.2997292 14.3853001,91.0316163 C13.7111439,93.7725041 13.1523478,96.5127247 12.685573,99.2569477 C12.685573,99.2569477 12.6695692,99.3890226 12.6302268,99.6264906 C12.6268927,99.6478361 12.6228918,99.6698485 12.6195577,99.691861 C12.2994835,101.585602 10.6444334,109.323323 4.20360779,115.431454 C3.17737002,116.404672 3.29606419,118.09363 4.46300122,118.893417 C5.39655085,119.532446 6.46813245,120.428955 7.50370571,121.628302 C10.3043546,124.936845 11.4432851,129.185254 11.8933894,131.698012 C11.9774089,132.403079 12.0714307,133.111481 12.1767884,133.833223 C13.5917829,143.497371 16.9418924,153.433005 23.9388469,160.330917 C27.0709059,163.419335 30.6323977,165.954773 34.8460406,167.31221 C48.0944434,171.58063 61.8683013,163.488041 71.1011071,154.586993 C75.7641875,150.091777 79.8377979,145.031574 83.7360344,139.871981 C85.7051573,137.264502 87.5989294,134.60366 89.4246858,131.892789 C91.2644454,129.160573 93.2622415,126.389668 94.8019316,123.472014 C95.3347217,122.463442 95.8735132,121.440862 96.3862987,120.418282 C97.682599,122.514804 100.07582,125.146297 104.125425,125.857367 C104.150764,125.862703 104.172769,125.869373 104.198109,125.87471 C104.311468,125.896722 104.42016,125.906061 104.532186,125.925405 C104.550857,125.928073 104.569528,125.930742 104.588199,125.93341 C114.36313,127.526313 119.335616,115.801664 120.31851,113.174174 C120.368522,113.236876 120.424535,113.302913 120.47788,113.367617 C121.073352,114.062678 123.325874,116.437358 126.926041,117.32386 C126.985388,117.337201 127.048736,117.351876 127.109417,117.365217 C127.72556,117.506631 128.382378,117.598683 129.073872,117.636705 C133.929664,117.683398 137.27844,112.678559 138.625418,110.223834 C138.660093,110.158463 138.699435,110.090425 138.733443,110.025722 C138.750114,109.99437 138.766784,109.963019 138.782788,109.933002 C138.966164,109.576133 139.135536,109.229937 139.289572,108.901084 C139.771017,110.762806 140.822594,113.192184 143.119793,114.406873 C146.110486,115.988436 150.570853,114.19075 152.533307,111.716013 C153.77026,110.156462 154.221032,108.199352 154.2297,106.240908 C154.243037,103.350603 154.008982,100.471637 154.138346,97.5806637 C154.241036,95.2786916 154.477091,92.9833899 154.837841,90.7074325 C155.484658,86.6311207 156.525566,82.6235146 157.829868,78.7106289 C160.725872,70.0250364 164.967521,64.9508254 167.316066,62.6408487 C167.831518,62.2046013 168.251616,62.0271674 168.254283,62.6061624 C168.260284,64.1163522 166.547221,68.624242 166.547221,68.6249091 C164.903507,72.8853252 162.485613,80.1334358 160.535161,90.0123716 C160.155073,91.9347952 159.862339,93.8792312 159.733642,95.8356741 C159.638954,97.2718219 159.631618,98.7206436 159.790322,100.152789 C159.904348,101.184041 160.105728,102.212624 160.457143,103.190512 C160.978597,104.638666 161.966826,106.004775 163.369151,106.703171 C164.926845,107.478277 166.819284,107.176773 168.336302,106.443023 C171.252978,105.036225 173.423481,103.548715 173.212098,100.423609 C173.001383,97.2985037 172.998049,86.7325115 174.651098,80.2841879 C175.469955,77.0903767 176.355493,73.9079052 177.517762,70.819487 C178.928089,67.0686932 180.758513,63.4106186 183.38979,60.3568868 C183.729868,59.9619962 185.041506,58.8053402 185.348243,59.8005713 C185.52095,60.3608891 185.254222,61.0906362 185.086849,61.6256063 C184.678088,62.9310133 184.147965,64.1990658 183.724534,65.4984693 C183.139732,67.2948214 182.608942,69.1091837 182.126164,70.9355528 C181.179277,74.514249 180.402431,78.1443077 179.859638,81.8070516 C179.422204,84.7587255 179.08746,87.7764369 179.232827,90.7647983 C179.252164,91.1656923 179.282171,91.5659193 179.326848,91.9648122 C179.585575,94.2621151 180.131035,96.5173941 180.961894,98.4244756 C181.80809,100.176136 183.439134,102.398729 186.363145,102.907685 C186.617871,102.948375 186.868596,102.975723 187.116653,102.993734 C187.116653,102.993734 192.162489,104.189745 197.771788,97.1757674 C197.856475,97.0703743 197.947829,96.9549756 198.02318,96.8589211 C198.119202,96.7335166 198.215891,96.604777 198.31258,96.4753702 C196.93026,100.67175 195.761989,104.588638 194.772427,108.159997 C114.14708,126.917968 83.752705,155.973112 75.6454933,165.471166 C74.5825804,166.715872 75.3927681,168.64163 77.0251463,168.756362 C81.7302364,169.087216 88.7511964,169.808292 91.0043851,170.046427 C91.977944,176.64617 95.2400331,182.859027 97.1244697,186.013482 C97.7952918,187.136786 99.3376491,187.309551 100.259863,186.382358 C126.699989,159.804619 160.145071,141.120689 190.168694,128.366123 C190.140687,128.540221 190.124683,128.641612 190.126017,128.642279 C189.284489,134.210771 189.196468,139.559137 190.721488,143.345951 C191.400312,144.626011 192.261178,145.968105 193.268078,146.967338 C193.526138,147.178125 193.751524,147.380239 193.959572,147.578352 C194.288982,147.832496 194.631061,148.047284 194.98581,148.207375 C199.110098,150.066429 204.208613,149.37337 207.830119,146.738542 C208.618301,146.164883 209.885262,145.327742 210.136653,144.328509 C210.270684,143.79554 210.159325,143.235222 210.047299,142.697584 C209.08841,138.080966 208.054171,133.544393 207.83612,128.816378 C207.641408,126.369657 207.592064,123.849561 207.726762,121.397504 C236.97087,110.567362 260.289606,105.674587 266.117623,104.543279 C266.117623,104.543279 268.307464,116.449365 281.343818,117.700741 C281.377159,117.701408 281.4105,117.704076 281.443841,117.704076 C282.384059,117.786123 283.379623,117.816807 284.412529,117.792126 C284.643249,117.785456 284.869968,117.782787 285.106689,117.769446 C285.234719,117.762776 285.364749,117.752103 285.494113,117.743432 C285.888871,117.716083 286.290964,117.680729 286.701059,117.636037 C291.572187,117.087727 297.138144,115.057242 302.558066,109.963686 C310.139823,102.839646 313.103843,92.3223483 313.082504,82.1585843 C313.054498,69.1458712 309.424324,56.2905807 304.987962,44.1677056 C304.960623,44.0936636 304.933283,44.0189546 304.905943,43.9442456 C303.512954,40.1587654 301.993935,36.2538842 302.092625,32.1362157 C302.147304,29.8315753 302.736107,26.9065832 304.836594,25.5871683 C305.412061,25.2256299 306.078882,25.0401914 306.757706,25.0361891 C308.51678,25.0275175 310.035799,26.3115791 310.724625,27.8691291 C311.223407,28.9977691 311.464796,30.227133 311.498804,31.457831 C311.515475,32.0468317 311.506806,32.6638482 311.432789,33.2495137 C311.350103,33.9012166 311.118716,34.5229025 311.027362,35.1732714 C310.980017,35.508795 310.971349,35.8576595 311.080041,36.1785081 C311.274085,36.754835 311.865556,37.1603983 312.45836,37.2231005 C313.602625,37.3458368 314.500833,36.191182 315.112975,35.3840576 C316.635328,33.3755852 317.42151,30.7234145 317.485525,28.2199947 C317.525534,26.6477698 317.282811,25.0708755 316.769359,23.5840323 L316.769359,23.5840323 Z" id="Fill-1" transform="translate(160.497268, 96.652594) rotate(-2.000000) translate(-160.497268, -96.652594) "></path>
                </g>
            </g>
        </g>
    </g>
</svg>