<?xml version="1.0" encoding="utf-8"?>
<!-- Generator: Adobe Illustrator 18.1.1, SVG Export Plug-In . SVG Version: 6.00 Build 0)  -->
<!DOCTYPE svg PUBLIC "-//W3C//DTD SVG 1.1//EN" "http://www.w3.org/Graphics/SVG/1.1/DTD/svg11.dtd">
<svg version="1.1" id="Layer_1" xmlns="http://www.w3.org/2000/svg" xmlns:xlink="http://www.w3.org/1999/xlink" x="0px" y="0px"
	 viewBox="0 0 50.8 45" enable-background="new 0 0 50.8 45" xml:space="preserve">
<path d="M9.9,17.7c0,0-1.8-1.3-2.9-0.2c-0.3,0.2-0.4,0.4-0.5,0.5c1-4,3.1-7.5,6.1-10.1c3.4-3,7.9-4.8,12.8-4.8
	c4.9,0,9.4,1.8,12.8,4.8c3.4,3,5.8,7.2,6.5,11.9l3-0.4C46.9,13.8,44.2,9,40.2,5.6C36.3,2.1,31.1,0,25.5,0c-5.7,0-10.9,2.1-14.8,5.6
	C7.1,8.7,4.5,13,3.4,17.8c-0.1-0.2-0.2-0.4-0.5-0.7C2,15.9,0,16.9,0,16.9l4.5,5.9L9.9,17.7z"/>
<path d="M46.3,22.2l-5.3,5.2c0,0,1.8,1.3,2.9,0.2c0.4-0.3,0.4-0.4,0.6-0.6c-0.9,4.1-3.1,7.6-6.2,10.3c-3.4,3-7.9,4.8-12.8,4.8
	c-4.9,0-9.4-1.8-12.8-4.8c-3.4-3-5.8-7.2-6.5-11.9l-3,0.4C4,31.2,6.7,36,10.7,39.4c3.9,3.5,9.1,5.6,14.8,5.6s10.9-2.1,14.8-5.6
	c3.6-3.1,6.1-7.4,7.2-12.2c0.1,0.2,0.2,0.3,0.5,0.6c0.9,1.2,2.9,0.2,2.9,0.2L46.3,22.2z"/>
</svg>
