<?xml version="1.0" encoding="utf-8"?>
<!-- Generator: Adobe Illustrator 20.0.0, SVG Export Plug-In . SVG Version: 6.00 Build 0)  -->
<svg version="1.1" id="Layer_1" xmlns="http://www.w3.org/2000/svg" xmlns:xlink="http://www.w3.org/1999/xlink" x="0px" y="0px"
	 viewBox="0 0 204.2 356.8" style="enable-background:new 0 0 204.2 356.8;" xml:space="preserve">
<style type="text/css">
	.st0{fill:#CC3527;}
	.st1{opacity:0.7;fill:#CC3527;}
	.st2{opacity:0.5;fill:#CC3527;}
</style>
<path class="st0" d="M102.4,356.3l101.8-114.7l-0.1-0.1l-29.3-47.2l0,0v0H29.7v0.1l-0.2-0.1L0.1,241.7L0,241.8l101.7,114.6l0,0
	l0.3,0.4L102.4,356.3z M198.2,242.5l-88.9,100.2l38.4-100.2H198.2z M148.5,238.5l25.3-38.3l23.7,38.3H148.5z M146.2,234.8
	l-38.7-36.6h63L146.2,234.8z M102,198.3l42.1,39.8l-0.3,0.5H59.5l-0.2-0.2l42.4-40H102z M57.2,235.1l-24.4-36.8h63.4L57.2,235.1z
	 M54.8,238.5h-48L30,201.1L54.8,238.5z M56,242.5l38.1,99.5L5.8,242.5H56z M60.2,242.5h83.2L102,350.8l-0.4-0.5L60.2,242.5z"/>
<path class="st1" d="M102.3,171.3l52-58.6l-0.1-0.1l-15-24.1l0,0v0H65.1v0.1L65,88.6l-15,24.2l-0.1,0.1l51.9,58.5l0,0l0.2,0.2
	L102.3,171.3z M151.2,113.2l-45.4,51.2l19.6-51.2H151.2z M125.8,111.2l12.9-19.5l12.1,19.5H125.8z M124.6,109.3l-19.8-18.7H137
	L124.6,109.3z M102,90.6l21.5,20.3l-0.2,0.2H80.3l-0.1-0.1l21.7-20.5H102z M79.2,109.4L66.7,90.6h32.4L79.2,109.4z M77.9,111.2H53.4
	L65.3,92L77.9,111.2z M78.6,113.2L98,164l-45.1-50.8H78.6z M80.7,113.2h42.5L102,168.5l-0.2-0.2L80.7,113.2z"/>
<path class="st2" d="M102.2,60.1L140,17.5l-0.1,0L129.1,0l0,0v0H75.3v0.1L75.2,0L64.3,17.6l-0.1,0l37.7,42.5l0,0l0.1,0.1L102.2,60.1
	z M137.8,17.9l-33,37.2L119,17.9H137.8z M119.3,16.4l9.4-14.2l8.8,14.2H119.3z M118.5,15L104.1,1.5h23.4L118.5,15z M102.1,1.5
	l15.6,14.8l-0.1,0.2H86.3l-0.1-0.1L102.1,1.5L102.1,1.5z M85.4,15.1L76.4,1.5h23.5L85.4,15.1z M84.5,16.4H66.7l8.6-13.9L84.5,16.4z
	 M85,17.9l14.1,36.9L66.4,17.9H85z M86.6,17.9h30.9L102.1,58l-0.2-0.2L86.6,17.9z"/>
</svg>
