<?xml version="1.0" encoding="utf-8"?>
<!-- Generator: Adobe Illustrator 20.0.0, SVG Export Plug-In . SVG Version: 6.00 Build 0)  -->
<svg version="1.1" id="Layer_1" xmlns="http://www.w3.org/2000/svg" xmlns:xlink="http://www.w3.org/1999/xlink" x="0px" y="0px"
	 viewBox="0 0 203.6 289.6" style="enable-background:new 0 0 203.6 289.6;" xml:space="preserve">
<style type="text/css">
	.st0{fill:#6B8739;}
</style>
<path class="st0" d="M131.5,192H72.1v-2c0-13.2-5.6-25.9-15.4-34.9l-1.8-1.6c-14.5-13.3-22.8-32-22.8-51.6
	c0-38.4,31.3-69.7,69.7-69.7c38.4,0,69.7,31.3,69.7,69.7c0,19.5-8.3,38.3-22.7,51.5l-1.9,1.7c-9.7,8.9-15.4,21.6-15.4,34.8V192z
	 M78.8,190h46c1.1-14.8,7.8-28.7,18.9-38.8l2.1-1.8c13.4-12.2,21.1-29.8,21.1-48c0-35.9-29.2-64.1-65.1-64.1
	c-35.9,0-65.1,28.2-65.1,64.1c0,18.2,7.7,35.7,21.2,48.1l1.9,1.7C70.9,161.3,77.7,175.2,78.8,190z"/>
<g>
	<g>
		<rect x="107.4" y="206" class="st0" width="7" height="32.2"/>
		<rect x="125.5" y="206" class="st0" width="6" height="32.2"/>
		<rect x="72.1" y="206" class="st0" width="6" height="32.2"/>
		<rect x="89.2" y="206" class="st0" width="7" height="32.2"/>
	</g>
	<g>
		<path class="st0" d="M101.8,289.6l-29.6-51.4l59.3,0L101.8,289.6z M82,243.8l19.8,34.2l19.8-34.2L82,243.8z"/>
	</g>
	<path class="st0" d="M72.1,210v-24l59.4,0l0,24L72.1,210z M78.2,192.7v11.1l47.1,0l0-11.1L78.2,192.7z"/>
</g>
<g>
	<rect x="99.8" class="st0" width="6" height="16.9"/>
	<polygon class="st0" points="123.4,19.6 118.1,18.2 121.6,1.7 126.9,3.1 	"/>
	<polygon class="st0" points="140,25.9 135.1,23.7 142,8.2 146.9,10.4 	"/>
	<polygon class="st0" points="155,35.5 150.8,32.3 160.8,18.6 164.9,21.8 	"/>
	<polygon class="st0" points="167.6,48 164.3,44.1 176.8,32.7 180.2,36.7 	"/>
	<polygon class="st0" points="177.4,62.9 174.7,58.4 189.3,49.9 192,54.4 	"/>
	<polygon class="st0" points="183.8,79.5 182.4,73.9 198.5,68.6 199.9,74.2 	"/>
	<polygon class="st0" points="186.7,97 186.3,91.8 203.1,90 203.6,95.3 	"/>
	<polygon class="st0" points="202.7,116.6 186,114.1 186.7,108.8 203.6,110.6 	"/>
	<polygon class="st0" points="197.5,137.2 181.4,132 183.4,126.4 199.5,131.7 	"/>
	<polygon class="st0" points="188,156.4 173.4,147.9 176.3,143 191,151.4 	"/>
	<polygon class="st0" points="174.8,173.1 162.3,161.8 166,157.8 178.6,169.2 	"/>
	<polygon class="st0" points="158.5,186.7 148.5,173 152.6,170.2 162.5,183.9 	"/>
	<polygon class="st0" points="82.2,19.6 78.7,3.1 84.5,1.4 88,18 	"/>
	<polygon class="st0" points="65.6,24.7 58.7,9.2 64,7.2 70.9,22.7 	"/>
	<polygon class="st0" points="50.6,33.5 40.6,19.8 45.1,17.1 55.1,30.8 	"/>
	<polygon class="st0" points="38,46 25.4,34.7 28.7,30.7 41.3,42.1 	"/>
	<polygon class="st0" points="27.2,60.9 12.5,52.4 15.5,47.5 30.2,56 	"/>
	<polygon class="st0" points="20.1,77 4,71.8 6.1,66.6 22.2,71.8 	"/>
	<polygon class="st0" points="16.8,95 0,93.2 0.8,87.3 17.7,89.1 	"/>
	<polygon class="st0" points="0.8,114.5 0,108.6 16.8,106.8 17.7,112.8 	"/>
	<polygon class="st0" points="5.1,135.2 3.6,129.6 19.7,124.4 21.2,130 	"/>
	<polygon class="st0" points="14.5,154.3 11.5,149.4 26.2,140.9 29.2,145.9 	"/>
	<polygon class="st0" points="26.7,171.1 23.4,167.1 36,155.8 39.3,159.8 	"/>
	<polygon class="st0" points="43.1,185.7 38.6,182 48.6,168.3 53.1,172 	"/>
</g>
</svg>
