<?xml version="1.0" encoding="UTF-8"?>
<svg width="669px" height="179px" viewBox="0 0 669 179" version="1.1" xmlns="http://www.w3.org/2000/svg" xmlns:xlink="http://www.w3.org/1999/xlink">
    <!-- Generator: Sketch 43.2 (39069) - http://www.bohemiancoding.com/sketch -->
    <title>wxg</title>
    <desc>Created with Sketch.</desc>
    <defs>
        <path d="M175.4,74.5 L77.1,74.5 L77.2,74.7 L88.1,114.7 L114,114.7 C116.625741,111.894451 118.786312,108.687353 120.4,105.2 L95.2,105.2 L89.5,84 L130.9,84 C131.466787,88.1833365 131.433114,92.4261866 130.8,96.6 C130.8,96.8 130.7,97.1 130.7,97.3 C130.7,97.5 130.6,97.8 130.6,98.1 C130.5,98.6 130.4,99.1 130.3,99.5 L130.3,99.6 C129.499728,103.155992 128.221439,106.587188 126.5,109.8 C126.313301,110.122935 126.146329,110.45688 126,110.8 C125.821218,111.177848 125.620889,111.545119 125.4,111.9 C125.2,112.2 125.1,112.4 124.9,112.7 C124.802437,112.921665 124.66709,113.124686 124.5,113.3 C122.039289,117.141566 118.96515,120.553522 115.4,123.4 L115.3,123.5 C114.891416,123.864328 114.456943,124.198539 114,124.5 C113.8,124.6 113.7,124.8 113.5,124.9 C113.183567,125.156591 112.849402,125.390507 112.5,125.6 L111.5,126.3 C111.3,126.4 111.2,126.5 111,126.6 L109.5,127.5 L109.5,127.5 C104.958759,130.097091 99.9739234,131.826524 94.8,132.6 L94.5,132.6 C94.2,132.6 93.9,132.7 93.6,132.7 C90.0517671,133.183673 86.4566529,133.217272 82.9,132.8 L82.6,132.8 C82.1,132.7 81.6,132.7 81.1,132.6 L79.5,132.3 L79.4,132.3 C73.7457088,131.121891 68.3775959,128.845539 63.6,125.6 C63.5,125.5 63.4,125.5 63.3,125.4 C62.9163814,125.157457 62.5489396,124.890227 62.2,124.6 C61.8835667,124.343409 61.5494015,124.109493 61.2,123.9 C61.086046,123.776478 60.9504881,123.67481 60.8,123.6 C58.5399119,121.773092 56.4634134,119.730086 54.6,117.5 C54.6,117.4 54.5,117.4 54.5,117.3 C54.1784205,116.976597 53.9085884,116.605578 53.7,116.2 C53.5983612,116.010277 53.4627846,115.840806 53.3,115.7 C53.1,115.4 52.9,115.2 52.7,114.9 C52.5,114.6 52.3,114.4 52.1,114.1 C52,114 51.9,113.8 51.8,113.7 C51.5,113.3 51.3,112.9 51,112.5 C51,112.444772 50.9552285,112.4 50.9,112.4 C48.1157862,107.890425 46.1837195,102.907726 45.2,97.7 C45.2,97.5 45.1,97.4 45.1,97.2 C45,96.8 45,96.5 44.9,96.1 C44.8,95.7 44.8,95.3 44.7,94.9 L44.7,94.5 C44.3327875,91.0410466 44.3663432,87.5512528 44.8,84.1 L44.8,83.7 C44.9,83.3 44.9,82.9 45,82.5 C45.1,82.1 45.1,82 45.1,81.7 C45.1,81.4 45.2,81.2 45.2,81 L45.5,79.8 C45.4867685,79.6900749 45.5234597,79.5800012 45.6,79.5 C46.6579782,74.9092125 48.5200222,70.5418729 51.1,66.6 C51.1975628,66.378335 51.3329103,66.1753137 51.5,66 L52.1,65.1 C55.0027853,60.9311245 58.5861056,57.2801944 62.7,54.3 C62.9,54.2 63.1,54 63.3,53.9 L64.2,53.3 L65.7,52.4 L65.7,52.4 C74.2851101,47.3423349 84.33948,45.3667394 94.2,46.8 C94.5,46.8 94.8,46.9 95,46.9 C95.1400007,46.8958379 95.2784286,46.9304449 95.4,47 C99.3486885,47.7166917 103.183055,48.9611792 106.8,50.7 C107.998263,51.2733144 109.166452,51.9074744 110.3,52.6 C112.955477,54.2413965 115.435178,56.1514367 117.7,58.3 C118.683554,59.2168846 119.61818,60.1848896 120.5,61.2 C120.8,61.6 121.1,61.9 121.4,62.3 L124.7,59 L124.8,59 L126.9,56.9 L127.9,55.9 L127.9,55.9 C123.532519,50.7223944 118.200313,46.4430449 112.2,43.3 C111.877007,43.1134083 111.543069,42.9464393 111.2,42.8 C108.376326,41.4010497 105.430751,40.2629868 102.4,39.4 C102.2,39.3 102,39.3 101.8,39.2 C101.6,39.1 101.3,39.1 101.1,39 L99.9,38.7 C99.8,38.7 99.7,38.7 99.7,38.6 C94.6594171,37.4072578 89.464501,37.0024592 84.3,37.4 L83.8,37.4 C83.5294501,37.3837694 83.2582301,37.4176719 83,37.5 C82.7,37.5 82.5,37.6 82.2,37.6 C82.0271782,37.584436 81.8535417,37.6191633 81.7,37.7 C81.4,37.7 81.1,37.8 80.8,37.8 L80.4,37.8 C80.0587783,37.8181916 79.7219706,37.8855531 79.4,38 L79,38 C78.6913019,38.0185865 78.3875161,38.0860945 78.1,38.2 C74.8542612,38.794063 71.6730154,39.6982066 68.6,40.9 C68.4,41 68.3,41 68.1,41.1 C67.9,41.2 67.6,41.3 67.4,41.4 C67.2,41.5 66.9,41.6 66.7,41.7 C66.5,41.8 66.4,41.8 66.3,41.9 C66.0236596,42.0130384 65.756235,42.1467507 65.5,42.3 C65.4,42.4 65.3,42.4 65.2,42.5 C64.9,42.6 64.6,42.8 64.3,42.9 C64.2,42.9 64.1,43 64,43 C63.7,43.2 63.4,43.3 63.1,43.5 C63,43.5 63,43.6 62.9,43.6 C62.587892,43.8061106 62.2521532,43.9739799 61.9,44.1 L61.9,44.1 C61.7897428,44.205275 61.6503743,44.2749592 61.5,44.3 L61.4,44.4 C61.3,44.5 61.2,44.5 61.1,44.6 C61,44.7 60.8,44.8 60.7,44.9 C60.3115105,45.0971266 59.9431102,45.3315631 59.6,45.6 C59.5,45.7 59.4,45.7 59.3,45.8 C59.2,45.9 59,46 58.9,46.1 C58.8,46.2 58.5,46.4 58.3,46.5 C58.1,46.6 58.1,46.6 58,46.7 C57.9,46.8 57.8,46.8 57.7,46.9 C57.6,47 57.5,47 57.4,47.1 C57.3,47.2 57.2,47.2 57.1,47.3 C56.9102771,47.4016388 56.7408063,47.5372154 56.6,47.7 C56.5,47.8 56.3,47.9 56.2,48 C56.1,48.1 56,48.2 55.9,48.2 C55.8,48.2 55.7,48.4 55.6,48.4 C55.4,48.6 55.2,48.7 55,48.9 C54.8102771,49.0016388 54.6408063,49.1372154 54.5,49.3 C54.3257931,49.4953863 54.1235976,49.6638825 53.9,49.8 L53.8,49.9 L53.7,49.9 C53.5,50.1 53.2,50.3 53,50.5 C52.8,50.7 52.7,50.7 52.6,50.8 L51.1,52.3 L50.8,52.6 L49.2,54.2 C49.2,54.3 49.1,54.3 49.1,54.4 C48.6,55 48,55.6 47.5,56.2 L47.5,56.2 C46.3873492,57.5396834 45.3523219,58.9419786 44.4,60.4 L44.3,60.5 C44.2,60.7 44.1,60.8 44,61 L44,61.1 C43.7,61.6 43.3,62.1 43,62.6 C43,62.6265216 42.9894643,62.651957 42.9707107,62.6707107 C42.951957,62.6894643 42.9265216,62.7 42.9,62.7 C42.8,62.8 42.7,63 42.6,63.1 C42.5,63.2 42.4,63.4 42.3,63.6 C42.1832677,63.8424357 42.0496036,64.0763479 41.9,64.3 C41.8,64.5 41.6,64.8 41.5,65 C41.4,65.2 41.4,65.2 41.3,65.3 C40.9269441,65.9460545 40.5930101,66.6139226 40.3,67.3 C40.3,67.4 40.2,67.4 40.2,67.5 C39.9,68.2 39.5,69 39.2,69.7 L39.2,69.8 C37.952393,72.8310097 37.0142935,75.9803438 36.4,79.2 C36.4,79.4 36.3,79.6 36.3,79.8 C36.3,80 36.2,80.3 36.1,80.6 C36,80.9 36,81.4 35.9,81.8 L35.9,82.1 C35.8,82.5 35.8,82.9 35.7,83.3 L35.7,83.3 C35.467282,85.1247486 35.3337523,86.9607811 35.3,88.8 L35.3,89.6 L35.3,89.6 L35.3,92.1 C35.2836132,92.4364466 35.3173146,92.7734606 35.4,93.1 L35.4,94.6 C35.4,95.1 35.5,95.5 35.5,96 L35.5,96.3 C35.4850362,96.4409598 35.5204626,96.5826655 35.6,96.7 C35.9307187,99.3703432 36.4656185,102.011411 37.2,104.6 L37.2,104.7 C37.4,105.5 37.7,106.2 37.9,107 C37.9,107.1 37.9,107.1 38,107.2 C38.2226678,107.915979 38.489855,108.617346 38.8,109.3 C38.8,109.4 38.9,109.5 38.9,109.6 C39.2,110.3 39.4,110.9 39.7,111.6 C39.8,111.8 39.8,111.9 39.9,112.1 L40.8,113.9 C40.9,114.1 41,114.2 41.1,114.4 C41.3733835,114.999861 41.7085264,115.569604 42.1,116.1 C42.2,116.3 42.3,116.4 42.4,116.6 C42.7076614,117.202738 43.0762516,117.772377 43.5,118.3 C43.6,118.4 43.7,118.6 43.8,118.7 L45,120.5 C45.1,120.6 45.1,120.7 45.2,120.8 C45.2,120.855228 45.2447715,120.9 45.3,120.9 L45.4,121 C45.8,121.5 46.2,122 46.6,122.6 C46.7,122.8 46.9,122.9 47,123.1 C47.4,123.6 47.9,124.1 48.3,124.6 C48.4,124.7 48.5,124.9 48.7,125 C49.2,125.5 49.6,126 50.1,126.5 L50.4,126.8 C50.9,127.3 51.5,127.8 52,128.3 L52.2,128.5 C52.3,128.6 52.4,128.7 52.5,128.7 L52.6,128.8 C52.7,128.8 52.7,128.9 52.8,128.9 C53.1861789,129.319013 53.6228467,129.688502 54.1,130 C54.1265216,130 54.151957,130.010536 54.1707107,130.029289 C54.1894643,130.048043 54.2,130.073478 54.2,130.1 C54.3,130.1 54.3,130.2 54.4,130.2 C54.513954,130.323522 54.6495119,130.42519 54.8,130.5 C55.1,130.7 55.3,130.9 55.6,131.1 C55.9,131.3 56.1,131.5 56.4,131.7 L56.5,131.7 C56.6897229,131.801639 56.8591937,131.937215 57,132.1 L58.1,132.9 C58.213954,133.023522 58.3495119,133.12519 58.5,133.2 C58.6,133.2 58.6,133.3 58.7,133.3 C58.8,133.3 59,133.5 59.2,133.6 C59.7,133.9 60.1,134.2 60.6,134.5 C60.7,134.6 60.8,134.6 60.9,134.7 C61,134.8 61.2,134.9 61.4,135 C61.9781593,135.371213 62.5793765,135.705223 63.2,136 C63.3,136.1 63.4,136.1 63.6,136.2 C64.3,136.5 64.9,136.9 65.6,137.2 C65.6758076,137.210568 65.7460611,137.245695 65.8,137.3 C66.5,137.6 67.2,138 68,138.3 L68.1,138.3 C70.814762,139.421267 73.6265031,140.291568 76.5,140.9 L76.7,140.9 C76.9,140.9 77.1,141 77.3,141 L77.3,141 C77.5,141 77.6,141.1 77.8,141.1 C78,141.1 78.4,141.2 78.8,141.3 C78.9684863,141.323483 79.1354424,141.356874 79.3,141.4 L79.8,141.4 C79.9409598,141.385036 80.0826655,141.420463 80.2,141.5 L80.3,141.5 C80.8,141.6 81.3,141.6 81.7,141.7 C81.8728218,141.684436 82.0464583,141.719163 82.2,141.8 C82.3728218,141.784436 82.5464583,141.819163 82.7,141.9 L82.8,141.9 C83.2,141.9 83.7,142 84.1,142 L89.8,142 C90.5,142 91.3,141.9 92,141.9 C92.3,141.9 92.6,141.8 92.9,141.8 L93.2,141.8 C93.6,141.8 93.9,141.7 94.3,141.7 C94.5,141.7 94.7,141.6 94.9,141.6 L95.3,141.6 C95.4684863,141.576517 95.6354424,141.543126 95.8,141.5 C96,141.5 96.2,141.4 96.4,141.4 C96.6,141.4 96.9,141.3 97.1,141.3 L98.6,141 L98.7,141 L100.1,140.7 C100.3,140.7 100.4,140.6 100.6,140.6 C101.211998,140.480008 101.813794,140.312843 102.4,140.1 C102.62933,140.020043 102.863045,139.953268 103.1,139.9 C103.6,139.7 104.2,139.6 104.7,139.4 C104.92933,139.320043 105.163045,139.253268 105.4,139.2 C106.115979,138.977332 106.817346,138.710145 107.5,138.4 C107.8,138.3 108,138.2 108.3,138.1 C108.6,138 109.2,137.7 109.6,137.5 C110,137.3 110.3,137.2 110.7,137 C111.1,136.8 111.4,136.7 111.7,136.5 C112,136.3 112.4,136.1 112.8,135.9 C113.2,135.7 113.4,135.6 113.7,135.4 C113.810257,135.294725 113.949626,135.225041 114.1,135.2 C114.2,135.1 114.3,135.1 114.5,135 C114.610257,134.894725 114.749626,134.825041 114.9,134.8 C115,134.7 115.2,134.6 115.3,134.5 C115.4,134.4 115.5,134.4 115.6,134.3 C115.7,134.2 116,134 116.2,133.9 L116.3,133.9 C116.4,133.8 116.5,133.8 116.6,133.7 C116.956007,133.500861 117.291034,133.266342 117.6,133 L117.6,133 C117.710257,132.894725 117.849626,132.825041 118,132.8 C118.1,132.8 118.1,132.7 118.2,132.7 C118.3,132.7 118.5,132.5 118.6,132.4 L119.7,131.6 C119.755228,131.6 119.8,131.555228 119.8,131.5 L121.3,130.3 L121.4,130.2 L122.9,129 L123,128.9 C123.113954,128.776478 123.249512,128.67481 123.4,128.6 L123.5,128.5 L123.6,128.4 C123.9,128.2 124.1,127.9 124.4,127.7 L124.6,127.5 L125.8,126.3 L126.1,126 L127.2,124.9 C127.3,124.7 127.5,124.6 127.6,124.4 C127.9,124.1 128.2,123.7 128.5,123.4 L128.7,123.2 L129.9,121.7 C129.9,121.673478 129.910536,121.648043 129.929289,121.629289 C129.948043,121.610536 129.973478,121.6 130,121.6 C130,121.5 130.1,121.5 130.1,121.4 C130.398882,121.05788 130.666612,120.689751 130.9,120.3 C130.9,120.2 131,120.2 131,120.1 C131,120.044772 131.044772,120 131.1,120 C131.174928,119.793997 131.315469,119.618321 131.5,119.5 C131.6,119.3 131.8,119.1 131.9,118.9 C132,118.7 132.1,118.6 132.2,118.5 L132.2,118.4 C132.297563,118.178335 132.43291,117.975314 132.6,117.8 C132.7,117.7 132.7,117.6 132.8,117.5 C133,117.2 133.1,117 133.3,116.7 C133.3,116.644772 133.344772,116.6 133.4,116.6 C133.7,116.1 134,115.5 134.3,115 C134.3,114.9 134.4,114.9 134.4,114.8 C134.7,114.3 134.9,113.8 135.2,113.3 C135.3,113.2 135.3,113.1 135.4,112.9 C135.6,112.4 135.9,112 136.1,111.5 L136.4,110.9 C136.608798,110.518886 136.77641,110.116617 136.9,109.7 C136.9,109.6 137,109.6 137,109.5 C137.3,108.7 137.6,107.9 137.9,107 L137.9,106.9 C138.1,106.4 138.2,106 138.4,105.5 C138.4,105.4 138.5,105.3 138.5,105.2 C138.6,104.8 138.7,104.5 138.8,104.1 C138.879915,103.870657 138.94669,103.636944 139,103.4 C139.1,103.1 139.1,102.9 139.2,102.6 C139.3,102.3 139.4,101.9 139.5,101.6 C139.6,101.3 139.6,101.3 139.6,101.1 C139.7,100.6 139.8,100.2 139.9,99.7 L139.9,99.6 C140,99.3 140,99 140.1,98.7 C140.997982,93.6176862 141.199836,88.4367742 140.7,83.3 L168.1,83.3 C168.2,85.2 168.3,87.2 168.3,89.2 C168.348086,114.308748 156.47227,137.949045 136.3,152.9 C125.726618,160.850629 113.303073,165.978353 100.2,167.8 C77.5342161,171.039614 54.5715782,164.356023 37.1848359,149.458572 C19.7980935,134.561121 9.67333808,112.8945 9.4,90 C9.1,61.5 23.7,35.2 49.5,20 C55.0213521,16.7813663 60.9375549,14.293872 67.1,12.6 C94.2,5.4 121.2,12 141,29.4 L141,29.4 L127.3,43.1 L127.3,43.1 C129.745043,45.0714229 132.050563,47.2098763 134.2,49.5 L134.2,49.5 L147.7,36 L147.7,36 L154.1,29.6 L154.1,29.6 C137.559721,11.3510336 114.128787,0.868773574 89.5,0.7 C40.8,0.3 0.6,39.8 0.2,88.5 C-0.148805317,134.97636 35.5555484,173.78354 81.9,177.3 C136.2,181.4 181.7,135.1 176.7,80.9 C176.102035,78.8034408 175.667402,76.6637048 175.4,74.5" id="path-1"></path>
        <polygon id="path-3" points="95.7 62.9 144.4 14.2 144.4 14.2 163.7 33.5 163.7 33.5 120.5 76.7 120.5 76.7 127.2 83.4 127.2 83.4 177.1 33.5 177.1 33.5 174.6 31 174.6 31 145.3 1.5 145.3 1.5 144.4 0.6 89 56.1 89 56.1 33.5 0.7 33.5 0.7 31 3.2 31 3.2 1.6 32.6 1.6 32.6 0.7 33.5 82.2 115 82.2 115 33.5 163.7 33.5 163.7 14.2 144.4 14.2 144.4 57.4 101.2 57.4 101.2 50.7 94.5 50.7 94.5 0.7 144.5 0.7 144.5 7.5 151.3 7.5 151.3 32.1 175.9 32.1 175.9 33.5 177.3 33.5 177.3 92.9 117.9 92.9 117.9 95.7 115.1 95.7 115.1 14.2 33.6 14.2 33.6 33.5 14.3 33.5 14.3 82.2 63 82.2 63 89 69.8 89 69.8 163.8 144.6 163.8 144.6 144.5 163.9 144.5 163.9 101.3 120.7 101.3 120.7 94.6 127.4 94.6 127.4 144.6 177.4 144.6 177.4 151.4 170.6 151.4 170.6 176 146 176 146 177.4 144.6 177.4 144.6 95.7 62.9"></polygon>
        <path d="M163.4,0.6 L135,106.3 L135,106.3 L104.3,88.1 L104.3,88.1 L73.6,106.3 L73.6,106.3 L45.3,0.6 L45.3,0.6 L0.7,12.7 L0.7,12.7 L35,140.2 L35,140.2 L95.5,104.4 L95.5,104.4 L104.3,99.2 L104.3,99.2 L165.1,135.2 L165.1,135.2 L157.7,162.7 L157.7,162.7 L104.3,131.1 L104.3,131.1 L51,162.8 L51,162.8 L45.7,143.1 L45.7,143.1 L37.3,148.1 L37.3,148.1 L42.6,167.8 L42.6,167.8 L45.2,177.3 L45.2,177.3 L104.4,142.2 L104.4,142.2 L163.6,177.3 L163.6,177.3 L166.2,167.8 L166.2,167.8 L176.2,130.7 L176.2,130.7 L167.7,125.7 L143.5,111.3 L143.5,111.3 L170.1,12.2 L170.1,12.2 L196.3,19.3 L196.3,19.3 L169.8,117.8 L169.8,117.8 L178.2,122.8 L178.2,122.8 L208,12.7 L208,12.7 L163.4,0.6 Z M12.3,19.3 L38.5,12.2 L38.5,12.2 L65.1,111.3 L65.1,111.3 L41,125.7 L41,125.7 L12.3,19.3 Z" id="path-5"></path>
    </defs>
    <g id="Page-1" stroke="none" stroke-width="1" fill="none" fill-rule="evenodd">
        <g id="wxg">
            <path d="M666.4,74.7 L568.1,74.7 L568.2,74.9 L579.1,114.9 L605,114.9 C607.625741,112.094451 609.786312,108.887353 611.4,105.4 L586.2,105.4 L580.5,84.2 L621.9,84.2 C622.466787,88.3833365 622.433114,92.6261866 621.8,96.8 C621.8,97 621.7,97.3 621.7,97.5 C621.7,97.7 621.6,98 621.6,98.3 C621.5,98.8 621.4,99.3 621.3,99.7 L621.3,99.8 C620.499728,103.355992 619.221439,106.787188 617.5,110 C617.313301,110.322935 617.146329,110.65688 617,111 C616.821218,111.377848 616.620889,111.745119 616.4,112.1 C616.2,112.4 616.1,112.6 615.9,112.9 C615.802437,113.121665 615.66709,113.324686 615.5,113.5 C613.039289,117.341566 609.96515,120.753522 606.4,123.6 L606.3,123.7 C605.891416,124.064328 605.456943,124.398539 605,124.7 C604.8,124.8 604.7,125 604.5,125.1 C604.183567,125.356591 603.849402,125.590507 603.5,125.8 L602.5,126.5 C602.3,126.6 602.2,126.7 602,126.8 L600.5,127.7 L600.5,127.7 C595.958759,130.297091 590.973923,132.026524 585.8,132.8 L585.5,132.8 C585.2,132.8 584.9,132.9 584.6,132.9 C581.051767,133.383673 577.456653,133.417272 573.9,133 L573.6,133 C573.1,132.9 572.6,132.9 572.1,132.8 L570.5,132.5 L570.4,132.5 C564.745709,131.321891 559.377596,129.045539 554.6,125.8 C554.5,125.7 554.4,125.7 554.3,125.6 C553.916381,125.357457 553.54894,125.090227 553.2,124.8 C552.883567,124.543409 552.549402,124.309493 552.2,124.1 C552.086046,123.976478 551.950488,123.87481 551.8,123.8 C549.539912,121.973092 547.463413,119.930086 545.6,117.7 C545.6,117.6 545.5,117.6 545.5,117.5 C545.17842,117.176597 544.908588,116.805578 544.7,116.4 C544.598361,116.210277 544.462785,116.040806 544.3,115.9 C544.1,115.6 543.9,115.4 543.7,115.1 C543.5,114.8 543.3,114.6 543.1,114.3 C543,114.2 542.9,114 542.8,113.9 C542.5,113.5 542.3,113.1 542,112.7 C542,112.644772 541.955228,112.6 541.9,112.6 C539.115786,108.090425 537.183719,103.107726 536.2,97.9 C536.2,97.7 536.1,97.6 536.1,97.4 C536,97 536,96.7 535.9,96.3 C535.8,95.9 535.8,95.5 535.7,95.1 L535.7,94.7 C535.332787,91.2410466 535.366343,87.7512528 535.8,84.3 L535.8,83.9 C535.9,83.5 535.9,83.1 536,82.7 C536.1,82.3 536.1,82.2 536.1,81.9 C536.1,81.6 536.2,81.4 536.2,81.2 L536.5,80 C536.486768,79.8900749 536.52346,79.7800012 536.6,79.7 C537.657978,75.1092125 539.520022,70.7418729 542.1,66.8 C542.197563,66.578335 542.33291,66.3753137 542.5,66.2 L543.1,65.3 C546.002785,61.1311245 549.586106,57.4801944 553.7,54.5 C553.9,54.4 554.1,54.2 554.3,54.1 L555.2,53.5 L556.7,52.6 L556.7,52.6 C565.28511,47.5423349 575.33948,45.5667394 585.2,47 C585.5,47 585.8,47.1 586,47.1 C586.140001,47.0958379 586.278429,47.1304449 586.4,47.2 C590.348688,47.9166917 594.183055,49.1611792 597.8,50.9 C598.998263,51.4733144 600.166452,52.1074744 601.3,52.8 C603.955477,54.4413965 606.435178,56.3514367 608.7,58.5 C609.683554,59.4168846 610.61818,60.3848896 611.5,61.4 C611.8,61.8 612.1,62.1 612.4,62.5 L615.7,59.2 L615.8,59.2 L617.9,57.1 L618.9,56.1 L618.9,56.1 C614.532519,50.9223944 609.200313,46.6430449 603.2,43.5 C602.877007,43.3134083 602.543069,43.1464393 602.2,43 C599.376326,41.6010497 596.430751,40.4629868 593.4,39.6 C593.2,39.5 593,39.5 592.8,39.4 C592.6,39.3 592.3,39.3 592.1,39.2 L590.9,38.9 C590.8,38.9 590.7,38.9 590.7,38.8 C585.659417,37.6072578 580.464501,37.2024592 575.3,37.6 L574.8,37.6 C574.52945,37.5837694 574.25823,37.6176719 574,37.7 C573.7,37.7 573.5,37.8 573.2,37.8 C573.027178,37.784436 572.853542,37.8191633 572.7,37.9 C572.4,37.9 572.1,38 571.8,38 L571.4,38 C571.058778,38.0181916 570.721971,38.0855531 570.4,38.2 L570,38.2 C569.691302,38.2185865 569.387516,38.2860945 569.1,38.4 C565.854261,38.994063 562.673015,39.8982066 559.6,41.1 C559.4,41.2 559.3,41.2 559.1,41.3 C558.9,41.4 558.6,41.5 558.4,41.6 C558.2,41.7 557.9,41.8 557.7,41.9 C557.5,42 557.4,42 557.3,42.1 C557.02366,42.2130384 556.756235,42.3467507 556.5,42.5 C556.4,42.6 556.3,42.6 556.2,42.7 C555.9,42.8 555.6,43 555.3,43.1 C555.2,43.1 555.1,43.2 555,43.2 C554.7,43.4 554.4,43.5 554.1,43.7 C554,43.7 554,43.8 553.9,43.8 C553.587892,44.0061106 553.252153,44.1739799 552.9,44.3 L552.9,44.3 C552.789743,44.405275 552.650374,44.4749592 552.5,44.5 L552.4,44.6 C552.3,44.7 552.2,44.7 552.1,44.8 C552,44.9 551.8,45 551.7,45.1 C551.31151,45.2971266 550.94311,45.5315631 550.6,45.8 C550.5,45.9 550.4,45.9 550.3,46 C550.2,46.1 550,46.2 549.9,46.3 C549.8,46.4 549.5,46.6 549.3,46.7 C549.1,46.8 549.1,46.8 549,46.9 C548.9,47 548.8,47 548.7,47.1 C548.6,47.2 548.5,47.2 548.4,47.3 C548.3,47.4 548.2,47.4 548.1,47.5 C547.910277,47.6016388 547.740806,47.7372154 547.6,47.9 C547.5,48 547.3,48.1 547.2,48.2 C547.1,48.3 547,48.4 546.9,48.4 C546.8,48.4 546.7,48.6 546.6,48.6 C546.4,48.8 546.2,48.9 546,49.1 C545.810277,49.2016388 545.640806,49.3372154 545.5,49.5 C545.325793,49.6953863 545.123598,49.8638825 544.9,50 L544.8,50.1 L544.7,50.1 C544.5,50.3 544.2,50.5 544,50.7 C543.8,50.9 543.7,50.9 543.6,51 L542.1,52.5 L541.8,52.8 L540.2,54.4 C540.2,54.5 540.1,54.5 540.1,54.6 C539.6,55.2 539,55.8 538.5,56.4 L538.5,56.4 C537.387349,57.7396834 536.352322,59.1419786 535.4,60.6 L535.3,60.7 C535.2,60.9 535.1,61 535,61.2 L535,61.3 C534.7,61.8 534.3,62.3 534,62.8 C534,62.8265216 533.989464,62.851957 533.970711,62.8707107 C533.951957,62.8894643 533.926522,62.9 533.9,62.9 C533.8,63 533.7,63.2 533.6,63.3 C533.5,63.4 533.4,63.6 533.3,63.8 C533.183268,64.0424357 533.049604,64.2763479 532.9,64.5 C532.8,64.7 532.6,65 532.5,65.2 C532.4,65.4 532.4,65.4 532.3,65.5 C531.926944,66.1460545 531.59301,66.8139226 531.3,67.5 C531.3,67.6 531.2,67.6 531.2,67.7 C530.9,68.4 530.5,69.2 530.2,69.9 L530.2,70 C528.952393,73.0310097 528.014293,76.1803438 527.4,79.4 C527.4,79.6 527.3,79.8 527.3,80 C527.3,80.2 527.2,80.5 527.1,80.8 C527,81.1 527,81.6 526.9,82 L526.9,82.3 C526.8,82.7 526.8,83.1 526.7,83.5 L526.7,83.5 C526.467282,85.3247486 526.333752,87.1607811 526.3,89 L526.3,89.8 L526.3,89.8 L526.3,92.3 C526.283613,92.6364466 526.317315,92.9734606 526.4,93.3 L526.4,94.8 C526.4,95.3 526.5,95.7 526.5,96.2 L526.5,96.5 C526.485036,96.6409598 526.520463,96.7826655 526.6,96.9 C526.930719,99.5703432 527.465619,102.211411 528.2,104.8 L528.2,104.9 C528.4,105.7 528.7,106.4 528.9,107.2 C528.9,107.3 528.9,107.3 529,107.4 C529.222668,108.115979 529.489855,108.817346 529.8,109.5 C529.8,109.6 529.9,109.7 529.9,109.8 C530.2,110.5 530.4,111.1 530.7,111.8 C530.8,112 530.8,112.1 530.9,112.3 L531.8,114.1 C531.9,114.3 532,114.4 532.1,114.6 C532.373384,115.199861 532.708526,115.769604 533.1,116.3 C533.2,116.5 533.3,116.6 533.4,116.8 C533.707661,117.402738 534.076252,117.972377 534.5,118.5 C534.6,118.6 534.7,118.8 534.8,118.9 L536,120.7 C536.1,120.8 536.1,120.9 536.2,121 C536.2,121.055228 536.244772,121.1 536.3,121.1 L536.4,121.2 C536.8,121.7 537.2,122.2 537.6,122.8 C537.7,123 537.9,123.1 538,123.3 C538.4,123.8 538.9,124.3 539.3,124.8 C539.4,124.9 539.5,125.1 539.7,125.2 C540.2,125.7 540.6,126.2 541.1,126.7 L541.4,127 C541.9,127.5 542.5,128 543,128.5 L543.2,128.7 C543.3,128.8 543.4,128.9 543.5,128.9 L543.6,129 C543.7,129 543.7,129.1 543.8,129.1 C544.186179,129.519013 544.622847,129.888502 545.1,130.2 C545.126522,130.2 545.151957,130.210536 545.170711,130.229289 C545.189464,130.248043 545.2,130.273478 545.2,130.3 C545.3,130.3 545.3,130.4 545.4,130.4 C545.513954,130.523522 545.649512,130.62519 545.8,130.7 C546.1,130.9 546.3,131.1 546.6,131.3 C546.9,131.5 547.1,131.7 547.4,131.9 L547.5,131.9 C547.689723,132.001639 547.859194,132.137215 548,132.3 L549.1,133.1 C549.213954,133.223522 549.349512,133.32519 549.5,133.4 C549.6,133.4 549.6,133.5 549.7,133.5 C549.8,133.5 550,133.7 550.2,133.8 C550.7,134.1 551.1,134.4 551.6,134.7 C551.7,134.8 551.8,134.8 551.9,134.9 C552,135 552.2,135.1 552.4,135.2 C552.978159,135.571213 553.579376,135.905223 554.2,136.2 C554.3,136.3 554.4,136.3 554.6,136.4 C555.3,136.7 555.9,137.1 556.6,137.4 C556.675808,137.410568 556.746061,137.445695 556.8,137.5 C557.5,137.8 558.2,138.2 559,138.5 L559.1,138.5 C561.814762,139.621267 564.626503,140.491568 567.5,141.1 L567.7,141.1 C567.9,141.1 568.1,141.2 568.3,141.2 L568.3,141.2 C568.5,141.2 568.6,141.3 568.8,141.3 C569,141.3 569.4,141.4 569.8,141.5 C569.968486,141.523483 570.135442,141.556874 570.3,141.6 L570.8,141.6 C570.94096,141.585036 571.082665,141.620463 571.2,141.7 L571.3,141.7 C571.8,141.8 572.3,141.8 572.7,141.9 C572.872822,141.884436 573.046458,141.919163 573.2,142 C573.372822,141.984436 573.546458,142.019163 573.7,142.1 L573.8,142.1 C574.2,142.1 574.7,142.2 575.1,142.2 L580.8,142.2 C581.5,142.2 582.3,142.1 583,142.1 C583.3,142.1 583.6,142 583.9,142 L584.2,142 C584.6,142 584.9,141.9 585.3,141.9 C585.5,141.9 585.7,141.8 585.9,141.8 L586.3,141.8 C586.468486,141.776517 586.635442,141.743126 586.8,141.7 C587,141.7 587.2,141.6 587.4,141.6 C587.6,141.6 587.9,141.5 588.1,141.5 L589.6,141.2 L589.7,141.2 L591.1,140.9 C591.3,140.9 591.4,140.8 591.6,140.8 C592.211998,140.680008 592.813794,140.512843 593.4,140.3 C593.62933,140.220043 593.863045,140.153268 594.1,140.1 C594.6,139.9 595.2,139.8 595.7,139.6 C595.92933,139.520043 596.163045,139.453268 596.4,139.4 C597.115979,139.177332 597.817346,138.910145 598.5,138.6 C598.8,138.5 599,138.4 599.3,138.3 C599.6,138.2 600.2,137.9 600.6,137.7 C601,137.5 601.3,137.4 601.7,137.2 C602.1,137 602.4,136.9 602.7,136.7 C603,136.5 603.4,136.3 603.8,136.1 C604.2,135.9 604.4,135.8 604.7,135.6 C604.810257,135.494725 604.949626,135.425041 605.1,135.4 C605.2,135.3 605.3,135.3 605.5,135.2 C605.610257,135.094725 605.749626,135.025041 605.9,135 C606,134.9 606.2,134.8 606.3,134.7 C606.4,134.6 606.5,134.6 606.6,134.5 C606.7,134.4 607,134.2 607.2,134.1 L607.3,134.1 C607.4,134 607.5,134 607.6,133.9 C607.956007,133.700861 608.291034,133.466342 608.6,133.2 L608.6,133.2 C608.710257,133.094725 608.849626,133.025041 609,133 C609.1,133 609.1,132.9 609.2,132.9 C609.3,132.9 609.5,132.7 609.6,132.6 L610.7,131.8 C610.755228,131.8 610.8,131.755228 610.8,131.7 L612.3,130.5 L612.4,130.4 L613.9,129.2 L614,129.1 C614.113954,128.976478 614.249512,128.87481 614.4,128.8 L614.5,128.7 L614.6,128.6 C614.9,128.4 615.1,128.1 615.4,127.9 L615.6,127.7 L616.8,126.5 L617.1,126.2 L618.2,125.1 C618.3,124.9 618.5,124.8 618.6,124.6 C618.9,124.3 619.2,123.9 619.5,123.6 L619.7,123.4 L620.9,121.9 C620.9,121.873478 620.910536,121.848043 620.929289,121.829289 C620.948043,121.810536 620.973478,121.8 621,121.8 C621,121.7 621.1,121.7 621.1,121.6 C621.398882,121.25788 621.666612,120.889751 621.9,120.5 C621.9,120.4 622,120.4 622,120.3 C622,120.244772 622.044772,120.2 622.1,120.2 C622.174928,119.993997 622.315469,119.818321 622.5,119.7 C622.6,119.5 622.8,119.3 622.9,119.1 C623,118.9 623.1,118.8 623.2,118.7 L623.2,118.6 C623.297563,118.378335 623.43291,118.175314 623.6,118 C623.7,117.9 623.7,117.8 623.8,117.7 C624,117.4 624.1,117.2 624.3,116.9 C624.3,116.844772 624.344772,116.8 624.4,116.8 C624.7,116.3 625,115.7 625.3,115.2 C625.3,115.1 625.4,115.1 625.4,115 C625.7,114.5 625.9,114 626.2,113.5 C626.3,113.4 626.3,113.3 626.4,113.1 C626.6,112.6 626.9,112.2 627.1,111.7 L627.4,111.1 C627.608798,110.718886 627.77641,110.316617 627.9,109.9 C627.9,109.8 628,109.8 628,109.7 C628.3,108.9 628.6,108.1 628.9,107.2 L628.9,107.1 C629.1,106.6 629.2,106.2 629.4,105.7 C629.4,105.6 629.5,105.5 629.5,105.4 C629.6,105 629.7,104.7 629.8,104.3 C629.879915,104.070657 629.94669,103.836944 630,103.6 C630.1,103.3 630.1,103.1 630.2,102.8 C630.3,102.5 630.4,102.1 630.5,101.8 C630.6,101.5 630.6,101.5 630.6,101.3 C630.7,100.8 630.8,100.4 630.9,99.9 L630.9,99.8 C631,99.5 631,99.2 631.1,98.9 C631.997982,93.8176862 632.199836,88.6367742 631.7,83.5 L659.1,83.5 C659.2,85.4 659.3,87.4 659.3,89.4 C659.348086,114.508748 647.47227,138.149045 627.3,153.1 C616.726618,161.050629 604.303073,166.178353 591.2,168 C568.534216,171.239614 545.571578,164.556023 528.184836,149.658572 C510.798093,134.761121 500.673338,113.0945 500.4,90.2 C500.1,61.7 514.7,35.4 540.5,20.2 C546.021352,16.9813663 551.937555,14.493872 558.1,12.8 C585.2,5.6 612.2,12.2 632,29.6 L632,29.6 L618.3,43.3 L618.3,43.3 C620.745043,45.2714229 623.050563,47.4098763 625.2,49.7 L625.2,49.7 L638.7,36.2 L638.7,36.2 L645.1,29.8 L645.1,29.8 C628.559721,11.5510336 605.128787,1.06877357 580.5,0.9 C531.8,0.5 491.6,40 491.2,88.7 C490.851195,135.17636 526.555548,173.98354 572.9,177.5 C627.2,181.6 672.7,135.3 667.7,81.1 C667.102035,79.0034408 666.667402,76.8637048 666.4,74.7" id="Shape" fill="#FFFFFF" fill-rule="nonzero"></path>
            <g id="Clipped" transform="translate(491.000000, 0.000000)">
                <mask id="mask-2" fill="white">
                    <use xlink:href="#path-1"></use>
                </mask>
                <g id="Shape"></g>
                <rect id="Rectangle-path" fill="#FC5EBB" fill-rule="nonzero" mask="url(#mask-2)" x="-2.8" y="-1" width="182.2" height="182.2"></rect>
            </g>
            <polygon id="Shape" fill="#FFFFFF" fill-rule="nonzero" points="355.7 64.1 404.4 15.4 404.4 15.4 423.7 34.7 423.7 34.7 380.5 77.9 380.5 77.9 387.2 84.6 387.2 84.6 437.1 34.7 437.1 34.7 434.6 32.2 434.6 32.2 405.3 2.7 405.3 2.7 404.4 1.8 349 57.3 349 57.3 293.5 1.9 293.5 1.9 291 4.4 291 4.4 261.6 33.8 261.6 33.8 260.7 34.7 342.2 116.2 342.2 116.2 293.5 164.9 293.5 164.9 274.2 145.6 274.2 145.6 317.4 102.4 317.4 102.4 310.7 95.7 310.7 95.7 260.7 145.7 260.7 145.7 267.5 152.5 267.5 152.5 292.1 177.1 292.1 177.1 293.5 178.5 293.5 178.5 352.9 119.1 352.9 119.1 355.7 116.3 355.7 116.3 274.2 34.8 274.2 34.8 293.5 15.5 293.5 15.5 342.2 64.2 342.2 64.2 349 71 349 71 423.8 145.8 423.8 145.8 404.5 165.1 404.5 165.1 361.3 121.9 361.3 121.9 354.6 128.6 354.6 128.6 404.6 178.6 404.6 178.6 411.4 171.8 411.4 171.8 436 147.2 436 147.2 437.4 145.8 437.4 145.8 355.7 64.1"></polygon>
            <g id="Clipped" transform="translate(260.000000, 1.000000)">
                <mask id="mask-4" fill="white">
                    <use xlink:href="#path-3"></use>
                </mask>
                <g id="Shape"></g>
                <rect id="Rectangle-path" fill="#FC5EBB" fill-rule="nonzero" mask="url(#mask-4)" x="-2" y="-1.8" width="182" height="182"></rect>
            </g>
            <path d="M163.4,1.8 L135,107.5 L135,107.5 L104.3,89.3 L104.3,89.3 L73.6,107.5 L73.6,107.5 L45.3,1.8 L45.3,1.8 L0.7,13.9 L0.7,13.9 L35,141.4 L35,141.4 L95.5,105.6 L95.5,105.6 L104.3,100.4 L104.3,100.4 L165.1,136.4 L165.1,136.4 L157.7,163.9 L157.7,163.9 L104.3,132.3 L104.3,132.3 L51,164 L51,164 L45.7,144.3 L45.7,144.3 L37.3,149.3 L37.3,149.3 L42.6,169 L42.6,169 L45.2,178.5 L45.2,178.5 L104.4,143.4 L104.4,143.4 L163.6,178.5 L163.6,178.5 L166.2,169 L166.2,169 L176.2,131.9 L176.2,131.9 L167.7,126.9 L143.5,112.5 L143.5,112.5 L170.1,13.4 L170.1,13.4 L196.3,20.5 L196.3,20.5 L169.8,119 L169.8,119 L178.2,124 L178.2,124 L208,13.9 L208,13.9 L163.4,1.8 Z M12.3,20.5 L38.5,13.4 L38.5,13.4 L65.1,112.5 L65.1,112.5 L41,126.9 L41,126.9 L12.3,20.5 Z" id="Shape" fill="#FFFFFF" fill-rule="nonzero"></path>
            <g id="Clipped" transform="translate(0.000000, 1.000000)">
                <mask id="mask-6" fill="white">
                    <use xlink:href="#path-5"></use>
                </mask>
                <g id="Shape"></g>
                <rect id="Rectangle-path" fill="#FC5EBB" fill-rule="nonzero" mask="url(#mask-6)" x="-2" y="-1.9" width="212.7" height="182.1"></rect>
            </g>
        </g>
    </g>
</svg>