<?xml version="1.0" encoding="utf-8"?>
<!-- Generator: Adobe Illustrator 20.0.0, SVG Export Plug-In . SVG Version: 6.00 Build 0)  -->
<svg version="1.1" id="Layer_1" xmlns="http://www.w3.org/2000/svg" xmlns:xlink="http://www.w3.org/1999/xlink" x="0px" y="0px"
	 viewBox="0 0 632.5 334.8" style="enable-background:new 0 0 632.5 334.8;" xml:space="preserve">
<style type="text/css">
	.st0{fill:#23A3D3;}
</style>
<g>
	<path class="st0" d="M441.1,207.5c0.8,0.2,1.6,0.3,2.3,0.3c2.6,0,4.5-1.3,5.1-3.6l47.4-176.8l0.1-0.3L494,0l-15.3,22.5l-47.5,177.1
		c-0.8,3.1,0.7,5.4,4.1,6.3L441.1,207.5z M492,26.8l-41.1,153.3l-1.9-0.5L489.9,27l1.9,0.5L492,26.8L492,26.8z M487.9,16.1l3.4,0.9
		l0.6,8.5l-8.8-2.4L487.9,16.1z M482.1,24.9l1.9,0.5L443.2,178l1.9,0.5L486,25.9l1.9,0.5L447,179.1l-5.8-1.6L482.1,24.9z
		 M440.7,179.5l9.7,2.6l-1.8,6.8l-9.7-2.6L440.7,179.5z M435,200.6l3.3-12.5l9.7,2.6l-3.3,12.5c-0.3,1-2.3,0.5-2.6,0.4l-5.8-1.6
		C434.8,201.7,434.9,201.3,435,200.6z M408,67.3H272c-5.5,0-10,4.5-10,10v212.1c0,5.5,4.5,10,10,10H408c5.5,0,10-4.5,10-10V77.3
		C418,71.8,413.5,67.3,408,67.3z M414,289.3c0,3.3-2.7,6-6,6H272c-3.3,0-6-2.7-6-6V77.3c0-3.3,2.7-6,6-6H408c3.3,0,6,2.7,6,6V289.3z
		 M272,272.3h136v-183H272V272.3z M274,91.3h132v179H274V91.3z M340.2,276.5c-3.7,0-6.8,3-6.8,6.8s3,6.8,6.8,6.8s6.8-3,6.8-6.8
		S343.9,276.5,340.2,276.5z M340.2,288c-2.6,0-4.8-2.1-4.8-4.8s2.1-4.8,4.8-4.8s4.8,2.1,4.8,4.8S342.8,288,340.2,288z M340.2,81.2
		c1.7,0,3-1.3,3-3s-1.3-3-3-3c-1.7,0-3,1.3-3,3S338.6,81.2,340.2,81.2z M340.2,77.2c0.6,0,1,0.4,1,1s-0.4,1-1,1c-0.6,0-1-0.4-1-1
		S339.7,77.2,340.2,77.2z M203.2,66.4c0.6,0,1.2-0.2,1.7-0.5c0.9-0.5,1.5-1.5,1.5-2.6c0-1.7-1.3-3-3-3c-0.6,0-1.2,0.2-1.7,0.5
		c-0.9,0.5-1.5,1.5-1.5,2.6C200.2,65,201.6,66.4,203.2,66.4z M203.2,62.4c0.6,0,1,0.4,1,1c0,0.4-0.2,0.7-0.5,0.8
		c-0.1,0-0.2,0.1-0.4,0.1c-0.6,0-1-0.4-1-1c0-0.4,0.2-0.7,0.5-0.8C203,62.4,203.1,62.4,203.2,62.4z M177.2,65.4
		c0.4,0,0.8-0.1,1.1-0.4c0.6-0.3,1-1,1-1.7c0-1.1-0.9-2-2-2c-0.4,0-0.8,0.1-1.1,0.4c-0.6,0.3-1,1-1,1.7
		C175.2,64.5,176.1,65.4,177.2,65.4z M177.2,62.7c0.4,0,0.7,0.3,0.7,0.7c0,0.2-0.1,0.4-0.3,0.5c-0.1,0-0.1,0-0.2,0
		c-0.4,0-0.7-0.3-0.7-0.7c0-0.2,0.1-0.4,0.3-0.5C177.1,62.7,177.1,62.7,177.2,62.7z M169,199.3h69v-128h-69V199.3z M171,73.3h65v124
		h-65V73.3z M238.6,55.6c-8.4-1.1-21.2-2.4-34.7-2.4c-14.5,0-28.1,1.5-35,2.4c-4.3,0.6-7.8,4.5-7.8,8.8v145.3c0,2.9,2.2,6.6,5.5,7.4
		c4,1,15.6,3.3,37.4,3.3c21.5,0,33.1-2.3,37.1-3.3c3.2-0.8,5.1-4.4,5.1-7.4V64.4C246,60,242.7,56.2,238.6,55.6z M242,209.8
		c0,1.5-1,3.3-2,3.6c-3.8,1-15.1,3.2-36.1,3.2c-21.9,0-33.4-2.5-36.4-3.2c-1.1-0.3-2.4-2.2-2.4-3.6V64.4c0-2.3,2-4.5,4.4-4.8
		c6.8-0.9,20.3-2.3,34.5-2.3c13.3,0,25.9,1.3,34.2,2.3c2.2,0.3,4,2.4,4,4.8V209.8z M125.2,87.3H0v201h21v21l12-12v-9h92.2
		c10.7,0,19.8-9.6,19.8-21v-161C145,95.5,136.5,87.3,125.2,87.3z M18.7,284.3H4v-193h14.7V284.3z M110.9,284.3H21v-193h89.9V284.3z
		 M125,284.3h-11.9v-193H125V284.3z M141,267.4c0,8.3-6,15.5-13.5,16.7V91.5c7.8,1,13.5,7.1,13.5,14.9V267.4z M482.4,326.4
		c0.1,0.5-0.3,1.1-0.8,1.2c-1.4,0.3-2.9,0.4-4.3,0.5c-0.6,0-1.2,0.1-1.9,0.1c0,0,0,0,0,0c-0.5,0-1-0.4-1-1c0-0.6,0.4-1,1-1
		c0.6,0,1.2,0,1.8-0.1c1.4-0.1,2.7-0.3,4.1-0.5C481.8,325.5,482.3,325.9,482.4,326.4z M488.6,208.3c-11.6,0-22.5,4.5-30.8,12.7
		c-8.2,8.2-12.7,19.1-12.7,30.8c0,11.6,4.5,22.5,12.7,30.8c8.5,8.5,19.6,12.7,30.8,12.7c11.1,0,22.3-4.2,30.8-12.7
		c17-17,17-44.6,0-61.5C511.2,212.8,500.3,208.3,488.6,208.3z M460.1,280.3c-7.6-7.6-11.8-17.8-11.8-28.6c0-10.8,4.2-20.9,11.8-28.6
		c7.6-7.6,17.8-11.8,28.6-11.8c10.8,0,20.9,4.2,28.6,11.8c0.2,0.2,0.3,0.3,0.5,0.5c-1.1,0.8-2.1,1.8-2.8,3.2
		c-2.7,5.1,0.4,9,3.5,12.7c3.4,4,6.5,7.8,3.3,13.8c-3.6,6.6-12.9,8.9-21.2,11c-7.3,1.8-13.6,3.4-15.8,7.5c-1.2,2.2-1.4,4.6-0.6,7.1
		c1.2,3.8,4.7,7.3,9.9,9.8c1.7,0.8,3.5,1.5,5.3,2C485.7,294.4,470.7,290.9,460.1,280.3z M517.2,280.3c-4.2,4.2-9.1,7.3-14.4,9.2
		c-2.7-0.5-5.4-1.4-8-2.7c-4.7-2.2-7.8-5.3-8.9-8.6c-0.6-1.9-0.5-3.8,0.4-5.5c1.8-3.4,8-4.9,14.5-6.5c8.6-2.1,18.4-4.6,22.5-12
		c3.9-7.1-0.1-11.8-3.5-16c-2.9-3.5-5.4-6.5-3.3-10.4c0.6-1.2,1.5-2.1,2.4-2.7C532.9,241.1,532.3,265.3,517.2,280.3z M632.5,51.5
		v-7.9l-17.9,3.4h-83.1v15.7l-32.4,6.1l24.3,127.8l-7.8,7.8c-8.1-4.6-17.3-7.1-26.9-7.1c-14.6,0-28.2,5.7-38.5,16
		c-10.3,10.3-16,24-16,38.5c0,8.1,1.8,15.9,5.1,23c-3.4,8.2-4,17.2-1.4,25.8c2.9,9.9,9.5,18,18.5,22.9c0.5,0.3,1.1,0.1,1.4-0.4
		c0.3-0.5,0.1-1.1-0.4-1.4c-8.6-4.7-14.8-12.4-17.6-21.7c-2.2-7.6-2-15.5,0.7-22.9c2.5,4.8,5.8,9.2,9.7,13.1
		c10.3,10.3,24,16,38.5,16c7.1,0,13.9-1.3,20.3-3.9c-0.6,1.6-1.3,3.2-2.1,4.8c-4.2,7.7-11,13.6-19.2,16.7c-0.5,0.2-0.8,0.8-0.6,1.3
		c0.2,0.4,0.5,0.6,0.9,0.6c0.1,0,0.2,0,0.4-0.1c8.6-3.3,15.8-9.5,20.2-17.6c1.2-2.2,2.1-4.5,2.9-6.8c5.8-2.7,11.1-6.4,15.8-11
		c1.5-1.5,3-3.2,4.3-4.9v32.2h14.9l3.2,17l82.9-15.7v-5.5h-96.9v-34c2-3.4,3.6-7,4.9-10.7h25v7h-27v1h27v7h-14.9
		c-0.8-0.6-1.8-1-2.9-1s-2.1,0.4-2.9,1h-6.3v1h5.3c-0.7,0.8-1.1,1.9-1.1,3c0,1.6,0.8,3,2,4h-6.2v1h8.7c0.2,0,0.3,0,0.5,0
		s0.3,0,0.5,0h17.3v7h-27v1h27v7h2v-7h65v-1h-65v-7h65v-1h-65v-7h65v-1h-65v-7h65v-1h-65v-7h65v-1h-65v-7h65v-1h-65v-7h65v-1h-65v-7
		h65v-1h-65v-7h65v-1h-65v-7h65v-1h-65v-7h65v-1h-65v-7h65v-1h-65v-7h65v-1h-65v-7h65v-1h-65v-7h65v-1h-65v-7h65v-1h-65v-7h65v-1
		h-65v-7h65v-1h-65v-7h65v-1h-65v-7h65v-1h-65v-7h65v-1h-65v-7h65v-1h-65v-7h65v-1h-65v-7h65v-1h-65v-7h65v-1h-65v-7h65v-1h-65v-7
		h65v-1h-65v-7h65v-1h-65v-7h65v-1h-65v-19h-2v19h-12.9c0.1-0.3,0.1-0.6,0.1-1c0-2.8-2.2-5-5-5s-5,2.2-5,5c0,0.3,0,0.6,0.1,1h-4.3v1
		h4.6c0.8,1.8,2.5,3,4.6,3s3.8-1.3,4.6-3h13.2v7h-27v1h27v7h-27v1h27v7h-27v1h27v7h-27v1h27v7h-27v1h27v7h-27v1h27v7h-27v1h27v7h-27
		v1h27v7h-27v1h27v7h-27v1h27v7h-27v1h27v7h-27v1h27v7h-13.1c-0.7-2-2.5-3.5-4.7-3.5s-4.1,1.5-4.7,3.5h-4.5v1h4.3
		c0,0.2-0.1,0.4-0.1,0.5c0,2.8,2.2,5,5,5s5-2.2,5-5c0-0.2,0-0.4-0.1-0.5h12.8v7h-27v1h27v7h-27v0.5l-1.8-1.8c-0.4-0.4-0.8-0.7-1.2-1
		V51.5H632.5z M616.8,317.7l-64,12.1l-2.3-12.1H616.8z M547.7,290.9c-1.7,0-3-1.3-3-3c0-1.7,1.3-3,3-3c1.7,0,3,1.3,3,3
		C550.7,289.5,549.3,290.9,547.7,290.9z M565.5,291.8h-14.8c1.2-0.9,2-2.3,2-4c0-1.2-0.4-2.2-1.1-3h13.9V291.8z M547.7,77.9
		c-1.7,0-3-1.3-3-3s1.3-3,3-3c1.7,0,3,1.3,3,3S549.3,77.9,547.7,77.9z M547.7,184.4c-1.7,0-3-1.3-3-3s1.3-3,3-3c1.7,0,3,1.3,3,3
		S549.3,184.4,547.7,184.4z M504,72.4l27.5-5.2v24.6l-20.1,3.8l0.2,1l19.9-3.8v7.1l-18.6,3.5l0.2,1l18.4-3.5v7.1l-17.1,3.2l0.2,1
		l16.9-3.2v7.1l-15.6,3l0.2,1l15.4-2.9v7.1l-14.1,2.7l0.2,1l13.9-2.6v7.1l-12.6,2.4l0.2,1l12.5-2.4v7.1l-11.1,2.1l0.2,1l11-2.1v7.1
		l-9.7,1.8l0.2,1l9.5-1.8v7.1l-8.2,1.5l0.2,1l8-1.5v7.1l-6.7,1.3l0.2,1l6.5-1.2v7.1l-5.2,1l0.2,1l5-0.9v7.1l-3.7,0.7l0.2,1l3.5-0.7
		v7.1l-2.2,0.4l0.2,1l2-0.4v1.7c-0.1,0-0.3,0-0.4,0c-1.5,0-2.9,0.4-4.1,1.2L504,72.4z M524.3,287.5c-9.5,9.5-22.2,14.8-35.7,14.8
		s-26.2-5.3-35.7-14.8s-14.8-22.2-14.8-35.7s5.3-26.2,14.8-35.7s22.2-14.8,35.7-14.8s26.2,5.3,35.7,14.8s14.8,22.2,14.8,35.7
		S533.9,278,524.3,287.5z M565.5,267.8h-24.7c0.7-2.3,1.2-4.6,1.6-7h23.1V267.8z M565.5,259.8h-22.9c0.3-2.3,0.5-4.6,0.6-7h22.4
		V259.8z M565.5,251.8h-22.3c0,0,0,0,0,0c0-2.4-0.2-4.7-0.5-7h22.8V251.8z M565.5,243.8h-22.9c-0.3-2.4-0.9-4.7-1.5-7h24.4V243.8z
		 M565.5,219.8h-27v1h27v7h-27v1h27v7h-24.7c-1.3-4.1-3-8.1-5.2-11.8v-5.7l5.5-5.5h24.4V219.8z M565.5,211.8h-23.4l0.3-0.3h0
		c1.8-1.8,2.6-4.3,2.3-6.7h20.8V211.8z M565.5,196.8v7h-21c-0.3-1.3-1-2.6-2.1-3.6l-3.4-3.4H565.5z M539.5,203
		c1.6,1.6,1.6,4.1,0,5.7h0l-8.7,8.7c-1.2-1.4-2.4-2.8-3.7-4.1c-2.5-2.5-5.2-4.8-8.1-6.7l9.2-9.2c0.8-0.8,1.8-1.2,2.8-1.2
		c1.1,0,2.1,0.4,2.8,1.2L539.5,203z"/>
</g>
</svg>
