<?xml version="1.0" encoding="UTF-8"?>
<svg width="586px" height="588px" viewBox="0 0 586 588" version="1.1" xmlns="http://www.w3.org/2000/svg" xmlns:xlink="http://www.w3.org/1999/xlink">
    <!-- Generator: Sketch 45.2 (43514) - http://www.bohemiancoding.com/sketch -->
    <title>fintech-paths</title>
    <desc>Created with Sketch.</desc>
    <defs></defs>
    <g id="Page-1" stroke="none" stroke-width="1" fill="none" fill-rule="evenodd">
        <g id="fintech-paths" transform="translate(-433.000000, -259.000000)" stroke-width="15">
            <g transform="translate(440.000000, 259.000000)">
                <path d="M433,358.3126 L460.562,358.3126 C480.826,358.3126 497.313,374.7986 497.313,395.0626 L497.313,523.6876" id="Stroke-1" stroke="#204B70"></path>
                <path d="M525.5,551.5 C525.5,566.964 512.964,579.5 497.5,579.5 C482.036,579.5 469.5,566.964 469.5,551.5 C469.5,536.036 482.036,523.5 497.5,523.5 C512.964,523.5 525.5,536.036 525.5,551.5 Z" id="Stroke-3" stroke="#204B70"></path>
                <polyline id="Stroke-5" stroke="#143A5A" points="313.5625 257.2501 267.6245 257.2501 267.6245 284.8121 304.3745 303.1881 304.3745 330.7501 258.4375 330.7501"></polyline>
                <path d="M138.5,358.3126 L110.938,358.3126 C90.674,358.3126 74.187,374.7986 74.187,395.0626 L74.187,523.6876" id="Stroke-7" stroke="#204B70"></path>
                <path d="M74,523.5 C89.464,523.5 102,536.036 102,551.5 C102,566.964 89.464,579.5 74,579.5 C58.536,579.5 46,566.964 46,551.5 C46,536.036 58.536,523.5 74,523.5 Z" id="Stroke-9" stroke="#204B70"></path>
                <path d="M433,229.5001 L460.562,229.5001 C480.826,229.5001 497.313,213.0141 497.313,192.7501 L497.313,64.1251" id="Stroke-11" stroke="#204B70"></path>
                <path d="M497.5,64.3126 C482.036,64.3126 469.5,51.7766 469.5,36.3126 C469.5,20.8486 482.036,8.3126 497.5,8.3126 C512.964,8.3126 525.5,20.8486 525.5,36.3126 C525.5,51.7766 512.964,64.3126 497.5,64.3126 Z" id="Stroke-13" stroke="#204B70"></path>
                <path d="M138.5,229.5001 L110.938,229.5001 C90.674,229.5001 74.187,213.0141 74.187,192.7501 L74.187,64.1251" id="Stroke-15" stroke="#204B70"></path>
                <path d="M46,36.3126 C46,20.8486 58.536,8.3126 74,8.3126 C89.464,8.3126 102,20.8486 102,36.3126 C102,51.7766 89.464,64.3126 74,64.3126 C58.536,64.3126 46,51.7766 46,36.3126 Z" id="Stroke-17" stroke="#204B70"></path>
                <path d="M470.4062,293.8438 L515.0312,293.8438" id="Stroke-19" stroke="#204B70"></path>
                <path d="M542.8437,265.6563 C558.3077,265.6563 570.8437,278.1923 570.8437,293.6563 C570.8437,309.1203 558.3077,321.6563 542.8437,321.6563 C527.3797,321.6563 514.8437,309.1203 514.8437,293.6563 C514.8437,278.1923 527.3797,265.6563 542.8437,265.6563 Z" id="Stroke-21" stroke="#204B70"></path>
                <path d="M434.5,293.7999 L449.5,293.7999" id="Stroke-23" stroke="#204B70"></path>
                <path d="M100.9375,293.8438 L56.3125,293.8438" id="Stroke-25" stroke="#204B70"></path>
                <path d="M56.5,293.6563 C56.5,309.1203 43.964,321.6563 28.5,321.6563 C13.036,321.6563 0.5,309.1203 0.5,293.6563 C0.5,278.1923 13.036,265.6563 28.5,265.6563 C43.964,265.6563 56.5,278.1923 56.5,293.6563 Z" id="Stroke-27" stroke="#204B70"></path>
                <path d="M136.8437,293.7999 L121.8437,293.7999" id="Stroke-29" stroke="#204B70"></path>
                <path d="M285.5,173.5001 C351.774,173.5001 405.5,227.2261 405.5,293.5001 C405.5,359.7741 351.774,413.5001 285.5,413.5001 C219.226,413.5001 165.5,359.7741 165.5,293.5001 C165.5,227.2261 219.226,173.5001 285.5,173.5001 Z" id="Stroke-31" stroke="#143A5A"></path>
                <path d="M239.8125,587.8751 L239.8125,506.2501" id="Stroke-33" stroke="#204B70"></path>
                <path d="M211.625,478.4375 C211.625,462.9735 224.161,450.4375 239.625,450.4375 C255.089,450.4375 267.625,462.9735 267.625,478.4375 C267.625,493.9015 255.089,506.4375 239.625,506.4375 C224.161,506.4375 211.625,493.9015 211.625,478.4375 Z" id="Stroke-35" stroke="#204B70"></path>
                <path d="M423.5,406.0001 L423.5,421.0001" id="Stroke-37" stroke="#204B70"></path>
                <path d="M423.499,440.9981 L423.499,550.9981" id="Stroke-39" stroke="#204B70"></path>
                <path d="M423.5,571.0001 L423.5,586.0001" id="Stroke-41" stroke="#204B70"></path>
                <path d="M148,405.0001 L148,420.0001" id="Stroke-43" stroke="#204B70"></path>
                <path d="M148,441.0001 L148,456.0001" id="Stroke-45" stroke="#204B70"></path>
                <path d="M148,478 L148,588" id="Stroke-47" stroke="#204B70"></path>
                <path d="M332,443.0001 L332,458.0001" id="Stroke-49" stroke="#204B70"></path>
                <path d="M332,480 L332,495" id="Stroke-51" stroke="#204B70"></path>
                <path d="M332,515 L332,588" id="Stroke-53" stroke="#204B70"></path>
                <path d="M423.4844,37.0001 L423.4844,117.0161" id="Stroke-55" stroke="#204B70"></path>
                <path d="M451.6719,144.8282 C451.6719,160.2922 439.1359,172.8282 423.6719,172.8282 C408.2079,172.8282 395.6719,160.2922 395.6719,144.8282 C395.6719,129.3642 408.2079,116.8282 423.6719,116.8282 C439.1359,116.8282 451.6719,129.3642 451.6719,144.8282 Z" id="Stroke-57" stroke="#204B70"></path>
                <path d="M423.5283,0.4844 L423.5283,15.4844" id="Stroke-59" stroke="#204B70"></path>
                <path d="M147.4844,37.0001 L147.4844,117.0161" id="Stroke-61" stroke="#204B70"></path>
                <path d="M175.6719,144.8282 C175.6719,160.2922 163.1359,172.8282 147.6719,172.8282 C132.2079,172.8282 119.6719,160.2922 119.6719,144.8282 C119.6719,129.3642 132.2079,116.8282 147.6719,116.8282 C163.1359,116.8282 175.6719,129.3642 175.6719,144.8282 Z" id="Stroke-63" stroke="#204B70"></path>
                <path d="M147.5283,0.4844 L147.5283,15.4844" id="Stroke-65" stroke="#204B70"></path>
                <path d="M332,1.0001 L332,16.0001" id="Stroke-67" stroke="#204B70"></path>
                <path d="M332,38.0001 L332,53.0001" id="Stroke-69" stroke="#204B70"></path>
                <path d="M332,73.0001 L332,146.0001" id="Stroke-71" stroke="#204B70"></path>
                <path d="M240,0.0001 L240,110.0001" id="Stroke-73" stroke="#204B70"></path>
                <path d="M240,131.0001 L240,146.0001" id="Stroke-75" stroke="#204B70"></path>
                <path d="M285.5,330.0001 L285.5,358.0001" id="Stroke-77" stroke="#143A5A"></path>
                <path d="M285.5,230.0001 L285.5,258.0001" id="Stroke-79" stroke="#143A5A"></path>
                <path d="M343,293.5001 L358,293.5001" id="Stroke-81" stroke="#204B70"></path>
                <path d="M214,293.5001 L229,293.5001" id="Stroke-83" stroke="#204B70"></path>
            </g>
        </g>
    </g>
</svg>