<?xml version="1.0" encoding="utf-8"?>
<svg id="Layer_1" style="enable-background:new 0 0 160 240;" x="0px" y="0px" viewBox="0 0 160 240" xmlns="http://www.w3.org/2000/svg">
  <defs>
    <style type="text/css">
	.st0{fill-rule:evenodd;clip-rule:evenodd;fill:#343434;}
	.st1{fill:#FFFFFF;}
</style>
  </defs>
  <g id="location" transform="matrix(0.566064, 0, 0, 0.566064, 1, 0)">
    <g>
      <path class="st0" d="M278,139C278,62.2,215.8,0,139,0S0,62.2,0,139c0,21.7,5,42.3,13.9,60.7h0l96.3,200.7h0&#10;&#9;&#9;&#9;c4.5,11.5,15.7,19.7,28.8,19.7s24.3-8.2,28.8-19.7h0l95.8-199.7l0,0C272.8,182,278,161.1,278,139z"/>
    </g>
  </g>
  <g transform="matrix(0.527765, 0, 0, 0.527765, 4.244444, 26.879797)">
    <path class="st1" d="M91.8,210.8v-33H78.4v33H68.3v-72.7h10.1v31.3h13.5v-31.3h10.1v72.7H91.8z"/>
    <path class="st1" d="M108.8,210.8v-72.7h27.4v8.4h-17.3v22.8h16.3v8.2h-16.3v24.7h17.3v8.4H108.8z"/>
    <path class="st1" d="M164.7,210.8c-0.9-2.3-1.1-6.1-1.1-9.5l-0.1-13.1c-0.1-7.5-2.6-9.4-7.3-9.4h-5.5v31.9h-10.1v-72.7H158&#10;&#9;&#9;c10.8,0,16.5,4,16.5,19c0,14.8-4.8,15.7-11.2,17.6c5.2,0.9,10.1,1.8,10.2,12.5l0.1,13.3c0,2.5,0.2,6.6,1,10.4H164.7z M156.5,146.3&#10;&#9;&#9;h-5.9v24.4h5.8c5.3,0,7.8-3,7.8-13.6C164.3,148.4,161.9,146.3,156.5,146.3z"/>
    <path class="st1" d="M180.3,210.8v-72.7h27.4v8.4h-17.3v22.8h16.3v8.2h-16.3v24.7h17.3v8.4H180.3z"/>
  </g>
  <g transform="matrix(0.694062, 0, 0, 0.694062, -17.183372, -2.110979)">
    <path class="st1" d="M98.6,124.1h-7.7l-4.5-36.9l-4.7,36.9h-7.7l-7.4-43.6h6.3l4.9,37l4.5-37h8.4l4.3,37l5-37h5.7L98.6,124.1z"/>
    <path class="st1" d="M108.4,124.1V80.5h16.4v5.1h-10.4v13.7h9.8v4.9h-9.8V119h10.4v5.1H108.4z"/>
    <path class="st1" d="M157.8,124.1l-2-11.1h-9.2l-2,11.1h-6l9.4-43.6h7.4l8.7,43.6H157.8z M151.4,86.9l-3.9,21h7.4L151.4,86.9z"/>
    <path class="st1" d="M181,124.1c-0.5-1.4-0.7-3.7-0.7-5.7l-0.1-7.8c-0.1-4.5-1.6-5.6-4.4-5.6h-3.3v19.1h-6V80.5H177&#10;&#9;&#9;c6.5,0,9.9,2.4,9.9,11.4c0,8.9-2.9,9.4-6.7,10.6c3.1,0.5,6,1.1,6.1,7.5l0.1,8c0,1.5,0.1,4,0.6,6.2H181z M176.1,85.4h-3.6V100h3.5&#10;&#9;&#9;c3.2,0,4.7-1.8,4.7-8.1C180.8,86.6,179.3,85.4,176.1,85.4z"/>
    <path class="st1" d="M190.6,124.1V80.5H207v5.1h-10.4v13.7h9.8v4.9h-9.8V119H207v5.1H190.6z"/>
  </g>
</svg>