<?xml version="1.0" encoding="UTF-8"?>
<svg width="310px" height="100px" viewBox="0 0 310 100" version="1.1" xmlns="http://www.w3.org/2000/svg" xmlns:xlink="http://www.w3.org/1999/xlink">
    <!-- Generator: Sketch 43.2 (39069) - http://www.bohemiancoding.com/sketch -->
    <title>logo-80205957</title>
    <desc>Created with Sketch.</desc>
    <defs></defs>
    <g id="Page-1" stroke="none" stroke-width="1" fill="none" fill-rule="evenodd">
        <g id="logo-80205957" fill-rule="nonzero" fill="#CCCE04">
            <polygon id="Shape" points="100 100 0 100 0 0 30 0 30 70 35 70 35 0 65 0 65 70 70 70 70 0 100 0"></polygon>
            <polygon id="Shape" points="205 0 105 0 105 100 135 100 135 30 140 30 140 100 170 100 170 30 175 30 175 100 205 100"></polygon>
            <polygon id="Shape" points="310 100 210 100 210 0 310 0 310 30 240 30 240 70 280 70 280 65 245 65 245 35 310 35"></polygon>
        </g>
    </g>
</svg>